<svg xmlns="http://www.w3.org/2000/svg" viewBox="0 0 118.03 118.03"><title>accom-find</title><g style="isolation:isolate"><path d="M147.65,44.83a59,59,0,1,0,59,59A59,59,0,0,0,147.65,44.83Zm1.65,22.84a7.52,7.52,0,1,1-7.52,7.52A7.52,7.52,0,0,1,149.3,67.67Zm8.38,28.66a2.38,2.38,0,0,0-2.38,2.38v1h0V130h0a9.17,9.17,0,0,1-18.1,1.92,2.37,2.37,0,0,0,3.75-1.94v-1h0V98.69h0a9.17,9.17,0,0,1,18.1-1.92A2.36,2.36,0,0,0,157.68,96.33Z" transform="translate(-88.63 -44.83)" fill="#d7afdf"/><path d="M149.14,44.87V67.68h.16a7.52,7.52,0,1,1,0,15h-.16v7a9.15,9.15,0,0,1,9.91,7,2.37,2.37,0,0,0-3.75,1.94v1h0V130h0a9.17,9.17,0,0,1-6.16,8.51v24.34a59,59,0,0,0,0-118Z" transform="translate(-88.63 -44.83)" fill="#b578c3" style="mix-blend-mode:multiply"/></g></svg>