<svg id="Layer_1" data-name="Layer 1" xmlns="http://www.w3.org/2000/svg" xmlns:xlink="http://www.w3.org/1999/xlink" width="289" height="276" viewBox="0 0 289 276"><defs><style>.cls-1{fill:url(#linear-gradient);}.cls-2{fill:#7b585b;}.cls-3{fill:#8f7172;}.cls-4{fill:#5d5876;}.cls-5{fill:#afbbc3;}.cls-6{fill:#756f88;}.cls-7{fill:#d7e8f2;}.cls-8{fill:url(#linear-gradient-2);}</style><linearGradient id="linear-gradient" x1="144.5" y1="276" x2="144.5" gradientUnits="userSpaceOnUse"><stop offset="0.32" stop-color="#fff"/><stop offset="1" stop-color="#ade1f9"/></linearGradient><linearGradient id="linear-gradient-2" x1="73.33" y1="76.82" x2="73.33" y2="24.31" gradientUnits="userSpaceOnUse"><stop offset="0" stop-color="#fff"/><stop offset="1" stop-color="#fff"/></linearGradient></defs><title>accomodation</title><rect class="cls-1" width="289" height="276" rx="11.34" ry="11.34"/><rect class="cls-2" x="103.04" y="90.58" width="111.61" height="28.14" rx="6.21" ry="6.21"/><path class="cls-3" d="M158.48,90.58H109.25A6.21,6.21,0,0,0,103,96.79v15.72a6.21,6.21,0,0,0,6.21,6.21h49.23V90.58Z"/><rect class="cls-2" x="83.65" y="152.86" width="150.39" height="28.14" rx="6.21" ry="6.21"/><path class="cls-4" d="M229,166.3H88.67a6.7,6.7,0,0,1-6.12-9.45L100.48,117a6.7,6.7,0,0,1,6.12-4h104.5a6.7,6.7,0,0,1,6.12,4l17.93,39.89A6.7,6.7,0,0,1,229,166.3Z"/><path class="cls-5" d="M164.58,117.43h43.8a3.26,3.26,0,0,0,3.24-3.61l-1.68-15.44a3.26,3.26,0,0,0-3.24-2.9H164.58a3.26,3.26,0,0,0-3.26,3.26v15.44A3.26,3.26,0,0,0,164.58,117.43Z"/><path class="cls-3" d="M158.48,152.86H89.86a6.21,6.21,0,0,0-6.21,6.21v15.72A6.21,6.21,0,0,0,89.86,181h68.62V152.86Z"/><path class="cls-6" d="M158.48,113H106.59a6.7,6.7,0,0,0-6.12,4L82.55,156.85a6.7,6.7,0,0,0,6.12,9.45h69.81V113Z"/><path class="cls-7" d="M153.1,117.43H109.3a3.26,3.26,0,0,1-3.24-3.61l1.68-15.44a3.26,3.26,0,0,1,3.24-2.9H153.1a3.26,3.26,0,0,1,3.26,3.26v15.44A3.26,3.26,0,0,1,153.1,117.43Z"/><rect class="cls-8" x="53.27" y="24.31" width="40.12" height="52.51"/><rect class="cls-4" x="55.96" y="51.97" width="34.73" height="21.26"/><rect class="cls-4" x="55.96" y="27.57" width="15.71" height="21.26"/><rect class="cls-4" x="74.82" y="27.57" width="15.87" height="21.26"/></svg>