<svg xmlns="http://www.w3.org/2000/svg" viewBox="0 0 166.7 131.69"><title>accom-advice</title><g style="isolation:isolate"><g id="Layer_1" data-name="Layer 1"><path d="M226.24,94.81A37.32,37.32,0,0,0,220.42,75l.2.3c-12.4-24.12-42.42-41.14-77.49-41.14C97,34.14,59.55,63.62,59.55,100S97,165.83,143.13,165.83A102,102,0,0,0,180.3,159c-11.86-3.14-20.45-10.83-21.3-20a71.63,71.63,0,0,0,10.47.78C200.82,139.77,226.24,119.64,226.24,94.81Z" transform="translate(-59.55 -34.14)" fill="#9986a6"/><path d="M225.76,100.61H59.57c.43,36.07,37.67,65.22,83.56,65.22A102,102,0,0,0,180.3,159c-11.86-3.14-20.45-10.83-21.3-20a71.63,71.63,0,0,0,10.47.78C198.34,139.77,222.16,122.7,225.76,100.61Z" transform="translate(-59.55 -34.14)" fill="#88a59e"/><path d="M226.22,95.47H59.76c-.13,1.49-.22,3-.22,4.51,0,.35,0,.7,0,1H225.69A36.06,36.06,0,0,0,226.22,95.47Z" transform="translate(-59.55 -34.14)" fill="#b5dcd3"/><rect x="66.47" y="37.51" width="35.09" height="17.45" rx="3.85" ry="3.85" fill="#7b585b"/><rect x="54.45" y="76.12" width="59.14" height="17.45" rx="3.85" ry="3.85" fill="#7b585b"/><path d="M170,118.59H117.11a4.16,4.16,0,0,1-3.79-5.86L124.43,88a4.16,4.16,0,0,1,3.79-2.45h30.69A4.16,4.16,0,0,1,162.7,88l11.11,24.73A4.16,4.16,0,0,1,170,118.59Z" transform="translate(-59.55 -34.14)" fill="#5d5876"/><path d="M159,86l-1-9.57a2,2,0,0,0-2-1.8H131.14a2,2,0,0,0-2,1.8l-1,9.57a2,2,0,0,0,2,2.24h27A2,2,0,0,0,159,86Z" transform="translate(-59.55 -34.14)" fill="#fff"/><path d="M173.82,112.73,162.7,88A4.14,4.14,0,0,0,161,86.12a3.85,3.85,0,0,0,.11-.88V75.5a3.85,3.85,0,0,0-3.85-3.85H143.59V127.7h25.69a3.85,3.85,0,0,0,3.85-3.85v-6.67A4.13,4.13,0,0,0,173.82,112.73Z" transform="translate(-59.55 -34.14)" fill="#484759" opacity="0.54" style="mix-blend-mode:multiply"/><path d="M95.1,46.11V66.52h23.36V37.05A94,94,0,0,0,95.1,46.11Z" transform="translate(-59.55 -34.14)" fill="#fff"/><rect x="37.12" y="17.92" width="20.23" height="12.38" fill="#5d5876"/><path d="M96.66,45.25v5h9.15V41.06A91.14,91.14,0,0,0,96.66,45.25Z" transform="translate(-59.55 -34.14)" fill="#5d5876"/><path d="M107.65,50.22h9.24V37.84h-1.41q-4,1.11-7.83,2.52Z" transform="translate(-59.55 -34.14)" fill="#5d5876"/></g></g></svg>