<svg xmlns="http://www.w3.org/2000/svg" xmlns:xlink="http://www.w3.org/1999/xlink" viewBox="0 0 176.14 131.69"><defs><clipPath id="a" transform="translate(-55.66 -34.14)"><path d="M226.24,94.81A37.32,37.32,0,0,0,220.42,75l.2.3c-12.4-24.12-42.42-41.14-77.49-41.14C97,34.14,59.55,63.62,59.55,100S97,165.83,143.13,165.83A102,102,0,0,0,180.3,159c-11.86-3.14-20.45-10.83-21.3-20a71.63,71.63,0,0,0,10.47.78C200.82,139.77,226.24,119.64,226.24,94.81Z" fill="none"/></clipPath><linearGradient id="b" x1="51.12" y1="32.39" x2="51.12" y2="1.81" gradientUnits="userSpaceOnUse"><stop offset="0" stop-color="#fff"/><stop offset="1" stop-color="#fff"/></linearGradient></defs><title>accom-advice</title><g style="isolation:isolate"><g clip-path="url(#a)"><path d="M226.24,94.81A37.32,37.32,0,0,0,220.42,75l.2.3c-12.4-24.12-42.42-41.14-77.49-41.14C97,34.14,59.55,63.62,59.55,100S97,165.83,143.13,165.83A102,102,0,0,0,180.3,159c-11.86-3.14-20.45-10.83-21.3-20a71.63,71.63,0,0,0,10.47.78C200.82,139.77,226.24,119.64,226.24,94.81Z" transform="translate(-55.66 -34.14)" fill="#9986a6"/><path d="M225.76,100.61H59.57c.43,36.07,37.67,65.22,83.56,65.22A102,102,0,0,0,180.3,159c-11.86-3.14-20.45-10.83-21.3-20a71.63,71.63,0,0,0,10.47.78C198.34,139.77,222.16,122.7,225.76,100.61Z" transform="translate(-55.66 -34.14)" fill="#88a59e"/><rect y="61.33" width="176.14" height="5.56" fill="#b5dcd3"/><rect x="70.36" y="37.51" width="35.09" height="17.45" rx="3.85" ry="3.85" fill="#7b585b"/><rect x="58.34" y="76.12" width="59.14" height="17.45" rx="3.85" ry="3.85" fill="#7b585b"/><path d="M170,118.59H117.11a4.16,4.16,0,0,1-3.79-5.86L124.43,88a4.16,4.16,0,0,1,3.79-2.45h30.69A4.16,4.16,0,0,1,162.7,88l11.11,24.73A4.16,4.16,0,0,1,170,118.59Z" transform="translate(-55.66 -34.14)" fill="#5d5876"/><path d="M159,86l-1-9.57a2,2,0,0,0-2-1.8H131.14a2,2,0,0,0-2,1.8l-1,9.57a2,2,0,0,0,2,2.24h27A2,2,0,0,0,159,86Z" transform="translate(-55.66 -34.14)" fill="#fff"/><path d="M173.82,112.73,162.7,88A4.14,4.14,0,0,0,161,86.12a3.85,3.85,0,0,0,.11-.88V75.5a3.85,3.85,0,0,0-3.85-3.85H143.59V127.7h25.69a3.85,3.85,0,0,0,3.85-3.85v-6.67A4.13,4.13,0,0,0,173.82,112.73Z" transform="translate(-55.66 -34.14)" fill="#484759" opacity="0.54" style="mix-blend-mode:multiply"/><rect x="39.44" y="1.81" width="23.36" height="30.58" fill="url(#b)"/><rect x="41.01" y="17.92" width="20.23" height="12.38" fill="#5d5876"/><rect x="41.01" y="3.71" width="9.15" height="12.38" fill="#5d5876"/><rect x="51.99" y="3.71" width="9.24" height="12.38" fill="#5d5876"/></g></g></svg>