<?xml version="1.0" encoding="utf-8"?>
<!-- Generator: Adobe Illustrator 16.0.0, SVG Export Plug-In . SVG Version: 6.00 Build 0)  -->
<!DOCTYPE svg PUBLIC "-//W3C//DTD SVG 1.1//EN" "http://www.w3.org/Graphics/SVG/1.1/DTD/svg11.dtd">
<svg version="1.1" id="Layer_1" xmlns="http://www.w3.org/2000/svg" xmlns:xlink="http://www.w3.org/1999/xlink" x="0px" y="0px"
	 width="176.14px" height="131.69px" viewBox="0 0 176.14 131.69" enable-background="new 0 0 176.14 131.69" xml:space="preserve">
<g>
	<defs>
		<rect id="SVGID_1_" width="176.14" height="131.69"/>
	</defs>
	<clipPath id="SVGID_2_">
		<use xlink:href="#SVGID_1_"  overflow="visible"/>
	</clipPath>
	<g clip-path="url(#SVGID_2_)">
		<defs>
			<path id="SVGID_3_" d="M87.47,0C41.31,0,3.89,29.48,3.89,65.84c0,36.37,37.42,65.85,83.58,65.85c13.36,0,25.98-2.47,37.17-6.86
				c-11.86-3.14-20.45-10.83-21.3-19.98c3.4,0.5,6.89,0.78,10.47,0.78c31.36,0,56.78-20.13,56.78-44.96c0-7.12-2.1-13.85-5.83-19.84
				c0.06,0.1,0.13,0.2,0.2,0.3C152.55,17.02,122.54,0,87.47,0z"/>
		</defs>
		<clipPath id="SVGID_4_">
			<use xlink:href="#SVGID_3_"  overflow="visible"/>
		</clipPath>
		<path clip-path="url(#SVGID_4_)" fill="#9986A6" d="M170.59,60.67c0-7.12-2.1-13.85-5.83-19.84c0.06,0.1,0.13,0.2,0.2,0.3
			C152.55,17.02,122.54,0,87.47,0C41.31,0,3.89,29.48,3.89,65.84c0,36.37,37.42,65.85,83.58,65.85c13.36,0,25.98-2.47,37.17-6.86
			c-11.86-3.14-20.45-10.83-21.3-19.98c3.39,0.5,6.89,0.78,10.47,0.78C145.17,105.63,170.59,85.5,170.59,60.67"/>
		<path clip-path="url(#SVGID_4_)" fill="#88A59E" d="M170.1,66.47H3.91c0.43,36.07,37.67,65.22,83.56,65.22
			c13.35,0,25.97-2.47,37.17-6.86c-11.86-3.14-20.45-10.83-21.3-19.98c3.39,0.5,6.89,0.78,10.47,0.78
			C142.68,105.63,166.5,88.56,170.1,66.47"/>
		<rect y="61.33" clip-path="url(#SVGID_4_)" fill="#B5DCD3" width="176.14" height="5.56"/>
		<path clip-path="url(#SVGID_4_)" fill="#7B585B" d="M101.61,54.96H74.21c-2.13,0-3.85-1.72-3.85-3.85v-9.75
			c0-2.13,1.72-3.85,3.85-3.85h27.39c2.13,0,3.85,1.72,3.85,3.85v9.75C105.46,53.23,103.73,54.96,101.61,54.96"/>
		<path clip-path="url(#SVGID_4_)" fill="#7B585B" d="M113.63,93.56H62.19c-2.13,0-3.85-1.72-3.85-3.85v-9.75
			c0-2.13,1.72-3.85,3.85-3.85h51.44c2.13,0,3.85,1.72,3.85,3.85v9.75C117.48,91.84,115.75,93.56,113.63,93.56"/>
		<path clip-path="url(#SVGID_4_)" fill="#5D5876" d="M114.37,84.45H61.45c-3.02,0-5.03-3.11-3.79-5.86l11.11-24.73
			c0.67-1.49,2.16-2.45,3.79-2.45h30.69c1.64,0,3.12,0.96,3.79,2.45l11.11,24.73C119.39,81.34,117.38,84.45,114.37,84.45"/>
		<path clip-path="url(#SVGID_4_)" fill="#FFFFFF" d="M103.39,51.91l-1.04-9.57c-0.11-1.03-0.98-1.8-2.01-1.8h-2.47H77.95h-2.47
			c-1.03,0-1.9,0.78-2.01,1.8l-1.04,9.57c-0.13,1.19,0.81,2.24,2.01,2.24h3.51h19.92h3.51C102.59,54.15,103.52,53.11,103.39,51.91"
			/>
		<g opacity="0.54" clip-path="url(#SVGID_4_)">
			<g>
				<defs>
					<rect id="SVGID_5_" x="87.94" y="37.51" width="30.59" height="56.05"/>
				</defs>
				<clipPath id="SVGID_6_">
					<use xlink:href="#SVGID_5_"  overflow="visible"/>
				</clipPath>
				<path clip-path="url(#SVGID_6_)" fill="#484759" d="M118.16,78.59l-11.11-24.73c-0.36-0.81-0.96-1.45-1.69-1.88
					c0.07-0.28,0.11-0.58,0.11-0.88v-9.75c0-2.13-1.72-3.85-3.85-3.85H87.94v56.05h25.69c2.13,0,3.85-1.72,3.85-3.85v-6.67
					C118.5,81.89,118.87,80.18,118.16,78.59"/>
			</g>
		</g>
	</g>
	<g clip-path="url(#SVGID_2_)">
		<defs>
			<path id="SVGID_7_" d="M39.44,11.95v20.44H62.8V2.92C54.37,4.96,46.5,8.04,39.44,11.95"/>
		</defs>
		<clipPath id="SVGID_8_">
			<use xlink:href="#SVGID_7_"  overflow="visible"/>
		</clipPath>

			<linearGradient id="SVGID_9_" gradientUnits="userSpaceOnUse" x1="0" y1="131.6909" x2="1" y2="131.6909" gradientTransform="matrix(0 -30.5808 -30.5808 0 4078.3406 32.394)">
			<stop  offset="0" style="stop-color:#FFFFFF"/>
			<stop  offset="1" style="stop-color:#FFFFFF"/>
		</linearGradient>
		<rect x="39.44" y="2.92" clip-path="url(#SVGID_8_)" fill="url(#SVGID_9_)" width="23.36" height="29.47"/>
	</g>
	<g clip-path="url(#SVGID_2_)">
		<defs>
			<path id="SVGID_10_" d="M87.47,0C41.31,0,3.89,29.48,3.89,65.84c0,36.37,37.42,65.85,83.58,65.85c13.36,0,25.98-2.47,37.17-6.86
				c-11.86-3.14-20.45-10.83-21.3-19.98c3.4,0.5,6.89,0.78,10.47,0.78c31.36,0,56.78-20.13,56.78-44.96c0-7.12-2.1-13.85-5.83-19.84
				c0.06,0.1,0.13,0.2,0.2,0.3C152.55,17.02,122.54,0,87.47,0z"/>
		</defs>
		<clipPath id="SVGID_11_">
			<use xlink:href="#SVGID_10_"  overflow="visible"/>
		</clipPath>
		<rect x="41.01" y="17.92" clip-path="url(#SVGID_11_)" fill="#5D5876" width="20.23" height="12.38"/>
		<rect x="41.01" y="3.71" clip-path="url(#SVGID_11_)" fill="#5D5876" width="9.15" height="12.38"/>
		<rect x="51.99" y="3.71" clip-path="url(#SVGID_11_)" fill="#5D5876" width="9.25" height="12.38"/>
	</g>
</g>
</svg>
