<?xml version="1.0" encoding="utf-8"?>
<!-- Generator: Adobe Illustrator 16.0.0, SVG Export Plug-In . SVG Version: 6.00 Build 0)  -->
<!DOCTYPE svg PUBLIC "-//W3C//DTD SVG 1.1//EN" "http://www.w3.org/Graphics/SVG/1.1/DTD/svg11.dtd">
<svg version="1.1" id="Layer_1" xmlns="http://www.w3.org/2000/svg" xmlns:xlink="http://www.w3.org/1999/xlink" x="0px" y="0px"
	 width="118.03px" height="118.03px" viewBox="0 0 118.03 118.03" enable-background="new 0 0 118.03 118.03" xml:space="preserve">
<g>
	<defs>
		<rect id="SVGID_1_" width="118.03" height="118.03"/>
	</defs>
	<clipPath id="SVGID_2_">
		<use xlink:href="#SVGID_1_"  overflow="visible"/>
	</clipPath>
	<g clip-path="url(#SVGID_2_)">
		<defs>
			<rect id="SVGID_3_" width="118.03" height="118.03"/>
		</defs>
		<clipPath id="SVGID_4_">
			<use xlink:href="#SVGID_3_"  overflow="visible"/>
		</clipPath>
		<path clip-path="url(#SVGID_4_)" fill="#D7AFDF" d="M59.01,0C26.42,0,0,26.42,0,59.01c0,32.59,26.42,59.01,59.01,59.01
			c32.59,0,59.01-26.42,59.01-59.01C118.03,26.42,91.61,0,59.01,0 M60.67,22.84c4.15,0,7.52,3.37,7.52,7.52
			c0,4.15-3.37,7.52-7.52,7.52c-4.15,0-7.52-3.36-7.52-7.52C53.15,26.21,56.51,22.84,60.67,22.84 M69.04,51.5
			c-1.31,0-2.38,1.06-2.38,2.38c0,0.01,0,0.02,0,0.02v1.03h0v30.21h-0.01c-0.08,5-4.15,9.03-9.17,9.03c-4.35,0-7.99-3.04-8.93-7.1
			c0.39,0.28,0.86,0.44,1.37,0.44c1.31,0,2.38-1.07,2.38-2.38c0-0.01,0-0.02,0-0.02v-1.03h0V53.87h0.01c0.08-5,4.15-9.03,9.17-9.03
			c4.35,0,7.99,3.04,8.93,7.1C70.03,51.67,69.56,51.5,69.04,51.5"/>
		<g clip-path="url(#SVGID_4_)">
			<g>
				<defs>
					<rect id="SVGID_5_" x="60.5" y="0.04" width="57.52" height="117.95"/>
				</defs>
				<clipPath id="SVGID_6_">
					<use xlink:href="#SVGID_5_"  overflow="visible"/>
				</clipPath>
				<path clip-path="url(#SVGID_6_)" fill="#D7AFDF" d="M60.5,0.04v22.81c0.05,0,0.11-0.01,0.16-0.01c4.15,0,7.52,3.37,7.52,7.52
					c0,4.15-3.37,7.52-7.52,7.52c-0.05,0-0.11-0.01-0.16-0.01v7.02c0.32-0.03,0.65-0.05,0.98-0.05c4.35,0,7.99,3.03,8.93,7.1
					c-0.39-0.28-0.86-0.44-1.37-0.44c-1.31,0-2.38,1.06-2.38,2.38c0,0.01,0,0.01,0,0.02v1.03h0v30.21h-0.01
					c-0.06,3.95-2.62,7.28-6.16,8.51v24.34c31.9-0.79,57.52-26.88,57.52-58.97C118.03,26.92,92.4,0.83,60.5,0.04"/>
			</g>
		</g>
	</g>
</g>
</svg>
