<?xml version="1.0" encoding="utf-8"?>
<!-- Generator: Adobe Illustrator 19.2.1, SVG Export Plug-In . SVG Version: 6.00 Build 0)  -->
<svg version="1.0" id="Layer_1" xmlns="http://www.w3.org/2000/svg" xmlns:xlink="http://www.w3.org/1999/xlink" x="0px" y="0px"
	 viewBox="0 0 289 206.8" style="enable-background:new 0 0 289 206.8;" xml:space="preserve">
<g>
	<g>
		<g>
			<g>
				<path style="fill:#FAAF40;" d="M186.6,125.1v-13.9V84.8V70.9c0-9.7,3.3-11.3,4.7-13.1c1.4-1.8,2-3.7,2-5.9c0-5.5-4.5-10-10-10
					c-2.3,0-4,0.3-6.6,2.2c-2.6,1.9-3.1,3.7-9.1,3.7c-8,0-9.9-6.1-15.4-6.1c-2.4,0-3.6,1-4.3,2.2c-0.6-1.2-1.9-2.2-4.3-2.2
					c-5.5,0-7.4,6.1-15.4,6.1c-6.1,0-6.6-1.8-9.1-3.7c-2.6-1.9-4.2-2.2-6.6-2.2c-5.5,0-10,4.5-10,10c0,2.2,0.6,4.2,2,5.9
					c1.4,1.8,4.7,3.4,4.7,13.1v13.9v26.4v13.9c0,9.7-3.3,11.3-4.7,13.1c-1.4,1.8-2,3.7-2,5.9c0,5.5,4.5,10,10,10
					c2.3,0,4-0.3,6.6-2.2c2.6-1.9,3.1-3.7,9.1-3.7c8,0,9.9,6.1,15.4,6.1c2.4,0,3.6-1,4.3-2.2c0.6,1.2,1.9,2.2,4.3,2.2
					c5.5,0,7.4-6.1,15.4-6.1c6.1,0,6.6,1.8,9.1,3.7c2.6,1.9,4.2,2.2,6.6,2.2c5.5,0,10-4.5,10-10c0-2.2-0.6-4.2-2-5.9
					C190,136.5,186.6,134.8,186.6,125.1z M179.5,136.7l-3.8,6.2h-27h-1.3h-27l-3.8-6.2v-25.5V84.8V59.3l3.8-6.2h27h1.3h27l3.8,6.2
					v25.5v26.4V136.7z"/>
				<rect x="114.4" y="52.2" style="fill:#59B6C9;" width="67.1" height="92.3"/>
				<g>
					<defs>
						<rect id="SVGID_1_" x="114.4" y="52.2" width="67.1" height="92.3"/>
					</defs>
					<clipPath id="SVGID_2_">
						<use xlink:href="#SVGID_1_"  style="overflow:visible;"/>
					</clipPath>
					<path style="clip-path:url(#SVGID_2_);fill:#AB364F;" d="M114.5,87.7c0,0,3.7-1.1,7.5,2.4c3.8,3.5,5.7,4.9,8.7,4.4
						c3-0.5,4.6-5.4,16.7-4.9s22.4,4.9,25.4,6.7s12.9,2.5,12.9,2.5v48.6h-75.1V89.3L114.5,87.7z"/>
				</g>
				<path style="fill:#688869;" d="M118.4,87.8c0,1.9-0.5,2-1.2,2c-0.7,0-1.2-0.1-1.2-2c0-1.9,1.2-5,1.2-5S118.4,85.8,118.4,87.8z"
					/>
				<path style="fill:#688869;" d="M121.5,90.6c0,1.9-0.5,2-1.2,2c-0.7,0-1.2-0.1-1.2-2c0-1.9,1.2-5,1.2-5S121.5,88.7,121.5,90.6z"
					/>
				<path style="fill:#688869;" d="M125,92.8c0,1.9-0.5,2-1.2,2c-0.7,0-1.2-0.1-1.2-2s1.2-5,1.2-5S125,90.9,125,92.8z"/>
				<path style="fill:#688869;" d="M117.3,95.5c0,1.9-0.5,2-1.2,2s-1.2-0.1-1.2-2c0-1.9,1.2-5,1.2-5S117.3,93.6,117.3,95.5z"/>
				<path style="fill:#688869;" d="M181.3,98.4c0,1.9-0.5,2-1.2,2s-1.2-0.1-1.2-2c0-1.9,1.2-5,1.2-5S181.3,96.5,181.3,98.4z"/>
				<path style="fill:#688869;" d="M174.2,95.2c0,1.9-0.5,2-1.2,2c-0.7,0-1.2-0.1-1.2-2c0-1.9,1.2-5,1.2-5S174.2,93.3,174.2,95.2z"
					/>
				<path style="fill:#688869;" d="M177.7,100c0,1.9-0.5,2-1.2,2c-0.7,0-1.2-0.1-1.2-2c0-1.9,1.2-5,1.2-5S177.7,98,177.7,100z"/>
				<g>
					<path style="fill:#E4C7B7;" d="M145.7,82.4l0.9,4.1c0,0-6.8,3.3-7.7,5.4c-0.9,2.1-3.3,4.8,0.5,6.6c3.7,1.8,7.8,3,12.5,2.8
						c0,0,6.3-5.1,11.6-8.1L158.8,76L145.7,82.4z"/>
					<path style="fill:#AB9589;" d="M160.1,73.7c0,7.2-4.7,13.1-10.4,13.1c-5.8,0-10.4-5.9-10.4-13.1c0-7.2,4.9-14.3,10.7-14.3
						S160.1,66.5,160.1,73.7z"/>
					<path style="fill:#4C3D35;" d="M142.5,61.5l4.2,24.8l-0.6,0.8c0,0-6.9,4.1-9,7.6c-2.1,3.6-1.9,4.4-1.9,4.4s-3.1,5.8-1.4,12.6
						c0,0-8.6,0.1-11.5,1.5c0,0,0.5-1.8,1.8-2.3c0,0,1.8-4.1,3-4.2c0,0-1.9-5.6,2.7-7.6c0,0,1.5-4.4,5.3-5.7c0,0-0.1-3,1.8-5.4
						c0,0-0.5-1.7,0.3-2.8c0,0-0.7-2.4,0.1-5s0.2-3.1-0.2-4.2c-0.4-1.1-0.2-2.5,0.3-3.3c0.5-0.8,0.4-1.9,0.1-2.5
						c-0.4-0.7-1.6-3.9,0.7-5.6L142.5,61.5z"/>
					<path style="fill:#E4C7B7;" d="M158.7,72.3c0,7.2-4.7,13.1-10.4,13.1s-10.4-5.9-10.4-13.1S142.8,58,148.6,58
						S158.7,65,158.7,72.3z"/>
					<path style="fill:#4C3D35;" d="M147.7,58c15.9-1,13.7,13.7,15.5,19c2,5.8,0,7.3,0.2,9.9c0.2,2.7,5.5,9.1,5.5,9.1
						c-9,0-14.2,5.8-14.2,5.8c0.8-1.2,3.8-9.8,1.1-13.9c-2.7-4.1-2.4-7.3-0.4-12.9c1.4-3.7-2.1-11.3-2.1-11.3
						c-4-2.3-7.5-1.8-7.5-1.8S146,60.3,147.7,58z"/>
					<path style="fill:#000500;" d="M177.8,119c0,0,1.5,14.4,1.4,17.4c-0.1,3-0.8,8.1-0.8,8.1H114v-19.8c0,0,9.7-11,11-10.9
						c1.3,0.1,47.5-12.2,47.5-12.2S177.8,110.4,177.8,119z"/>
					<path style="fill:#4C3D35;" d="M147.6,58c0,0-1.8,1.8-2,3.9c0,0-3.7,0.4-5.9,2.6C139.7,64.4,141.9,58.5,147.6,58z"/>
					<path style="fill:#88976A;" d="M171.5,102.1c0,0-2.4,3.4-5.7,4.9c-3.3,1.5-13.3,10.4-13.3,21l-3.6,2l-9.8-4.4l8.6-16.5l8.4-9.8
						l12.4-2.8L171.5,102.1z"/>
					<path style="fill:#88976A;" d="M137.1,94.5c0,0-0.3,6.3,15.4,6.3c0,0-2.1,1.8-2.1,2.6c0,0-10.1,11.2-10.7,17.4l-3.9-0.3
						c0,0-0.7-3.7-1.1-4.8s-4.2-12.5,2.3-20.8L137.1,94.5z"/>
					<path style="fill:#202516;" d="M171.9,102.5c0,0,2.6,2.5,2.4,5.3s-1.8,4-0.9,6.9s1.7,7.1,0.3,9.6c-1.3,2.5,0.4,5.9,0.6,9.1
						c0.2,3.2-1,7.7-4.7,7.8c0,0,0-6.7-2.6-10.3c-2.6-3.6-7.8-3.6-8.3-3.5s-4.3,1.3-5,1.3c-0.6,0-1.9-0.3-1.9-0.3s-0.2-7.4,2.8-11.5
						c3-4,4.3-5,5.7-7.6S165.5,100.3,171.9,102.5z"/>
					<path style="fill:#C5AA68;" d="M168.6,95.3c0,0-2.2-2.7-6.5-1.1s-13.5,7.5-15.6,11.3c0,0-6,7-7.8,11.6
						c-1.8,4.6-4.5,5.4-4.5,5.4l1.3,4l3.9-1.4c0,0,3.5-4.8,7.6-9.6c4-4.8,7.1-16.7,18.2-15.8c11.1,0.9,12.6,19.4,12.6,19.4
						S178.6,105.2,168.6,95.3z"/>
					<path style="fill:#202516;" d="M124.8,110.3c0,0-2.6,0.9-3.2,2.3c0,0-5.6,2.2-5.7,8.3c0,0-2.4,2.3-1.5,4.4
						c0.9,2.1,0.5,4.4,0.9,4.7c0.5,0.4-0.4,2.4,4.2,3c4.5,0.6,6.7,2.2,11.2-1.9c0,0-8.2-0.5-8.6-2.2c-0.4-1.6-2.2-3.4-2-4.2
						s0.2-2,0.8-3.5s-0.1-3.4,1-4.1c1.1-0.7,2.5-1.3,3.3-1c0.8,0.3,1.2,0.8,2.5,0.8s2.2-0.2,3.6,1.2c1.5,1.4,2.6,3.1,2.6,3.1
						s3.4,1.6,3-0.5c-0.4-2.1,0.4-3-0.7-4.7c-1.1-1.7-1.3-3.5-2.4-4.4s-1.8-2.2-3.9-2.4C128,109.2,124.8,110.3,124.8,110.3z"/>
					<path style="fill:#C5AA68;" d="M128.3,115.8c-1-0.5-1.7-1-2.6-0.8s-2.4-0.4-2.8,1.1c-0.4,1.6-1,2.7-1.5,3.2
						c-0.5,0.6-1.6,2-1.4,3.6c0.2,1.6-0.1,1.1,0.5,3c0.7,1.9,1.6,2.7,2.7,3.6c1,0.9,2.2,1.8,3.4,2c1.2,0.1,1.9,0.8,3.9,1.1
						s5.5-0.5,6.2-1.8c-0.4-0.3-2.4-0.2-3-2c-0.6-1.8,0-3.7,0.4-4.4s2.1-1.6,3.9-1.4c0,0-1.5-2.2-2.6-2.2c-1.1,0-1-0.8-1.7-1.1
						c-0.6-0.3-0.1,0.1-1-0.7c-0.8-0.8-0.5-1.1-1.6-1.7C130.2,116.8,128.3,115.8,128.3,115.8z"/>
					<path style="fill:#C5AA68;" d="M161.4,127.2c-1,0.1,0.2,0.4-1.6,0.3c-1.8-0.1-2.5-0.3-3.8,0.3s-0.6,1-2.2,0.9
						c-1.7-0.1-2.1-0.7-3.6-0.2c-1.4,0.4-0.7,0.9-2.2,0.8c-1.6-0.1-3.9-0.2-5.4-0.3c-1.4-0.1-4.6-2.7-5.5-0.7
						c-0.9,2-0.8,5.6,0.1,7.1c0.9,1.6,1,4.3,4.3,4.3s5.9-0.3,8.3,0.4c2.3,0.8,2.2,0.6,4.2,0.4s0.2-0.1,4.2,0.2
						c4,0.3,4.5,1.1,6.4,0.6s5.1,0,5.2-2.6s0.9-5.7-0.7-7.6s-3.2-3.7-4.1-3.7C164.3,127.7,161.4,127.2,161.4,127.2z"/>
					<path style="fill:#E4C7B7;" d="M134.8,129.8c0,0-0.5-0.4-1.3,0.1c-0.7,0.5-1.3,1-1.8,1c-0.5,0.1-2.4,0.7-2.7,0.9
						c-0.3,0.2-1.9,0.6-1.9,1.6s-0.3,2.1-0.4,2.7s-0.4,1.2,0.3,2.2c0.7,1,1,1.3,1.6,1.3s0.2,1.3,0.9,1.8s1.1,0.5,1.1,0.5
						s0.1,0.4,0.4,1.5s0.4,1.6,0.8,1.8s0.9,1,1.1,0.2c0.2-0.8-0.2-1.7-0.1-2.3c0.1-0.6,0.5-0.5,0.9-1.4s0.1-2.4,1.6-2.4
						c1.4,0,3.7-0.2,4.4-0.3c0.7-0.1,2.1-0.5,2.4-0.8l-0.4-7.4L134.8,129.8z"/>
					<path style="fill:#AB9589;" d="M142.1,138.2l-0.4-7.4l-7-1c0,0-0.5-0.4-1.3,0.1c-0.7,0.5-1.3,1-1.8,1c-0.2,0-0.7,0.2-1.2,0.3
						c0.4,0.2,0.8,0.3,1,0.4c0.9,0.2,1.5-1,2.1,0.9c0.6,1.8,2.8,3.1,3.2,3.5c0.5,0.3,0.5,0.7,0.7,1.2c0.2,0.6,1.5,0.7,2,1.2
						c0.2,0.1,0.3,0.3,0.5,0.5C140.8,138.8,141.9,138.5,142.1,138.2z"/>
					<path style="fill:#E4C7B7;" d="M131.6,124.1c0,0,2.2-1.8,4.4-1.2c2.2,0.6,4.5,1.6,5,1.8s2.2,0.3,3,1c0.8,0.8,2.2,2.5,3.1,2.8
						c0.9,0.3,2.6,1.2,3,1.8c0.5,0.6,3.2,3.3,3.4,3.4c0.2,0.1,1.1,1,0.8,1.2s-0.1,0.7-1,0.5c-0.9-0.2-2-0.5-2.6-1.1
						c-0.5-0.7-1.2-1.2-1.6-1.4c-0.4-0.3-2.2-1.2-2.6-1.2s-0.8,0.2-0.5,0.5s1.8,1.7,2.6,2.5c0.9,0.8,2.4,2.5,2.4,2.5
						s1.2,0.7,1.2,1.4c0.1,0.7-0.2,1.1-0.7,1.1c-0.5,0-0.7-0.7-1.2-0.4c-0.5,0.3-0.2,0.7-1.1,0.7s-1.4-0.3-2-0.3
						c-0.7,0-0.7,0.1-1.4,0.1c-0.7,0-2.8,0-3.4-0.4c-0.7-0.4-1.4-1.5-2-2s-1.8-0.6-2-1.2s-0.3-0.9-0.7-1.2c-0.5-0.3-2.6-1.6-3.2-3.5
						s-1.2-0.7-2.1-0.9C131.8,130.4,128.4,129.3,131.6,124.1z"/>
				</g>
			</g>
			<path style="opacity:0.1;" d="M186.6,125.1v-13.9V84.8V70.9c0-9.7,3.3-11.3,4.7-13.1c1.4-1.8,2-3.7,2-5.9c0-5.5-4.5-10-10-10
				c-2.3,0-4,0.3-6.6,2.2c-2.6,1.9-3.1,3.7-9.1,3.7c-8,0-9.9-6.1-15.4-6.1c-2.4,0-3.6,1-4.3,2.2c-0.1-0.2-0.3-0.5-0.5-0.7v109.7
				c0.2-0.2,0.3-0.4,0.5-0.7c0.6,1.2,1.9,2.2,4.3,2.2c5.5,0,7.4-6.1,15.4-6.1c6.1,0,6.6,1.8,9.1,3.7c2.6,1.9,4.2,2.2,6.6,2.2
				c5.5,0,10-4.5,10-10c0-2.2-0.6-4.2-2-5.9C190,136.5,186.6,134.8,186.6,125.1z"/>
		</g>
		<polygon style="opacity:0.2;" points="181.4,52.2 114.4,52.2 114.4,55.3 114.5,55.3 114.5,144.5 117.6,144.5 117.6,55.3 
			181.4,55.3 		"/>
	</g>
	<g>
		<g>
			<g>
				<defs>
					<circle id="SVGID_3_" cx="92.7" cy="137.6" r="24.8"/>
				</defs>
				<clipPath id="SVGID_4_">
					<use xlink:href="#SVGID_3_"  style="overflow:visible;"/>
				</clipPath>
				<circle style="clip-path:url(#SVGID_4_);fill:#FFFFFF;" cx="92.7" cy="137.6" r="24.8"/>
				<polygon style="clip-path:url(#SVGID_4_);fill:#1D1D1B;" points="87.1,146.2 83.6,135.5 92.7,128.9 101.8,135.5 98.3,146.2 				
					"/>
				<polygon style="clip-path:url(#SVGID_4_);fill:#1D1D1B;" points="76.2,165.7 84,160.6 81.5,151.6 72.2,151.1 68.9,159.9 				"/>
				<polygon style="clip-path:url(#SVGID_4_);fill:#1D1D1B;" points="109.2,166.4 101.7,160.9 104.5,152 113.9,152 116.8,160.9 				
					"/>
				<polygon style="clip-path:url(#SVGID_4_);fill:#1D1D1B;" points="63.8,122.5 73.1,123.4 75.1,132.6 67,137.3 60,131.1 				"/>
				<polygon style="clip-path:url(#SVGID_4_);fill:#1D1D1B;" points="121.7,122.4 112.4,123.3 110.4,132.5 118.4,137.2 125.4,131 
									"/>
				<g style="clip-path:url(#SVGID_4_);">
					<polygon style="fill:#1D1D1B;" points="88.5,105 85.3,113.8 92.7,119.6 100.4,114.3 97.8,105.3 					"/>
					<polygon style="fill:#1D1D1B;" points="92.4,118 92.7,122.4 93.1,118 					"/>
				</g>
				<polygon style="clip-path:url(#SVGID_4_);fill:#1D1D1B;" points="93.1,130.3 92.7,125.9 92.4,130.3 				"/>
				<polygon style="clip-path:url(#SVGID_4_);fill:#1D1D1B;" points="85.4,136 81.2,134.5 85.1,136.6 				"/>
				<polygon style="clip-path:url(#SVGID_4_);fill:#1D1D1B;" points="73.6,132.3 77.8,133.7 73.9,131.6 				"/>
				<polygon style="clip-path:url(#SVGID_4_);fill:#1D1D1B;" points="99.8,136 104,134.5 100.1,136.6 				"/>
				<polygon style="clip-path:url(#SVGID_4_);fill:#1D1D1B;" points="111.9,132.2 107.7,133.7 111.6,131.6 				"/>
				<polygon style="clip-path:url(#SVGID_4_);fill:#1D1D1B;" points="97.1,144.5 100.1,147.8 96.7,145.1 				"/>
				<polygon style="clip-path:url(#SVGID_4_);fill:#1D1D1B;" points="105.2,153.3 102.2,150.1 105.7,152.8 				"/>
				<polygon style="clip-path:url(#SVGID_4_);fill:#1D1D1B;" points="88.3,144.6 85.3,147.9 88.8,145.2 				"/>
				<polygon style="clip-path:url(#SVGID_4_);fill:#1D1D1B;" points="80.6,153 83.6,149.7 80.1,152.4 				"/>
			</g>
		</g>
		<path style="opacity:0.1;" d="M100.2,114c2.7,3.5,4.4,7.9,4.4,12.7c0,11.4-9.3,20.7-20.7,20.7c-6.4,0-12.1-2.9-15.9-7.4
			c1.2,12.6,11.8,22.4,24.7,22.4c13.7,0,24.8-11.1,24.8-24.8C117.4,126.5,110.2,117.2,100.2,114z"/>
	</g>
	<g>
		<path style="fill:#CAD4D5;" d="M224.3,124.5c-5-0.3-10.6-1.8-16.1-4.5c-5.5-2.7-10-6.3-13.3-10.1c-1.7-2-4.8-1.6-6,0.8l-12.3,24.8
			c-2,3.9-2,8.6-0.1,12.5l3.5,7.4c2.7,5.8,9,9.1,15.4,8.1l9.3-1.5c4.6-0.8,8.5-3.7,10.6-7.8l12.1-24.4
			C228.5,127.4,226.9,124.6,224.3,124.5z M195.8,126.5c2.1,2.3,2.4,5.5,0.8,7.4l-8.1-8.9C190.5,123.6,193.7,124.2,195.8,126.5z
			 M191.3,154.2c-5.9-2.9-8.3-10-5.4-15.9c0.5-1,1.2-2,1.9-2.8c-0.7,5,1.8,10.1,6.6,12.5c4.8,2.4,10.4,1.3,13.9-2.3
			c-0.2,1.1-0.5,2.2-1,3.2C204.4,154.7,197.2,157.1,191.3,154.2z M204.6,138c0.4-2.4,3.1-4.2,6.2-4.1c3.1,0.1,5.6,2.2,5.8,4.6
			L204.6,138z"/>
		<path style="opacity:0.1;fill:#180000;" d="M224.3,124.5c-5-0.3-10.6-1.8-16.1-4.5c-0.1,0-0.2-0.1-0.3-0.1l-13.7,28.1
			c0.1,0,0.1,0.1,0.2,0.1c4.8,2.4,10.4,1.3,13.9-2.3c-0.2,1.1-0.5,2.2-1,3.2c-2.9,5.9-10,8.3-15.9,5.4c0,0-0.1-0.1-0.1-0.1l-4,8.3
			c2.5,1.1,5.3,1.5,8.2,1l9.3-1.5c4.6-0.8,8.5-3.7,10.6-7.8l12.1-24.4C228.5,127.4,226.9,124.6,224.3,124.5z M204.6,138
			c0.4-2.4,3.1-4.2,6.2-4.1c3.1,0.1,5.6,2.2,5.8,4.6L204.6,138z"/>
	</g>
</g>
</svg>
