<?xml version="1.0" encoding="utf-8"?>
<!-- Generator: Adobe Illustrator 20.0.0, SVG Export Plug-In . SVG Version: 6.00 Build 0)  -->
<svg version="1.1" id="Layer_1" xmlns="http://www.w3.org/2000/svg" xmlns:xlink="http://www.w3.org/1999/xlink" x="0px" y="0px"
	 viewBox="0 0 232 260" enable-background="new 0 0 232 260" xml:space="preserve">
<g>
	<g>
		<circle fill="#F9AF18" cx="195.9" cy="36.5" r="5.2"/>
		<circle fill="#F9AF18" cx="36.2" cy="36.5" r="5.2"/>
		<circle fill="#F9AF18" cx="64.4" cy="63.5" r="5.2"/>
		<circle fill="#F9AF18" cx="168.2" cy="63.5" r="5.2"/>
		<path fill="#FDC310" d="M116.5,41L116.5,41l-0.3,0l-0.3,0v0l-40.3,1.1c-3.5,0.1-6.3,3-6.2,6.6c0.3,10,1.2,29.4,3.1,42.3
			c2.7,18,18.3,40.7,23.3,44.7c4.4,3.5,20.7,5.7,20.7,5.7c3-0.4,15.6-2.2,20-5.7c5-4,20.7-26.7,23.3-44.7
			c1.9-12.9,2.8-32.3,3.1-42.3c0.1-3.5-2.6-6.5-6.2-6.6L116.5,41z"/>
		<path fill="#FDC310" d="M124,174.8c1.4-0.5,2.4-1.9,2.4-3.4v-0.5c0-1.8-1.3-3.3-3.1-3.6c-0.3-7.2,0.2-15.5,1.8-25v-2.4
			c-3.7,0.8-7.2,1.3-8.6,1.5c0,0-4.4-0.6-9.3-1.7v2.6c1.6,9.5,2.1,17.8,1.8,25c-1.6,0.4-2.8,1.8-2.8,3.5v0.5c0,1.5,0.9,2.7,2.1,3.3
			c-4.7,36.1-31.1,42.1-31.1,42.1v8.9c11.2,7.4,66.5,7.4,77.8,0v-8.9C155,216.8,128.7,210.8,124,174.8z"/>
		<path fill="#FDC310" d="M77.3,216.8c0,0,36.2,8.1,77.8,0"/>
		<path fill="#F9AF18" d="M173.8,33.7c-6.1,1.1-10.8,6.4-10.8,12.9c0,7.2,5.9,13.1,13.1,13.1c5.3,0,9.9-3.2,11.9-7.7
			c1.4,3.7,2.3,7.9,2.6,12.3c0,29.9-22.9,51.1-46,61.3c-3.4,5-6.4,8.7-8.2,10.1c-1.3,1-3.2,1.9-5.4,2.6
			c31.5-6.4,67.3-31.1,67.3-73.4C198.4,28.5,175.1,33.4,173.8,33.7z"/>
		<path fill="#F9AF18" d="M95.8,135.7c-1.7-1.4-4.8-5-8.1-10c-23.2-10.2-46.3-31.3-46.3-61.4c0.3-4.5,1.2-8.6,2.6-12.3
			c2.1,4.5,6.6,7.7,11.9,7.7c7.2,0,13.1-5.9,13.1-13.1c0-6.4-4.7-11.8-10.8-12.9c-1.2-0.4-24.6-5.2-24.6,31.1
			c0,43.1,37.2,67.9,69.1,73.8C99.8,137.8,97.2,136.8,95.8,135.7z"/>
		<path fill="#E58F1A" d="M106.6,169.3c-0.2,0.5-0.4,1-0.4,1.6v0.5c0,1.5,0.9,2.7,2.1,3.3c-0.2,1.2-0.3,2.3-0.5,3.4h16.7
			c-0.2-1.1-0.4-2.2-0.5-3.3c1.4-0.5,2.4-1.9,2.4-3.4v-0.5c0-0.6-0.1-1.1-0.4-1.6H106.6z"/>
		<path fill="#F9AF18" d="M122.4,175.5h-12c-2.4,0-4.3-1.9-4.3-4.3l0,0c0-2.4,1.9-4.3,4.3-4.3h12c2.4,0,4.3,1.9,4.3,4.3l0,0
			C126.7,173.6,124.7,175.5,122.4,175.5z"/>
		<path fill="#E58F1A" d="M116.2,144.8l8.8-1.5c0-0.3,0.1-0.6,0.1-0.9v-2.4c-3.7,0.8-7.2,1.3-8.6,1.5c0,0-4.4-0.6-9.3-1.7v2.6
			c0.1,0.3,0.1,0.7,0.2,1L116.2,144.8z"/>
		<g>
			<path fill="#F9AF18" d="M115.7,222c-14.6,0-28-1.8-38.4-4.9v8.7c11.2,7.4,66.5,7.4,77.8,0v-8.9c0,0,0,0,0,0
				C144.5,220,130.7,222,115.7,222z"/>
		</g>
	</g>
	<g opacity="0.64">
		<defs>
			
				<rect id="SVGID_1_" x="116.4" y="25.8" transform="matrix(-1 -1.224647e-16 1.224647e-16 -1 324.5565 261.4926)" opacity="0.64" width="91.7" height="209.8"/>
		</defs>
		<clipPath id="SVGID_2_">
			<use xlink:href="#SVGID_1_"  overflow="visible"/>
		</clipPath>
		<g clip-path="url(#SVGID_2_)">
			<circle fill="#F9AF18" cx="195.9" cy="36.5" r="5.2"/>
			<circle fill="#F9AF18" cx="36.2" cy="36.5" r="5.2"/>
			<circle fill="#F9AF18" cx="64.4" cy="63.5" r="5.2"/>
			<circle fill="#F9AF18" cx="168.2" cy="63.5" r="5.2"/>
			<path fill="#F9AF18" d="M173.8,33.7c-6.1,1.1-10.8,6.4-10.8,12.9c0,7.2,5.9,13.1,13.1,13.1c5.3,0,9.9-3.2,11.9-7.7
				c1.4,3.7,2.3,7.9,2.6,12.3c0,29.9-22.9,51.1-46,61.3c6.2-9.2,13.4-22.9,15.2-34.6c1.9-12.9,2.8-32.3,3.1-42.3
				c0.1-3.5-2.6-6.5-6.2-6.6L116.5,41v0l-0.3,0l-0.3,0v0l-40.3,1.1c-3.5,0.1-6.3,3-6.2,6.6c0.3,10,1.2,29.4,3.1,42.3
				c1.7,11.7,9,25.5,15.2,34.7c-23.2-10.2-46.3-31.3-46.3-61.4c0.3-4.5,1.2-8.6,2.6-12.3c2.1,4.5,6.6,7.7,11.9,7.7
				c7.2,0,13.1-5.9,13.1-13.1c0-6.4-4.7-11.8-10.8-12.9c-1.2-0.4-24.6-5.2-24.6,31.1c0,43.1,37.2,67.9,69.1,73.8
				c1.4,0.4,3,0.8,4.5,1.1v2.6c1.6,9.4,2.1,17.6,1.8,24.8c-1.7,0.6-2.9,2.2-2.9,4.1c0,1.6,0.9,3,2.3,3.8c-0.1,1.1-0.3,2.2-0.5,3.2
				c-5.9,33-30.5,38.7-30.5,38.7l0,0l0,0v0.3v8.7c11.2,7.4,66.5,7.4,77.8,0v-8.9c0,0-24.7-5.6-30.5-38.7c-0.2-1-0.3-2-0.5-3
				c1.6-0.7,2.7-2.2,2.7-4c0-2-1.4-3.8-3.4-4.2c-0.3-6.9,0.2-14.8,1.7-23.8l0,0c0-0.3,0.1-0.6,0.1-0.9v-2.4c2-0.4,4.1-1,6-1.6
				c0,0,0,0,0,0c31.5-6.4,67.3-31.1,67.3-73.4C198.4,28.5,175.1,33.4,173.8,33.7z M88.9,127.4c0,0.1,0.1,0.1,0.1,0.2
				C89,127.5,89,127.5,88.9,127.4z M90.1,129c0.1,0.1,0.1,0.1,0.2,0.2C90.2,129.2,90.1,129.1,90.1,129z M92.3,131.9
				c0.1,0.1,0.1,0.2,0.2,0.2C92.4,132.1,92.4,132,92.3,131.9z M93.3,133.1c0,0,0.1,0.1,0.1,0.2C93.4,133.2,93.3,133.1,93.3,133.1z
				 M94.2,134.2c0.1,0.1,0.1,0.1,0.2,0.2C94.4,134.3,94.3,134.2,94.2,134.2z M95,134.9c0.1,0.1,0.1,0.1,0.2,0.2
				C95.1,135,95.1,135,95,134.9z M100.5,137.9c0.1,0,0.1,0,0.2,0.1C100.6,138,100.6,137.9,100.5,137.9z M96.4,136
				c0.1,0,0.1,0.1,0.2,0.1C96.5,136.1,96.4,136.1,96.4,136z M97,136.4c0.1,0,0.1,0.1,0.2,0.1C97.1,136.5,97.1,136.5,97,136.4z
				 M97.8,136.8c0,0,0.1,0,0.1,0.1C97.9,136.9,97.8,136.8,97.8,136.8z M98.7,137.2C98.7,137.2,98.8,137.3,98.7,137.2
				C98.8,137.3,98.7,137.2,98.7,137.2z M99.6,137.6c0.1,0,0.1,0,0.2,0.1C99.7,137.6,99.6,137.6,99.6,137.6z M116.5,141.4
				c0.2,0,0.4-0.1,0.6-0.1C116.9,141.4,116.7,141.4,116.5,141.4z M116.3,141.4C116.3,141.4,116.3,141.4,116.3,141.4
				C116.3,141.4,116.3,141.4,116.3,141.4z M135.7,136.2c0.3-0.2,0.6-0.4,0.8-0.6C136.2,135.9,136,136.1,135.7,136.2z M132.5,137.8
				c0.1,0,0.2-0.1,0.3-0.1C132.7,137.7,132.6,137.7,132.5,137.8z M133.5,137.4c0.3-0.1,0.6-0.2,0.8-0.4
				C134,137.1,133.8,137.3,133.5,137.4z M134.6,136.8c0.3-0.2,0.6-0.3,0.9-0.5C135.2,136.5,134.9,136.7,134.6,136.8z M137.1,135.1
				c0.1-0.1,0.1-0.1,0.2-0.2C137.3,135,137.2,135,137.1,135.1z M142.3,129c0,0-0.1,0.1-0.1,0.1C142.2,129.1,142.2,129,142.3,129z
				 M140,131.9c-0.1,0.1-0.1,0.1-0.2,0.2C139.9,132,140,131.9,140,131.9z M139.1,133.1c0,0-0.1,0.1-0.1,0.1
				C139,133.2,139,133.1,139.1,133.1z M138.1,134.2c0,0.1-0.1,0.1-0.1,0.1C138,134.3,138,134.2,138.1,134.2z"/>
		</g>
	</g>
</g>
</svg>
