<?xml version="1.0" encoding="utf-8"?>
<!-- Generator: Adobe Illustrator 19.2.1, SVG Export Plug-In . SVG Version: 6.00 Build 0)  -->
<svg version="1.0" id="Layer_1" xmlns="http://www.w3.org/2000/svg" xmlns:xlink="http://www.w3.org/1999/xlink" x="0px" y="0px"
	 viewBox="0 0 240 171.8" style="enable-background:new 0 0 240 171.8;" xml:space="preserve">
<g>
	<g>
		<g>
			<path style="fill:#F19004;" d="M116.2,42.5c-7.3-9.5-18.3-13.2-24.6-8.4C85.3,39,86.2,50.6,93.5,60s18.3,13.2,24.6,8.4
				C124.3,63.6,123.5,52,116.2,42.5z M99.4,57.3c-5.3-6.8-6.6-14.6-3-17.5s10.9,0.4,16.1,7.3s6.6,14.6,3,17.5
				C111.9,67.4,104.7,64.1,99.4,57.3z"/>
			<path style="fill:#F9B807;" d="M120.8,65c-3.6,1.7-8,1.5-12.3-0.3c-0.7-0.3-1.4-0.7-2.2-1.1c0,0-0.1,0-0.1-0.1
				c-0.2-0.1-0.3-0.2-0.5-0.3c-2.4-1.5-4.6-3.5-6.5-6c-6.6-8.5-6.8-19.5-0.4-24.4c0.3-0.3,0.7-0.5,1.1-0.7c-3.1-0.4-6,0.2-8.3,2
				C85.3,39,86.2,50.6,93.5,60s18.3,13.2,24.6,8.4C119.2,67.5,120.2,66.4,120.8,65z"/>
		</g>
		<g>
			<path style="fill:#F19004;" d="M118.2,42.5c-7.3-9.5-18.3-13.2-24.6-8.4C87.4,39,88.2,50.6,95.5,60c7.3,9.5,18.3,13.2,24.6,8.4
				C126.4,63.6,125.5,52,118.2,42.5z M101.4,57.3c-5.3-6.8-6.6-14.6-3-17.5s10.9,0.4,16.1,7.3s6.6,14.6,3,17.5
				C113.9,67.4,106.7,64.1,101.4,57.3z"/>
			<path style="fill:#F9B807;" d="M122.9,65c-3.6,1.7-8,1.5-12.3-0.3c-0.7-0.3-1.4-0.7-2.2-1.1c0,0-0.1,0-0.1-0.1
				c-0.2-0.1-0.3-0.2-0.5-0.3c-2.4-1.5-4.6-3.5-6.5-6c-6.6-8.5-6.8-19.5-0.4-24.4c0.3-0.3,0.7-0.5,1.1-0.7c-3.1-0.4-6,0.2-8.3,2
				C87.4,39,88.2,50.6,95.5,60c7.3,9.5,18.3,13.2,24.6,8.4C121.3,67.5,122.2,66.4,122.9,65z"/>
		</g>
	</g>
	<g>
		<g>
			<path style="fill:#F19004;" d="M124,68.4c6.3,4.8,17.3,1.1,24.6-8.4s8.2-21,1.9-25.9c-6.3-4.8-17.3-1.1-24.6,8.4
				C118.6,52,117.7,63.6,124,68.4z M126.6,64.6c-3.6-2.8-2.3-10.6,3-17.5c5.3-6.8,12.5-10.1,16.1-7.3s2.3,10.6-3,17.5
				C137.4,64.1,130.2,67.4,126.6,64.6z"/>
			<path style="fill:#F9B807;" d="M121.2,65c3.6,1.7,8,1.5,12.3-0.3c0.7-0.3,1.4-0.7,2.2-1.1c0,0,0.1,0,0.1-0.1
				c0.2-0.1,0.3-0.2,0.5-0.3c2.4-1.5,4.6-3.5,6.5-6c6.6-8.5,6.8-19.5,0.4-24.4c-0.3-0.3-0.7-0.5-1.1-0.7c3.1-0.4,6,0.2,8.3,2
				c6.3,4.8,5.4,16.4-1.9,25.9s-18.3,13.2-24.6,8.4C122.8,67.5,121.9,66.4,121.2,65z"/>
		</g>
		<g>
			<path style="fill:#F19004;" d="M122,68.4c6.3,4.8,17.3,1.1,24.6-8.4c7.3-9.5,8.2-21,1.9-25.9c-6.3-4.8-17.3-1.1-24.6,8.4
				S115.7,63.6,122,68.4z M124.5,64.6c-3.6-2.8-2.3-10.6,3-17.5c5.3-6.8,12.5-10.1,16.1-7.3s2.3,10.6-3,17.5S128.1,67.4,124.5,64.6z
				"/>
			<path style="fill:#F9B807;" d="M119.2,65c3.6,1.7,8,1.5,12.3-0.3c0.7-0.3,1.4-0.7,2.2-1.1c0,0,0.1,0,0.1-0.1
				c0.2-0.1,0.3-0.2,0.5-0.3c2.4-1.5,4.6-3.5,6.5-6c6.6-8.5,6.8-19.5,0.4-24.4c-0.3-0.3-0.7-0.5-1.1-0.7c3.1-0.4,6,0.2,8.3,2
				c6.3,4.8,5.4,16.4-1.9,25.9c-7.3,9.5-18.3,13.2-24.6,8.4C120.8,67.5,119.9,66.4,119.2,65z"/>
		</g>
	</g>
	<g>
		<rect x="75.2" y="72.2" style="fill:#37A6DE;" width="90" height="83.9"/>
		<rect x="111.7" y="77.8" style="fill:#FFFFFF;" width="17" height="78.9"/>
		
			<rect x="111.7" y="77.1" transform="matrix(4.782048e-11 -1 1 4.782048e-11 -1.9983 242.2832)" style="fill:#FFFFFF;" width="17" height="90"/>
		<rect x="75.2" y="72.2" style="opacity:0.75;fill:#1D70B6;" width="90" height="27.5"/>
		<rect x="67.7" y="65.2" style="fill:#1B9BD7;" width="105" height="26"/>
	</g>
	<polygon style="opacity:0.3;fill:#035071;" points="120.7,65.2 120.7,156.7 128.6,156.7 128.6,156.1 165.2,156.1 165.2,99.6 
		165.2,91.2 172.7,91.2 172.7,65.2 	"/>
</g>
</svg>
