<svg xmlns="http://www.w3.org/2000/svg" viewBox="0 0 105 124.72"><title>big-change--small</title><path d="M56.1,10.5C48.8,1,37.8-2.7,31.5,2.1S26.1,18.6,33.4,28,51.7,41.2,58,36.4,63.4,20,56.1,10.5ZM39.3,25.3c-5.3-6.8-6.6-14.6-3-17.5s10.9,0.4,16.1,7.3,6.6,14.6,3,17.5S44.6,32.1,39.3,25.3Z" transform="translate(-7.6 0.02)" style="fill:#f19004"/><path d="M60.7,33c-3.6,1.7-8,1.5-12.3-.3-0.7-.3-1.4-0.7-2.2-1.1a0.1,0.1,0,0,1-.1-0.1c-0.2-.1-0.3-0.2-0.5-0.3a24.47,24.47,0,0,1-6.5-6C32.5,16.7,32.3,5.7,38.7.8A4.13,4.13,0,0,1,39.8.1a10.88,10.88,0,0,0-8.3,2C25.2,7,26.1,18.6,33.4,28S51.7,41.2,58,36.4A9.07,9.07,0,0,0,60.7,33Z" transform="translate(-7.6 0.02)" style="fill:#f9b807"/><path d="M58.1,10.5C50.8,1,39.8-2.7,33.5,2.1S28.1,18.6,35.4,28,53.7,41.2,60,36.4,65.4,20,58.1,10.5ZM41.3,25.3c-5.3-6.8-6.6-14.6-3-17.5s10.9,0.4,16.1,7.3,6.6,14.6,3,17.5S46.6,32.1,41.3,25.3Z" transform="translate(-7.6 0.02)" style="fill:#f19004"/><path d="M62.8,33c-3.6,1.7-8,1.5-12.3-.3-0.7-.3-1.4-0.7-2.2-1.1a0.1,0.1,0,0,1-.1-0.1c-0.2-.1-0.3-0.2-0.5-0.3a24.47,24.47,0,0,1-6.5-6C34.6,16.7,34.4,5.7,40.8.8A4.13,4.13,0,0,1,41.9.1a10.88,10.88,0,0,0-8.3,2C27.3,7,28.1,18.6,35.4,28S53.7,41.2,60,36.4A9.32,9.32,0,0,0,62.8,33Z" transform="translate(-7.6 0.02)" style="fill:#f9b807"/><path d="M63.9,36.4c6.3,4.8,17.3,1.1,24.6-8.4S96.7,7,90.4,2.1,73.1,1,65.8,10.5,57.6,31.6,63.9,36.4Zm2.6-3.8c-3.6-2.8-2.3-10.6,3-17.5S82,5,85.6,7.8s2.3,10.6-3,17.5S70.1,35.4,66.5,32.6Z" transform="translate(-7.6 0.02)" style="fill:#f19004"/><path d="M61.1,33c3.6,1.7,8,1.5,12.3-.3,0.7-.3,1.4-0.7,2.2-1.1a0.1,0.1,0,0,0,.1-0.1c0.2-.1.3-0.2,0.5-0.3a24.47,24.47,0,0,0,6.5-6c6.6-8.5,6.8-19.5.4-24.4A4.13,4.13,0,0,0,82,.1a10.88,10.88,0,0,1,8.3,2c6.3,4.8,5.4,16.4-1.9,25.9S70.1,41.2,63.8,36.4A10.18,10.18,0,0,1,61.1,33Z" transform="translate(-7.6 0.02)" style="fill:#f9b807"/><path d="M61.9,36.4c6.3,4.8,17.3,1.1,24.6-8.4S94.7,7,88.4,2.1,71.1,1,63.8,10.5,55.6,31.6,61.9,36.4Zm2.5-3.8c-3.6-2.8-2.3-10.6,3-17.5S79.9,5,83.5,7.8s2.3,10.6-3,17.5S68,35.4,64.4,32.6Z" transform="translate(-7.6 0.02)" style="fill:#f19004"/><path d="M59.1,33c3.6,1.7,8,1.5,12.3-.3,0.7-.3,1.4-0.7,2.2-1.1a0.1,0.1,0,0,0,.1-0.1c0.2-.1.3-0.2,0.5-0.3a24.47,24.47,0,0,0,6.5-6c6.6-8.5,6.8-19.5.4-24.4A4.13,4.13,0,0,0,80,.1a10.88,10.88,0,0,1,8.3,2c6.3,4.8,5.4,16.4-1.9,25.9S68.1,41.2,61.8,36.4A10.18,10.18,0,0,1,59.1,33Z" transform="translate(-7.6 0.02)" style="fill:#f9b807"/><rect x="7.5" y="40.22" width="90" height="83.9" style="fill:#37a6de"/><rect x="44" y="45.82" width="17" height="78.9" style="fill:#fff"/><rect x="7.4" y="81.62" width="90" height="17" style="fill:#fff"/><rect x="7.5" y="40.22" width="90" height="27.5" style="fill:#1d70b6;opacity:0.75;isolation:isolate"/><rect y="33.22" width="105" height="26" style="fill:#1b9bd7"/><polygon points="53 33.22 53 124.72 60.9 124.72 60.9 124.12 97.5 124.12 97.5 67.62 97.5 59.22 105 59.22 105 33.22 53 33.22" style="fill:#035071;opacity:0.30000001192092896;isolation:isolate"/></svg>
