<?xml version="1.0" encoding="utf-8"?>
<!-- Generator: Adobe Illustrator 19.2.1, SVG Export Plug-In . SVG Version: 6.00 Build 0)  -->
<svg version="1.0" id="Layer_1" xmlns="http://www.w3.org/2000/svg" xmlns:xlink="http://www.w3.org/1999/xlink" x="0px" y="0px"
	 viewBox="0 0 120.2 124.7" style="enable-background:new 0 0 120.2 124.7;" xml:space="preserve">
<style type="text/css">
	.st0{fill:#F19004;}
	.st1{fill:#F9B807;}
	.st2{fill:#37A6DE;}
	.st3{fill:#FFFFFF;}
	.st4{opacity:0.75;fill:#1D70B6;enable-background:new    ;}
	.st5{fill:#1B9BD7;}
	.st6{opacity:0.3;fill:#035071;enable-background:new    ;}
</style>
<g>
	<g>
		<g>
			<path class="st0" d="M56.1,10.5C48.8,1,37.8-2.7,31.5,2.1C25.2,7,26.1,18.6,33.4,28S51.7,41.2,58,36.4
				C64.2,31.6,63.4,20,56.1,10.5z M39.3,25.3c-5.3-6.8-6.6-14.6-3-17.5s10.9,0.4,16.1,7.3s6.6,14.6,3,17.5
				C51.8,35.4,44.6,32.1,39.3,25.3z"/>
			<path class="st1" d="M60.7,33c-3.6,1.7-8,1.5-12.3-0.3c-0.7-0.3-1.4-0.7-2.2-1.1c0,0-0.1,0-0.1-0.1c-0.2-0.1-0.3-0.2-0.5-0.3
				c-2.4-1.5-4.6-3.5-6.5-6c-6.6-8.5-6.8-19.5-0.4-24.4c0.3-0.3,0.7-0.5,1.1-0.7c-3.1-0.4-6,0.2-8.3,2C25.2,7,26.1,18.6,33.4,28
				S51.7,41.2,58,36.4C59.1,35.5,60.1,34.4,60.7,33z"/>
		</g>
		<g>
			<path class="st0" d="M58.1,10.5C50.8,1,39.8-2.7,33.5,2.1C27.3,7,28.1,18.6,35.4,28c7.3,9.5,18.3,13.2,24.6,8.4
				C66.3,31.6,65.4,20,58.1,10.5z M41.3,25.3c-5.3-6.8-6.6-14.6-3-17.5s10.9,0.4,16.1,7.3s6.6,14.6,3,17.5
				C53.8,35.4,46.6,32.1,41.3,25.3z"/>
			<path class="st1" d="M62.8,33c-3.6,1.7-8,1.5-12.3-0.3c-0.7-0.3-1.4-0.7-2.2-1.1c0,0-0.1,0-0.1-0.1c-0.2-0.1-0.3-0.2-0.5-0.3
				c-2.4-1.5-4.6-3.5-6.5-6c-6.6-8.5-6.8-19.5-0.4-24.4c0.3-0.3,0.7-0.5,1.1-0.7c-3.1-0.4-6,0.2-8.3,2C27.3,7,28.1,18.6,35.4,28
				c7.3,9.5,18.3,13.2,24.6,8.4C61.2,35.5,62.1,34.4,62.8,33z"/>
		</g>
	</g>
	<g>
		<g>
			<path class="st0" d="M63.9,36.4c6.3,4.8,17.3,1.1,24.6-8.4s8.2-21,1.9-25.9C84.1-2.7,73.1,1,65.8,10.5
				C58.5,20,57.6,31.6,63.9,36.4z M66.5,32.6c-3.6-2.8-2.3-10.6,3-17.5C74.8,8.3,82,5,85.6,7.8s2.3,10.6-3,17.5
				C77.3,32.1,70.1,35.4,66.5,32.6z"/>
			<path class="st1" d="M61.1,33c3.6,1.7,8,1.5,12.3-0.3c0.7-0.3,1.4-0.7,2.2-1.1c0,0,0.1,0,0.1-0.1c0.2-0.1,0.3-0.2,0.5-0.3
				c2.4-1.5,4.6-3.5,6.5-6c6.6-8.5,6.8-19.5,0.4-24.4c-0.3-0.3-0.7-0.5-1.1-0.7c3.1-0.4,6,0.2,8.3,2c6.3,4.8,5.4,16.4-1.9,25.9
				s-18.3,13.2-24.6,8.4C62.7,35.5,61.8,34.4,61.1,33z"/>
		</g>
		<g>
			<path class="st0" d="M61.9,36.4c6.3,4.8,17.3,1.1,24.6-8.4s8.2-21,1.9-25.9C82.1-2.7,71.1,1,63.8,10.5S55.6,31.6,61.9,36.4z
				 M64.4,32.6c-3.6-2.8-2.3-10.6,3-17.5C72.7,8.3,79.9,5,83.5,7.8s2.3,10.6-3,17.5S68,35.4,64.4,32.6z"/>
			<path class="st1" d="M59.1,33c3.6,1.7,8,1.5,12.3-0.3c0.7-0.3,1.4-0.7,2.2-1.1c0,0,0.1,0,0.1-0.1c0.2-0.1,0.3-0.2,0.5-0.3
				c2.4-1.5,4.6-3.5,6.5-6c6.6-8.5,6.8-19.5,0.4-24.4c-0.3-0.3-0.7-0.5-1.1-0.7c3.1-0.4,6,0.2,8.3,2c6.3,4.8,5.4,16.4-1.9,25.9
				c-7.3,9.5-18.3,13.2-24.6,8.4C60.7,35.5,59.8,34.4,59.1,33z"/>
		</g>
	</g>
	<g>
		<rect x="15.1" y="40.2" class="st2" width="90" height="83.9"/>
		<rect x="51.6" y="45.8" class="st3" width="17" height="78.9"/>
		<rect x="15" y="81.6" class="st3" width="90" height="17"/>
		<rect x="15.1" y="40.2" class="st4" width="90" height="27.5"/>
		<rect x="7.6" y="33.2" class="st5" width="105" height="26"/>
	</g>
	<polygon class="st6" points="60.6,33.2 60.6,124.7 68.5,124.7 68.5,124.1 105.1,124.1 105.1,67.6 105.1,59.2 112.6,59.2 
		112.6,33.2 	"/>
</g>
</svg>
