<?xml version="1.0" encoding="utf-8"?>
<!-- Generator: Adobe Illustrator 19.2.1, SVG Export Plug-In . SVG Version: 6.00 Build 0)  -->
<svg version="1.0" id="Layer_1" xmlns="http://www.w3.org/2000/svg" xmlns:xlink="http://www.w3.org/1999/xlink" x="0px" y="0px"
	 viewBox="0 0 89.3 106" style="enable-background:new 0 0 89.3 106;" xml:space="preserve">
<style type="text/css">
	.st0{fill:#F19004;}
	.st1{fill:#F9B807;}
	.st2{fill:#37A6DE;}
	.st3{fill:#FFFFFF;}
	.st4{opacity:0.75;fill:#1D70B6;}
	.st5{fill:#1B9BD7;}
	.st6{opacity:0.3;fill:#035071;}
</style>
<g>
	<g>
		<g>
			<path class="st0" d="M41.3,8.9C35,0.9,25.7-2.3,20.3,1.8c-5.3,4.1-4.6,14,1.6,22S37.6,35,42.9,30.9C48.2,26.8,47.5,16.9,41.3,8.9
				z M27,21.5C22.5,15.7,21.4,9,24.4,6.6s9.2,0.4,13.7,6.2s5.6,12.5,2.6,14.8C37.6,30.1,31.5,27.3,27,21.5z"/>
			<path class="st1" d="M45.2,28.1c-3.1,1.5-6.8,1.3-10.5-0.3c-0.6-0.2-1.2-0.6-1.8-0.9c0,0,0,0-0.1,0c-0.1-0.1-0.3-0.2-0.4-0.3
				c-2-1.3-3.9-3-5.6-5.1c-5.6-7.3-5.8-16.6-0.3-20.8c0.3-0.2,0.6-0.4,0.9-0.6c-2.7-0.3-5.1,0.2-7.1,1.7c-5.3,4.1-4.6,14,1.6,22
				S37.6,35,42.9,30.9C43.9,30.2,44.7,29.2,45.2,28.1z"/>
		</g>
		<g>
			<path class="st0" d="M43,8.9c-6.2-8-15.6-11.2-20.9-7.1c-5.3,4.1-4.6,14,1.6,22S39.3,35,44.6,30.9C49.9,26.8,49.2,16.9,43,8.9z
				 M28.7,21.5C24.2,15.7,23.1,9,26.2,6.6s9.2,0.4,13.7,6.2s5.6,12.5,2.6,14.8C39.4,30.1,33.2,27.3,28.7,21.5z"/>
			<path class="st1" d="M47,28.1c-3.1,1.5-6.8,1.3-10.5-0.3c-0.6-0.2-1.2-0.6-1.8-0.9c0,0,0,0-0.1,0c-0.1-0.1-0.3-0.2-0.4-0.3
				c-2-1.3-3.9-3-5.6-5.1C23,14.2,22.8,4.9,28.3,0.7c0.3-0.2,0.6-0.4,0.9-0.6c-2.7-0.3-5.1,0.2-7.1,1.7c-5.3,4.1-4.6,14,1.6,22
				S39.3,35,44.6,30.9C45.6,30.2,46.4,29.2,47,28.1z"/>
		</g>
	</g>
	<g>
		<g>
			<path class="st0" d="M47.9,30.9c5.3,4.1,14.7,0.9,20.9-7.1s7-17.9,1.6-22c-5.3-4.1-14.7-0.9-20.9,7.1S42.6,26.8,47.9,30.9z
				 M50.1,27.7c-3.1-2.4-1.9-9,2.6-14.8s10.6-8.6,13.7-6.2s1.9,9-2.6,14.8S53.2,30.1,50.1,27.7z"/>
			<path class="st1" d="M45.6,28.1c3.1,1.5,6.8,1.3,10.5-0.3c0.6-0.2,1.2-0.6,1.8-0.9c0,0,0,0,0.1,0c0.1-0.1,0.3-0.2,0.4-0.3
				c2-1.3,3.9-3,5.6-5.1c5.6-7.3,5.8-16.6,0.3-20.8c-0.3-0.2-0.6-0.4-0.9-0.6c2.7-0.3,5.1,0.2,7.1,1.7c5.3,4.1,4.6,14-1.6,22
				S53.3,35,47.9,30.9C46.9,30.2,46.2,29.2,45.6,28.1z"/>
		</g>
		<g>
			<path class="st0" d="M46.2,30.9c5.3,4.1,14.7,0.9,20.9-7.1s7-17.9,1.6-22c-5.3-4.1-14.7-0.9-20.9,7.1S40.9,26.8,46.2,30.9z
				 M48.4,27.7c-3.1-2.4-1.9-9,2.6-14.8s10.6-8.6,13.7-6.2s1.9,9-2.6,14.8S51.5,30.1,48.4,27.7z"/>
			<path class="st1" d="M43.8,28.1c3.1,1.5,6.8,1.3,10.5-0.3c0.6-0.2,1.2-0.6,1.8-0.9c0,0,0,0,0.1,0c0.1-0.1,0.3-0.2,0.4-0.3
				c2-1.3,3.9-3,5.6-5.1c5.6-7.3,5.8-16.6,0.3-20.8c-0.3-0.2-0.6-0.4-0.9-0.6c2.7-0.3,5.1,0.2,7.1,1.7c5.3,4.1,4.6,14-1.6,22
				S51.5,35,46.2,30.9C45.2,30.2,44.4,29.2,43.8,28.1z"/>
		</g>
	</g>
	<g>
		<rect x="6.4" y="34.1" class="st2" width="76.5" height="71.4"/>
		<rect x="37.4" y="38.9" class="st3" width="14.4" height="67.1"/>
		
			<rect x="37.4" y="38.4" transform="matrix(4.828411e-11 -1 1 4.828411e-11 -31.9882 121.2764)" class="st3" width="14.4" height="76.5"/>
		<rect x="6.4" y="34.1" class="st4" width="76.5" height="23.4"/>
		<rect y="28.2" class="st5" width="89.3" height="22.1"/>
	</g>
	<polygon class="st6" points="45.1,28.2 45.1,106 51.9,106 51.9,105.5 82.9,105.5 82.9,57.5 82.9,50.3 89.3,50.3 89.3,28.2 	"/>
</g>
</svg>
