<svg xmlns="http://www.w3.org/2000/svg" viewBox="0 0 264.3 212.2"><path d="M162.57 105.41a1.85 1.85 0 0 1 .38-.57 2.25 2.25 0 0 1-.4-.38 2 2 0 0 1-.52.36 1.53 1.53 0 0 1 .54.59zM184.08 10.61a1.58 1.58 0 0 1-.25-.37 1.68 1.68 0 0 1-.41.52 2.15 2.15 0 0 1 .27.2 2.25 2.25 0 0 1 .39-.35zM181.28 10.75a1.68 1.68 0 0 1-.57-1 1.39 1.39 0 0 1-.79 1 1.82 1.82 0 0 1 .79.52 2 2 0 0 1 .57-.52zM177.89 13.64l-.14-.19-.13.18.12.08zM193.42 7.82a1.67 1.67 0 0 1-.53-.71 1.6 1.6 0 0 1-.34.5l-.19.16a.53.53 0 0 0 1.05 0zM196.33 7.82l-.12-.11a1.92 1.92 0 0 1-.32-.44 1.71 1.71 0 0 1-.45.52.45.45 0 0 0 .89 0zM166.17 19.82a1.77 1.77 0 0 1-.54-.78 1.53 1.53 0 0 1-.74.81 1.77 1.77 0 0 1 .72.51 2.06 2.06 0 0 1 .56-.54zM162.95 22.82a1.78 1.78 0 0 1-.37-.56 1.53 1.53 0 0 1-.54.59 1.94 1.94 0 0 1 .52.35 2.4 2.4 0 0 1 .39-.38zM198.89 8.1a2 2 0 0 1 .33-.3 1.84 1.84 0 0 1-.33-.38 2 2 0 0 1-.35.39 2.38 2.38 0 0 1 .3.25zM175.01 13.63a1.72 1.72 0 0 1-.33-.57 1.54 1.54 0 0 1-.67.76 1.82 1.82 0 0 1 .48.3 2.29 2.29 0 0 1 .52-.49zM169.27 16.82a1.65 1.65 0 0 1-.64-1.3 1.37 1.37 0 0 1-1.07 1.3 1.72 1.72 0 0 1 1 .63 2 2 0 0 1 .71-.63zM171.83 16.65a2.6 2.6 0 0 1-.16-.25 1.63 1.63 0 0 1-.39.43 1.27 1.27 0 0 1 .21.14 2.8 2.8 0 0 1 .34-.32zM186.89 10.35a1.34 1.34 0 0 1-.14.19l.23-.06zM195.44 119.88a1.69 1.69 0 0 1 .45.51 1.92 1.92 0 0 1 .44-.54 2.26 2.26 0 0 1-.41-.37 2 2 0 0 1-.48.4zM192.89 119.44a1.88 1.88 0 0 1-.55.46 1.6 1.6 0 0 1 .52.66 1.65 1.65 0 0 1 .53-.68 2 2 0 0 1-.38-.29zM183.43 116.92a1.65 1.65 0 0 1 .4.51 1.58 1.58 0 0 1 .25-.37 2.17 2.17 0 0 1-.39-.33zM180.71 116.4a1.86 1.86 0 0 1-.79.52 1.39 1.39 0 0 1 .78 1 1.69 1.69 0 0 1 .57-1 2.13 2.13 0 0 1-.56-.52zM198.89 119.61a2.32 2.32 0 0 1-.3.25 1.88 1.88 0 0 1 .35.4 1.74 1.74 0 0 1 .31-.38 1.9 1.9 0 0 1-.33-.3zM202.04 119.57a2.27 2.27 0 0 1-.33.3 1.85 1.85 0 0 1 .31.37 1.81 1.81 0 0 1 .35-.39 2.24 2.24 0 0 1-.3-.25zM208.03 8.22a1.94 1.94 0 0 1 .55-.46 1.62 1.62 0 0 1-.53-.66 1.71 1.71 0 0 1-.53.69 1.88 1.88 0 0 1 .38.29zM177.61 114.04l.13.18.14-.19-.15-.07zM204.61 119.82l.12.11a1.73 1.73 0 0 1 .32.43 1.71 1.71 0 0 1 .45-.51.45.45 0 0 0-.89 0zM207.52 119.88a1.7 1.7 0 0 1 .53.68 1.62 1.62 0 0 1 .34-.49 1.28 1.28 0 0 1 .19-.16 2 2 0 0 1-.55-.46 1.9 1.9 0 0 1-.51.43zM202.07 8.06a2 2 0 0 1 .3-.25 1.82 1.82 0 0 1-.35-.39 2 2 0 0 1-.31.38 1.94 1.94 0 0 1 .33.3zM205.49 7.82a1.72 1.72 0 0 1-.45-.52 1.78 1.78 0 0 1-.44.54 1.84 1.84 0 0 1 .41.38 2 2 0 0 1 .48-.4zM147.89 44.08a1.89 1.89 0 0 1-.52-.79 1.4 1.4 0 0 1-1 .78 1.66 1.66 0 0 1 1 .57 2 2 0 0 1 .52-.56zM147.38 84.38a1.81 1.81 0 0 1 .52-.78 2.11 2.11 0 0 1-.51-.57 1.63 1.63 0 0 1-1 .57 1.4 1.4 0 0 1 .99.78zM144.43 56.82a1.75 1.75 0 0 1 .29-.38l.13-.12a1.94 1.94 0 0 1-.46-.55 1.57 1.57 0 0 1-.65.53 1.68 1.68 0 0 1 .69.52zM147.38 80.88a2.22 2.22 0 0 1 .19-.27 2.55 2.55 0 0 1-.33-.39 1.58 1.58 0 0 1-.37.24 1.78 1.78 0 0 1 .51.42zM147.18 77.6l-.06-.23-.14.09zM147.18 50.07a1.38 1.38 0 0 1-.2.14l.14.09c.02-.08.03-.15.06-.23zM147.38 46.82a1.68 1.68 0 0 1-.52.41 1.55 1.55 0 0 1 .37.25 2.27 2.27 0 0 1 .33-.39 2.14 2.14 0 0 1-.18-.27zM144.4 71.94a2.09 2.09 0 0 1 .46-.55 1.85 1.85 0 0 1-.43-.5 1.69 1.69 0 0 1-.68.53 1.53 1.53 0 0 1 .49.34 1.41 1.41 0 0 1 .16.18zM144.43 58.82a1.71 1.71 0 0 1-.52.45 1.85 1.85 0 0 1 .54.44 1.89 1.89 0 0 1 .37-.41 1.88 1.88 0 0 1-.39-.48zM144.45 65.73a2.1 2.1 0 0 1 .25-.3 2.49 2.49 0 0 1-.3-.34 1.52 1.52 0 0 1-.38.31 2 2 0 0 1 .43.33zM144.7 62.24a.32.32 0 1 0-.64 0 1.83 1.83 0 0 1 .38.31 2.36 2.36 0 0 1 .31-.33zM144.43 68.82a1.86 1.86 0 0 1 .4-.48 1.89 1.89 0 0 1-.37-.41l-.11.12a1.9 1.9 0 0 1-.43.32 1.71 1.71 0 0 1 .51.45zM159.48 102.27a1.8 1.8 0 0 1 .35-.51 2.14 2.14 0 0 1-.38-.41 1.77 1.77 0 0 1-.56.38 1.52 1.52 0 0 1 .59.54zM156.52 99.41a1.76 1.76 0 0 1 .52-.71 2.17 2.17 0 0 1-.55-.56 1.67 1.67 0 0 1-.78.54 1.52 1.52 0 0 1 .81.73zM150.45 90.28a2 2 0 0 1 .3-.48 2.21 2.21 0 0 1-.49-.51 1.69 1.69 0 0 1-.57.33 1.57 1.57 0 0 1 .76.66zM157.03 28.97a1.77 1.77 0 0 1-.51-.72 1.52 1.52 0 0 1-.8.74 1.69 1.69 0 0 1 .78.54 2.2 2.2 0 0 1 .53-.56zM159.84 25.91a1.89 1.89 0 0 1-.35-.51 1.55 1.55 0 0 1-.59.54 1.74 1.74 0 0 1 .56.37 2.24 2.24 0 0 1 .38-.4zM153.46 93.03l.14-.22a2.19 2.19 0 0 1-.33-.34 1.36 1.36 0 0 1-.25.16 1.69 1.69 0 0 1 .44.4zM153.46 95.02a1.64 1.64 0 0 1-1.29.65 1.37 1.37 0 0 1 1.32 1.06 1.71 1.71 0 0 1 .62-1 2 2 0 0 1-.65-.71zM150.09 86.56a1 1 0 0 1 .17.13l.09-.11a1.21 1.21 0 0 0-.07-.15zM150.26 40.98l-.17.13.19.13.07-.15zM153.46 32.64a2 2 0 0 1 .65-.68 1.71 1.71 0 0 1-.62-1 1.37 1.37 0 0 1-1.32 1.06 1.65 1.65 0 0 1 1.29.62zM150.75 37.82a1.8 1.8 0 0 1-.3-.48 1.52 1.52 0 0 1-.76.67 1.7 1.7 0 0 1 .57.33 2.32 2.32 0 0 1 .49-.52zM255.69 196.63a5 5 0 0 0-1.83-1.19 7.4 7.4 0 0 0-2.63-.42h-2.34v11.56h2.34a5.44 5.44 0 0 0 5.91-5.78 7.34 7.34 0 0 0-.36-2.36 4.86 4.86 0 0 0-1.09-1.81zM153.61 34.82a1.78 1.78 0 0 1-.14-.21 1.71 1.71 0 0 1-.43.39 1.77 1.77 0 0 1 .25.16 2.62 2.62 0 0 1 .32-.34zM253.76 77.6l.2-.14-.14-.09zM250.68 40.98l-.09.11.07.15.19-.13zM253.55 44.64a1.68 1.68 0 0 1 1-.57 1.4 1.4 0 0 1-1-.78 1.85 1.85 0 0 1-.52.78 2 2 0 0 1 .52.57zM250.59 86.58l.09.11a.91.91 0 0 1 .18-.13l-.19-.13c-.03.05-.06.1-.08.15zM253.56 80.88a1.8 1.8 0 0 1 .51-.41 1.51 1.51 0 0 1-.37-.24 2.06 2.06 0 0 1-.33.39 2.94 2.94 0 0 1 .19.26zM253.56 46.82a2.81 2.81 0 0 1-.2.27 1.87 1.87 0 0 1 .33.39 1.77 1.77 0 0 1 .37-.25 1.7 1.7 0 0 1-.5-.41zM251.24 38.05a1.5 1.5 0 0 1-.76-.67 1.89 1.89 0 0 1-.3.48 2.45 2.45 0 0 1 .49.51 1.7 1.7 0 0 1 .57-.32zM247.33 92.82l.15.22a1.68 1.68 0 0 1 .42-.39 1.51 1.51 0 0 1-.25-.16 2.15 2.15 0 0 1-.32.33zM247.44 96.74a1.37 1.37 0 0 1 1.33-1.06 1.64 1.64 0 0 1-1.29-.65 2 2 0 0 1-.66.68 1.69 1.69 0 0 1 .62 1.03zM247.48 34.64a1.68 1.68 0 0 1-.15.21 2.56 2.56 0 0 1 .33.34 2 2 0 0 1 .25-.16 1.7 1.7 0 0 1-.43-.39zM247.48 32.64a1.64 1.64 0 0 1 1.3-.65 1.38 1.38 0 0 1-1.33-1.06 1.7 1.7 0 0 1-.62 1 2 2 0 0 1 .65.71zM251.24 89.61a1.69 1.69 0 0 1-.57-.33 2.59 2.59 0 0 1-.49.52 1.85 1.85 0 0 1 .3.48 1.52 1.52 0 0 1 .76-.67zM253.76 50.07c0 .07 0 .15.06.23l.14-.09zM137.94 176.72a4.87 4.87 0 0 0 1.67 1.28 5.64 5.64 0 0 0 4.52 0 4.89 4.89 0 0 0 1.67-1.28 5.67 5.67 0 0 0 1-1.92 7.86 7.86 0 0 0 0-4.68 5.66 5.66 0 0 0-1-1.92 4.94 4.94 0 0 0-1.67-1.29 5.66 5.66 0 0 0-4.52 0 4.92 4.92 0 0 0-1.67 1.29 5.66 5.66 0 0 0-1 1.92 7.84 7.84 0 0 0 0 4.68 5.67 5.67 0 0 0 1 1.92zM256.51 70.89a2.46 2.46 0 0 1-.29.39l-.14.12a1.86 1.86 0 0 1 .46.54 1.62 1.62 0 0 1 .66-.53 1.64 1.64 0 0 1-.69-.52zM78.89 108.88l-1.79-4.36c-11.5 6-23.94 2.5-28.25-10.23l-4.39 2.06c5.32 15.62 19.35 21.1 34.43 12.53zM256.49 61.94a2.72 2.72 0 0 1-.25.3 2 2 0 0 1 .3.33 1.82 1.82 0 0 1 .37-.31 1.84 1.84 0 0 1-.42-.32zM257.2 56.25a1.64 1.64 0 0 1-.49-.34l-.16-.19a2 2 0 0 1-.46.55 2 2 0 0 1 .44.5 1.68 1.68 0 0 1 .67-.52zM244.44 29.53a1.7 1.7 0 0 1 .79-.54 1.49 1.49 0 0 1-.81-.74 1.77 1.77 0 0 1-.51.72 2.07 2.07 0 0 1 .53.56zM253.04 83.6a1.84 1.84 0 0 1 .52.78 1.39 1.39 0 0 1 1-.78 1.65 1.65 0 0 1-1-.57 2 2 0 0 1-.52.57zM256.21 65.4a2.64 2.64 0 0 1 .25.3 1.86 1.86 0 0 1 .39-.35 1.54 1.54 0 0 1-.37-.31 2 2 0 0 1-.27.36zM256.51 68.82a1.51 1.51 0 0 1 .51-.45 2 2 0 0 1-.54-.44 2.18 2.18 0 0 1-.37.41 1.84 1.84 0 0 1 .4.48zM256.51 58.82a2.11 2.11 0 0 1-.4.47 1.94 1.94 0 0 1 .37.41l.12-.12a1.68 1.68 0 0 1 .43-.31 1.61 1.61 0 0 1-.52-.45zM226.89 13.82a1.54 1.54 0 0 1-.67-.75 1.66 1.66 0 0 1-.33.56 2.29 2.29 0 0 1 .52.49 1.85 1.85 0 0 1 .48-.3zM245.22 98.67a1.69 1.69 0 0 1-.79-.54 2 2 0 0 1-.54.56 1.84 1.84 0 0 1 .51.72 1.5 1.5 0 0 1 .82-.74zM219.66 116.92a1.65 1.65 0 0 1 .57 1 1.39 1.39 0 0 1 .79-1 1.84 1.84 0 0 1-.79-.52 2.12 2.12 0 0 1-.57.52zM214.09 117.32c0-.07.09-.13.14-.19l-.23.05zM174.02 113.82a1.53 1.53 0 0 1 .67.76 1.74 1.74 0 0 1 .33-.57 2.37 2.37 0 0 1-.52-.49 1.87 1.87 0 0 1-.48.3zM223.33 13.63l-.13-.18-.13.19.16.07zM220.23 11.27a1.9 1.9 0 0 1 .79-.52 1.4 1.4 0 0 1-.79-1 1.62 1.62 0 0 1-.57 1 2 2 0 0 1 .57.52zM214.09 10.35l-.09.14.23.06a1.6 1.6 0 0 1-.14-.2zM217.51 10.75a1.66 1.66 0 0 1-.41-.52 1.76 1.76 0 0 1-.25.37 2.54 2.54 0 0 1 .39.33 2 2 0 0 1 .27-.18zM168.6 110.19a1.73 1.73 0 0 1-1 .63 1.37 1.37 0 0 1 1.07 1.32 1.63 1.63 0 0 1 .65-1.3 2 2 0 0 1-.72-.65zM171.27 110.82a1.64 1.64 0 0 1 .39.43l.16-.25a2.86 2.86 0 0 1-.34-.32 1.82 1.82 0 0 1-.21.14zM165.61 107.27a1.75 1.75 0 0 1-.72.51 1.49 1.49 0 0 1 .74.81 1.74 1.74 0 0 1 .54-.78 2.06 2.06 0 0 1-.56-.54zM229.67 16.82a1.73 1.73 0 0 1-.4-.43 1.25 1.25 0 0 1-.16.25 2.36 2.36 0 0 1 .34.33 1.42 1.42 0 0 1 .22-.15zM216.89 117.06a1.76 1.76 0 0 1 .25.37 1.64 1.64 0 0 1 .41-.51 2 2 0 0 1-.27-.19 2.57 2.57 0 0 1-.39.33zM238.89 22.82a1.55 1.55 0 0 1-.54-.59 1.81 1.81 0 0 1-.38.56 2.26 2.26 0 0 1 .41.39 1.84 1.84 0 0 1 .51-.36zM235.33 20.4a1.77 1.77 0 0 1 .72-.51 1.52 1.52 0 0 1-.74-.81 1.76 1.76 0 0 1-.54.78 2 2 0 0 1 .56.54zM238.89 104.82a2 2 0 0 1-.51-.36 2.19 2.19 0 0 1-.41.38 1.88 1.88 0 0 1 .38.57 1.54 1.54 0 0 1 .54-.59zM242.05 101.73a1.8 1.8 0 0 1-.57-.38 2.09 2.09 0 0 1-.38.41 2 2 0 0 1 .36.51 1.52 1.52 0 0 1 .59-.54zM242.05 25.94a1.57 1.57 0 0 1-.59-.54 2.14 2.14 0 0 1-.35.51 2.28 2.28 0 0 1 .38.4 1.8 1.8 0 0 1 .56-.37zM232.34 17.48a1.71 1.71 0 0 1 1-.62 1.37 1.37 0 0 1-1.06-1.32 1.63 1.63 0 0 1-.65 1.29 2 2 0 0 1 .71.65zM236.05 107.82a1.75 1.75 0 0 1-.72-.51 2 2 0 0 1-.56.54 1.69 1.69 0 0 1 .54.78 1.5 1.5 0 0 1 .74-.81zM229.11 111.02a1.57 1.57 0 0 1 .16.25 1.68 1.68 0 0 1 .4-.43 1.27 1.27 0 0 1-.22-.15 2 2 0 0 1-.34.33zM231.66 110.82a1.63 1.63 0 0 1 .65 1.29 1.37 1.37 0 0 1 1.06-1.32 1.73 1.73 0 0 1-1-.62 2 2 0 0 1-.71.65zM223.06 114.02c0 .06.09.13.13.2a1.46 1.46 0 0 1 .13-.18l-.11-.09zM225.89 114.04a1.66 1.66 0 0 1 .32.57 1.54 1.54 0 0 1 .68-.79 1.79 1.79 0 0 1-.48-.3 2.38 2.38 0 0 1-.52.52zM186.89 117.32l.09-.14-.23-.05a1.13 1.13 0 0 1 .14.19zM70.89 72.28a3.94 3.94 0 1 0 3.94 3.93 3.94 3.94 0 0 0-3.94-3.93zM216.32 200.82a7.37 7.37 0 0 0-.36-2.36 4.87 4.87 0 0 0-1.09-1.82 5 5 0 0 0-1.84-1.19 7.39 7.39 0 0 0-2.63-.42h-2.34v11.56h2.34a5.44 5.44 0 0 0 5.91-5.78zM86.54 12.28a2.62 2.62 0 0 0-.84-.59 2.7 2.7 0 0 0-2.12 0 2.68 2.68 0 0 0-.85.59 2.63 2.63 0 0 0-.56.88 3 3 0 0 0 0 2.16 2.72 2.72 0 0 0 .56.88 2.56 2.56 0 0 0 .85.58 2.81 2.81 0 0 0 2.14 0 2.53 2.53 0 0 0 .84-.58 2.65 2.65 0 0 0 .56-.87 3 3 0 0 0 0-2.16 2.66 2.66 0 0 0-.58-.89zm-1.12 3.66l-.77-1.34h-.55v1.34h-.66v-3.45h1.33a1.49 1.49 0 0 1 .55.09 1.21 1.21 0 0 1 .38.24.87.87 0 0 1 .22.33 1 1 0 0 1 .07.36 1.13 1.13 0 0 1-.17.6 1 1 0 0 1-.51.41l.84 1.43zM31.35 196.51a4.9 4.9 0 0 0-1.67-1.28 5.64 5.64 0 0 0-4.52 0 4.9 4.9 0 0 0-1.67 1.28 5.65 5.65 0 0 0-1 1.92 7.84 7.84 0 0 0 0 4.68 5.64 5.64 0 0 0 1 1.92 4.9 4.9 0 0 0 1.67 1.28 5.64 5.64 0 0 0 4.52 0 4.9 4.9 0 0 0 1.67-1.28 5.68 5.68 0 0 0 1-1.92 7.89 7.89 0 0 0 0-4.68 5.69 5.69 0 0 0-1-1.92zM106.38 194.53h-2.76v5.23h2.79a2.53 2.53 0 0 0 1.85-.7 2.49 2.49 0 0 0 .71-1.87 2.71 2.71 0 0 0-.68-1.95 2.53 2.53 0 0 0-1.91-.71zM186.24 166.71l-2.51 7.97h4.91l-2.4-7.97M91.93 174.68h4.9l-2.4-7.97-2.5 7.97" fill="none"/><circle cx="87.83" cy="80.98" r="3.54" fill="none"/><path d="M85.17 13.16a.71.71 0 0 0-.47-.13h-.61v1h.65a.58.58 0 0 0 .44-.15.55.55 0 0 0 .14-.39.48.48 0 0 0-.15-.33z" fill="none"/><path fill="#fff" d="M0 211.65h15.79v-5.07H5.75v-16.59H0v21.66M31.89 190.24a12.46 12.46 0 0 0-9 0 10.56 10.56 0 0 0-5.93 6 12.76 12.76 0 0 0 0 9.13 10.71 10.71 0 0 0 2.36 3.61 10.94 10.94 0 0 0 3.57 2.37 12.23 12.23 0 0 0 9 0 10.54 10.54 0 0 0 5.91-6 12.74 12.74 0 0 0 0-9.13 10.8 10.8 0 0 0-2.34-3.61 10.56 10.56 0 0 0-3.57-2.37zm.46 12.86a5.68 5.68 0 0 1-1 1.92 4.9 4.9 0 0 1-1.67 1.28 5.64 5.64 0 0 1-4.52 0 4.9 4.9 0 0 1-1.67-1.28 5.64 5.64 0 0 1-1-1.92 7.84 7.84 0 0 1 0-4.68 5.65 5.65 0 0 1 1-1.92 4.9 4.9 0 0 1 1.67-1.28 5.64 5.64 0 0 1 4.52 0 4.9 4.9 0 0 1 1.67 1.28 5.69 5.69 0 0 1 1 1.92 7.89 7.89 0 0 1 0 4.68zM51.52 211.65v-16.63h6.6v-5.03H39.05v5.03h6.66v16.63h5.81M71.36 211.65v-16.63h6.59v-5.03H58.89v5.03h6.65v16.63h5.82M95.62 206.68H85.09v-3.7h8.09v-4.68h-8.09v-3.34h9.85v-4.97h-15.6v21.66h16.28v-4.97M113.72 200.82a7.1 7.1 0 0 0 .94-3.72 8 8 0 0 0-.55-3.08 6 6 0 0 0-1.56-2.22 6.69 6.69 0 0 0-2.42-1.35 10.33 10.33 0 0 0-3.17-.45h-9v21.66h5.62v-7.37h2.4l3.67 7.37h6.24l-4.64-8.31a7.23 7.23 0 0 0 2.47-2.53zm-5.46-1.75a2.53 2.53 0 0 1-1.85.7h-2.79v-5.23h2.76a2.53 2.53 0 0 1 1.92.71 2.71 2.71 0 0 1 .68 1.95 2.49 2.49 0 0 1-.72 1.86zM114.54 189.99l7.7 13.02v8.64h5.74v-8.67l7.74-12.99h-6.4l-3.97 7.73-4.22-7.73h-6.59M156.67 195.02v-5.03h-15.11v21.66h5.75v-7.7h7.24v-4.74h-7.24v-4.19h9.36M160.7 209.82a8.6 8.6 0 0 0 3 1.77 11.13 11.13 0 0 0 3.77.62 11 11 0 0 0 3.75-.62 8.52 8.52 0 0 0 3-1.79 7.94 7.94 0 0 0 1.93-2.84 9.88 9.88 0 0 0 .68-3.75v-13.23h-5.82v12.7a4.93 4.93 0 0 1-.81 2.91 3.1 3.1 0 0 1-2.73 1.15 3.16 3.16 0 0 1-2.74-1.14 4.84 4.84 0 0 1-.83-2.92v-12.7h-5.81v13.22a10 10 0 0 0 .68 3.78 7.76 7.76 0 0 0 1.93 2.84zM185.55 199.21l8.63 12.44h4.91v-21.66h-5.68v12.08l-8.32-12.08h-5.23v21.66h5.69v-12.44M215.22 210.98a10.21 10.21 0 0 0 3.7-2 9.46 9.46 0 0 0 2.45-3.34 11.42 11.42 0 0 0 .89-4.69 12.56 12.56 0 0 0-.88-4.91 9 9 0 0 0-2.44-3.41 10.17 10.17 0 0 0-3.69-2 15.81 15.81 0 0 0-4.63-.65h-8.32v21.66h8.28a15.46 15.46 0 0 0 4.64-.66zm-7.15-4.4v-11.56h2.34a7.39 7.39 0 0 1 2.63.42 5 5 0 0 1 1.84 1.19 4.87 4.87 0 0 1 1.09 1.82 7.37 7.37 0 0 1 .36 2.36 5.44 5.44 0 0 1-5.91 5.78zM240.75 206.68h-10.52v-3.7h8.08v-4.68h-8.08v-3.34h9.84v-4.97h-15.59v21.66h16.27v-4.97M256.07 190.63a15.81 15.81 0 0 0-4.63-.65h-8.32v21.66h8.28a15.45 15.45 0 0 0 4.61-.67 10.21 10.21 0 0 0 3.7-2 9.47 9.47 0 0 0 2.45-3.34 11.42 11.42 0 0 0 .89-4.69 12.56 12.56 0 0 0-.88-4.91 9 9 0 0 0-2.44-3.41 10.17 10.17 0 0 0-3.66-1.99zm-.49 14.34a5.76 5.76 0 0 1-4.37 1.61h-2.32v-11.56h2.34a7.4 7.4 0 0 1 2.63.42 5 5 0 0 1 1.83 1.19 4.86 4.86 0 0 1 1.09 1.82 7.34 7.34 0 0 1 .36 2.36 5.78 5.78 0 0 1-1.55 4.16zM82.5 161.68h-5.69v12.09l-8.32-12.09h-5.24v21.68h5.69v-12.45l8.65 12.45h4.91v-21.68M91.35 161.67l-8 21.68h5.95l1.43-4.49h7.25l1.4 4.49h6.21l-7.67-21.68zm.59 13l2.5-8 2.41 8zM102.76 166.71h6.66v16.65h5.82v-16.65h6.6v-5.03h-19.08v5.03M122.88 161.68h5.75v21.68h-5.75zM131.44 167.9a12.77 12.77 0 0 0 0 9.13 10.71 10.71 0 0 0 2.36 3.61 11 11 0 0 0 3.57 2.37 11.59 11.59 0 0 0 4.5.86 11.72 11.72 0 0 0 4.52-.86 10.55 10.55 0 0 0 5.92-6 12.77 12.77 0 0 0 0-9.13 10.83 10.83 0 0 0-2.34-3.61 10.57 10.57 0 0 0-3.58-2.36 11.89 11.89 0 0 0-4.52-.85 11.77 11.77 0 0 0-4.5.85 10.56 10.56 0 0 0-5.93 6zm5.45 2.22a5.66 5.66 0 0 1 1-1.92 4.92 4.92 0 0 1 1.67-1.29 5.66 5.66 0 0 1 4.52 0 4.94 4.94 0 0 1 1.67 1.29 5.66 5.66 0 0 1 1 1.92 7.86 7.86 0 0 1 0 4.68 5.67 5.67 0 0 1-1 1.92 4.89 4.89 0 0 1-1.67 1.28 5.64 5.64 0 0 1-4.52 0 4.87 4.87 0 0 1-1.67-1.28 5.67 5.67 0 0 1-1-1.92 7.84 7.84 0 0 1 0-4.68zM160.75 170.91l8.65 12.45h4.9v-21.68h-5.68v12.09l-8.33-12.09h-5.23v21.68h5.69v-12.45M182.57 178.82h7.25l1.4 4.49h6.21l-7.67-21.68h-6.6l-8 21.68h5.95zm3.67-12.16l2.4 8h-4.91zM214.1 178.29h-10.05v-16.61h-5.75v21.68h15.8v-5.07"/><circle cx="155.17" cy="109.13" r=".24" fill="#fff"/><circle cx="158.19" cy="106.11" r="1.14" fill="#fff"/><circle cx="158.19" cy="109.13" r=".51" fill="#fff"/><circle cx="158.19" cy="112.15" r=".23" fill="#fff"/><circle cx="161.21" cy="109.13" r="1.06" fill="#fff"/><circle cx="161.21" cy="112.15" r=".42" fill="#fff"/><circle cx="161.21" cy="115.17" r=".21" fill="#fff"/><circle cx="164.23" cy="112.15" r=".93" fill="#fff"/><circle cx="164.23" cy="115.17" r=".35" fill="#fff"/><circle cx="164.23" cy="118.19" r=".13" fill="#fff"/><path d="M167.99 115.16a.74.74 0 1 0-.74.74.74.74 0 0 0 .74-.74z" fill="#fff"/><circle cx="167.25" cy="118.19" r=".28" fill="#fff"/><path d="M186.57 121.2a1.2 1.2 0 1 0-1.21 1.21 1.2 1.2 0 0 0 1.21-1.21zM183.36 121.2a1 1 0 1 0-1 1 1 1 0 0 0 1-1z" fill="#fff"/><circle cx="179.33" cy="121.21" r=".74" fill="#fff"/><circle cx="176.31" cy="121.21" r=".46" fill="#fff"/><circle cx="179.33" cy="124.23" r=".24" fill="#fff"/><circle cx="185.37" cy="127.25" r=".13" fill="#fff"/><circle cx="176.31" cy="124.23" r=".15" fill="#fff"/><circle cx="170.27" cy="121.21" r=".15" fill="#fff"/><circle cx="182.35" cy="124.23" r=".31" fill="#fff"/><circle cx="185.36" cy="124.23" r=".46" fill="#fff"/><circle cx="188.39" cy="124.23" r=".63" fill="#fff"/><circle cx="188.39" cy="127.25" r=".21" fill="#fff"/><circle cx="173.29" cy="121.21" r=".29" fill="#fff"/><circle cx="176.31" cy="118.19" r="1.14" fill="#fff"/><circle cx="173.29" cy="118.19" r=".81" fill="#fff"/><circle cx="170.27" cy="118.19" r=".42" fill="#fff"/><circle cx="170.27" cy="115.17" r="1.13" fill="#fff"/><circle cx="155.17" cy="106.11" r=".51" fill="#fff"/><circle cx="152.15" cy="106.11" r=".23" fill="#fff"/><path d="M156.23 103.09a1.06 1.06 0 1 0-1.05 1.06 1.05 1.05 0 0 0 1.05-1.06z" fill="#fff"/><circle cx="152.15" cy="103.09" r=".42" fill="#fff"/><circle cx="149.13" cy="103.09" r=".21" fill="#fff"/><ellipse cx="152.15" cy="100.07" rx=".94" ry=".93" fill="#fff"/><circle cx="149.13" cy="100.07" r=".35" fill="#fff"/><circle cx="146.11" cy="100.07" r=".13" fill="#fff"/><circle cx="149.13" cy="97.05" r=".74" fill="#fff"/><path d="M146.4 97.05a.28.28 0 0 0-.56 0 .28.28 0 1 0 .56 0zM143.09 77.73a1.2 1.2 0 1 0 1.2 1.21 1.2 1.2 0 0 0-1.2-1.21z" fill="#fff"/><circle cx="143.09" cy="81.96" r="1.01" fill="#fff"/><path d="M143.84 84.97a.74.74 0 1 0-.74.75.74.74 0 0 0 .74-.75z" fill="#fff"/><ellipse cx="143.09" cy="87.99" rx=".46" ry=".45" fill="#fff"/><path d="M140.32 84.97a.24.24 0 1 0-.25.25.24.24 0 0 0 .25-.25z" fill="#fff"/><circle cx="137.05" cy="78.93" r=".13" fill="#fff"/><path d="M139.89 88a.14.14 0 0 0 .14.14.14.14 0 0 0 .15-.14.15.15 0 0 0-.15-.15.14.14 0 0 0-.14.15z" fill="#fff"/><circle cx="143.09" cy="94.03" r=".15" fill="#fff"/><path d="M140.07 81.64a.31.31 0 0 0 0 .62.31.31 0 1 0 0-.62z" fill="#fff"/><circle cx="140.07" cy="78.94" r=".45" fill="#fff"/><path d="M140.07 75.29a.62.62 0 1 0 .63.62.61.61 0 0 0-.63-.62z" fill="#fff"/><circle cx="137.05" cy="75.91" r=".21" fill="#fff"/><circle cx="143.09" cy="91.01" r=".29" fill="#fff"/><path d="M146.11 86.82a1.14 1.14 0 1 0 1.14 1.14 1.14 1.14 0 0 0-1.14-1.14z" fill="#fff"/><circle cx="146.11" cy="91.01" r=".81" fill="#fff"/><circle cx="146.11" cy="94.03" r=".42" fill="#fff"/><path d="M150.26 94.03a1.13 1.13 0 1 0-1.13 1.13 1.13 1.13 0 0 0 1.13-1.13z" fill="#fff"/><circle cx="155.17" cy="18.54" r=".24" fill="#fff"/><circle cx="158.19" cy="21.56" r="1.14" fill="#fff"/><circle cx="618.3" cy="11.72" r=".52" transform="rotate(-89.79 391.65 246.055)" fill="#fff"/><circle cx="158.19" cy="15.52" r=".23" fill="#fff"/><circle cx="161.21" cy="18.54" r="1.06" fill="#fff"/><circle cx="161.21" cy="15.52" r=".42" fill="#fff"/><circle cx="161.21" cy="12.5" r=".21" fill="#fff"/><circle cx="164.23" cy="15.52" r=".93" fill="#fff"/><circle cx="164.23" cy="12.5" r=".35" fill="#fff"/><circle cx="164.23" cy="9.48" r=".13" fill="#fff"/><path d="M166.51 12.5a.74.74 0 1 0 .74-.74.74.74 0 0 0-.74.74z" fill="#fff"/><circle cx="167.25" cy="9.48" r=".28" fill="#fff"/><path d="M184.17 6.46a1.21 1.21 0 0 0 1.2 1.21 1.2 1.2 0 0 0 1.21-1.21 1.2 1.2 0 0 0-1.21-1.2 1.2 1.2 0 0 0-1.2 1.2z" fill="#fff"/><circle cx="182.35" cy="6.46" r="1.01" fill="#fff"/><circle cx="179.33" cy="6.46" r=".74" fill="#fff"/><circle cx="176.31" cy="6.46" r=".46" fill="#fff"/><circle cx="179.33" cy="3.44" r=".24" fill="#fff"/><circle cx="185.37" cy=".43" r=".13" fill="#fff"/><circle cx="176.31" cy="3.44" r=".15" fill="#fff"/><circle cx="170.27" cy="6.47" r=".15" fill="#fff"/><circle cx="182.35" cy="3.44" r=".31" fill="#fff"/><circle cx="185.36" cy="3.44" r=".46" fill="#fff"/><circle cx="188.39" cy="3.44" r=".63" fill="#fff"/><circle cx="191.41" cy="3.44" r=".86" fill="#fff"/><path d="M193.51 3.44a.91.91 0 0 0 .27.65.93.93 0 0 0 .65.27.92.92 0 0 0 .92-.92.92.92 0 0 0-.92-.93.91.91 0 0 0-.65.27.91.91 0 0 0-.27.66zM196.43 3.44a1 1 0 0 0 .3.72 1 1 0 0 0 .72.3 1 1 0 0 0 1-1 1 1 0 0 0-1-1 1 1 0 0 0-.72.3 1 1 0 0 0-.3.68z" fill="#fff"/><circle cx="188.39" cy=".42" r=".21" fill="#fff"/><circle cx="191.41" cy=".42" r=".36" fill="#fff"/><path d="M194.83.42a.4.4 0 0 0-.11-.28.41.41 0 0 0-.28-.11.4.4 0 0 0-.4.39.4.4 0 0 0 .4.4.39.39 0 0 0 .39-.4zM197.74.71a.4.4 0 0 0 .15-.29.39.39 0 0 0-.12-.29.39.39 0 0 0-.29-.12.4.4 0 0 0-.4.4.41.41 0 0 0 .4.41.41.41 0 0 0 .26-.11z" fill="#fff"/><circle cx="173.29" cy="6.46" r=".29" fill="#fff"/><circle cx="176.31" cy="9.48" r="1.14" fill="#fff"/><circle cx="173.29" cy="9.48" r=".81" fill="#fff"/><circle cx="170.27" cy="9.48" r=".42" fill="#fff"/><circle cx="170.27" cy="12.5" r="1.13" fill="#fff"/><path d="M199.39 3.44a1.07 1.07 0 0 0 1.07 1.07 1.08 1.08 0 0 0 1.08-1.07 1.08 1.08 0 0 0-1.08-1.08 1.08 1.08 0 0 0-.76.32 1.07 1.07 0 0 0-.31.76zM200.77.72a.41.41 0 0 0 .13-.3.43.43 0 0 0-.43-.42.44.44 0 0 0-.3.12.42.42 0 0 0-.12.3.42.42 0 0 0 .12.3.44.44 0 0 0 .3.12.42.42 0 0 0 .3-.12z" fill="#fff"/><circle cx="155.17" cy="21.56" r=".51" fill="#fff"/><circle cx="152.15" cy="21.56" r=".23" fill="#fff"/><path d="M154.12 24.58a1.06 1.06 0 1 0 1.06-1.06 1.06 1.06 0 0 0-1.06 1.06z" fill="#fff"/><circle cx="152.15" cy="24.58" r=".42" fill="#fff"/><circle cx="149.13" cy="24.58" r=".21" fill="#fff"/><circle cx="152.15" cy="27.6" r=".93" fill="#fff"/><circle cx="149.13" cy="27.6" r=".35" fill="#fff"/><circle cx="146.11" cy="27.6" r=".13" fill="#fff"/><circle cx="149.13" cy="30.62" r=".74" fill="#fff"/><circle cx="146.11" cy="30.62" r=".28" fill="#fff"/><circle cx="143.09" cy="48.74" r="1.2" fill="#fff"/><circle cx="143.09" cy="45.72" r="1.01" fill="#fff"/><circle cx="143.09" cy="42.7" r=".74" fill="#fff"/><circle cx="143.09" cy="39.68" r=".46" fill="#fff"/><circle cx="140.07" cy="42.7" r=".24" fill="#fff"/><circle cx="137.05" cy="48.74" r=".13" fill="#fff"/><circle cx="236.7" cy="118.19" r=".13" fill="#fff"/><circle cx="215.56" cy="127.25" r=".13" fill="#fff"/><circle cx="254.82" cy="100.07" r=".13" fill="#fff"/><circle cx="263.88" cy="78.93" r=".13" fill="#fff"/><circle cx="236.7" cy="9.48" r=".13" fill="#fff"/><circle cx="215.56" cy=".43" r=".13" fill="#fff"/><circle cx="254.82" cy="27.6" r=".13" fill="#fff"/><circle cx="263.88" cy="48.74" r=".13" fill="#fff"/><circle cx="140.07" cy="39.68" r=".15" fill="#fff"/><circle cx="143.09" cy="33.64" r=".15" fill="#fff"/><circle cx="140.07" cy="45.72" r=".31" fill="#fff"/><circle cx="140.07" cy="48.74" r=".45" fill="#fff"/><path d="M140.07 52.38a.63.63 0 1 0-.62-.62.62.62 0 0 0 .62.62z" fill="#fff"/><circle cx="137.05" cy="51.76" r=".21" fill="#fff"/><circle cx="143.09" cy="36.66" r=".29" fill="#fff"/><circle cx="146.11" cy="39.68" r="1.14" fill="#fff"/><circle cx="146.11" cy="36.66" r=".81" fill="#fff"/><circle cx="146.11" cy="33.64" r=".42" fill="#fff"/><circle cx="149.13" cy="33.64" r="1.13" fill="#fff"/><circle cx="245.76" cy="109.13" r=".24" fill="#fff"/><circle cx="242.74" cy="106.11" r="1.14" fill="#fff"/><circle cx="242.74" cy="109.13" r=".52" fill="#fff"/><circle cx="242.74" cy="112.15" r=".23" fill="#fff"/><circle cx="239.72" cy="109.13" r="1.06" fill="#fff"/><circle cx="239.72" cy="112.15" r=".42" fill="#fff"/><circle cx="239.72" cy="115.17" r=".21" fill="#fff"/><circle cx="236.7" cy="112.15" r=".93" fill="#fff"/><circle cx="236.7" cy="115.17" r=".35" fill="#fff"/><circle cx="233.68" cy="115.17" r=".74" fill="#fff"/><circle cx="233.68" cy="118.19" r=".28" fill="#fff"/><circle cx="215.56" cy="121.21" r="1.2" fill="#fff"/><circle cx="218.58" cy="121.21" r="1.01" fill="#fff"/><circle cx="221.6" cy="121.21" r=".74" fill="#fff"/><circle cx="224.62" cy="121.21" r=".45" fill="#fff"/><circle cx="221.6" cy="124.23" r=".24" fill="#fff"/><circle cx="224.62" cy="124.23" r=".15" fill="#fff"/><circle cx="230.66" cy="121.21" r=".15" fill="#fff"/><circle cx="218.58" cy="124.23" r=".31" fill="#fff"/><circle cx="215.56" cy="124.23" r=".46" fill="#fff"/><circle cx="212.54" cy="124.23" r=".62" fill="#fff"/><circle cx="212.54" cy="127.25" r=".21" fill="#fff"/><circle cx="227.64" cy="121.21" r=".29" fill="#fff"/><circle cx="224.62" cy="118.19" r="1.14" fill="#fff"/><circle cx="227.64" cy="118.19" r=".81" fill="#fff"/><circle cx="230.66" cy="118.19" r=".42" fill="#fff"/><circle cx="230.66" cy="115.17" r="1.13" fill="#fff"/><circle cx="245.76" cy="106.11" r=".51" fill="#fff"/><circle cx="248.78" cy="106.11" r=".23" fill="#fff"/><circle cx="245.76" cy="103.09" r="1.06" fill="#fff"/><circle cx="248.78" cy="103.09" r=".42" fill="#fff"/><circle cx="251.8" cy="103.09" r=".21" fill="#fff"/><circle cx="248.78" cy="100.07" r=".93" fill="#fff"/><circle cx="251.8" cy="100.07" r=".35" fill="#fff"/><circle cx="251.8" cy="97.05" r=".74" fill="#fff"/><circle cx="254.82" cy="97.05" r=".28" fill="#fff"/><path d="M257.89 77.73a1.2 1.2 0 1 0 1.2 1.21 1.2 1.2 0 0 0-1.2-1.21z" fill="#fff"/><circle cx="257.84" cy="81.96" r="1.01" fill="#fff"/><path d="M258.59 84.97a.74.74 0 1 0-.74.75.74.74 0 0 0 .74-.75zM258.3 88a.46.46 0 1 0-.46.45.46.46 0 0 0 .46-.45zM261.1 84.97a.24.24 0 1 0-.24.25.24.24 0 0 0 .24-.25zM260.71 88a.14.14 0 0 0 .15.14.14.14 0 0 0 .15-.14.14.14 0 0 0-.12-.18.15.15 0 0 0-.18.18z" fill="#fff"/><circle cx="257.84" cy="94.03" r=".15" fill="#fff"/><circle cx="260.86" cy="81.95" r=".31" fill="#fff"/><path d="M261.32 78.93a.46.46 0 0 0-.46-.46.46.46 0 0 0 0 .92.47.47 0 0 0 .46-.46zM260.89 75.29a.62.62 0 1 0 .62.62.62.62 0 0 0-.62-.62z" fill="#fff"/><circle cx="263.88" cy="75.91" r=".21" fill="#fff"/><circle cx="257.84" cy="91.01" r=".29" fill="#fff"/><path d="M254.82 86.82a1.14 1.14 0 1 0 1.14 1.14 1.14 1.14 0 0 0-1.14-1.14z" fill="#fff"/><circle cx="254.82" cy="91.01" r=".81" fill="#fff"/><circle cx="254.82" cy="94.03" r=".42" fill="#fff"/><circle cx="251.8" cy="94.03" r="1.13" fill="#fff"/><circle cx="245.76" cy="18.54" r=".24" fill="#fff"/><circle cx="242.74" cy="21.56" r="1.14" fill="#fff"/><circle cx="702.85" cy="11.72" r=".52" transform="rotate(-.21 2345.504 125550.546)" fill="#fff"/><circle cx="242.74" cy="15.52" r=".23" fill="#fff"/><circle cx="239.72" cy="18.54" r="1.06" fill="#fff"/><circle cx="239.72" cy="15.52" r=".42" fill="#fff"/><circle cx="239.72" cy="12.5" r=".21" fill="#fff"/><circle cx="236.7" cy="15.52" r=".93" fill="#fff"/><circle cx="236.7" cy="12.5" r=".35" fill="#fff"/><circle cx="233.68" cy="12.5" r=".74" fill="#fff"/><circle cx="233.68" cy="9.48" r=".28" fill="#fff"/><circle cx="215.56" cy="6.46" r="1.2" fill="#fff"/><circle cx="218.58" cy="6.46" r="1.01" fill="#fff"/><circle cx="221.6" cy="6.46" r=".74" fill="#fff"/><circle cx="224.62" cy="6.46" r=".45" fill="#fff"/><circle cx="221.6" cy="3.44" r=".24" fill="#fff"/><circle cx="224.62" cy="3.44" r=".15" fill="#fff"/><circle cx="230.66" cy="6.47" r=".15" fill="#fff"/><circle cx="218.58" cy="3.44" r=".31" fill="#fff"/><circle cx="215.56" cy="3.44" r=".46" fill="#fff"/><circle cx="212.54" cy="3.44" r=".62" fill="#fff"/><path d="M208.67 3.44a.85.85 0 0 0 .85.85.85.85 0 0 0 .86-.85.85.85 0 0 0-.25-.61.84.84 0 0 0-.61-.25.86.86 0 0 0-.85.86zM205.59 3.44a.91.91 0 0 0 .27.65.92.92 0 0 0 .65.27.92.92 0 0 0 .65-.27.92.92 0 0 0 .27-.65.92.92 0 0 0-.92-.92.92.92 0 0 0-.92.92z" fill="#fff"/><circle cx="203.48" cy="3.44" r="1.02" fill="#fff"/><circle cx="212.54" cy=".42" r=".21" fill="#fff"/><path d="M209.89.42a.35.35 0 0 0-.36-.35.36.36 0 0 0-.36.35.36.36 0 0 0 .36.36.36.36 0 0 0 .36-.36zM206.89.42a.39.39 0 0 0-.4-.39.4.4 0 0 0-.4.39.41.41 0 0 0 .12.28.39.39 0 0 0 .28.11.39.39 0 0 0 .4-.39z" fill="#fff"/><circle cx="203.48" cy=".42" r=".41" fill="#fff"/><circle cx="227.64" cy="6.46" r=".29" fill="#fff"/><circle cx="140.07" cy="72.9" r=".86" fill="#fff"/><path d="M140.07 68.95a.92.92 0 0 0-.65 1.57.92.92 0 0 0 1.31 0 .92.92 0 0 0-.66-1.57zM140.07 65.82a1 1 0 0 0-1 1 1 1 0 0 0 2 0 1 1 0 0 0-1-1z" fill="#fff"/><circle cx="137.05" cy="72.9" r=".36" fill="#fff"/><path d="M137.06 69.48a.39.39 0 0 0-.4.4.4.4 0 1 0 .4-.4zM137.35 66.57a.4.4 0 0 0-.29-.12.39.39 0 0 0-.28.12.4.4 0 0 0-.12.29.41.41 0 0 0 .81 0 .42.42 0 0 0-.12-.29zM139.32 64.6a1.07 1.07 0 0 0 .76.32 1.08 1.08 0 1 0-.76-.32zM136.76 64.13a.41.41 0 0 0 .6 0 .42.42 0 0 0 .12-.3.45.45 0 0 0-.12-.3.424.424 0 0 0-.6.6zM140.07 55.63a.86.86 0 0 0 0-1.71.84.84 0 0 0-.6.25.86.86 0 0 0 .6 1.46zM140.07 58.72a.93.93 0 0 0 .66-.27.93.93 0 0 0 0-1.31.92.92 0 0 0-.65-.27.92.92 0 0 0 0 1.84z" fill="#fff"/><circle cx="140.07" cy="60.82" r="1.02" fill="#fff"/><circle cx="137.05" cy="54.78" r=".36" fill="#fff"/><path d="M137.05 58.19a.43.43 0 0 0 .28-.11.41.41 0 0 0 .11-.28.4.4 0 1 0-.4.4z" fill="#fff"/><circle cx="137.05" cy="60.82" r=".41" fill="#fff"/><circle cx="209.53" cy="124.23" r=".86" fill="#fff"/><path d="M207.43 124.23a.93.93 0 0 0-.92-.92.925.925 0 0 0 0 1.85.93.93 0 0 0 .92-.92zM204.51 124.23a1 1 0 0 0-.3-.73 1 1 0 0 0-1.75.73 1 1 0 0 0 1 1 1 1 0 0 0 .72-.3 1 1 0 0 0 .33-.7z" fill="#fff"/><circle cx="209.53" cy="127.25" r=".36" fill="#fff"/><path d="M206.11 127.25a.39.39 0 0 0 .12.28.39.39 0 0 0 .28.11.39.39 0 1 0-.4-.39zM203.2 126.96a.41.41 0 0 0 0 .58.42.42 0 0 0 .29.12.41.41 0 0 0 0-.82.4.4 0 0 0-.29.12zM201.55 124.23a1.08 1.08 0 1 0-1.08 1.07 1.06 1.06 0 0 0 .76-.31 1.08 1.08 0 0 0 .32-.76zM200.17 126.94a.43.43 0 0 0-.12.3.42.42 0 0 0 .72.3.43.43 0 0 0 0-.6.42.42 0 0 0-.3-.12.43.43 0 0 0-.3.12zM192.26 124.23a.86.86 0 1 0-1.71 0 .83.83 0 0 0 .25.6.84.84 0 0 0 .61.25.86.86 0 0 0 .85-.85zM195.35 124.23a.92.92 0 0 0-1.57-.65.9.9 0 0 0-.27.65.92.92 0 1 0 1.84 0z" fill="#fff"/><circle cx="197.44" cy="124.23" r="1.02" fill="#fff"/><circle cx="191.41" cy="127.25" r=".36" fill="#fff"/><path d="M194.03 127.25a.4.4 0 0 0 .79 0 .39.39 0 0 0-.4-.4.4.4 0 0 0-.39.4zM197.04 127.25a.41.41 0 1 0 .41-.41.41.41 0 0 0-.41.41z" fill="#fff"/><circle cx="260.86" cy="54.78" r=".86" fill="#fff"/><path d="M260.89 58.72a.92.92 0 0 0 .65-1.58.92.92 0 0 0-1.57.65.92.92 0 0 0 .92.93zM260.89 61.82a1 1 0 1 0-1-1 1 1 0 0 0 1 1z" fill="#fff"/><circle cx="263.88" cy="54.78" r=".36" fill="#fff"/><path d="M263.89 58.19a.42.42 0 0 0 .28-.11.4.4 0 0 0 .11-.28.39.39 0 1 0-.4.4zM263.6 61.1a.39.39 0 0 0 .29.12.41.41 0 1 0-.4-.4.38.38 0 0 0 .11.28zM260.89 64.91a1.08 1.08 0 0 0 1-1.09 1.08 1.08 0 0 0-2.15 0 1.08 1.08 0 0 0 1.15 1.09zM263.89 63.41a.43.43 0 0 0-.3.12.46.46 0 0 0-.12.31.41.41 0 0 0 .12.29.4.4 0 0 0 .3.13.43.43 0 0 0 .42-.43.46.46 0 0 0-.12-.3.43.43 0 0 0-.3-.12zM260.89 72.04a.85.85 0 1 0 .6 1.46.84.84 0 0 0 .25-.61.85.85 0 0 0-.85-.85zM260.89 68.95a.9.9 0 0 0-.65.27.92.92 0 1 0 .65-.27z" fill="#fff"/><circle cx="260.86" cy="66.86" r="1.02" fill="#fff"/><circle cx="263.88" cy="72.89" r=".36" fill="#fff"/><path d="M263.89 69.48a.41.41 0 0 0-.28.11.39.39 0 0 0-.12.28.39.39 0 1 0 .39-.4zM263.89 66.44a.41.41 0 1 0 .41.41.41.41 0 0 0-.41-.41z" fill="#fff"/><circle cx="224.62" cy="9.48" r="1.14" fill="#fff"/><circle cx="227.64" cy="9.48" r=".81" fill="#fff"/><circle cx="230.66" cy="9.48" r=".42" fill="#fff"/><circle cx="230.66" cy="12.5" r="1.13" fill="#fff"/><circle cx="245.76" cy="21.56" r=".51" fill="#fff"/><circle cx="248.78" cy="21.56" r=".23" fill="#fff"/><path d="M244.7 24.58a1.06 1.06 0 1 0 1.06-1.06 1.06 1.06 0 0 0-1.06 1.06z" fill="#fff"/><circle cx="248.78" cy="24.58" r=".42" fill="#fff"/><circle cx="251.8" cy="24.58" r=".21" fill="#fff"/><circle cx="248.78" cy="27.6" r=".93" fill="#fff"/><circle cx="251.8" cy="27.6" r=".35" fill="#fff"/><circle cx="251.8" cy="30.62" r=".74" fill="#fff"/><circle cx="254.82" cy="30.62" r=".28" fill="#fff"/><circle cx="257.84" cy="48.74" r="1.2" fill="#fff"/><circle cx="257.84" cy="45.72" r="1.01" fill="#fff"/><circle cx="257.84" cy="42.7" r=".74" fill="#fff"/><circle cx="257.84" cy="39.68" r=".46" fill="#fff"/><circle cx="260.86" cy="42.7" r=".24" fill="#fff"/><circle cx="260.85" cy="39.68" r=".15" fill="#fff"/><circle cx="257.84" cy="33.64" r=".15" fill="#fff"/><circle cx="260.86" cy="45.72" r=".31" fill="#fff"/><circle cx="260.86" cy="48.74" r=".46" fill="#fff"/><circle cx="260.86" cy="51.76" r=".62" fill="#fff"/><circle cx="263.88" cy="51.76" r=".21" fill="#fff"/><circle cx="257.84" cy="36.66" r=".29" fill="#fff"/><circle cx="254.82" cy="39.68" r="1.14" fill="#fff"/><circle cx="254.82" cy="36.66" r=".81" fill="#fff"/><circle cx="254.82" cy="33.64" r=".42" fill="#fff"/><circle cx="251.8" cy="33.64" r="1.13" fill="#fff"/><path d="M169.28 62.52a2.21 2.21 0 0 0-.15-4.06 6.21 6.21 0 0 0-2.53-.29h-1.38v4.65h1.61a6.16 6.16 0 0 0 2.45-.3zM204.49 87.12a7.26 7.26 0 0 0-4.31-1h-1.67v10.52h1.67a7.56 7.56 0 0 0 4.46-1 5.39 5.39 0 0 0 2-4.25 5.3 5.3 0 0 0-2.15-4.27zM177.89 79.98a5.49 5.49 0 1 0-5.5-5.42 5.51 5.51 0 0 0 5.5 5.42zM168.82 56.03a1.92 1.92 0 0 0 .45-2.95 3.15 3.15 0 0 0-2.53-.74h-1.52v4h1.41a4.51 4.51 0 0 0 2.19-.31z" fill="#fff"/><path d="M141.27 63.82a1.8 1.8 0 0 0 .87 1.55 1.76 1.76 0 0 0 .14 3 1.67 1.67 0 0 0 .17 3 1.62 1.62 0 0 0 .65 3.1 1.6 1.6 0 0 0 1.14-.48 1.4 1.4 0 0 0 .16-.19 2 2 0 0 0 .63.68 1.77 1.77 0 0 0-.62.92 1.4 1.4 0 1 0 0 .94 1.77 1.77 0 0 0 .84 1.07 1.71 1.71 0 0 0-.85 1.48 1.69 1.69 0 0 0 1 1.53 1.67 1.67 0 0 0 .51 3.13 1.4 1.4 0 1 0 1.51 2 1.87 1.87 0 0 0 .8 1 1.7 1.7 0 0 0-.77 1.42 1.72 1.72 0 0 0 1.16 1.63 1.5 1.5 0 1 0 1.88 2.12 1.84 1.84 0 0 0 .82.9 1.65 1.65 0 0 0 .87 3 1.37 1.37 0 1 0 1.35 1.69 1.71 1.71 0 0 0 1.14 1.31 1.5 1.5 0 1 0 1.89 2.06 1.79 1.79 0 0 0 1 1 1.53 1.53 0 1 0 2 2.18 1.92 1.92 0 0 0 .91.91 1.51 1.51 0 0 0-.71 1.28 1.52 1.52 0 0 0 2.88.69 1.81 1.81 0 0 0 1 1 1.5 1.5 0 1 0 2.05 1.89 1.71 1.71 0 0 0 1.2 1.19 1.37 1.37 0 1 0 1.69 1.35 1.64 1.64 0 0 0 3 .87 1.87 1.87 0 0 0 .9.82 1.5 1.5 0 1 0 2.12 1.88 1.72 1.72 0 0 0 3.06.39 1.85 1.85 0 0 0 1 .8 1.4 1.4 0 1 0 2 1.51 1.66 1.66 0 0 0 3.13.51 1.71 1.71 0 0 0 3 .11 1.78 1.78 0 0 0 1.07.84 1.4 1.4 0 1 0 .95 0 1.77 1.77 0 0 0 .92-.61 2 2 0 0 0 .68.62 1.61 1.61 0 1 0 2.42 2 1.67 1.67 0 0 0 3 .16 1.76 1.76 0 0 0 3 .15 2 2 0 0 0 .26.33 1.82 1.82 0 0 0 2.84-.33 1.76 1.76 0 0 0 3-.14 1.67 1.67 0 0 0 3-.16 1.61 1.61 0 0 0 3.09-.65 1.59 1.59 0 0 0-.47-1.14 1.42 1.42 0 0 0-.19-.16 2 2 0 0 0 .68-.62 1.78 1.78 0 0 0 .92.61 1.4 1.4 0 1 0 .94 0 1.79 1.79 0 0 0 1.07-.84 1.71 1.71 0 0 0 3-.11 1.66 1.66 0 0 0 3.13-.51 1.4 1.4 0 1 0 2-1.51 1.84 1.84 0 0 0 1-.81 1.71 1.71 0 0 0 3.06-.39 1.51 1.51 0 1 0 2.12-1.88 1.86 1.86 0 0 0 .9-.82 1.65 1.65 0 0 0 3-.86 1.37 1.37 0 1 0 1.69-1.35 1.73 1.73 0 0 0 1.31-1.14 1.5 1.5 0 1 0 2.05-1.89 1.8 1.8 0 0 0 1-1 1.53 1.53 0 1 0 2.18-2 2 2 0 0 0 .91-.91 1.53 1.53 0 1 0 2-2.18 1.82 1.82 0 0 0 1-1 1.5 1.5 0 1 0 1.89-2.06 1.7 1.7 0 0 0 1.14-1.31 1.38 1.38 0 1 0 1.36-1.69 1.65 1.65 0 0 0 .87-3 1.87 1.87 0 0 0 .82-.9 1.5 1.5 0 1 0 1.87-2.12 1.72 1.72 0 0 0 .39-3.06 1.85 1.85 0 0 0 .81-1 1.39 1.39 0 1 0 1.5-2 1.66 1.66 0 0 0 1.42-1.64 1.68 1.68 0 0 0-.91-1.49 1.71 1.71 0 0 0 .11-3 1.79 1.79 0 0 0 .84-1.07 1.39 1.39 0 1 0 0-.94 1.76 1.76 0 0 0-.61-.92 1.87 1.87 0 0 0 .63-.68 1.61 1.61 0 1 0 2-2.43 1.67 1.67 0 0 0 .16-3 1.76 1.76 0 0 0 .15-3 1.7 1.7 0 0 0 .33-.25 1.8 1.8 0 0 0 .54-1.29 1.82 1.82 0 0 0-.87-1.55 1.75 1.75 0 0 0-.15-3 1.67 1.67 0 0 0-.16-3 1.61 1.61 0 1 0-1.79-2.62 1.87 1.87 0 0 0-.16.19 2 2 0 0 0-.62-.68 1.77 1.77 0 0 0 .61-.92 1.4 1.4 0 1 0 0-.94 1.79 1.79 0 0 0-.84-1.07 1.71 1.71 0 0 0-.11-3 1.66 1.66 0 0 0-.52-3.13 1.4 1.4 0 1 0-1.5-2 1.86 1.86 0 0 0-.81-1 1.72 1.72 0 0 0-.39-3.06 1.5 1.5 0 1 0-1.87-2.12 1.87 1.87 0 0 0-.82-.9 1.64 1.64 0 0 0-.87-3 1.37 1.37 0 1 0-1.36-1.69 1.71 1.71 0 0 0-1.14-1.31 1.5 1.5 0 1 0-1.89-2.05 1.8 1.8 0 0 0-1-1 1.53 1.53 0 0 0-.69-2.89 1.51 1.51 0 0 0-1.29.71 2 2 0 0 0-.91-.91 1.53 1.53 0 1 0-2.18-2 1.8 1.8 0 0 0-1-1 1.5 1.5 0 1 0-2.05-1.89 1.72 1.72 0 0 0-1.25-1.26 1.37 1.37 0 1 0-1.69-1.35 1.64 1.64 0 0 0-3-.86 1.85 1.85 0 0 0-.9-.82 1.51 1.51 0 1 0-2.12-1.88 1.71 1.71 0 0 0-3.06-.39 1.86 1.86 0 0 0-1-.81 1.4 1.4 0 1 0-2-1.5 1.66 1.66 0 0 0-3.13-.51 1.71 1.71 0 0 0-3-.11 1.79 1.79 0 0 0-1.08-.77 1.39 1.39 0 0 0 .93-1.31 1.4 1.4 0 0 0-1.4-1.39 1.39 1.39 0 0 0-1.4 1.39 1.39 1.39 0 0 0 .93 1.31 1.79 1.79 0 0 0-.92.62 2 2 0 0 0-.68-.63 1.61 1.61 0 0 0 .67-1.3 1.62 1.62 0 0 0-1.62-1.69 1.62 1.62 0 0 0-1.48 1 1.68 1.68 0 0 0-1.54-1 1.68 1.68 0 0 0-1.46.86 1.76 1.76 0 0 0-1.56-.94 1.76 1.76 0 0 0-1.47.79 1.76 1.76 0 0 0-.26-.33 1.82 1.82 0 0 0-1.29-.53 1.81 1.81 0 0 0-1.55.86 1.76 1.76 0 0 0-1.48-.79 1.76 1.76 0 0 0-1.56.94 1.66 1.66 0 0 0-1.45-.86 1.68 1.68 0 0 0-1.54 1 1.62 1.62 0 0 0-1.47-1 1.62 1.62 0 0 0-1.61 1.61 1.62 1.62 0 0 0 .47 1.14l.19.16a2 2 0 0 0-.68.63 1.77 1.77 0 0 0-.9-.54 1.4 1.4 0 0 0 .93-1.31 1.4 1.4 0 0 0-1.4-1.39 1.4 1.4 0 0 0-1.4 1.39 1.4 1.4 0 0 0 .87 1.31 1.78 1.78 0 0 0-1.07.84 1.71 1.71 0 0 0-3 .11 1.66 1.66 0 0 0-3.13.51 1.4 1.4 0 1 0-2 1.5 1.88 1.88 0 0 0-1 .81 1.71 1.71 0 0 0-3.06.39 1.51 1.51 0 1 0-2.07 1.84 1.86 1.86 0 0 0-.9.82 1.64 1.64 0 0 0-3 .88 1.38 1.38 0 1 0-1.77 1.3 1.72 1.72 0 0 0-1.31 1.14 1.5 1.5 0 1 0-2.05 1.89 1.82 1.82 0 0 0-1 1 1.53 1.53 0 1 0-2.18 2 1.92 1.92 0 0 0-.91.91 1.53 1.53 0 1 0-2 2.18 1.79 1.79 0 0 0-1 1 1.5 1.5 0 1 0-1.89 2.05 1.72 1.72 0 0 0-1.14 1.31 1.38 1.38 0 1 0-1.35 1.69 1.65 1.65 0 0 0-.87 3 1.86 1.86 0 0 0-.82.9 1.51 1.51 0 0 0-2.82.73 1.5 1.5 0 0 0 .94 1.39 1.72 1.72 0 0 0-.39 3.06 1.85 1.85 0 0 0-.8 1 1.4 1.4 0 1 0-1.51 2 1.66 1.66 0 0 0-.51 3.13 1.71 1.71 0 0 0-.11 3 1.77 1.77 0 0 0-.84 1.07 1.4 1.4 0 1 0 0 .94 1.79 1.79 0 0 0 .61.92 2 2 0 0 0-.62.68 1.61 1.61 0 1 0-1.95 2.42 1.68 1.68 0 0 0-.17 3 1.76 1.76 0 0 0-.14 3 1.79 1.79 0 0 0-.33.26 1.82 1.82 0 0 0-.46 1.33zm115.27 8.11a1.86 1.86 0 0 0-.46-.54l.14-.12a2.46 2.46 0 0 0 .29-.39 1.64 1.64 0 0 0 .69.53 1.62 1.62 0 0 0-.66.53zm0-9.34a2 2 0 0 0-.3-.33 2.72 2.72 0 0 0 .25-.3 1.84 1.84 0 0 0 .39.35 1.82 1.82 0 0 0-.37.29zm.37 2.78a1.86 1.86 0 0 0-.39.35 2.64 2.64 0 0 0-.25-.3 2 2 0 0 0 .3-.33 1.54 1.54 0 0 0 .32.29zm-.28-5.81l-.12.12a1.94 1.94 0 0 0-.37-.41 2.11 2.11 0 0 0 .4-.47 1.61 1.61 0 0 0 .51.45 1.68 1.68 0 0 0-.45.32zm-.12 8.4a2 2 0 0 0 .54.44 1.51 1.51 0 0 0-.51.45 1.84 1.84 0 0 0-.4-.48 2.18 2.18 0 0 0 .35-.4zm.05-12.25l.16.19a1.64 1.64 0 0 0 .49.34 1.68 1.68 0 0 0-.68.53 2 2 0 0 0-.44-.5 2 2 0 0 0 .45-.54zm-3 28.65a1.84 1.84 0 0 0-.52-.78 2 2 0 0 0 .52-.57 1.65 1.65 0 0 0 1 .57 1.39 1.39 0 0 0-1 .8zm.26-34.08c0-.08 0-.15-.06-.23l.2.14zm.14 27.15l-.2.14.06-.23zm-.26-30a1.87 1.87 0 0 0-.33-.39 2.81 2.81 0 0 0 .2-.27 1.7 1.7 0 0 0 .51.41 1.77 1.77 0 0 0-.39.27zm0 32.77a1.51 1.51 0 0 0 .37.24 1.8 1.8 0 0 0-.51.41 2.94 2.94 0 0 0-.2-.27 2.06 2.06 0 0 0 .33-.36zm-.13-36.93a1.4 1.4 0 0 0 1 .78 1.68 1.68 0 0 0-1 .57 2 2 0 0 0-.52-.57 1.85 1.85 0 0 0 .51-.76zm-3.07-5.9a1.5 1.5 0 0 0 .76.67 1.7 1.7 0 0 0-.57.33 2.45 2.45 0 0 0-.49-.51 1.89 1.89 0 0 0 .29-.48zm.17 3.86l-.07-.15.09-.11.18.13zm.22 45.33a.91.91 0 0 0-.18.13l-.09-.11c0-.05 0-.1.07-.15zm-.18 2.73a1.69 1.69 0 0 0 .57.33 1.52 1.52 0 0 0-.76.67 1.85 1.85 0 0 0-.3-.48 2.59 2.59 0 0 0 .46-.52zm-3.23-58.36a1.38 1.38 0 0 0 1.33 1.06 1.64 1.64 0 0 0-1.3.65 2 2 0 0 0-.66-.68 1.7 1.7 0 0 0 .59-1.03zm.21 4.26a2.56 2.56 0 0 0-.33-.34 1.68 1.68 0 0 0 .15-.21 1.7 1.7 0 0 0 .42.39 2 2 0 0 0-.28.16zm.2 57.45a1.68 1.68 0 0 0-.42.39l-.15-.22a2.15 2.15 0 0 0 .33-.34 1.51 1.51 0 0 0 .24.17zm-.42 2.39a1.64 1.64 0 0 0 1.29.65 1.37 1.37 0 0 0-1.33 1.06 1.69 1.69 0 0 0-.62-1 2 2 0 0 0 .67-.72zm-3.06-66.77a1.49 1.49 0 0 0 .81.74 1.7 1.7 0 0 0-.79.54 2.07 2.07 0 0 0-.54-.56 1.77 1.77 0 0 0 .53-.73zm0 69.88a1.69 1.69 0 0 0 .79.54 1.5 1.5 0 0 0-.81.74 1.84 1.84 0 0 0-.51-.72 2 2 0 0 0 .56-.57zm-3-72.74a1.57 1.57 0 0 0 .59.54 1.8 1.8 0 0 0-.57.37 2.28 2.28 0 0 0-.38-.4 2.14 2.14 0 0 0 .41-.51zm0 76a1.8 1.8 0 0 0 .57.38 1.52 1.52 0 0 0-.59.54 2 2 0 0 0-.36-.51 2.09 2.09 0 0 0 .45-.46zm-3.12-79.1a1.55 1.55 0 0 0 .6.52 1.84 1.84 0 0 0-.51.36 2.26 2.26 0 0 0-.41-.39 1.81 1.81 0 0 0 .39-.54zm0 82.21a2 2 0 0 0 .6.31 1.54 1.54 0 0 0-.54.59 1.88 1.88 0 0 0-.38-.57 2.19 2.19 0 0 0 .43-.38zm-3.09-85.38a1.52 1.52 0 0 0 .74.81 1.77 1.77 0 0 0-.72.51 2 2 0 0 0-.56-.53 1.76 1.76 0 0 0 .65-.84zm0 88.18a1.75 1.75 0 0 0 .72.51 1.5 1.5 0 0 0-.74.81 1.69 1.69 0 0 0-.54-.78 2 2 0 0 0 .69-.58zm-12.14 7c0-.07-.09-.14-.13-.2l.16-.07.11.09a1.46 1.46 0 0 0-.01.09zm3.05.39a1.66 1.66 0 0 0-.32-.57 2.38 2.38 0 0 0 .52-.49 1.79 1.79 0 0 0 .48.3 1.54 1.54 0 0 0-.54.67zm3-3.34a1.57 1.57 0 0 0-.16-.25 2 2 0 0 0 .34-.33 1.27 1.27 0 0 0 .22.15 1.68 1.68 0 0 0-.24.33zm3 .87a1.63 1.63 0 0 0-.65-1.29 2 2 0 0 0 .68-.65 1.73 1.73 0 0 0 1 .63 1.37 1.37 0 0 0-.83 1.21zm0-96.59a1.37 1.37 0 0 0 1.26 1.18 1.71 1.71 0 0 0-1 .63 2 2 0 0 0-.68-.65 1.63 1.63 0 0 0 .62-1.26zm-3 .86a1.73 1.73 0 0 0 .4.43 1.42 1.42 0 0 0-.22.14 2.36 2.36 0 0 0-.34-.33 1.25 1.25 0 0 0 .32-.34zm-3-3.34a1.54 1.54 0 0 0 .78.66 1.85 1.85 0 0 0-.48.3 2.29 2.29 0 0 0-.52-.5 1.66 1.66 0 0 0 .36-.56zm-3.05.39l.13.18-.11.08-.16-.07zm.56 54a1 1 0 0 1 .84.52l3.42 6.73 3.51-6.72a.95.95 0 0 1 1.79.43l-.11.43s-4.19 7.92-4.22 7.91v3.83a1 1 0 1 1-1.91 0v-3.86l-4.05-8-.1-.41a1 1 0 0 1 .96-.96zm-9.53 49.77l-.09-.14.23-.05c-.05.06-.1.12-.14.19zm3 .12a1.76 1.76 0 0 0-.25-.37 2.57 2.57 0 0 0 .39-.33 2 2 0 0 0 .27.19 1.64 1.64 0 0 0-.4.5zm3.13.51a1.65 1.65 0 0 0-.57-1 2.12 2.12 0 0 0 .57-.52 1.84 1.84 0 0 0 .79.52 1.39 1.39 0 0 0-.78.99zm0-108.23a1.4 1.4 0 0 0 .79 1 1.9 1.9 0 0 0-.79.52 2 2 0 0 0-.57-.52 1.62 1.62 0 0 0 .58-1zm-3.13.51a1.66 1.66 0 0 0 .41.52 2 2 0 0 0-.27.19 2.54 2.54 0 0 0-.39-.33 1.76 1.76 0 0 0 .26-.38zm-3 .12a1.6 1.6 0 0 0 .14.19l-.23-.06zm-1.2 58.06a1 1 0 0 1 1-1h2.76a7.57 7.57 0 0 1 3.44.54 4.48 4.48 0 0 1 2.58 4.11 4.33 4.33 0 0 1-3.77 4.27l2.7 3.63.2.57a1 1 0 0 1-1.71.6l-3.51-4.68h-1.72v4.08a1 1 0 0 1-1.92 0zm-47.23 40.17a1.49 1.49 0 0 0-.77-.76 1.75 1.75 0 0 0 .72-.51 2.06 2.06 0 0 0 .56.54 1.74 1.74 0 0 0-.54.74zm3 3.55a1.37 1.37 0 0 0-1.07-1.32 1.73 1.73 0 0 0 1-.62 2 2 0 0 0 .68.65 1.63 1.63 0 0 0-.64 1.3zm3-.87a1.64 1.64 0 0 0-.39-.43 1.82 1.82 0 0 0 .21-.14 2.86 2.86 0 0 0 .34.32zm3 3.34a1.53 1.53 0 0 0-.67-.76 1.87 1.87 0 0 0 .48-.3 2.37 2.37 0 0 0 .52.49 1.74 1.74 0 0 0-.3.58zm3.05-.39l-.13-.18.12-.09.15.07zm3 3.73a1.39 1.39 0 0 0-.78-1 1.86 1.86 0 0 0 .79-.52 2.13 2.13 0 0 0 .56.52 1.69 1.69 0 0 0-.57 1zm1.12-24.9a7.07 7.07 0 0 1-.54 2.93 4.86 4.86 0 0 1-8.69 0 7.14 7.14 0 0 1-.54-2.93V85.3a1 1 0 1 1 1.91 0v7.74a5 5 0 0 0 .43 2.31 2.88 2.88 0 0 0 5.09 0 5.09 5.09 0 0 0 .42-2.31V85.3a1 1 0 0 1 1.92 0zm2 24.39a1.65 1.65 0 0 0-.4-.51l.27-.19a2.17 2.17 0 0 0 .39.33 1.58 1.58 0 0 0-.26.37zm3-.12a1.13 1.13 0 0 0-.14-.19l.23.05zm6 3.24a1.6 1.6 0 0 0-.52-.66 1.88 1.88 0 0 0 .55-.46l.12.14a2 2 0 0 0 .38.29 1.65 1.65 0 0 0-.47.7zm3-.17a1.69 1.69 0 0 0-.45-.51 2 2 0 0 0 .47-.39 2.26 2.26 0 0 0 .41.37 1.92 1.92 0 0 0-.37.54zm3-.14a1.88 1.88 0 0 0-.35-.4 2.32 2.32 0 0 0 .3-.25 1.9 1.9 0 0 0 .33.3 1.74 1.74 0 0 0-.22.36zm3.1 0a1.85 1.85 0 0 0-.31-.37 2.27 2.27 0 0 0 .33-.3 2.24 2.24 0 0 0 .3.25 1.81 1.81 0 0 0-.23.42zm3 .15a1.73 1.73 0 0 0-.32-.43l-.12-.11a.45.45 0 0 1 .89 0 1.71 1.71 0 0 0-.33.54zm.33-23.12a8.77 8.77 0 0 1-4.56 1.16h-3.27a1 1 0 0 1-1-1V85.3a1 1 0 0 1 1-1h3.27a8.63 8.63 0 0 1 4.55 1.16 7 7 0 0 1 0 11.76zm3 22.8a1.62 1.62 0 0 0-.34.49 1.7 1.7 0 0 0-.53-.68 1.9 1.9 0 0 0 .5-.43 2 2 0 0 0 .55.46 1.28 1.28 0 0 0-.05.15zm-.34-113a1.62 1.62 0 0 0 .53.66 1.94 1.94 0 0 0-.55.46l-.01-.1a1.88 1.88 0 0 0-.38-.29 1.71 1.71 0 0 0 .54-.7zm-3 .17a1.72 1.72 0 0 0 .45.52 2 2 0 0 0-.47.4 1.84 1.84 0 0 0-.41-.38 1.78 1.78 0 0 0 .56-.51zm-2 61.07a.9.9 0 0 1 .89-.9h6.17a.9.9 0 0 1 0 1.79h-5.15v4.29h5a.9.9 0 1 1 0 1.79h-5v4.42h5.15a.895.895 0 1 1 0 1.79h-6.17a.89.89 0 0 1-.89-.89zm-.9-60.89a1.82 1.82 0 0 0 .35.39 2 2 0 0 0-.3.25 1.94 1.94 0 0 0-.33-.3 2 2 0 0 0 .28-.34zm-3.13 0a1.84 1.84 0 0 0 .31.38 2 2 0 0 0-.33.3 2.38 2.38 0 0 0-.3-.25 2 2 0 0 0 .32-.43zm-3-.15a1.92 1.92 0 0 0 .32.43l.12.11a.45.45 0 0 1-.89 0 1.71 1.71 0 0 0 .45-.54zm-1.1 60.17h6.32a.9.9 0 0 1 0 1.79h-2.22v11.34a1 1 0 0 1-1.92 0V69.24h-2.18a.9.9 0 0 1 0-1.79zm0 17.86v12a1.17 1.17 0 0 1-2.13.65l-7.31-10.83v10.35a1 1 0 1 1-1.91 0V85.82a1.48 1.48 0 0 1 2.7-.84l6.7 10V85.3a1 1 0 0 1 1.92 0zm-9.22-16.06a.9.9 0 0 1 0-1.79h6.32a.9.9 0 0 1 0 1.79h-2.19v11.33a1 1 0 0 1-1.92 0V69.24zm7-61.64a1.6 1.6 0 0 0 .34-.5 1.67 1.67 0 0 0 .53.69.53.53 0 0 1-1.05 0zm-5.68 2.75l.09.14-.23.06a1.34 1.34 0 0 0 .14-.2zm-3-.12a1.58 1.58 0 0 0 .25.37 2.25 2.25 0 0 0-.39.34 2.15 2.15 0 0 0-.27-.2 1.68 1.68 0 0 0 .35-.51zm-3.13-.51a1.68 1.68 0 0 0 .57 1 2 2 0 0 0-.57.52 1.82 1.82 0 0 0-.79-.52 1.39 1.39 0 0 0 .74-1zm-3 3.73l.14.19-.15.07-.12-.08zm7 36.87a7.63 7.63 0 0 1 6 2.88l.18.56a1 1 0 0 1-1 1 1 1 0 0 1-.76-.37 5.44 5.44 0 0 0-4.39-2.2 5.5 5.5 0 1 0 .06 11 5.43 5.43 0 0 0 5-3.43h-6.5a.9.9 0 0 1 0-1.79h7.87a.91.91 0 0 1 .89 1 7.48 7.48 0 1 1-7.36-8.51zm-10.07-37.26a1.72 1.72 0 0 0 .33.57 2.29 2.29 0 0 0-.52.49 1.82 1.82 0 0 0-.48-.3 1.54 1.54 0 0 0 .67-.76zM174 51.52a1 1 0 0 1 1.92 0v12.16a1 1 0 0 1-1.92 0zm3.89 15.7a7.28 7.28 0 1 1-7.42 7.35 7.37 7.37 0 0 1 7.42-7.35zm-6.23-50.82a2.6 2.6 0 0 0 .16.25 2.8 2.8 0 0 0-.34.33 1.27 1.27 0 0 0-.21-.14 1.63 1.63 0 0 0 .39-.44zm-3-.87a1.65 1.65 0 0 0 .64 1.3 2 2 0 0 0-.68.65 1.72 1.72 0 0 0-1-.62 1.37 1.37 0 0 0 1.01-1.33zm-3 3.55a1.77 1.77 0 0 0 .54.78 2.06 2.06 0 0 0-.57.53 1.77 1.77 0 0 0-.72-.51 1.53 1.53 0 0 0 .72-.8zm-2.36 32.44a1 1 0 0 1 1-1h2.72c4.47 0 4.71 3.23 4.71 3.88a3.37 3.37 0 0 1-1.29 2.68 3.71 3.71 0 0 1 2 3.37 4 4 0 0 1-1.68 3.37 6.34 6.34 0 0 1-3.78.79h-2.72a1 1 0 0 1-1-1zm0 16.9a1 1 0 1 1 1.92 0v11.32h4.67a.895.895 0 1 1 0 1.79h-5.65a1 1 0 0 1-1-1zm0 16.86a.89.89 0 0 1 .9-.89h5.6a.89.89 0 1 1 0 1.78h-4.58v4.29h4.38a.895.895 0 1 1 0 1.79h-4.38v5.22a1 1 0 0 1-1.92 0zm-.72-63a1.78 1.78 0 0 0 .38.56 2.4 2.4 0 0 0-.4.38 1.94 1.94 0 0 0-.52-.35 1.53 1.53 0 0 0 .53-.62zm0 82.21a2.25 2.25 0 0 0 .4.38 1.85 1.85 0 0 0-.37.57 1.53 1.53 0 0 0-.54-.59 2 2 0 0 0 .48-.39zm-3.06-79.06a1.89 1.89 0 0 0 .35.51 2.24 2.24 0 0 0-.38.4 1.74 1.74 0 0 0-.56-.37 1.55 1.55 0 0 0 .55-.57zm0 76a2.14 2.14 0 0 0 .38.41 1.8 1.8 0 0 0-.35.51 1.52 1.52 0 0 0-.59-.54 1.77 1.77 0 0 0 .49-.46zm-2.93-73.1a1.77 1.77 0 0 0 .51.72 2.2 2.2 0 0 0-.54.56 1.69 1.69 0 0 0-.78-.54 1.52 1.52 0 0 0 .74-.82zm0 69.88a2.17 2.17 0 0 0 .55.56 1.76 1.76 0 0 0-.52.71 1.52 1.52 0 0 0-.81-.74 1.67 1.67 0 0 0 .69-.61zm-3-1.4a1.37 1.37 0 0 0-1.32-1.06 1.64 1.64 0 0 0 1.29-.65 2 2 0 0 0 .65.68 1.71 1.71 0 0 0-.72.96zm-.21-4.26a2.19 2.19 0 0 0 .33.34l-.14.22a1.69 1.69 0 0 0-.43-.39 1.36 1.36 0 0 0 .14-.25zm-.25-57.45a1.71 1.71 0 0 0 .43-.39 1.78 1.78 0 0 0 .14.21 2.62 2.62 0 0 0-.33.34 1.77 1.77 0 0 0-.33-.23zm.46-4.09a1.71 1.71 0 0 0 .62 1 2 2 0 0 0-.65.68 1.65 1.65 0 0 0-1.29-.65 1.37 1.37 0 0 0 1.22-1.11zm-3 6.45a1.8 1.8 0 0 0 .3.48 2.32 2.32 0 0 0-.49.51 1.7 1.7 0 0 0-.57-.33 1.52 1.52 0 0 0 .62-.74zm-.18 3.86l-.19-.13.17-.13.09.11zm.07 45.34l-.09.11a1 1 0 0 0-.17-.13l.19-.13a1.21 1.21 0 0 1-.06.07zm-.09 2.71a2.21 2.21 0 0 0 .49.51 2 2 0 0 0-.3.48 1.57 1.57 0 0 0-.76-.67 1.69 1.69 0 0 0 .44-.4zm-2.88-46a1.89 1.89 0 0 0 .52.79 2 2 0 0 0-.51.57 1.66 1.66 0 0 0-1-.57 1.4 1.4 0 0 0 .86-.87zm-.26 34.08l.06.23-.2-.14zm-.14-27.16a1.38 1.38 0 0 0 .2-.14c0 .08 0 .16-.06.23zm.26 30a2.55 2.55 0 0 0 .33.39 2.22 2.22 0 0 0-.19.27 1.78 1.78 0 0 0-.52-.41 1.58 1.58 0 0 0 .25-.32zm0-32.77a1.55 1.55 0 0 0-.37-.25 1.68 1.68 0 0 0 .52-.41 2.14 2.14 0 0 0 .19.27 2.27 2.27 0 0 0-.47.32zm.14 35.58a2.11 2.11 0 0 0 .51.57 1.81 1.81 0 0 0-.52.78 1.4 1.4 0 0 0-1-.78 1.63 1.63 0 0 0 .88-.65zm-3-27.3a1.94 1.94 0 0 0 .46.55l-.13.12a1.75 1.75 0 0 0-.29.38 1.68 1.68 0 0 0-.68-.53 1.57 1.57 0 0 0 .53-.6zm0 6.88a1.83 1.83 0 0 0-.38-.31.32.32 0 1 1 .64 0 2.36 2.36 0 0 0-.34.23zm.3 2.81a2.1 2.1 0 0 0-.25.3 2 2 0 0 0-.39-.35 1.52 1.52 0 0 0 .38-.31 2.49 2.49 0 0 0 .18.28zm-.39 2.69l.11-.12a1.89 1.89 0 0 0 .37.41 1.86 1.86 0 0 0-.4.48 1.71 1.71 0 0 0-.52-.45 1.9 1.9 0 0 0 .36-.4zm.11-8.4a1.85 1.85 0 0 0-.54-.44 1.71 1.71 0 0 0 .52-.45 1.88 1.88 0 0 0 .4.47 1.89 1.89 0 0 0-.46.33zm0 11.19a1.85 1.85 0 0 0 .43.5 2.09 2.09 0 0 0-.46.55 1.41 1.41 0 0 0-.16-.18 1.53 1.53 0 0 0-.49-.34 1.69 1.69 0 0 0 .58-.61z" fill="#fff"/><path d="M218.66 74.66a2.7 2.7 0 0 0 .69-4.94 4.88 4.88 0 0 0-2.49-.48h-2.08v5.58h1.32a9.05 9.05 0 0 0 2.56-.16z" fill="#fff"/><path d="M188.71 81.53a1 1 0 0 0 1-1V69.24h2.18a.9.9 0 0 0 0-1.79h-6.32a.9.9 0 0 0 0 1.79h2.21v11.33a1 1 0 0 0 .93.96zM174.96 64.64a1 1 0 0 0 1-1V51.52a1 1 0 0 0-1.92 0v12.16a1 1 0 0 0 .92.96zM164.26 81.53h5.63a.895.895 0 1 0 0-1.79h-4.69V68.41a1 1 0 1 0-1.92 0v12.16a1 1 0 0 0 .98.96zM184.8 64.88a7.46 7.46 0 0 0 7.34-6 .91.91 0 0 0-.89-1h-7.87a.9.9 0 0 0 0 1.79h6.51a5.43 5.43 0 0 1-5 3.43 5.5 5.5 0 1 1-.06-11 5.44 5.44 0 0 1 4.39 2.2 1 1 0 0 0 .76.37 1 1 0 0 0 1-1l-.18-.56a7.63 7.63 0 0 0-6-2.88 7.41 7.41 0 0 0-7.52 7.28 7.51 7.51 0 0 0 7.52 7.37zM164.26 98.42a1 1 0 0 0 1-1v-5.17h4.38a.895.895 0 1 0 0-1.79h-4.38v-4.29h4.58a.89.89 0 1 0 0-1.78h-5.6a.89.89 0 0 0-.9.89v12.19a1 1 0 0 0 .92.95zM180.89 84.35a1 1 0 0 0-1 1v7.74a5.09 5.09 0 0 1-.42 2.31 2.88 2.88 0 0 1-5.09 0 5 5 0 0 1-.43-2.31V85.3a1 1 0 1 0-1.91 0v7.74a7.14 7.14 0 0 0 .54 2.93 4.86 4.86 0 0 0 8.69 0 7.07 7.07 0 0 0 .54-2.93V85.3a1 1 0 0 0-.92-.95zM192.84 85.3v9.67l-6.7-10a1.48 1.48 0 0 0-2.7.84v11.66a1 1 0 1 0 1.91 0V87.12l7.28 10.79a1.17 1.17 0 0 0 2.13-.65v-12a1 1 0 0 0-1.92 0zM194.79 69.24H197v11.33a1 1 0 0 0 1.92 0V69.24h2.19a.9.9 0 0 0 0-1.79h-6.32a.9.9 0 0 0 0 1.79zM203.98 81.53h6.17a.895.895 0 1 0 0-1.79H205v-4.41h5a.9.9 0 1 0 0-1.79h-5v-4.3h5.15a.9.9 0 0 0 0-1.79h-6.17a.9.9 0 0 0-.89.9v12.3a.89.89 0 0 0 .89.88zM227.07 76.82v3.77a1 1 0 1 0 1.91 0v-3.85l4.23-7.92.11-.43a.95.95 0 0 0-1.79-.43l-3.51 6.72-3.42-6.73a.95.95 0 0 0-1.79.44l.1.41zM205.37 85.51a8.63 8.63 0 0 0-4.55-1.16h-3.27a1 1 0 0 0-1 1v12.12a1 1 0 0 0 1 1h3.27a8.77 8.77 0 0 0 4.56-1.16 7 7 0 0 0 0-11.76zm-.73 10.11a7.56 7.56 0 0 1-4.46 1h-1.67V86.13h1.67a7.26 7.26 0 0 1 4.31 1 5.3 5.3 0 0 1 2.17 4.24 5.39 5.39 0 0 1-2.02 4.24zM213.82 81.53a1 1 0 0 0 1-1v-4.04h1.72l3.51 4.68a1 1 0 0 0 1.71-.6l-.2-.57-2.7-3.62a4.33 4.33 0 0 0 3.77-4.27 4.48 4.48 0 0 0-2.58-4.11 7.57 7.57 0 0 0-3.44-.54h-2.76a1 1 0 0 0-1 1v12.11a1 1 0 0 0 .97.96zm1-12.29h2.07a4.88 4.88 0 0 1 2.49.48 2.7 2.7 0 0 1-.69 4.94 9.05 9.05 0 0 1-2.56.18h-1.32z" fill="#e6007d"/><path d="M170.43 74.56a7.44 7.44 0 1 0 7.46-7.34 7.42 7.42 0 0 0-7.46 7.34zm7.46-5.56a5.49 5.49 0 1 1-5.5 5.56 5.53 5.53 0 0 1 5.5-5.56zM164.26 64.64h2.72a6.34 6.34 0 0 0 3.78-.79 4 4 0 0 0 1.69-3.36 3.71 3.71 0 0 0-2-3.37 3.37 3.37 0 0 0 1.29-2.68c0-.65-.23-3.88-4.71-3.88h-2.72a1 1 0 0 0-1 1v12.12a1 1 0 0 0 .95.96zm1-12.29h1.52a3.15 3.15 0 0 1 2.53.74 1.92 1.92 0 0 1-.45 2.95 4.51 4.51 0 0 1-2.19.35h-1.41zm0 5.83h1.38a6.21 6.21 0 0 1 2.53.29 2.21 2.21 0 0 1 .15 4.06 6.16 6.16 0 0 1-2.45.33h-1.61z" fill="#e6007d"/><path d="M48.78 5.16c-3.4 0-4.92 4.24-4.92 7.8 0 4.24 1.52 10.18 4.58 18.15a90.44 90.44 0 0 1 9-14.76Q52.33 5.16 48.78 5.16z" fill="#fff"/><path d="M36.24 70.64c-4.74-6.89-11.73-12.07-20.17-12.07-7.12 0-11 3.39-11 5.77 0 2.21 2.2 3 3.39 3.39 10.34 2.71 14.41 11.19 17.63 23.9 4.75 18.49 17 30.86 34.75 30.86 18.47 0 36.1-15.94 35.26-37.3-2.31 4.58-5.36 7.25-10 7.25-5.26 0-8-3.52-8.65-7.59-2.88 3.4-6.61 4.54-10.51 3.34-4.24-1.35-7.12-5.37-7.12-11.82 0-8.82 4.91-20 10.51-24.76l-2.65-5.79c-.32.78-2.7 5.42-3.84 7.35l-3.51-1.52s2.44-5.37 3-6.51c5.33-11.32 11.46-21.76 11.46-28.72 0-2.88-2-4.87-3.67-4.92-5.23-.14-13.23 11.32-20.98 28.08-6.25 13.24-9.74 22.77-10.25 29.71zm12.65 23.65c4.32 12.73 16.75 16.22 28.25 10.23l1.79 4.36c-15.1 8.57-29.13 3.1-34.43-12.53z" fill="#fff"/><path d="M64.2 76.38c0 5.77 2.54 7.94 5.59 7.92 3.86 0 8-5.21 10.89-13.69 3.56-8.81 3.28-16.18-.26-17.82-7.3-3.37-16.22 12.74-16.22 23.59zm6.69 3.77a3.94 3.94 0 1 1 3.94-3.94 3.94 3.94 0 0 1-3.94 3.94zM93.02 62.48c-3.73 0-8.69 7.63-10.56 14.92-1.18 4.07-1.48 10.81 3.6 10.81 5.33 0 9.66-7.92 10.85-15 .98-6.16-.5-10.73-3.89-10.73zm-5.19 22a3.54 3.54 0 1 1 3.54-3.54 3.54 3.54 0 0 1-3.53 3.58zM85.83 14.11a1.13 1.13 0 0 0 .17-.6 1 1 0 0 0-.07-.36.87.87 0 0 0-.22-.33 1.21 1.21 0 0 0-.38-.24 1.49 1.49 0 0 0-.55-.09h-1.33v3.45h.66V14.6h.55l.77 1.34h.74l-.84-1.43a1 1 0 0 0 .5-.4zm-1.09 0h-.65v-1h.61a.71.71 0 0 1 .47.13.48.48 0 0 1 .15.38.55.55 0 0 1-.14.39.58.58 0 0 1-.44.07z" fill="#fff"/><path d="M87.04 11.82a3.43 3.43 0 0 0-1.07-.73 3.32 3.32 0 0 0-1.34-.27 3.38 3.38 0 0 0-1.35.27 3.36 3.36 0 0 0-1.79 1.81 3.51 3.51 0 0 0 0 2.67 3.53 3.53 0 0 0 .72 1.09 3.3 3.3 0 0 0 1.08.73 3.52 3.52 0 0 0 2.67 0 3.29 3.29 0 0 0 1.08-.73 3.55 3.55 0 0 0 .72-1.09 3.53 3.53 0 0 0 0-2.67 3.47 3.47 0 0 0-.72-1.08zm.06 3.51a2.65 2.65 0 0 1-.56.88 2.53 2.53 0 0 1-.84.58 2.81 2.81 0 0 1-2.14 0 2.56 2.56 0 0 1-.85-.58 2.72 2.72 0 0 1-.56-.87 3 3 0 0 1 0-2.16 2.63 2.63 0 0 1 .56-.88 2.68 2.68 0 0 1 .85-.59 2.7 2.7 0 0 1 2.12 0 2.62 2.62 0 0 1 .84.59 2.66 2.66 0 0 1 .56.88 3 3 0 0 1 0 2.16z" fill="#fff"/></svg>