<svg id="Layer_1" data-name="Layer 1" xmlns="http://www.w3.org/2000/svg" xmlns:xlink="http://www.w3.org/1999/xlink" viewBox="0 0 1451.1 313"><defs><clipPath id="clip-path" transform="translate(0 2.2)"><path d="M354.6,11.6V186.1c0,33.4-21.8,54.9-55.5,54.9s-55.5-21.6-55.5-54.9V49.5h4.7V186.1c0,30.5,19.9,50.3,50.8,50.3s50.8-19.7,50.8-50.3V49.5H331V186.1c0,19.3-10.4,31.4-32,31.4s-32-12.1-32-31.4V30.5H224.7V180.8c0,48,27.8,76.7,74.2,76.7s74.2-28.7,74.2-76.7V30.6h4.6V180.8c0,50.9-29.5,81.4-78.9,81.4s-78.9-30.4-78.9-81.4V11.6H201V180.8c0,60.5,36.9,100.2,97.8,100.2s97.8-39.7,97.8-100.2V11.6Z" fill="none"/></clipPath></defs><title>bournemouth-uni</title><g id="Type"><path d="M511,10.4c18.7,0,31.7,8.2,31.7,25.8,0,13-5.9,20.9-17.3,24.6,13.5,4,20.6,12.4,20.6,23.9,0,21.9-14.1,30.9-37.5,30.9H462.7V102.9l10.8-4.5V28.3l-10.8-4.5V11.2l33.1-.7H511Zm-6.7,43c10.5,0,16.1-4.6,16.1-13.9,0-7.8-5.3-11.2-12.2-11.2H496V53.4Zm3.6,44.3c10.1,0,15.4-4.8,15.4-13,0-10.9-6.1-15.7-19-15.7h-8.4V97.6h12Z" transform="translate(0 2.2)" fill="#231f20"/><path d="M631.4,73.8c0,26.8-15.1,43.2-38.5,43.2s-36.7-12.7-36.7-41c0-26.8,15.4-42.5,38.9-42.5C618.4,33.6,631.4,48.2,631.4,73.8Zm-52.9,1.5c0,16.4,4.6,23.9,15.1,23.9S609,92.5,609,74.6c0-15.2-4.3-23.1-14.7-23.1S578.5,57.4,578.5,75.3Z" transform="translate(0 2.2)" fill="#231f20"/><path d="M637.1,35.8l33.1-.7V86.5c0,8.2,2.3,11.9,8.8,11.9,9.4,0,16.3-8.1,16.3-8.1V51.4l-11.5-3.7V35.8L717,35V99.9l11.5,3v11.6l-30.4,1-1.4-10.4S685.2,117,671.5,117c-14.4,0-22.8-10-22.8-26.7V51.4l-11.5-3.7V35.8Z" transform="translate(0 2.2)" fill="#231f20"/><path d="M766.5,45.3s10.4-11.8,20-11.8a33.13,33.13,0,0,1,13.4,2.7l-1.2,28.6h-13l-2.2-12.7c-8.4,0-15.6,8.4-15.6,8.4V99.9l14.4,3.7v11.9H735V103.6l11.5-3.7V51.4L735,47.7V35.8l30.3-.7Z" transform="translate(0 2.2)" fill="#231f20"/><path d="M835.8,45.3s13.7-11.5,26.5-11.5c14,0,21.9,10.3,21.9,26.5V99.8l10.1,3.7v11.9H854.7V103.5l7.9-3.7V64.4c0-6.9-3.7-11.9-9.8-11.9-8.9,0-15.4,8.5-15.4,8.5V99.9l7.9,3.7v11.9H804.2V103.6l11.5-3.7V51.4l-11.5-3.7V35.8l30.5-.7Z" transform="translate(0 2.2)" fill="#231f20"/><path d="M924,80.2c.9,11.9,7.5,18.9,17.4,18.9,12,0,24.2-7,24.2-7l6.2,12.4S957.4,117,938.9,117c-24.8,0-37.5-14.9-37.5-40.3,0-26.1,14.3-43.2,38.5-43.2,21.5,0,32.7,13.7,32.7,35a97.39,97.39,0,0,1-.9,11.6H924Zm26.4-13.8c0-8.5-3.5-14.9-11.8-14.9-8.1,0-13.1,6.1-14.3,14.9Z" transform="translate(0 2.2)" fill="#231f20"/><path d="M1115.8,115.6h-39.1V103.7l7.6-3.7V64.4c0-8.2-2.3-12.2-8.4-12.2-9.4,0-16,7.8-16,7.8v40l7.5,3.7v11.9h-36.6V103.7l7.5-3.7V64.4c0-8.2-2-12.2-8.2-12.2-9.4,0-16.1,7.8-16.1,7.8v40l7.6,3.7v11.9H981.3V103.7l11.1-3.7V51.4l-11-3.7V35.8l30.1-.7,1,10.6s12.5-12.1,25.2-12.1c10.2,0,16.6,4.9,19.9,12.8,2.4-2.5,13.3-12.8,26.1-12.8,15.1,0,22.2,10.1,22.2,26.8V99.9l9.8,3.7v12Z" transform="translate(0 2.2)" fill="#231f20"/><path d="M1198.2,73.8c0,26.8-15.1,43.2-38.5,43.2S1123,104.3,1123,76c0-26.8,15.4-42.5,38.9-42.5S1198.2,48.2,1198.2,73.8Zm-52.8,1.5c0,16.4,4.6,23.9,15.1,23.9s15.4-6.7,15.4-24.6c0-15.2-4.3-23.1-14.7-23.1S1145.4,57.4,1145.4,75.3Z" transform="translate(0 2.2)" fill="#231f20"/><path d="M1204,35.8l33.1-.7V86.5c0,8.2,2.3,11.9,8.8,11.9,9.4,0,16.3-8.1,16.3-8.1V51.4l-11.5-3.7V35.8l33.1-.7V100l11.5,3v11.6l-30.4,1-1.4-10.4s-11.5,11.9-25.2,11.9c-14.4,0-22.8-10-22.8-26.7v-39L1204,47.7Z" transform="translate(0 2.2)" fill="#231f20"/><path d="M1358.2,107.8c-7.1,5.4-15.1,9.2-24.5,9.2-16.6,0-21.3-11.9-21.3-29.1V53.7H1299V39.2l13.4-1.9V16.7l21.6-4V37.3h20.2V53.7H1334V86.5c0,9.5,1.6,13.4,7.6,13.4,3.9,0,9.5-2.4,11.4-3.4Z" transform="translate(0 2.2)" fill="#231f20"/><path d="M1394.2,43.7c4.2-3.6,13.5-10.1,24.2-10.1,14.7,0,22.6,10.1,22.6,26.8V99.9l10.1,3.7v11.9h-39.2V103.6l7.5-3.6V64c0-7.5-2.9-11.9-9.5-11.9-8.1,0-15.7,7.9-15.7,7.9v40l7.6,3.7v11.9H1361V103.7l11.5-3.7V16.1l-11.5-3V1.2L1394.1,0V43.7Z" transform="translate(0 2.2)" fill="#231f20"/><path d="M495.8,234.7c0,17.2,4.8,23.9,18.9,23.9,15.3,0,18.6-8.5,18.6-26.1V187.8l-11.2-4.5V170.6l44.4-.7v13.4l-10.8,4.5v44.7c0,28.8-10.7,44.3-41.6,44.3-29,0-40.5-13.3-40.5-42.1v-47l-10.7-4.5V170.5l44.2-.7v13.4l-11.2,4.5v47Z" transform="translate(0 2.2)" fill="#231f20"/><path d="M606.6,204.7s13.7-11.5,26.5-11.5c14,0,21.9,10.3,21.9,26.5v39.5l10.1,3.7V275H625.5V263l7.9-3.7V223.8c0-6.9-3.7-11.9-9.8-11.9-8.9,0-15.4,8.5-15.4,8.5v38.9l7.9,3.7v12H575V263l11.5-3.7V210.8L575,207.1V195.2l30.5-.7Z" transform="translate(0 2.2)" fill="#231f20"/><path d="M715.5,263v12H672.3V263l11.5-3.7V210.8l-11.5-3.7V195.2l33.1-.7v64.9ZM693.6,156.4c7.5,0,12.1,4,12.1,13.4,0,8.8-6.2,13.6-12.1,13.6-7.8,0-12.4-4.8-12.4-13.6C681.2,161.3,687.1,156.4,693.6,156.4Z" transform="translate(0 2.2)" fill="#231f20"/><path d="M766.2,195.2l37.8-.7v12.7l-8.2,1.9L772.6,275H748.8L726,209.5l-6.9-2.4V195.2l37.8-.7v12.7l-8.1,1.5,13.1,44,12.7-43.5-8.4-1.9V195.2Z" transform="translate(0 2.2)" fill="#231f20"/><path d="M827.9,239.6c.9,11.9,7.5,18.9,17.4,18.9,12,0,24.2-7,24.2-7l6.2,12.4s-14.4,12.5-32.9,12.5c-24.8,0-37.5-14.9-37.5-40.3,0-26.1,14.3-43.2,38.5-43.2,21.5,0,32.7,13.7,32.7,35a97.39,97.39,0,0,1-.9,11.6H827.9Zm26.4-13.9c0-8.5-3.5-14.9-11.8-14.9-8.1,0-13.1,6.1-14.3,14.9Z" transform="translate(0 2.2)" fill="#231f20"/><path d="M916.8,204.7s10.4-11.8,20-11.8a33.13,33.13,0,0,1,13.4,2.7L949,224.2H936l-2.2-12.7c-8.4,0-15.6,8.4-15.6,8.4v39.4l14.4,3.7v12H885V263l11.5-3.7V210.8L885,207.1V195.2l30.3-.7Z" transform="translate(0 2.2)" fill="#231f20"/><path d="M969.1,258.6a46.31,46.31,0,0,0,12.1,1.5c7.9,0,11.8-2.5,11.8-7.3,0-12.2-38.5-7.8-38.5-34.3,0-18.6,14.4-25.5,29.7-25.5,13,0,26.8,4.5,26.8,4.5l-.6,22.4H998.2l-2.2-9a32.39,32.39,0,0,0-9.9-1.5c-6.2,0-9.9,2.7-9.9,7.6,0,12.1,38.5,6.9,38.5,32.7,0,17.1-13.4,26.8-33.1,26.8a120.37,120.37,0,0,1-26.5-3.3V248.9h13Z" transform="translate(0 2.2)" fill="#231f20"/><path d="M1066.5,263v12h-43.2V263l11.5-3.7V210.8l-11.5-3.7V195.2l33.1-.7v64.9Zm-21.9-106.6c7.5,0,12.1,4,12.1,13.4,0,8.8-6.2,13.6-12.1,13.6-7.8,0-12.4-4.8-12.4-13.6C1032.2,161.3,1038.1,156.4,1044.6,156.4Z" transform="translate(0 2.2)" fill="#231f20"/><path d="M1130.8,267.2c-7.1,5.4-15.1,9.2-24.5,9.2-16.6,0-21.3-11.9-21.3-29.1V213h-13.4V198.5l13.4-1.9V176l21.6-4v24.6h20.2V213h-20.2v32.8c0,9.5,1.6,13.4,7.6,13.4,3.9,0,9.5-2.4,11.4-3.4Z" transform="translate(0 2.2)" fill="#231f20"/><path d="M1131.5,195.2l38.5-.7v12.7l-8.1,1.5,12.8,41.8L1187,209l-8.4-1.9V195.2l38.8-.7v12.7l-8.9,1.9-21.2,61.1c-6.9,19.7-16.3,40.6-39.2,40.6-4.9,0-14-1.2-14-1.2l2-16h9.4c11.5,0,16.9-12.7,19.3-18.5l-25.7-65.6-7.6-2.4V195.2Z" transform="translate(0 2.2)" fill="#231f20"/></g><g id="_U_" data-name="&quot;U&quot;"><g clip-path="url(#clip-path)"><path d="M235.2-2.2V185.5c0,38.5,26.1,64.3,64.9,64.3s64.8-25.8,64.8-64.3V-2.2" transform="translate(0 2.2)" fill="none"/><rect x="188.1" width="94.2" height="6.2" fill="#ee7326"/><rect x="188.1" y="3" width="94.2" height="6.2" fill="#ee7227"/><rect x="188.1" y="6" width="94.2" height="6.2" fill="#ee7227"/><rect x="188.1" y="9" width="94.2" height="6.2" fill="#ee7228"/><rect x="188.1" y="12" width="94.2" height="6.2" fill="#ee7129"/><rect x="188.1" y="15" width="94.2" height="6.2" fill="#ee712a"/><rect x="188.1" y="18" width="94.2" height="6.2" fill="#ee702b"/><rect x="188.1" y="21" width="94.2" height="6.2" fill="#ee702c"/><rect x="188.1" y="24" width="94.2" height="6.2" fill="#ee702c"/><rect x="188.1" y="27" width="94.2" height="6.2" fill="#ed6f2d"/><rect x="188.1" y="30" width="94.2" height="6.2" fill="#ed6f2e"/><rect x="188.1" y="33" width="94.2" height="6.2" fill="#ed6e2f"/><rect x="188.1" y="36" width="94.2" height="6.2" fill="#ed6e2f"/><rect x="188.1" y="39" width="94.2" height="6.2" fill="#ed6e30"/><rect x="188.1" y="41.9" width="94.2" height="6.2" fill="#ed6d31"/><rect x="188.1" y="44.9" width="94.2" height="6.2" fill="#ed6d32"/><rect x="188.1" y="47.9" width="94.2" height="6.2" fill="#ed6c32"/><rect x="188.1" y="50.9" width="94.2" height="6.2" fill="#ed6c33"/><rect x="188.1" y="53.9" width="94.2" height="6.2" fill="#ed6c34"/><rect x="188.1" y="56.9" width="94.2" height="6.2" fill="#ed6b35"/><rect x="188.1" y="59.9" width="94.2" height="6.2" fill="#ed6b35"/><rect x="188.1" y="62.9" width="94.2" height="6.2" fill="#ed6a36"/><rect x="188.1" y="65.9" width="94.2" height="6.2" fill="#ed6a37"/><rect x="188.1" y="68.9" width="94.2" height="6.2" fill="#ed6a37"/><rect x="188.1" y="71.9" width="94.2" height="6.2" fill="#ed6938"/><rect x="188.1" y="74.9" width="94.2" height="6.2" fill="#ed6939"/><rect x="188.1" y="77.9" width="94.2" height="6.2" fill="#ed6939"/><rect x="188.1" y="80.8" width="94.2" height="6.2" fill="#ec683a"/><rect x="188.1" y="83.8" width="94.2" height="6.2" fill="#ec683b"/><rect x="188.1" y="86.8" width="94.2" height="6.2" fill="#ec673b"/><rect x="188.1" y="89.8" width="94.2" height="6.2" fill="#ec673c"/><rect x="188.1" y="92.8" width="94.2" height="6.2" fill="#ec673d"/><rect x="188.1" y="95.8" width="94.2" height="6.2" fill="#ec663d"/><rect x="188.1" y="98.8" width="94.2" height="6.2" fill="#ec663e"/><rect x="188.1" y="101.8" width="94.2" height="6.2" fill="#ec663f"/><rect x="188.1" y="104.8" width="94.2" height="6.2" fill="#ec653f"/><rect x="188.1" y="107.8" width="94.2" height="6.2" fill="#ec6540"/><rect x="188.1" y="110.8" width="94.2" height="6.2" fill="#ec6440"/><rect x="188.1" y="113.8" width="94.2" height="6.2" fill="#ec6441"/><rect x="188.1" y="116.8" width="94.2" height="6.2" fill="#ec6442"/><rect x="188.1" y="119.7" width="94.2" height="6.2" fill="#ec6342"/><rect x="188.1" y="122.7" width="94.2" height="6.2" fill="#ec6343"/><rect x="188.1" y="125.7" width="94.2" height="6.2" fill="#ec6343"/><rect x="188.1" y="128.7" width="94.2" height="6.2" fill="#ec6244"/><rect x="188.1" y="131.7" width="94.2" height="6.2" fill="#ec6244"/><rect x="188.1" y="134.7" width="94.2" height="6.2" fill="#ec6145"/><rect x="188.1" y="137.7" width="94.2" height="6.2" fill="#ec6146"/><rect x="188.1" y="140.7" width="94.2" height="6.2" fill="#ec6146"/><rect x="188.1" y="143.7" width="94.2" height="6.2" fill="#ec6047"/><rect x="188.1" y="146.7" width="94.2" height="6.2" fill="#ec6047"/><rect x="188.1" y="149.7" width="94.2" height="6.2" fill="#ec5f48"/><rect x="188.1" y="152.7" width="94.2" height="6.2" fill="#ec5f48"/><rect x="188.1" y="155.7" width="94.2" height="6.2" fill="#eb5f49"/><rect x="188.1" y="158.6" width="94.2" height="6.2" fill="#eb5e49"/><rect x="188.1" y="161.6" width="94.2" height="6.2" fill="#eb5e4a"/><rect x="188.1" y="164.6" width="94.2" height="6.2" fill="#eb5d4a"/><rect x="188.1" y="167.6" width="94.2" height="6.2" fill="#eb5d4b"/><rect x="188.1" y="170.6" width="94.2" height="6.2" fill="#eb5c4b"/><rect x="188.1" y="173.6" width="94.2" height="6.2" fill="#eb5c4c"/><rect x="188.1" y="176.6" width="94.2" height="6.2" fill="#eb5b4c"/><rect x="188.1" y="179.6" width="94.2" height="6.2" fill="#eb5b4d"/><path d="M188.2,187.2c-.1-3.3,0-4.5-.1-6.9h94.2v5.6Z" transform="translate(0 2.2)" fill="#eb5b4d"/><path d="M188.4,192c-.1-3.2-.3-7-.2-8.6h94.2c0,2.6.1,2.9.1,3.9Z" transform="translate(0 2.2)" fill="#eb5a4e"/><path d="M188.6,196.7c-.2-3.3-.3-6.5-.4-9.8l94.1-1a22.6,22.6,0,0,1,.1,2.6Z" transform="translate(0 2.2)" fill="#eb5a4e"/><path d="M189.2,201.5a86.67,86.67,0,0,1-.9-9.9l94-4.4a10.14,10.14,0,0,0,.2,2.5Z" transform="translate(0 2.2)" fill="#eb594e"/><path d="M189.9,206.3c-.5-3.3-.9-6.7-1.3-10.1l93.8-7.9a18.1,18.1,0,0,1,.3,2.3Z" transform="translate(0 2.2)" fill="#eb594f"/><path d="M190.9,211.2c-.8-3.4-1.2-6.7-1.7-10.1l93.4-11.6a13,13,0,0,0,.3,2.2Z" transform="translate(0 2.2)" fill="#eb584f"/><path d="M192,216.1c-.8-3.4-1.7-6.8-2.2-10.2l92.9-15.3a17.66,17.66,0,0,1,.4,2Z" transform="translate(0 2.2)" fill="#eb5850"/><path d="M193.4,221a95.36,95.36,0,0,1-2.6-10.2L283,191.6a10.55,10.55,0,0,0,.5,1.9Z" transform="translate(0 2.2)" fill="#eb5750"/><path d="M195,225.9a99.05,99.05,0,0,1-3.1-10.2l91.2-23.2c0,.7.4,1.1.5,1.7Z" transform="translate(0 2.2)" fill="#eb5751"/><path d="M196.9,230.8a103.46,103.46,0,0,1-3.6-10.2l90.1-27.2a14.25,14.25,0,0,1,.5,1.6Z" transform="translate(0 2.2)" fill="#eb5751"/><path d="M199,235.7a79.16,79.16,0,0,1-4.1-10.1l88.8-31.4a5.91,5.91,0,0,0,.6,1.4Z" transform="translate(0 2.2)" fill="#ea5652"/><path d="M201.4,240.4c-1.8-3.3-3.2-6.6-4.7-10l87.2-35.5c.3.4.3.9.6,1.3Z" transform="translate(0 2.2)" fill="#ea5652"/><path d="M204.1,245.1a84.06,84.06,0,0,1-5.2-9.8l85.4-39.7a4.49,4.49,0,0,0,.6,1.2Z" transform="translate(0 2.2)" fill="#ea5552"/><path d="M206.9,249.7c-2.1-3.1-3.9-6.4-5.8-9.6l83.3-43.9a5.3,5.3,0,0,1,.6,1Z" transform="translate(0 2.2)" fill="#ea5553"/><path d="M210.1,254.1a73.4,73.4,0,0,1-6.3-9.4l80.9-48.1c.1.4.4.6.6.9Z" transform="translate(0 2.2)" fill="#ea5453"/><path d="M213.5,258.4c-2.5-2.9-4.6-6-6.8-9.1l78.4-52.2c.3.2.4.6.7.9Z" transform="translate(0 2.2)" fill="#ea5454"/><path d="M217.1,262.5a87.35,87.35,0,0,1-7.3-8.8l75.5-56.2c.1.4.4.5.7.8Z" transform="translate(0 2.2)" fill="#ea5354"/><path d="M221,266.5c-2.7-2.6-5.2-5.5-7.8-8.4L285.7,198c.3.2.4.5.7.7Z" transform="translate(0 2.2)" fill="#ea5355"/><path d="M225,270.1a87.65,87.65,0,0,1-8.2-7.9L286,198.3a4.62,4.62,0,0,0,.7.7Z" transform="translate(0 2.2)" fill="#ea5255"/><path d="M229.2,273.6c-3-2.3-5.8-4.9-8.6-7.5l65.7-67.5c.3.2.5.5.8.7Z" transform="translate(0 2.2)" fill="#ea5255"/><path d="M233.6,276.8a85.59,85.59,0,0,1-8.9-7l62-70.8c.2.3.6.4.9.7Z" transform="translate(0 2.2)" fill="#ea5156"/><path d="M238.1,279.9c-3.2-2-6.2-4.3-9.3-6.5l58.2-74c.4.1.6.4.9.7Z" transform="translate(0 2.2)" fill="#ea5156"/><path d="M242.8,282.6a88.46,88.46,0,0,1-9.5-6l54.3-77c.2.3.7.4,1,.6Z" transform="translate(0 2.2)" fill="#ea5056"/><path d="M247.5,285.1c-3.3-1.6-6.5-3.6-9.7-5.4L288,200a6,6,0,0,1,1.1.6Z" transform="translate(0 2.2)" fill="#ea5057"/><path d="M252.3,287.2a90.83,90.83,0,0,1-9.9-4.9l46.1-82.1a3.93,3.93,0,0,0,1.3.6Z" transform="translate(0 2.2)" fill="#ea4f57"/><path d="M257.1,289.3c-3.4-1.3-6.7-2.8-10-4.4l42-84.3a8.43,8.43,0,0,1,1.4.6Z" transform="translate(0 2.2)" fill="#ea4f58"/><path d="M262,290.9a83,83,0,0,1-10.1-3.8l37.9-86.2a5.21,5.21,0,0,0,1.5.6Z" transform="translate(0 2.2)" fill="#ea4e58"/><path d="M266.9,292.5c-3.4-1-6.8-2.2-10.1-3.3l33.7-87.9a4.92,4.92,0,0,1,1.7.6Z" transform="translate(0 2.2)" fill="#ea4e58"/><path d="M271.7,293.6a95.07,95.07,0,0,1-10.1-2.8l29.7-89.4a7.39,7.39,0,0,0,1.9.5Z" transform="translate(0 2.2)" fill="#ea4d59"/><path d="M276.6,294.7c-3.4-.7-6.7-1.4-10.1-2.4l25.6-90.6a14.62,14.62,0,0,1,2,.5Z" transform="translate(0 2.2)" fill="#ea4d59"/><path d="M281.4,295.5c-3.3-.4-6.7-1.2-10.1-1.9L293,202a12.4,12.4,0,0,0,2.2.4Z" transform="translate(0 2.2)" fill="#e94c59"/><path d="M286.2,296.1c-3.3-.5-6.6-.8-10-1.5L294,202.1a18.11,18.11,0,0,0,2.3.3Z" transform="translate(0 2.2)" fill="#e94c5a"/><path d="M290.9,296.5c-3.2-.1-6.6-.7-9.9-1.1l14.1-93.1c.8,0,1.5.3,2.4.3Z" transform="translate(0 2.2)" fill="#e94b5a"/><path d="M295.6,296.7c-3.3-.2-6.4-.2-9.8-.7l10.4-93.6a19.66,19.66,0,0,0,2.6.2Z" transform="translate(0 2.2)" fill="#e94b5a"/><path d="M300.3,296.9c-3.2-.1-6.5-.2-9.7-.4l6.9-93.9c.9,0,1.8.1,2.7.1Z" transform="translate(0 2.2)" fill="#e94a5b"/><path d="M304.9,296.7a78.48,78.48,0,0,1-9.7,0l3.5-94.1a12.19,12.19,0,0,0,2.7,0Z" transform="translate(0 2.2)" fill="#e94a5b"/><path d="M309.6,296.5c-3.2.2-6.5.3-9.7.4l.1-94.2a24.37,24.37,0,0,1,2.7-.1Z" transform="translate(0 2.2)" fill="#e9495b"/><path d="M314.4,296.1c-3.4.5-6.5.5-9.8.7l-3.2-94.1a19.67,19.67,0,0,0,2.6-.2Z" transform="translate(0 2.2)" fill="#e9495c"/><path d="M319.2,295.4c-3.3.4-6.7,1-9.9,1.1l-6.6-93.9c.9,0,1.6-.3,2.4-.3Z" transform="translate(0 2.2)" fill="#e9485c"/><path d="M324,294.6c-3.4.7-6.6,1-10,1.5l-10.1-93.6c.8-.2,1.7-.1,2.3-.3Z" transform="translate(0 2.2)" fill="#e9485c"/><path d="M328.8,293.5a74.52,74.52,0,0,1-10.1,1.9L305,202.3a12.4,12.4,0,0,0,2.2-.4Z" transform="translate(0 2.2)" fill="#e9475d"/><path d="M333.7,292.3c-3.4.9-6.7,1.6-10.1,2.4l-17.5-92.5c.7-.2,1.4-.3,2-.5Z" transform="translate(0 2.2)" fill="#e9475d"/><path d="M338.6,290.8a66.47,66.47,0,0,1-10.1,2.8l-21.4-91.7a7.76,7.76,0,0,0,1.8-.5Z" transform="translate(0 2.2)" fill="#e9465d"/><path d="M343.4,289.1c-3.3,1.2-6.7,2.3-10.1,3.3L308,201.8a8.45,8.45,0,0,1,1.7-.5Z" transform="translate(0 2.2)" fill="#e9465e"/><path d="M348.2,287.1a77.23,77.23,0,0,1-10.1,3.8l-29.3-89.5a3.39,3.39,0,0,0,1.5-.6Z" transform="translate(0 2.2)" fill="#e9455e"/><path d="M353,284.9c-3.3,1.5-6.6,3-10,4.4l-33.4-88a8.43,8.43,0,0,1,1.4-.6Z" transform="translate(0 2.2)" fill="#e9455e"/><path d="M357.7,282.3a75.87,75.87,0,0,1-9.9,4.9l-37.5-86.4a3.93,3.93,0,0,0,1.3-.6Z" transform="translate(0 2.2)" fill="#e9445f"/><path d="M362.4,279.6c-3.2,1.9-6.4,3.8-9.7,5.4L311,200.6a6,6,0,0,1,1.1-.6Z" transform="translate(0 2.2)" fill="#e9435f"/><path d="M366.9,276.6a72.3,72.3,0,0,1-9.5,6l-45.8-82.3a4.37,4.37,0,0,0,1-.6Z" transform="translate(0 2.2)" fill="#e9435f"/><path d="M371.3,273.4c-3,2.2-6.1,4.5-9.3,6.5L312.1,200a7.05,7.05,0,0,0,.9-.7Z" transform="translate(0 2.2)" fill="#e9425f"/><path d="M375.4,269.8a85.59,85.59,0,0,1-8.9,7l-53.9-77.2a3.11,3.11,0,0,0,.9-.7Z" transform="translate(0 2.2)" fill="#e94260"/><path d="M379.5,266.2c-2.8,2.6-5.6,5.2-8.6,7.5L313,199.4c.3-.2.5-.5.8-.7Z" transform="translate(0 2.2)" fill="#e94160"/><path d="M383.3,262.2a76.51,76.51,0,0,1-8.2,7.9L313.4,199c.2-.2.6-.4.7-.7Z" transform="translate(0 2.2)" fill="#e94160"/><path d="M386.9,258.1c-2.5,2.8-5,5.7-7.8,8.4l-65.4-67.7c.3-.2.4-.6.7-.7Z" transform="translate(0 2.2)" fill="#e94061"/><path d="M390.3,253.8a87.36,87.36,0,0,1-7.3,8.8l-68.9-64.2c.2-.3.5-.4.7-.8Z" transform="translate(0 2.2)" fill="#e84061"/><path d="M393.5,249.3c-2.2,3.1-4.4,6.2-6.8,9.1L314.4,198a5.49,5.49,0,0,1,.7-.9Z" transform="translate(0 2.2)" fill="#e83f61"/><path d="M396.3,244.7a81.13,81.13,0,0,1-6.3,9.4l-75.3-56.5c.2-.3.5-.5.6-.9Z" transform="translate(0 2.2)" fill="#e83e61"/><path d="M399,240c-1.9,3.3-3.6,6.5-5.8,9.6L315,197.1a5.3,5.3,0,0,1,.6-1Z" transform="translate(0 2.2)" fill="#e83e62"/><path d="M401.3,235.3a76.72,76.72,0,0,1-5.2,9.8l-80.7-48.4c.2-.4.5-.6.6-1.2Z" transform="translate(0 2.2)" fill="#e83d62"/><path d="M403.4,230.4c-1.5,3.4-2.9,6.7-4.7,10l-83.1-44.2a13.92,13.92,0,0,1,.6-1.3Z" transform="translate(0 2.2)" fill="#e83d62"/><path d="M405.3,225.6a97.1,97.1,0,0,1-4.1,10.1L316,195.6c.1-.5.5-.8.6-1.4Z" transform="translate(0 2.2)" fill="#e83c63"/><path d="M406.9,220.6c-1.2,3.4-2.1,6.8-3.6,10.2l-87.1-35.9c.3-.4.3-1.1.5-1.6Z" transform="translate(0 2.2)" fill="#e83c63"/><path d="M408.2,215.7a99.05,99.05,0,0,1-3.1,10.2l-88.7-31.7c.1-.6.5-1,.5-1.7Z" transform="translate(0 2.2)" fill="#e83b63"/><path d="M409.4,210.8a95.35,95.35,0,0,1-2.6,10.2l-90-27.6c.3-.5.2-1.3.5-1.9Z" transform="translate(0 2.2)" fill="#e83b63"/><path d="M410.3,206c-.5,3.3-1.4,6.8-2.2,10.2L317,192.6a11.8,11.8,0,0,0,.4-2Z" transform="translate(0 2.2)" fill="#e83a64"/><path d="M411,201.1a71,71,0,0,1-1.7,10.1l-92.1-19.6a13,13,0,0,0,.3-2.2Z" transform="translate(0 2.2)" fill="#e83964"/><path d="M411.5,196.3c-.3,3.3-.8,6.7-1.3,10.1l-92.8-15.6a18.11,18.11,0,0,1,.3-2.3Z" transform="translate(0 2.2)" fill="#e83964"/><path d="M411.8,191.6a84.68,84.68,0,0,1-.9,9.9l-93.4-11.9a9.36,9.36,0,0,0,.2-2.5Z" transform="translate(0 2.2)" fill="#e83865"/><path d="M412,186.9c-.1,3.3-.2,6.6-.4,9.8l-93.8-8.2a21.75,21.75,0,0,1,.1-2.6Z" transform="translate(0 2.2)" fill="#e83865"/><path d="M412,183.4c0,1.6-.1,5.4-.2,8.6l-94-4.7a32.62,32.62,0,0,0,.1-3.9H412Z" transform="translate(0 2.2)" fill="#e83765"/><path d="M412,180.4c0,2.4.1,3.5-.1,6.9L317.8,186c.1-.8,0-3.8,0-5.6H412Z" transform="translate(0 2.2)" fill="#e83765"/><rect x="317.8" y="179.6" width="94.2" height="6.2" fill="#e83666"/><rect x="317.8" y="176.6" width="94.2" height="6.2" fill="#e83566"/><rect x="317.8" y="173.6" width="94.2" height="6.2" fill="#e83566"/><rect x="317.8" y="170.6" width="94.2" height="6.2" fill="#e83466"/><rect x="317.8" y="167.6" width="94.2" height="6.2" fill="#e83467"/><rect x="317.8" y="164.6" width="94.2" height="6.2" fill="#e83367"/><rect x="317.8" y="161.6" width="94.2" height="6.2" fill="#e83267"/><rect x="317.8" y="158.6" width="94.2" height="6.2" fill="#e83267"/><rect x="317.8" y="155.7" width="94.2" height="6.2" fill="#e83168"/><rect x="317.8" y="152.7" width="94.2" height="6.2" fill="#e83168"/><rect x="317.8" y="149.7" width="94.2" height="6.2" fill="#e83068"/><rect x="317.8" y="146.7" width="94.2" height="6.2" fill="#e72f68"/><rect x="317.8" y="143.7" width="94.2" height="6.2" fill="#e72f69"/><rect x="317.8" y="140.7" width="94.2" height="6.2" fill="#e72e69"/><rect x="317.8" y="137.7" width="94.2" height="6.2" fill="#e72d69"/><rect x="317.8" y="134.7" width="94.2" height="6.2" fill="#e72c69"/><rect x="317.8" y="131.7" width="94.2" height="6.2" fill="#e72c69"/><rect x="317.8" y="128.7" width="94.2" height="6.2" fill="#e72b6a"/><rect x="317.8" y="125.7" width="94.2" height="6.2" fill="#e72a6a"/><rect x="317.8" y="122.7" width="94.2" height="6.2" fill="#e72a6a"/><rect x="317.8" y="119.7" width="94.2" height="6.2" fill="#e7296a"/><rect x="317.8" y="116.8" width="94.2" height="6.2" fill="#e7286b"/><rect x="317.8" y="113.8" width="94.2" height="6.2" fill="#e7276b"/><rect x="317.8" y="110.8" width="94.2" height="6.2" fill="#e7276b"/><rect x="317.8" y="107.8" width="94.2" height="6.2" fill="#e7266b"/><rect x="317.8" y="104.8" width="94.2" height="6.2" fill="#e7256b"/><rect x="317.8" y="101.8" width="94.2" height="6.2" fill="#e7246c"/><rect x="317.8" y="98.8" width="94.2" height="6.2" fill="#e7236c"/><rect x="317.8" y="95.8" width="94.2" height="6.2" fill="#e7226c"/><rect x="317.8" y="92.8" width="94.2" height="6.2" fill="#e7216c"/><rect x="317.8" y="89.8" width="94.2" height="6.2" fill="#e7216d"/><rect x="317.8" y="86.8" width="94.2" height="6.2" fill="#e7206d"/><rect x="317.8" y="83.8" width="94.2" height="6.2" fill="#e71f6d"/><rect x="317.8" y="80.8" width="94.2" height="6.2" fill="#e71e6d"/><rect x="317.8" y="77.9" width="94.2" height="6.2" fill="#e61d6d"/><rect x="317.8" y="74.9" width="94.2" height="6.2" fill="#e61c6e"/><rect x="317.8" y="71.9" width="94.2" height="6.2" fill="#e61a6e"/><rect x="317.8" y="68.9" width="94.2" height="6.2" fill="#e6196e"/><rect x="317.8" y="65.9" width="94.2" height="6.2" fill="#e6186e"/><rect x="317.8" y="62.9" width="94.2" height="6.2" fill="#e6176e"/><rect x="317.8" y="59.9" width="94.2" height="6.2" fill="#e6156e"/><rect x="317.8" y="56.9" width="94.2" height="6.2" fill="#e6146f"/><rect x="317.8" y="53.9" width="94.2" height="6.2" fill="#e6126f"/><rect x="317.8" y="50.9" width="94.2" height="6.2" fill="#e6116f"/><rect x="317.8" y="47.9" width="94.2" height="6.2" fill="#e60f6f"/><rect x="317.8" y="44.9" width="94.2" height="6.2" fill="#e60d6f"/><rect x="317.8" y="41.9" width="94.2" height="6.2" fill="#e60b70"/><rect x="317.8" y="38.9" width="94.2" height="6.2" fill="#e60970"/><rect x="317.8" y="36" width="94.2" height="6.2" fill="#e60770"/><rect x="317.8" y="33" width="94.2" height="6.2" fill="#e60470"/><rect x="317.8" y="30" width="94.2" height="6.2" fill="#e60270"/><rect x="317.8" y="27" width="94.2" height="6.2" fill="#e60070"/><rect x="317.8" y="24" width="94.2" height="6.2" fill="#e60070"/><rect x="317.8" y="21" width="94.2" height="6.2" fill="#e60071"/><rect x="317.8" y="18" width="94.2" height="6.2" fill="#e60071"/><rect x="317.8" y="15" width="94.2" height="6.2" fill="#e60071"/><rect x="317.8" y="12" width="94.2" height="6.2" fill="#e60071"/><rect x="317.8" y="9" width="94.2" height="6.2" fill="#e60071"/><rect x="317.8" y="6" width="94.2" height="6.2" fill="#e50071"/><rect x="317.8" y="3" width="94.2" height="6.2" fill="#e50071"/><rect x="317.8" width="94.2" height="6.2" fill="#e50071"/></g></g><g id="_B" data-name="&quot;B"><path d="M0,11.6H81.5c44.7,0,65.4,4.3,84.7,25.7,11.8,12.1,15.7,28.2,15.7,43.6,0,20.4-9.3,41.1-30.7,53.2,42.5,15,43.6,50.4,43.6,61.5,0,21.1-8.2,44.3-24.3,57.5C146.2,273.5,128.7,276,84,276H0ZM64.7,112H88.6c9.3,0,28.6,0,28.6-21.1,0-20-18.2-20-28.6-20H64.7Zm0,104.7H96.5c8.6,0,33.6,0,33.6-25.4,0-22.9-22.9-22.9-33.6-22.9H64.7Z" transform="translate(0 2.2)"/></g></svg>