<svg xmlns="http://www.w3.org/2000/svg" viewBox="0 0 170.37 122.51"><defs><style>.a{fill:#6d6e71;}.b{fill:#fff;}</style></defs><title>cityco</title><path class="a" d="M159.93,82.87c.12-2.24.22-4.48.26-6.74C160.13,78.37,160,80.63,159.93,82.87Z" transform="translate(0 0)"/><path class="a" d="M153.6,31.09v0h0C156.83,31.11,155.94,31.1,153.6,31.09Z" transform="translate(0 0)"/><path class="a" d="M159.45,100.21h0Z" transform="translate(0 0)"/><path class="a" d="M169.38,100.25v0C171.1,100.27,170.23,100.25,169.38,100.25Z" transform="translate(0 0)"/><path class="a" d="M165.31,36.1h.08C166.12,36.08,166.67,36.07,165.31,36.1Z" transform="translate(0 0)"/><path class="a" d="M164.74,36.11h0Z" transform="translate(0 0)"/><path class="a" d="M153.91,97.74h0Z" transform="translate(0 0)"/><path class="a" d="M153.91,97.74l-.6,0h0C151.17,97.73,153,97.74,153.91,97.74Z" transform="translate(0 0)"/><path class="a" d="M154.7,36.57v0C153.64,36.59,153.38,36.6,154.7,36.57Z" transform="translate(0 0)"/><polygon class="a" points="154.74 36.54 154.74 36.57 154.74 36.57 154.75 36.54 154.74 36.54"/><path class="a" d="M159.79,100.26c3.8,0-8.51.05,8.51.1v-.07c-4.34,0-7,0-8.5-.06Z" transform="translate(0 0)"/><path class="a" d="M169.22,100.27h0Z" transform="translate(0 0)"/><path class="a" d="M151.29,97.75h0Z" transform="translate(0 0)"/><path class="a" d="M157.78,36.28h0Z" transform="translate(0 0)"/><path class="a" d="M169.22,100.25h.16v0h-.17Z" transform="translate(0 0)"/><path class="a" d="M159.34,100.21c-1,0-2.87,0,.45,0h-.45Z" transform="translate(0 0)"/><path class="a" d="M168.29,100.27h0l-8.5,0Z" transform="translate(0 0)"/><path class="a" d="M155,17c.48,0,.76,0,0,0h0Z" transform="translate(0 0)"/><path class="a" d="M168.29,100.28h.93v0h-.93Z" transform="translate(0 0)"/><path class="a" d="M158.94,99.36l-.06.69v.14h.93v0l0-.19,0-.59c1.9.06,2.54.07,0,0l.07-.85.25-2.92.5-5.84c.38-7.39.64-36,.72-53.4,2,0,3.44-.08,2.85,0l0,.1.54,3.06a179.79,179.79,0,0,1,2.12,24.31c.26,8,.28,16,.56,23.82.16,3.93.35,7.83.71,11.68l.06.73,0,.26h.93c-.75,0-1.36,0,0,0v0l0-.27,0-.54c-.12-1.47-.25-2.93-.33-4.4-.75-11.75-.5-23.75-1.1-36.25-.23-4.65-.57-9.36-1.17-14.14.09.7.19,1.4.26,2.1,1,8.95,1.22,17.79,1.41,26.49s.29,17.27,1,25.65l.06.79,0,.39,0,.2v0h0v-.06c-.24-2.67-.44-5.35-.59-8.07-.59-10.88-.45-22.12-1-33.68a171.28,171.28,0,0,0-1.71-17.57c-.22-1.47-.52-3-.78-4.43l0-.28h.08l-3.9.09h0c0-1.77,0-3.43,0-4.93q-.08,2.48-.15,4.93l-3.5.09,3.5-.08-3.83.09h0c0-.66-.1-1.31-.16-2q.2-3,.39-6.08l.67-7.08.17-1.76,0-.45h0c.39,0,.34,0,0,0v.15l-.08.72-.57,5.74c-.31,2.65-.46,5.36-.63,8.09q-.33-3.75-.8-7.49c-.3-2.37-.68-4.73-1.1-7.09l3.19-.12c7.27-.28,3-.12-3.19.12-.11-.67-.23-1.34-.36-2-.79.05-2.16.12-.39.06l0,.19.13.76.17,1-4.16.16,0-.18V19l.05-.52,0-.25v-.13c.09,0,0,0-.25,0l0-.14v-.08s0,0-.05,0l0,.16h0l-1.14.05v.06l1.08,0v0c-.21,0,0,0,.06,0v.05h-.07l-.06.58-.07.59-.75,0,.75,0,0,.57L150,22.1c-.07-.42-.13-.84-.2-1.25l-.26-1.58-.12-.72-.05-.29,0-.14h-.08V17.9c.22,0,0,0,0,0v0l0,.16v0c-.61,0-1,.06-.25,0v.07c.05.27.11.55.15.82l0,.25-3.39.12c0-.67-.08-1.34-.12-2,5.85-.24,8.43-.34,9.38-.37V17l-9.37.35c0-.47,0-.93-.09-1.39-.16-2.73-.36-5.48-.55-8.21l-.33-4.12-.17-2.05-.08-1,0-.52C110,1,134.8.36,127.13.62V1Q127,5.31,127,9.58c-7.26.24-16,.52-9.76.33l1.42,0h0L127,9.59c0,.06,0,.13,0,.2-1.34,0-2.65.09-2.28.09V10h0l.58,0v.05l-.58,0v0l.58,0h0v.07l-.59,0c0,2.38,0,4.79,0,7.23s0,4.68,0,7.06l-1,.1-.34-5L123,14.14l-.19-2.76,0-.7,0-.34v-.06l-1.8.05,0,.35,0,.75.2,3c.23,3.46.47,6.91.72,10.36l-1,.09L120.33,16l-.3-4.53L120,10.36h-.12v.3l0,.42.11,1.62.23,3.27.63,8.9h0l-.48-6.66L120.08,14l-.14-2.1-.07-1,0-.52h0l-1.22,0v-.05h0l1.21,0c-.26,0-.28,0-.1,0l-1.11,0V9.91h0v.44c-2.06.07-2.68.09,0,0v.05c-4.79.16-7.14.25-.73.08l.06,1,.13,1.93.26,3.86.53,7.67c0,.06,0,.12,0,.18-8.69.91-21.58,2.28-11.15,1.23v.12l11.15-1.18a.06.06,0,0,0,0,0l-8.5.91v.56l0,.47-.5.06,0-.78v-.28l-2.16.22v.1l0,1v.06h0c-.45.05-.61.06,0,0-2.86.3-3.81.41,0,0l.06,1.86.14,3.86L108.3,41c0,.75.08,1.48.12,2.22l-3.66.13v-.43c-6.3,0,12.86,0-11,0-.08-5.49-.23-11-.56-16.6L93,23.23c1,0,1.85,0,0,0V23l0-.41c2.93-.09-25.46.31-13.45.19V24l0,1.66c0,2.22,0,4.42,0,6.62.06,4.4.2,8.76.35,13.11l0,.85-.69,0h.19l-.19,0h0l-.95.06v0l1-.07h0l-1,.07,0-.12-.05-.43,0-.22C58,46.93,72.53,46,68,46.31v.6l-2.21,0c-.14-1.08-.28-2.15-.42-3.22q-.1-3.49-.13-7c0-2,0-4,0-6l.06-3v-.54L63,27.42l-.11-.71,0-.23v-.11c1.68-.19-14.75,1-7.79.58v1c-4.59.34-7.83.57-2.41.19l0,.19.12.73.12.77-8,.29q-.13-2.76-.24-5.51l-.06-1.52V22.8c2.53-.08-22,.38-11.63.22v10.5L33,38.69q-.46-3.25-1-6.5c.07-1.72.13-3.53.2-5.46l0-1.15v-.36l-1.49.11-.16-.88c-12,.86-3.33.36-6,.61v.2l0,.42v.13l-1.48.12V26l0,.14.11.57.46,2.37c.2,1,.4,2,.61,3.11l0,.81c-.08-.35-.16-.77-.25-1.23.08.43.17.89.25,1.35L24.08,38l-.4,13.16c0,1.06-.05,2.12-.08,3.18,0-.31,0-.61,0-.92-.22-4.2-.5-8.41-1-12.58L22.33,39v-.1l0-.19v-.09c.2,0,.15,0-.08,0l-.1-.86c6.48-.12-8.87-.07-7.29,0l0,.2,0,.39,0,.33c-1.91,0-2.74,0-.07,0v.08l0,.22,0,.14-.17,1.57c-.26,2.1-.38,4.17-.56,6.25-.09,1.29-.16,2.58-.23,3.85h.4c.1-1.58.21-3.14.35-4.67.16-1.68.29-3.34.51-5l0,.22c.27,2,.46,4,.64,6,.22,2.51.38,5,.5,7.5-.5,14-.17,28.16-1.6,41.38-.67-9.05-.81-18.14-1.11-27.2,0-.19,0-.37,0-.56.15-6.08.32-12,.68-17.7h-.4c-.24,4.63-.36,9.2-.46,13.74-.14-3.46-.28-6.91-.54-10.36l-.19-2.82,0-.35v-.17c.26,0,.19,0-.12,0v.08l0,.71c.23,3.77.51,7.65.64,11.57.05,1.2.1,2.41.14,3.62,0,1.55-.06,3.1-.1,4.64C13,79.48,12.78,87.36,12,95c-.09.83-.19,1.67-.29,2.5-.28-3.17-.48-6.25-.66-9.2C10.54,79.9,10.3,72.47,10,66.54,9.75,63,9.52,60,9.3,57.66c0-.34.06-.66.09-1l.32-2.87.16-1.43.07-.72v-.09c2,0,1.07,0-.48,0v.09l0,.23-.08.91-.15,1.82c0,.4-.07.82-.1,1.23-.23-2.15-.43-3.61-.59-4.29H8.26c0,.13,0,.3,0,.49-.1,3.3.28,13.42.56,28.14.23,7.36.45,15.89,1.57,25.25a.6.6,0,0,0,0,.13c0,.24-.09.48-.14.71-.25,1.13-.5,2.27-.79,3.38l-.08-.52C8.61,104,8.09,98.77,7.72,93.62,7,83.31,6.77,73.12,6.2,63.15Q6,59.4,5.69,55.71L5.4,52l0-.46v0H4.87v.25l0,.37c.1,1.93.2,3.88.32,5.9.38,8.08.42,17.21,1.07,30.56a222.19,222.19,0,0,0,2.37,23.86l-.15.53-.18.66h.12l0-.06,0-.17.11-.36.09-.32c.05.31.1.63.16.93l1.24.07L10,113,9.5,110q.5-2,.92-4c.22,2.16.63,4.34.94,6.57l.08.54h0l-.19.7.3,0v0h-.32l0,.16-.13.45c-1.24-.06-.47,0,.6.06l0,.34,0,.12V115c-1.28,0,1.75.14,1.45.08l.06-.22.08-.28c.47,0,.75,0,.59,0v-.06l0-.12,0-.23,0-.25h-.31a.13.13,0,0,1,0,0h.29l-.11-.66c.28-1,.57-2,.82-3,.34-1.38.64-2.78.92-4.21q.24,2,.55,3.92c-.31,1.33-.65,2.66-1,4l1.26.05,0-.08c-.32,0-.46-.05,0,0l.22-.79,0,.14.1.66h.12l0-.18-.05-.35-.09-.56.46-1.68c.44-2.12,1-4.24,1.32-6.38.09-.53.2-1.06.28-1.6.15,1,.32,2,.5,3.07.34,1.93.77,3.84,1.15,5.76l.72,2.85.35,1.42.18.72.09.36,7.64-1,.05,2.39v.33c-2.28-.36,19.79,3.42,10.46,1.79l.14-.38.27-.78.54-1.57c.37-1,.69-2,1-3l7.07.11c.29,1.26.63,2.55.95,3.87l.19.78.09.38,0,.1v0h0c23.5.38,6.52.1,11.76.19h0v0l0-.2.38-1.61.75-3.22.13-.55c4.4.12,11.87.32,12.4.32l.11.36,0,.05c-7.47,0,4,0,9.07,0,.12.48.23,1,.34,1.46v.1c-5,0-3.52,0,0,0l.47,2,.18.79.09.4,0,.19,0,.1,0,.05v0h0c5.46,0-11.17,0,9.61,0l0,.24.13.71.06.36,0,.17v0h.45v-.09l0-.14,0-.26-.17-1h.08l0,.3.19,1.09,0,.07v0h14.2l0-.14.05-.27,0-.17.09,0-.1.55v0H95.78v.05c-13.62,0,18.57,0,15.25,0v0a.28.28,0,0,1,0-.05h0c.19-1,.37-1.95.54-2.91,1.05,0,.7,0,0,0,.06-.35.12-.7.18-1.06,5.84-.13,13.79-.32,12.1-.3v0l0-.35L124,117l.13-1.11c2-.06,2.59-.09,0,0l0-.24.71,0,0-.11-.08-.43-.32-1.74h0l.28-2.57,8.68-.1h0l-8.69.1,0-.24,8.65-.11,0,.18v.05h.05l0-.2v0c2.17,0,2.84,0,0,0l.2-1,.36-1.75.17,0v0l0-.08v0h-.09l0-.17,0,0,0,.13c2.08-.2-.2,0,.68-.13l0-.1-.07-.22-.34,0,0,0h.31l0-.16v0l3-.33-3.12.06,0,0,3.26,0c1.62-.18,2.14-.26-.36,0l-.08-.27-2.83.29v0h0l2.83-.29-.1-.35-.07-.23-2.83.28h0l.07-.36c.4-2.05.73-4.11,1-6.17.31,1.33.63,2.66,1,4l.67,2.3c.58-.06,1.17-.12,1.78-.17l-.5-1.72c-.44-1.52-.9-3-1.24-4.6s-.76-3.21-1.08-4.83c0-.07,0-.15,0-.22.09.46.17.93.27,1.39.51,2.07,1,4.18,1.52,6.22l.9,3,.2.69,2.85-.28-.06-.21-.12-.43-.7-2.43h.21l0-.28.26-2.58.53-5.14c.15-2.13.3-4.26.43-6.39V88l-.08,6.39,0,3.21v.15h1.74l-.45,3.81,0,.41-2.37.13v0a12,12,0,0,0,2.37-.09l0,.27,0,.18h.15v-.08l0-.18,0-.18,4-.22.1.4H148v0l0-.09-.06-.26c3.57-.22,6.44-.42,2.35-.22h0l-2.37.14v0l-.34-1.49L147,97.75h1.83l-.16,1.18V99c-.41,0,0,0,.81,0V99l.05-.36v0l.12.49h-.17l.18,0a0,0,0,0,1,0,0c-.79,0-1.83,0,0,0,0,.14.07.28.1.42l.29,1.26.15.63,0,.15c.6,0,.84-.06.5,0v-.05l-.4-1.75-.14-.6,8.17.28v-.1l-8.18-.27-.3-1.32h0l-.15-.67.55-4.27q.69-5.82,1.2-11.7c.19-2.21.37-4.44.55-6.67,0,3.53,0,7.06.13,10.59-.05-3.93-.05-7.87,0-11.81.34-4.33.65-8.68,1-13l0,5.2L153,88.79l0,5.86,0,2.94v.09c-1.83,0-.55,0,.32,0h0v-.61l0-.81,0-1.63c.08-4.34.15-8.76.22-13.29.13-9,.23-18.38.22-28.58.23-2.46.48-4.93.75-7.4.21-2,.52-4,.77-6l.21-1.5.1-.76,0-.37,0-.19-1,0-.15,1.15L154,42.33c.13-1.06.27-2.11.41-3.18l.22-1.65.11-.82,0-.12h0v0l-.08.54-.14,1.09-.29,2.19c-.17,1.13-.31,2.28-.44,3.4q0-3.63-.08-7.41l1,0v.16h0v-.17h0v.17l2.21-.06c0,.23,0,.47,0,.7,0,0,0,.08,0,.12q-.6,11.92-.64,24.41c0,2.1,0,5.58.21,10.05,0-9.76-.05-19.53.34-29.16,0-1.46.1-2.91.17-4.35q.25,4.26.39,8.47c.49,16-.12,31.85.63,47.43l.17,2.92.09,1.46,0,.73v.08l.37,0,0,.43,0-.43Zm6.25-63.25v.06l.08.42.61,3.36q.33,2.19.62,4.39-.3-2.37-.7-4.76l-.44-2.44-.11-.61-.06-.3v-.11ZM12.82,107.64c-.31-2-.47-4-.72-6q-.2-1.75-.35-3.47c.25-1.93.46-3.87.65-5.8.65-7.08.85-14.16,1-21.06.26,8.4.45,17,1.11,25.58A108.54,108.54,0,0,1,12.82,107.64Zm4-1.39c-.24,1.13-.48,2.28-.73,3.42-.2-1.32-.38-2.64-.55-4,.69-3.6,1.19-7.31,1.57-11.09.09-.92.17-1.84.25-2.77q.25,3.3.63,6.58C17.66,101,17.28,103.65,16.8,106.25Zm4.4-67.64h0l-.08-.51,0-.26v0c-.27,0-1.3,0-.34,0V38l0,.2,0,.21h0v.19h0v0l0,.47-.09,1c-.12,1.18-.26,2.37-.35,3.57-.11-1.18-.28-2.36-.41-3.56L19.75,39l0-.39H19.7l0-.19h.13v-.1c1,0,.58,0-.15,0l0-.26c-1,0,2.18-.06-2.2,0v.06l0,.13v.14c-.18,0-.25,0-.16,0v.1h.14l0,.2h-.08v.12l0,.26-.1,1c-.14,1.17-.25,2.33-.34,3.5-.11-1-.22-2-.36-2.93l-.23-1.88v0h-.07c0-.06,0-.12,0-.18h-.31l0,.19h-.58l0-.27.08-.63c-1.33,0,11.67-.12,6.16-.05v.12l0,.15,0,.32,0,.3Zm.8,3.52a1.28,1.28,0,0,0,0-.2v-.11c0,.2,0,.4.05.6Zm7.24,74.22Zm25.44,2.16.08-.34,0-.18h0l-.12.45,0,.08Zm-.3,0h0v0l.11-.47h0l0,.12-.06.24,0,.12v0h0Zm.28.08,0-.07,0,.05,2.17.05Zm2.53,0h0v0C57,118.61,56.79,118.59,57.18,118.59Zm-.12-.56.08.36,0,.18h0v0l-.07-.28Zm0,.61h0Zm.42-.06h0v-.08l-.11-.46h0l0,.06.06.27,0,.13,0,.07Zm3.33-91.88h0l0,.12.08.48,0,.24-.7,0-.1-.65v-.08c-1.07.06,2.36-.21-2.39.1v.81l-.7,0V27C64.56,26.42,59.14,26.83,60.82,26.71ZM72,46.77l-.59,0h0l.59,0Zm2.14-.56v-.08c1.89-.15-2.59.1-2.13.11v.49l-.59,0v-.51c1.48-.12-3.3.2,3.31-.28v.15l0,.18,0,.21-.59,0s0-.05,0-.07Zm.05.4h0l.59,0v0Zm1.1,68.71,0-.09h0v0l0-.16.05.16h0v0h0l0,.1Zm4.26-68.78v-.3h-.22l.49,0c0,.08,0,.16,0,.25Zm5.81-23.47v.24h-.29V23h.3Zm2.45.21H87.5v-.34h-.11v.34h-.31V23c.27,0-1.6,0-2,0v0H85v.34h-.36V23c-.07,0-.06,0,0,0h0c1.42,0-3.18,0,3.19-.06v.39Zm8.6,20.18H96v-.26h0l.39,0Zm2.23,0h-.39v-.27c.27,0-1.36,0-2,0-.12,0-1.92,0,2.38,0v.31Zm2.91-.39c-.31,0-2.12,0-7.83,0v0c2.43,0,7.81,0,6.89,0h.68v.37H101V43.1h-.32v.35h-.25V43.1c-.13,0-.11,0,0,0h0c-12.15,0-3.37,0-6.08,0v.36h-.24V43.1h-.32v0h0v0C96.18,43,107,43,101.57,43.07Zm6.86.3-2.67.1h-.63c.49,0,.71,0,.12,0l3.18-.12Zm10.45-17.89a0,0,0,0,0,0,0c-4.11.42-5.79.6-6.31.66v0ZM112.59,27h0l0-.69v-.13c.54,0,1.88-.18.45,0v.3l0,.5Zm4.81-.83.05.32-.3,0,0-.27,0-.27c-.44,0,1-.14-1,0v.19c0,.13,0,.28,0,.41l-.32,0V26c-.36,0,3.08-.33,1.62-.16Zm.63.26L118,26l0-.2c-5.53.58-1.53.21-2.76.37v.1l0,.4v.09l-1.69.18,0-.41v-.39c-.75.06,2.95-.32,5.42-.57,0,.26,0,.53.05.79Zm2-1v0l.24,0Zm.81-.4h0v0h0Zm0,.31h0Zm0,0v0h0v0Zm.07-.28,1-.11v0l-1,.1A.09.09,0,0,1,120.95,25Zm0,.27a.09.09,0,0,0,0,0C121.34,25.25,121.23,25.27,121,25.31Zm1-.27c-.62.06-.44,0,0,0Zm28.3,74.05c.13,0,.11,0,0,0Zm.2-77,.21-2.08.08-.79.07.42c.3,1.78.6,3.56.81,5.34.27,2,.5,4,.69,6.08h-1.14q0-.51-.1-1-.32-3.19-.77-6.39Zm-.31,3.12c.27,2,.49,3.9.69,5.85h-1.17c.1-1.61.21-3.21.37-4.81Zm-.94-6v.06h0Zm0,.06h0q.38,2.12.69,4.25l-.09.93q-.32,3.29-.56,6.61h-1.16c.21-3.25.55-6.47.88-9.68Zm-.22,11.82V35q-.28,4.65-.47,9.31c0-2.73,0-5.46,0-8.19v-5c.36,0,.29,0,.06,0h.73c-.09,1.24-.18,2.48-.26,3.73V31.08C148.78,31.09,148.61,31.1,148.95,31.11Zm-.89,49.67v.56l0,7.24c-.11-.67-.22-1.34-.33-2C147.87,84.65,148,82.7,148.06,80.78Zm-.41,5.13,0-15c.15,1.08.29,2,.42,2.73,0,2.16,0,4.32,0,6.49s-.18,4.28-.3,6.42Zm.43-23.68c0,.23,0,.46,0,.71-.15-2.53-.31-5.3-.47-8.21l0-15.47q.18-3.54.42-7.06c0-.2,0-.4,0-.6.53.69-.06,2.12.19,3l.05,7.49.05,6.58Q148.11,55.43,148.08,62.23ZM147.56,35V31.28a.91.91,0,0,1,.4.24l-.05.8c-.13,1.8-.25,3.62-.35,5.43Zm1.55-15.73-.22,2.17c-.35,3.19-.67,6.4-.89,9.61h-1.61q-.31-5.82-.65-11.66Zm-2.3,45.08c0,4,0,8.06,0,12.09l0,3.89c-.25-1.82-.5-3.64-.7-5.47-.88-7.41-1.48-14.88-2-22.38q0-5.43-.1-10.85,0,4.66,0,9.33c-.11-1.75-.22-3.49-.31-5.24q-.18-3.18-.33-6.38c.05-1.18.11-2.36.18-3.54.12-1.58.22-3.16.33-4.74h.4C145.13,46.4,146,57.16,146.81,64.37Zm-3.8-16q.42,6.38,1,12.69-.09,7.91-.36,15.84c-.18-1.48-.36-2.94-.51-4.41C143.22,64.47,143.14,56.43,143,48.38Zm0-17.3h.6c-.12,1.88-.22,3.77-.32,5.66Q143.1,33.91,143,31.08Zm-.08,39.35-.15-1.51c0-6.21.06-12.45.23-18.7C143,57,143,63.72,142.89,70.43Zm1.26-7.36c.49,5.39,1.08,10.73,1.83,16,.25,1.89.54,3.78.84,5.66V96.86q-1.2-5.8-2.11-11.73-.45-3-.84-6.06C144,73.74,144.12,68.4,144.15,63.07Zm0-33.91c0,.64.07,1.28.1,1.92h-.4c.07-1,.14-2.07.23-3.1C144.14,28.37,144.16,28.76,144.19,29.16Zm-.28-2.85q-.19,2.38-.34,4.77H143q-.29-5.76-.6-11.53l1.22,0c.13,2,.26,4.09.38,6.12ZM129.4.64V.59c25.3-.81,7-.19,12.66-.36l0,.43.15,1.68c.53,5.75.95,11.46,1.32,17.16l-1.22,0c-.06-1.12-.12-2.25-.18-3.38q-.42-7.44-1.05-14.93l-.07-.93c1.55-.08-8,.24-11.66.37ZM142,31.07h-1.77q-.3-5.7-.63-11.42l1.72-.07v.1C141.57,23.48,141.78,27.29,142,31.07Zm-11.5,78.08-.12.49-.05.24,0,.06c.87,0-2.28,0-5.49.08l.06-.49c1.93,0,4,0,3.42,0v0l0-.07.11-.59,2.29-.57ZM131.43,10V9.93l.71,0h.27V10l.69,0q0,3.45,0,6.88,0,6.73.09,13.42c-.14,11.12-.22,22.31.32,33.68q0,2.63,0,5.24c-1-15.63-1-33.82-1.17-39.62-.11,14.69-.09,29.31,1.11,43.66,0,.13,0,.26,0,.39-.1-1.17-.19-2.34-.28-3.5-.95-13.34-1-27-.86-41.18,0,.14,0,.41,0,.64l.1-11.92,0-6V10Zm1.93,21.95v-.11q0-2.39,0-4.81C133.38,28.67,133.37,30.31,133.36,31.95Zm1.16,48.94c0-.38,0-.77,0-1.15,0,.33,0,.65,0,1-.43-3.34-.76-7.1-1-11,0-1.6,0-3.2.06-4.81.28,5.56.71,11.18,1.36,16.84,0,.34-.06.69-.1,1C134.7,82.14,134.61,81.52,134.52,80.88Zm.09,3.59c0,.1,0,.19,0,.28,0-.26-.06-.54-.1-.8s0-.26,0-.4C134.53,83.86,134.57,84.16,134.62,84.47Zm-.2-1.47c0,.11,0,.21,0,.32-.4-3.14-.73-6.31-1-9.51,0-.13,0-.27,0-.4q.39,4.66,1,9.28C134.38,82.8,134.41,82.91,134.42,83Zm-1,27.38v0h-1l0-.25.2-1,.31-1.5.28,0v.14c.39,0-.67.09.41,0,0,0,.08,0,.15,0l.2,0Zm.58-2.82-.19,0,.22-.18Zm0-3-.21-.71-.09-.33c.34-2,.63-3.95.91-5.86Q134.38,101.2,134,104.62Zm1.22-4c-.27,1.72-.54,3.46-.88,5.21l-.28-1c.17-1.77.36-3.52.48-5.29.07-1,.14-1.91.21-2.87,0-.11,0-.21,0-.33.14.65.28,1.29.43,1.92.08.3.15.61.21.91Zm.87-6.63q-.35-1.77-.68-3.55l0-.33c.21,1.22.43,2.43.67,3.63C136.15,93.79,136.14,93.87,136.13,94Zm.19-20.72c0-.48,0-1,0-1.43-.23-7.89-.22-8.39-.44-4.55q-.3-5.2-.44-10.44c-.3-10.12-.23-20.31-.12-30.57,0-1.3,0-2.59,0-3.89.11,2,.22,4,.32,6,.36,6.92.61,13.56.73,19.81a278.9,278.9,0,0,1,.67,32.75Q136.64,77.12,136.32,73.23Zm6.3,6.4c-.29,7-.79,13.92-1.62,20.8l-.09.9,0,.08-.09-.31a128.36,128.36,0,0,1-2.93-14.35c-.23-1.51-.43-3-.62-4.55.29-5.13.41-10.24.41-15.32,0-10.21-.5-20.31-1.12-30.33-.31-5-.66-10-1-15l-.12-1.79c0-3,.05-6,.06-9V9.91c.58,0,.22,0-.74,0V9.86c2.7-.09,2.08-.08,0,0l0-.33V9.34h0v.2l0,.3-1.2,0v.07h0v0l1.2,0v0l-1.2,0v.35c0,5.53-.05,11-.1,16.42,0-3.15.05-6.29.07-9.45l0-6.56V9.94h-.1V9.87h0c.37,0,.44,0,.1,0h0c1,0,1.92-.08-.1,0,0-.16,0-.31,0-.47l1.27,0h0l-1.27,0q.05-3.55.15-7.09l0-1.4V.71c-.62,0,3.1-.1,4.65-.14h0c4.43-.16-6,.16-5,.16v.2L133.2,4.1c0,1.77-.07,3.52-.09,5.29l-1.68.06,1.68-.05c0,.16,0,.31,0,.47l-.69,0h0l.69,0h0l-.69,0h0l-.67,0h-.32l-1.22,0v0l.41,0V10l-.41,0-.06,4.59c0,5.41,0,10.81,0,16.21a1.18,1.18,0,0,0,0-.13c-.1-1.48-.21-3-.32-4.47,0-.44,0-.89,0-1.33,0,.42,0,.84,0,1.26-.16-2.28-.34-4.58-.51-6.91s0-4.87,0-7.32c0-.62,0-1.26,0-1.88l-.66,0V10l.66,0h0l-.66,0h0l.66,0v0l-.66,0v0l.66,0V9.73c.27,0,.23,0,0,0v-.2c0-1.44,0-2.88,0-4.33l0-3.38V.68l1,0v.87l0,1.87-.1,3.74,0,2.34-.92,0,.92,0V9.9l1.22,0V9.44c0-.62,0-1.22,0-1.84l.1-5.46,0-1.37c3.72-.14-8.3.07,8.33-.36l0,.17,0,.34.06.68.23,2.72c.32,3.64.58,7.26.82,10.86.09,1.47.18,2.93.27,4.39h-.2l-1.53.05c-.2-3.26-.4-6.53-.63-9.79-.14-2.12-.31-4.24-.5-6.37l-.13-1.59-.07-.8,0-.4V.58h-.3V.72l0,.35.05.7.23,2.78c.16,1.85.28,3.7.4,5.56.23,3.19.41,6.38.59,9.56-2,.08-2.55.1,0,0,0,.51.06,1,.09,1.52.18,3.3.34,6.6.5,9.89-.29,0-.31,0,0,0,.2,4.07.4,8.14.62,12.19.53,9.73,1.15,19.43,2.2,29C142.64,74.76,142.63,77.19,142.62,79.63Zm0-11.59c-.24-2.54-.46-5.09-.66-7.64-.76-9.7-1.24-19.5-1.75-29.33H142c.07,1.4.15,2.79.23,4.18.06,2.67.13,5.37.22,8.14,0-1.45,0-2.9,0-4.35.14,2.45.29,4.91.44,7.35-.15,5.32-.2,10.64-.21,15.94C142.67,64.25,142.66,66.15,142.65,68Zm.08,5.12c0,.22.05.45.08.67,0,.84,0,1.67-.08,2.5C142.73,75.28,142.73,74.23,142.73,73.17Zm0,24.57V84.46c0-.24,0-.48,0-.72.12-2.65.19-5.3.25-8,.15,1.26.32,2.51.48,3.76-.17,4.18-.39,8.36-.69,12.53.15-.33.49-3,.44.19q.34-5.36.52-10.69c.25,1.75.51,3.49.81,5.24.62,3.7,1.36,7.33,2.2,10.92h-2.57l.21-2.22-.26,2.22Zm4.8,3.13.21.88-4,.22v-.09l.07-.71.33-3.42h2.58l.07.34Zm-.41-7.26v4.14H147v0c.09,0,.13,0,0,0l-.08-.39V85.38c.07.47.15.95.23,1.42Zm0-16.87v6.15c-.09-.61-.18-1.21-.26-1.81l0-5q0-5.48,0-10.93c.1.95.2,1.83.31,2.65Zm.07-27.94c0-.34,0-.68-.05-1,0-.57,0-1.13.06-1.7Zm0-17.63v3.31l0,8.46v.72c0,1.07-.07,2.13-.11,3.2-.26-4.82-.5-9.78-.71-14.54,0-.41,0-.82-.07-1.23h1.26c-.24,0-.41,0-.34,0Zm.79,64.58v2h-.45c-.11,0-.14,0,0,0V89.51c.14.77.29,1.53.45,2.29Zm.77,2h-.06v0h-.6c1.26,0-.15,0,.41-.05V94.3c.07.32.14.63.21,1,0,.64,0,1.29,0,1.93v.52h.06Zm0-5.21c-.08-.38-.15-.76-.22-1.15V85q0-4.47,0-8.94c.17.61.28.7.32.37Q148.84,84.53,148.82,92.52Zm0-16.77c0-.15,0-.31,0-.49-.07-1-.17-2.67-.3-4.71,0-6.39,0-12.78.18-19.16,0-2.47.13-4.94.22-7.41l0,8.27-.05,22.53Zm.11,21-.08.62V95.67l.14.62Zm1.42-12.86c-.3,2.86-.54,5.74-.89,8.59l-.27,2.13c-.11-.56-.23-1.11-.34-1.67l0-18.6L149,52V43.08q.17-4.23.44-8.46c.09-1.18.16-2.37.23-3.55h1.17C151.85,41.5,152,52,152,62.57,151.51,69.72,151,76.85,150.4,83.93Zm2.81-34.56c-.09,1-.2,2-.29,3,.09-1,.2-2,.29-3Zm0-7.35,0,6.81c0,.11,0,.21,0,.32-.37,3.74-.69,7.49-1,11.23,0-4,0-7.9-.1-11.87-.13-5.8-.41-11.62-1-17.44h1.14q.26,2.66.44,5.32c-.31,0-.34,0,0,0-.39,0-.45,0,0,0q.34,5,.47,9.89c-.09-3.28-.23-6.58-.46-9.89h.54ZM157,36.3h0l-1.59,0H156l-1.21,0h0l-1.08,0-.05-4.26v-1h-.3v5.27h-.54c-.11-1.77-.26-3.54-.42-5.32h0q-.28-3.06-.68-6.13c-.2-1.79-.51-3.57-.81-5.35l-.05-.37,4.17-.15.08.48c.17,1,.35,2,.5,3,.66,4.57,1.12,9.15,1.45,13.71h0ZM158.45,80c-.17-11.69,0-23.57-.51-35.63q-.17-3.92-.46-7.87l3.8-.1c-.31,11.52-.34,22.57-.6,33.3-.15,6.14-.39,12.2-.77,18.17-.13,3-.5,5.94-.73,8.9l-.07.87,0-.28c0-.31,0-.62-.06-.95l.09-1.05c.17-2.12.39-4.23.51-6.37,0-.72.07-1.43.11-2.13-.11,1.81-.22,3.61-.36,5.43l-.34,4v.07C158.68,90.94,158.51,85.48,158.45,80Z" transform="translate(0 0)"/><path class="a" d="M65.4,27.25h0C65.64,27.24,65.67,27.24,65.4,27.25Z" transform="translate(0 0)"/><polygon class="a" points="158.73 99.78 158.72 99.91 158.73 99.82 158.73 99.78"/><polygon class="a" points="158.7 100.09 158.72 99.91 158.7 100.08 158.69 100.19 158.7 100.19 158.7 100.09"/><path class="a" d="M79.16,46.22h0C79.4,46.21,79.42,46.21,79.16,46.22Z" transform="translate(0 0)"/><path class="a" d="M161.41,36.19l3.33-.07Z" transform="translate(0 0)"/><path class="a" d="M158.7,100.21h0c-4,0-2.39,0,.64,0h-.64Z" transform="translate(0 0)"/><path class="a" d="M138.22.56v0C139.21.54,139,.55,138.22.56Z" transform="translate(0 0)"/><path class="a" d="M143.76,102.52h0l4.13-.24v0l-4.12.25Z" transform="translate(0 0)"/><path class="a" d="M147.89,102.25c1-.06.39,0,0,0v0Z" transform="translate(0 0)"/><path class="a" d="M147.88,102.23h0C147.47,102.25,147.63,102.25,147.88,102.23Z" transform="translate(0 0)"/><polygon class="a" points="146.79 31.14 146.79 32.54 146.79 31.12 146.79 31.14"/><path class="a" d="M150.45,17.83h0Z" transform="translate(0 0)"/><path class="a" d="M148.8,97.73h0C148.66,97.72,148.7,97.73,148.8,97.73Z" transform="translate(0 0)"/><path class="a" d="M146.79,31.09v0C147.12,31.1,147,31.09,146.79,31.09Z" transform="translate(0 0)"/><path class="a" d="M150.45,17.83c-.41,0-2,.07-1.23.06h0Z" transform="translate(0 0)"/><path class="a" d="M79.16,46.25h0C78.29,46.31,77.59,46.36,79.16,46.25Z" transform="translate(0 0)"/><path class="a" d="M95.78,122.43h0C91.59,122.42,92.73,122.43,95.78,122.43Z" transform="translate(0 0)"/><path class="a" d="M134.75,107.1Z" transform="translate(0 0)"/><path class="a" d="M120,10.29v.07l.95,0v0C123.48,10.21,120.6,10.29,120,10.29Z" transform="translate(0 0)"/><path class="a" d="M139.19,106v0C141.24,105.86,140.15,106,139.19,106Z" transform="translate(0 0)"/><path class="a" d="M137.86,106.55h-.12C138.15,106.56,138.22,106.55,137.86,106.55Z" transform="translate(0 0)"/><path class="a" d="M122.69,10.19l-2.82.1H120l.74,0,.43,0h-.18l1.2,0-1,0,1.57,0v.07l2-.07v-.06h0l-2,.06Z" transform="translate(0 0)"/><path class="a" d="M107.71,26.46v0C106.76,26.54,106.58,26.57,107.71,26.46Z" transform="translate(0 0)"/><path class="a" d="M16.21,114.09h0C18.41,114.22,16.94,114.13,16.21,114.09Z" transform="translate(0 0)"/><polygon class="a" points="119.83 10.31 119.83 10.31 119.83 10.36 119.83 10.36 119.83 10.31"/><path class="a" d="M2.27,50.81l-.06.71-.14,1.42c-.17,1.9-.4,3.8-.53,5.68C1,66.12.9,73.42.76,80.58.95,74.7,1,68.18,1.5,61c.09-1.78.21-3.6.42-5.46l.28-2.81.14-1.43,0-.35,0-.18v0H2.25C-.22,50.73-1.25,50.74,2.27,50.81Z" transform="translate(0 0)"/><path class="a" d="M8.26,51.5h.26C8.41,51,8.31,51,8.26,51.5Z" transform="translate(0 0)"/><path class="a" d="M100.39,43.1h0Z" transform="translate(0 0)"/><path class="a" d="M93.73,43.1h0Z" transform="translate(0 0)"/><path class="a" d="M87.38,22.92h0c.35,0,1.17,0-2.39,0h0Z" transform="translate(0 0)"/><path class="a" d="M84.64,23h0Z" transform="translate(0 0)"/><path class="a" d="M87.38,22.94h0C87.25,22.93,87.19,22.94,87.38,22.94Z" transform="translate(0 0)"/><path class="a" d="M16.24,38.49c.37,0,.75,0,0,0v.06l0,.1,1,0,0-.17v0l-1,0S16.24,38.49,16.24,38.49Z" transform="translate(0 0)"/><path class="a" d="M130.21,9.92v0l1.22,0v0Z" transform="translate(0 0)"/><path class="a" d="M129.3,10l.91,0-.91,0Z" transform="translate(0 0)"/><path class="a" d="M132.13,9.86h-.7v0Z" transform="translate(0 0)"/><path class="a" d="M131.43,9.91h0Z" transform="translate(0 0)"/><path class="a" d="M19.79,38.62h1v-.19h-1Z" transform="translate(0 0)"/><path class="a" d="M129.3,10.07l.91,0V10l-.91,0Z" transform="translate(0 0)"/><path class="a" d="M21.08,37.8v0L16,37.84V38l0,.45h.31c0-.08,0-.14,0-.23l.06-.37,4.76,0v0Z" transform="translate(0 0)"/><path class="a" d="M130.21,9.9h-.91v0l.91,0Z" transform="translate(0 0)"/><path class="a" d="M15.93,38.49h0C15.79,38.48,15.82,38.49,15.93,38.49Z" transform="translate(0 0)"/><path class="a" d="M139.19,106h0C137.61,106.2,138.34,106.12,139.19,106Z" transform="translate(0 0)"/><path class="a" d="M11.24,113.85l0,0-1.15-.06v0Z" transform="translate(0 0)"/><path class="a" d="M14.7,115l-.13.48,0,.06c-1.86-.09,4.16.29-4.19-.19l0-.12,0-.24-.19-1.17-1.23-.06c0,.08,0,.16,0,.25l.25,1.59c13.06.71,3.62.18,6.54.33v-.07l0-.1.06-.2.11-.39.22-.79.06-.23L14.95,114Z" transform="translate(0 0)"/><path class="a" d="M15,114h0c-.34,0-.72,0-1.15-.05v0l1.13.06Z" transform="translate(0 0)"/><path class="a" d="M16.21,114.09h0C15.66,114.05,15.84,114.07,16.21,114.09Z" transform="translate(0 0)"/><path class="a" d="M16.21,114.08l.39,0v0l-.39,0Z" transform="translate(0 0)"/><path class="a" d="M13.78,50.83v0l-6.23,0c2.18,0,4.17,0,4.89.07h1.34Z" transform="translate(0 0)"/><path class="a" d="M7.55,50.77l-3.15,0Z" transform="translate(0 0)"/><path class="a" d="M2.25,50.73h0Z" transform="translate(0 0)"/><path class="a" d="M8.45,113.67v0l.44,0a.12.12,0,0,1,0,0Z" transform="translate(0 0)"/><path class="a" d="M14.18,50.82h0C14.87,50.84,14.78,50.83,14.18,50.82Z" transform="translate(0 0)"/><path class="a" d="M16.61,114.07c1.59.07.72,0,0-.06v.06Z" transform="translate(0 0)"/><path class="a" d="M8.26,51.5c-1.56,0-3.34,0-2.91,0v0l2.9,0S8.26,51.51,8.26,51.5Z" transform="translate(0 0)"/><path class="a" d="M9.49,51.56v0c1.82,0,.61,0-1,0a.11.11,0,0,1,0,0Z" transform="translate(0 0)"/><path class="a" d="M16.24,114l.35,0v-.06h-.34Z" transform="translate(0 0)"/><path class="a" d="M137.42,106.27l1.77-.18h0l-1.78.17Z" transform="translate(0 0)"/><path class="a" d="M132.13,9.86c.35,0,.36,0-.14,0l.43,0v0Z" transform="translate(0 0)"/><path class="a" d="M122.69,10.16v0l2-.07v-.05A10.39,10.39,0,0,0,122.69,10.16Z" transform="translate(0 0)"/><path class="a" d="M139.18,106h.11l0-.09-.11-.39,0-.07-.11,0Z" transform="translate(0 0)"/><path class="a" d="M133.43,110.65v0C137.12,110.61,138.64,110.59,133.43,110.65Z" transform="translate(0 0)"/><path class="a" d="M118.63,9.88v0C121.1,9.81,119.89,9.84,118.63,9.88Z" transform="translate(0 0)"/><path class="b" d="M34.59,94.47c2.89,0,4.89-1.91,5.36-5.13h5c-.92,5.83-4.53,9.06-10.34,9.06-7,0-10.93-5-10.93-11.64,0-6.8,3.71-12.12,11.12-12.12,5.22,0,9.67,2.63,10.15,8.15H40c-.38-2.75-2.39-4.22-5.13-4.22-2.57,0-6.19,1.35-6.19,8.19C28.63,90.49,30.3,94.47,34.59,94.47Z" transform="translate(0 0)"/><rect class="b" x="46.55" y="75.25" width="4.97" height="22.53"/><rect class="b" x="46.55" y="68.42" width="4.97" height="4.71"/><path class="b" d="M77.59,99c-1.6,4-2.79,7.72-8,7.72H66.17v-4.15h2.35c2.32,0,2.88-1.21,3.49-3.14l.58-1.74L65.45,79H61V91c0,2,.17,2.94,2.4,2.94l2.09,0V98H62.26c-5.2,0-6.15-2-6.24-5.76V79H52.91v-3.7H56V68.51h5v6.75h8.49l5.88,16.82h.09l5.71-16.82h5.18Z" transform="translate(0 0)"/><path class="b" d="M95.75,94.47c2.87,0,4.88-1.91,5.36-5.13h5c-.92,5.83-4.54,9.06-10.33,9.06-7.05,0-10.94-5-10.94-11.64,0-6.8,3.71-12.12,11.11-12.12,5.23,0,9.67,2.63,10.15,8.15h-5c-.39-2.75-2.4-4.22-5.14-4.22-2.57,0-6.19,1.35-6.19,8.19C89.77,90.49,91.43,94.47,95.75,94.47Z" transform="translate(0 0)"/><path class="b" d="M118.71,74.63c-7.24,0-11.37,5-11.37,11.87s4.13,11.89,11.37,11.89,11.37-5,11.37-11.89S126,74.63,118.71,74.63Zm0,19.84c-4.45,0-6.41-4.05-6.41-8s2-7.93,6.41-7.93,6.41,4.05,6.41,7.93S123.15,94.47,118.71,94.47Z" transform="translate(0 0)"/></svg>