<svg xmlns="http://www.w3.org/2000/svg" xmlns:xlink="http://www.w3.org/1999/xlink" width="289" height="276" viewBox="0 0 289 276"><defs><style>.cls-1{isolation:isolate;}.cls-2{fill:url(#linear-gradient);}.cls-3{fill:#93c4db;}.cls-4{fill:#83a7bb;}.cls-5{fill:#f58e75;}.cls-6{fill:#aa5640;opacity:0.4;mix-blend-mode:multiply;}</style><linearGradient id="linear-gradient" x1="144.5" y1="276" x2="144.5" gradientUnits="userSpaceOnUse"><stop offset="0.32" stop-color="#fff"/><stop offset="1" stop-color="#ade1f9"/></linearGradient></defs><title>Clothing</title><g class="cls-1"><g id="Layer_1" data-name="Layer 1"><rect class="cls-2" width="289" height="276" rx="11.34" ry="11.34"/><polygon class="cls-3" points="230.56 178.8 220.68 58.67 220.68 49.1 158.47 49.1 158.47 56.66 148.41 178.8 183 181.65 189.49 102.78 195.98 181.65 230.56 178.8"/><polygon class="cls-4" points="220.68 58.67 220.68 49.1 189.43 49.1 189.43 103.51 189.49 102.78 195.98 181.65 230.56 178.8 220.68 58.67"/><path class="cls-5" d="M212.78,125.44L157.16,65.6V65.43h-9c0,0.12,0,.24,0,0.36a19,19,0,1,1-38,0c0-.12,0-0.24,0-0.36h-9V65.6L45.59,125.44,56.37,138,99,101.39l-2.6,52.55H162l-2.6-52.55L202,138Z" transform="translate(-3.16 -3)"/><path class="cls-6" d="M212.78,125.44L157.16,65.6V65.43h-9c0,0.12,0,.24,0,0.36A19.25,19.25,0,0,1,129.36,85v68.91H162l-2.6-52.55L202,138Z" transform="translate(-3.16 -3)"/></g></g></svg>