<?xml version="1.0" encoding="utf-8"?>
<!-- Generator: Adobe Illustrator 19.2.1, SVG Export Plug-In . SVG Version: 6.00 Build 0)  -->
<svg version="1.1" id="Layer_1" xmlns="http://www.w3.org/2000/svg" xmlns:xlink="http://www.w3.org/1999/xlink" x="0px" y="0px"
	 width="289px" height="206.827px" viewBox="0 0 289 206.827" enable-background="new 0 0 289 206.827" xml:space="preserve">
<g>
	<defs>
		<path id="SVGID_1_" d="M0,206V11.348C0,5.081,5.076,0,11.339,0h266.323C283.924,0,289,5.081,289,11.348V206H0z"/>
	</defs>
	<clipPath id="SVGID_2_">
		<use xlink:href="#SVGID_1_"  overflow="visible"/>
	</clipPath>
	<linearGradient id="SVGID_3_" gradientUnits="userSpaceOnUse" x1="144.5" y1="276" x2="144.5" y2="-5.978109e-09">
		<stop  offset="0.3164" style="stop-color:#FFFFFF"/>
		<stop  offset="1" style="stop-color:#ADE1F9"/>
	</linearGradient>
	<path display="none" clip-path="url(#SVGID_2_)" fill="url(#SVGID_3_)" d="M277.661,276H11.339C5.076,276,0,270.924,0,264.661
		V11.339C0,5.076,5.076,0,11.339,0h266.323C283.924,0,289,5.076,289,11.339v253.323C289,270.924,283.924,276,277.661,276z"/>
	<g clip-path="url(#SVGID_2_)">
		<g>
			<path fill="#29B473" d="M123.197,84.297c2.146,2.146,5.569,2.219,7.86,0.229c13.152-11.424,30.325-18.339,49.114-18.339
				c18.732,0,35.859,6.874,48.996,18.236c2.292,1.982,5.708,1.905,7.851-0.237l0.221-0.221c2.357-2.357,2.208-6.215-0.311-8.398
				c-15.21-13.18-35.052-21.155-56.757-21.155c-21.769,0-41.664,8.023-56.891,21.272c-2.512,2.185-2.658,6.037-0.304,8.391
				L123.197,84.297z"/>
			<path fill="#29B473" d="M140.722,101.822c2.091,2.091,5.414,2.228,7.704,0.358c8.653-7.063,19.704-11.3,31.744-11.3
				c11.986,0,22.991,4.198,31.627,11.203c2.291,1.859,5.605,1.717,7.692-0.369l1.392-1.392c2.411-2.411,2.18-6.362-0.46-8.519
				c-10.969-8.963-24.982-14.34-40.251-14.34c-15.335,0-29.402,5.423-40.391,14.456c-2.63,2.162-2.857,6.103-0.45,8.511
				L140.722,101.822z"/>
			<path fill="#29B473" d="M158.973,120.073c1.965,1.965,5.03,2.183,7.328,0.619c3.953-2.69,8.728-4.263,13.87-4.263
				c5.097,0,9.833,1.545,13.765,4.191c2.289,1.54,5.33,1.316,7.281-0.635l1.126-1.126c2.522-2.522,2.162-6.727-0.772-8.755
				c-6.078-4.202-13.452-6.664-21.401-6.664c-8.017,0-15.449,2.505-21.557,6.774c-2.917,2.039-3.272,6.227-0.755,8.744
				L158.973,120.073z"/>
			<path fill="#29B473" d="M190.46,137.074c0.83,6.582-4.706,12.118-11.288,11.288c-4.485-0.565-8.107-4.187-8.672-8.672
				c-0.83-6.582,4.706-12.118,11.288-11.288C186.273,128.968,189.895,132.589,190.46,137.074z"/>
		</g>
		<path fill="#1F8756" d="M190.46,137.074c-0.565-4.485-4.187-8.107-8.672-8.672c-0.479-0.06-0.951-0.083-1.416-0.078v20.12
			C186.41,148.508,191.239,143.252,190.46,137.074z"/>
		<path fill="#1F8756" d="M236.928,75.567c-15.162-13.139-34.929-21.103-56.556-21.152V66.19
			c18.654,0.049,35.705,6.912,48.794,18.233c2.292,1.982,5.709,1.906,7.851-0.237l0.221-0.222
			C239.596,81.608,239.447,77.75,236.928,75.567z"/>
		<path fill="#1F8756" d="M220.422,91.803c-10.92-8.923-24.859-14.288-40.05-14.335v13.417c11.908,0.047,22.839,4.233,31.426,11.199
			c2.291,1.859,5.605,1.717,7.692-0.369l1.392-1.392C223.293,97.911,223.062,93.96,220.422,91.803z"/>
		<path fill="#1F8756" d="M201.572,110.105c-6.027-4.167-13.328-6.619-21.2-6.66v12.989c5.02,0.04,9.683,1.576,13.564,4.187
			c2.289,1.54,5.33,1.316,7.281-0.635l1.126-1.126C204.866,116.338,204.506,112.134,201.572,110.105z"/>
	</g>
	<g clip-path="url(#SVGID_2_)">
		<path fill="#F69A7E" d="M141.748,126.416l-6.668-22.538c0-9.06-6.664-18.248-15.724-18.248l-17.38-4.196l0,0l-15.475,6.04
			c-9.06,0-16.405,7.345-16.405,16.405l-6.668,22.538c-4.18,12.741,7.345,16.405,16.405,16.405h22.718h0.076h22.718
			C134.403,142.82,145.928,139.157,141.748,126.416z"/>
		<g>
			<path fill="#EC1C24" d="M146.142,87.743c-4.784-8.679-22.468-15.121-43.554-15.121c-21.086,0-38.769,6.442-43.554,15.121
				c-2.172,2.802-3.468,6.316-3.468,10.135c0,9.146,16.561,7.86,16.561,7.86s16.561,1.286,16.561-7.86
				c0-3.828-1.302-7.35-3.484-10.155c5.379-2.05,11.672-3.23,18.399-3.23c6.082,0,11.809,0.965,16.827,2.665
				c-2.457,2.889-3.942,6.63-3.942,10.72c0,9.146,16.561,7.86,16.561,7.86s16.561,1.286,16.561-7.86
				C149.61,94.059,148.314,90.544,146.142,87.743z"/>
		</g>
		<path fill="#D96757" d="M141.748,126.416l-6.668-22.538c0-9.06-6.664-18.248-15.724-18.248l-16.838-4.065v61.256h0.032h0.076
			h22.718C134.403,142.82,145.928,139.157,141.748,126.416z"/>
		<path fill="#B01117" d="M146.142,87.743c-4.784-8.679-22.468-15.121-43.554-15.121c-0.024,0-0.047,0.001-0.07,0.001v11.883
			c0.361-0.007,0.722-0.012,1.085-0.012c6.082,0,11.809,0.965,16.827,2.665c-2.457,2.889-3.942,6.63-3.942,10.72
			c0,9.146,16.561,7.86,16.561,7.86s16.561,1.286,16.561-7.86C149.61,94.059,148.314,90.544,146.142,87.743z"/>
		<circle fill="#FFFFFF" cx="102.588" cy="114.653" r="15.003"/>
		<path fill="#D3EEFB" d="M102.588,99.65c-0.024,0-0.047,0.002-0.07,0.002v30.003c0.023,0,0.047,0.002,0.07,0.002
			c8.286,0,15.003-6.717,15.003-15.003S110.874,99.65,102.588,99.65z"/>
	</g>
</g>
</svg>
