<svg xmlns="http://www.w3.org/2000/svg" xmlns:xlink="http://www.w3.org/1999/xlink" width="289" height="276" viewBox="0 0 289 276"><defs><style>.cls-1{isolation:isolate;}.cls-2{fill:url(#linear-gradient);}.cls-3{fill:#af9e46;mix-blend-mode:multiply;}.cls-4{fill:#f1e469;}.cls-5{fill:#86c440;}.cls-6{fill:#5fa53b;}</style><linearGradient id="linear-gradient" x1="144.5" y1="276" x2="144.5" gradientUnits="userSpaceOnUse"><stop offset="0.32" stop-color="#fff"/><stop offset="1" stop-color="#ade1f9"/></linearGradient></defs><title>dependancy</title><g class="cls-1"><g id="Layer_1" data-name="Layer 1"><rect class="cls-2" width="289" height="276" rx="11.34" ry="11.34"/><path class="cls-3" d="M145.49,109.75V147a10.78,10.78,0,0,0,10.78,10.78h49.86l16,16v-16h1.36A10.78,10.78,0,0,0,234.24,147v-37.2A10.78,10.78,0,0,0,223.46,99H156.27A10.78,10.78,0,0,0,145.49,109.75Zm62.26,19.62a6.59,6.59,0,1,1,6.59,6.59A6.59,6.59,0,0,1,207.75,129.37Zm-24.12,0a6.59,6.59,0,1,1,6.59,6.59A6.59,6.59,0,0,1,183.63,129.37Zm-24.12,0a6.59,6.59,0,1,1,6.59,6.59A6.59,6.59,0,0,1,159.52,129.37Z"/><path class="cls-4" d="M145.49,109.75V147a10.78,10.78,0,0,0,10.78,10.78h34.45v-21.8l-0.5,0a6.59,6.59,0,1,1,0-13.18l0.5,0V99H156.27A10.78,10.78,0,0,0,145.49,109.75Zm14,19.62a6.59,6.59,0,1,1,6.59,6.59A6.59,6.59,0,0,1,159.52,129.37Z"/><path class="cls-5" d="M151.71,54.23H68.17A13.41,13.41,0,0,0,54.76,67.64V113.9a13.41,13.41,0,0,0,13.41,13.41h1.69v19.85l19.85-19.85h62a13.41,13.41,0,0,0,13.41-13.41V67.64A13.41,13.41,0,0,0,151.71,54.23Zm-72.21,46A8.2,8.2,0,1,1,87.7,92,8.2,8.2,0,0,1,79.5,100.23Zm30,0a8.2,8.2,0,1,1,8.2-8.2A8.2,8.2,0,0,1,109.49,100.23Zm30,0a8.2,8.2,0,1,1,8.2-8.2A8.2,8.2,0,0,1,139.48,100.23Z"/><path class="cls-6" d="M151.71,54.23H108.87V83.87c0.21,0,.41,0,0.62,0a8.2,8.2,0,1,1,0,16.39c-0.21,0-.42,0-0.62,0v27.11h42.84a13.41,13.41,0,0,0,13.41-13.41V67.64A13.41,13.41,0,0,0,151.71,54.23Zm-12.23,46a8.2,8.2,0,1,1,8.2-8.2A8.2,8.2,0,0,1,139.48,100.23Z"/></g></g></svg>