<?xml version="1.0" encoding="utf-8"?>
<!-- Generator: Adobe Illustrator 19.2.1, SVG Export Plug-In . SVG Version: 6.00 Build 0)  -->
<svg version="1.0" id="Layer_1" xmlns="http://www.w3.org/2000/svg" xmlns:xlink="http://www.w3.org/1999/xlink" x="0px" y="0px"
	 viewBox="0 0 289 206.8" style="enable-background:new 0 0 289 206.8;" xml:space="preserve">
<g>
	<g>
		<polygon style="fill:#BD4145;" points="153.6,161 145,168.3 136,161 138,83.9 151.6,83.9 		"/>
		<polygon style="fill:#AB3C3E;" points="138,87.2 136.6,141.3 144.3,148.5 153,140.8 151.6,87.2 		"/>
		<polygon style="fill:#DC4549;" points="160.3,131 144.3,145.2 129.4,131 138,53.9 151.6,53.9 		"/>
		<polygon style="fill:#AB3C3E;" points="144.8,67.2 152.6,61.3 151.6,52.5 138,52.5 137.1,61.3 		"/>
		<polygon style="fill:#DC4549;" points="160.8,52.1 144.8,64.3 128.8,52.1 135.5,39.7 154.1,39.7 		"/>
	</g>
	<polygon style="opacity:0.2;" points="152.4,61.4 152.6,61.3 152.3,58.6 160.8,52.1 154.1,39.7 144.9,39.7 144.9,168.2 145,168.3 
		153.6,161 153,137.5 160.3,131 	"/>
</g>
</svg>
