<svg id="Capa_1" data-name="Capa 1" xmlns="http://www.w3.org/2000/svg" width="34.02" height="37.02" viewBox="0 0 34.02 37.02"><defs><style>.cls-1{fill:#103d2b;}.cls-2{fill:#fff;}</style></defs><title>facebook</title><path class="cls-1" d="M18.94,4.68a17,17,0,1,0,17,17A17,17,0,0,0,18.94,4.68Zm3.76,14.13-0.2,2.54H19.89v8.84h-3.3V21.36H14.84V18.81h1.76V17.1a4.57,4.57,0,0,1,.57-2.64,3.13,3.13,0,0,1,2.73-1.28A11.05,11.05,0,0,1,23,13.5L22.6,16.11a5.94,5.94,0,0,0-1.42-.21,1.06,1.06,0,0,0-1.3.93v2h2.8Z" transform="translate(-1.93 -1.68)"/><path class="cls-2" d="M18.94,1.68a17,17,0,1,0,17,17A17,17,0,0,0,18.94,1.68Zm3.76,14.13-0.2,2.54H19.89v8.84h-3.3V18.36H14.84V15.81h1.76V14.1a4.57,4.57,0,0,1,.57-2.64,3.13,3.13,0,0,1,2.73-1.28A11.05,11.05,0,0,1,23,10.5L22.6,13.11a5.94,5.94,0,0,0-1.42-.21,1.06,1.06,0,0,0-1.3.93v2h2.8Z" transform="translate(-1.93 -1.68)"/></svg>