<?xml version="1.0" encoding="utf-8"?>
<!-- Generator: Adobe Illustrator 19.2.1, SVG Export Plug-In . SVG Version: 6.00 Build 0)  -->
<svg version="1.1" id="Capa_1" xmlns="http://www.w3.org/2000/svg" xmlns:xlink="http://www.w3.org/1999/xlink" x="0px" y="0px"
	 width="34px" height="34px" viewBox="0 0 34 34" enable-background="new 0 0 34 34" xml:space="preserve">
<path fill="#FFFFFF" d="M17,0C7.6,0,0,7.6,0,17s7.6,17,17,17s17-7.6,17-17S26.4,0,17,0z M20.8,14.1l-0.2,2.5H18v8.8h-3.3v-8.8h-1.8
	v-2.5h1.8v-1.7c0-0.8,0-1.9,0.6-2.6C15.9,9,16.7,8.5,18,8.5c2.2,0,3.2,0.3,3.2,0.3l-0.4,2.6c0,0-0.7-0.2-1.4-0.2
	c-0.7,0-1.3,0.2-1.3,0.9v2H20.8z"/>
</svg>
