<?xml version="1.0" encoding="utf-8"?>
<!-- Generator: Adobe Illustrator 19.2.1, SVG Export Plug-In . SVG Version: 6.00 Build 0)  -->
<svg version="1.1" id="Layer_1" xmlns="http://www.w3.org/2000/svg" xmlns:xlink="http://www.w3.org/1999/xlink" x="0px" y="0px"
	 width="289px" height="206.827px" viewBox="0 0 289 206.827" enable-background="new 0 0 289 206.827" xml:space="preserve">
<g>
	<defs>
		<path id="SVGID_1_" d="M0,206V11.348C0,5.081,5.076,0,11.339,0h266.323C283.924,0,289,5.081,289,11.348V206H0z"/>
	</defs>
	<clipPath id="SVGID_2_">
		<use xlink:href="#SVGID_1_"  overflow="visible"/>
	</clipPath>
	<linearGradient id="SVGID_3_" gradientUnits="userSpaceOnUse" x1="144.5" y1="276" x2="144.5" y2="-5.978109e-09">
		<stop  offset="0.3164" style="stop-color:#FFFFFF"/>
		<stop  offset="1" style="stop-color:#ADE1F9"/>
	</linearGradient>
	<path display="none" clip-path="url(#SVGID_2_)" fill="url(#SVGID_3_)" d="M277.661,276H11.339C5.076,276,0,270.924,0,264.661
		V11.339C0,5.076,5.076,0,11.339,0h266.323C283.924,0,289,5.076,289,11.339v253.323C289,270.924,283.924,276,277.661,276z"/>
	<g clip-path="url(#SVGID_2_)">
		<polygon fill="#AEBEC8" points="413.793,52.875 -32.358,217.414 -84.469,193.19 361.682,28.652 		"/>
		<polygon fill="#FFFFFF" points="274.1,83.215 236.313,97.091 229.156,93.764 266.944,79.888 		"/>
		<polygon fill="#FFFFFF" points="338.175,59.483 300.388,73.359 293.231,70.033 331.019,56.157 		"/>
		<polygon fill="#FFFFFF" points="13.34,182.179 -24.448,196.055 -31.604,192.728 6.183,178.852 		"/>
		<polygon fill="#FFFFFF" points="210.025,108.133 172.238,122.009 165.081,118.682 202.868,104.806 		"/>
		<polygon fill="#FFFFFF" points="144.37,132.661 106.582,146.537 99.426,143.21 137.213,129.334 		"/>
		<polygon fill="#FFFFFF" points="79.502,157.573 41.715,171.45 34.558,168.123 72.346,154.247 		"/>
		<path fill="#FFCA05" d="M151.858,50.61c-14.595,0-26.426,11.831-26.426,26.426c0,25.735,26.426,52.679,26.426,52.679
			s26.426-26.599,26.426-52.679C178.284,62.441,166.453,50.61,151.858,50.61z M151.858,89.99c-7.25,0-13.127-5.877-13.127-13.127
			c0-7.25,5.877-13.127,13.127-13.127c7.25,0,13.127,5.877,13.127,13.127C164.985,84.113,159.108,89.99,151.858,89.99z"/>
		<linearGradient id="SVGID_4_" gradientUnits="userSpaceOnUse" x1="151.8579" y1="144.2412" x2="151.8579" y2="128.9236">
			<stop  offset="0" style="stop-color:#000000;stop-opacity:0"/>
			<stop  offset="0.9089" style="stop-color:#000000;stop-opacity:0.6"/>
			<stop  offset="1" style="stop-color:#000000;stop-opacity:0.6"/>
		</linearGradient>
		<path fill="url(#SVGID_4_)" d="M151.858,144.241c14.595,0,26.426-2.291,26.426-5.117c0-4.983-26.426-10.201-26.426-10.201
			s-26.426,5.15-26.426,10.201C125.432,141.95,137.263,144.241,151.858,144.241z M151.858,136.616c7.25,0,13.127,1.138,13.127,2.542
			c0,1.404-5.877,2.542-13.127,2.542s-13.127-1.138-13.127-2.542C138.731,137.754,144.608,136.616,151.858,136.616z"/>
		<path fill="#F9A51A" d="M151.904,63.738c7.228,0.025,13.08,5.891,13.08,13.125s-5.852,13.1-13.08,13.125v39.679
			c1.166-1.187,26.38-27.154,26.38-52.632c0-14.579-11.806-26.4-26.38-26.425V63.738z"/>
		<polygon fill="#AEBEC8" points="98.165,128.816 48.09,146.516 -111.463,75.025 -82.838,49.071 		"/>
		<polygon fill="#AEBEC8" points="420.913,178.652 370.838,196.352 211.285,124.861 239.91,98.907 		"/>
	</g>
</g>
</svg>
