<?xml version="1.0" encoding="utf-8"?>
<!-- Generator: Adobe Illustrator 19.2.0, SVG Export Plug-In . SVG Version: 6.00 Build 0)  -->
<svg version="1.1" id="Layer_1" xmlns="http://www.w3.org/2000/svg" xmlns:xlink="http://www.w3.org/1999/xlink" x="0px" y="0px"
	 width="289px" height="276px" viewBox="0 0 289 276" style="enable-background:new 0 0 289 276;" xml:space="preserve">
<style type="text/css">
	.st0{fill:url(#SVGID_1_);}
	.st1{clip-path:url(#SVGID_3_);}
	.st2{fill:#AEBEC8;}
	.st3{fill:#FFFFFF;}
	.st4{fill:#FFCA05;}
	.st5{fill:url(#SVGID_4_);}
	.st6{fill:#F9A51A;}
</style>
<title>find-help</title>
<linearGradient id="SVGID_1_" gradientUnits="userSpaceOnUse" x1="144.5" y1="2" x2="144.5" y2="278" gradientTransform="matrix(1 0 0 -1 0 278)">
	<stop  offset="0.32" style="stop-color:#FFFFFF"/>
	<stop  offset="1" style="stop-color:#ADE1F9"/>
</linearGradient>
<path class="st0" d="M11.34,0h266.32C283.923,0,289,5.077,289,11.34v253.32c0,6.263-5.077,11.34-11.34,11.34H11.34
	C5.077,276,0,270.923,0,264.66V11.34C0,5.077,5.077,0,11.34,0z"/>
<g>
	<defs>
		<path id="SVGID_2_" d="M11.34,0h266.32C283.923,0,289,5.077,289,11.34v253.32c0,6.263-5.077,11.34-11.34,11.34H11.34
			C5.077,276,0,270.923,0,264.66V11.34C0,5.077,5.077,0,11.34,0z"/>
	</defs>
	<clipPath id="SVGID_3_">
		<use xlink:href="#SVGID_2_"  style="overflow:visible;"/>
	</clipPath>
	<g class="st1">
		<polygon class="st2" points="410.25,48.35 -35.9,212.89 -88.02,188.67 358.13,24.13 		"/>
		<polygon class="st3" points="270.55,78.69 232.77,92.57 225.61,89.24 263.4,75.37 		"/>
		<polygon class="st3" points="334.63,54.96 296.84,68.84 289.68,65.51 327.47,51.64 		"/>
		<polygon class="st3" points="9.79,177.66 -27.99,191.53 -35.15,188.21 2.64,174.33 		"/>
		<polygon class="st3" points="206.48,103.61 168.69,117.49 161.53,114.16 199.32,100.29 		"/>
		<polygon class="st3" points="140.82,128.14 103.03,142.02 95.88,138.69 133.67,124.81 		"/>
		<polygon class="st3" points="75.96,153.05 38.17,166.93 31.01,163.6 68.8,149.73 		"/>
		<path class="st4" d="M148.32,46.09c-14.597,0-26.43,11.833-26.43,26.43l0,0c0,25.73,26.43,52.68,26.43,52.68
			s26.43-26.6,26.43-52.68C174.75,57.923,162.917,46.09,148.32,46.09z M148.32,85.47c-7.251,0-13.13-5.879-13.13-13.13
			c0-7.251,5.878-13.13,13.13-13.13c7.251,0,13.13,5.879,13.13,13.13S155.572,85.47,148.32,85.47L148.32,85.47z"/>
		
			<linearGradient id="SVGID_4_" gradientUnits="userSpaceOnUse" x1="33.31" y1="138.28" x2="33.31" y2="153.6" gradientTransform="matrix(1 0 0 -1 115.01 278)">
			<stop  offset="0" style="stop-color:#000000;stop-opacity:0"/>
			<stop  offset="0.91" style="stop-color:#000000;stop-opacity:0.6"/>
			<stop  offset="1" style="stop-color:#000000;stop-opacity:0.6"/>
		</linearGradient>
		<path class="st5" d="M148.32,139.72c14.59,0,26.43-2.29,26.43-5.12c0-5-26.43-10.2-26.43-10.2s-26.43,5.15-26.43,10.2
			C121.89,137.43,133.72,139.72,148.32,139.72z M148.32,132.09c7.25,0,13.13,1.14,13.13,2.54s-5.88,2.54-13.13,2.54
			s-13.13-1.14-13.13-2.54s5.88-2.53,13.13-2.53V132.09z"/>
		<path class="st6" d="M148.36,59.22c7.249,0.2,12.963,6.239,12.763,13.487c-0.192,6.967-5.795,12.57-12.763,12.763v39.68
			c1.17-1.15,26.38-27.15,26.38-52.63c-0.005-14.573-11.807-26.392-26.38-26.42V59.22z"/>
		<polygon class="st2" points="94.62,124.3 44.54,142 -115.01,70.5 -86.38,44.55 		"/>
		<polygon class="st2" points="417.37,174.13 367.29,191.83 207.74,120.34 236.36,94.39 		"/>
	</g>
</g>
</svg>
