<svg id="Layer_1" data-name="Layer 1" xmlns="http://www.w3.org/2000/svg" xmlns:xlink="http://www.w3.org/1999/xlink" width="289" height="276" viewBox="0 0 289 276"><defs><style>.cls-1{fill:url(#linear-gradient);}.cls-2{fill:#ade1f9;}.cls-3{fill:#81d3f6;}.cls-4{fill:#1b75bb;}.cls-5{fill:#2b388f;}.cls-6{fill:#f3c636;}.cls-7{fill:#009345;}.cls-8{fill:#754c28;}.cls-9{fill:#fff100;}.cls-10{fill:#b23625;}.cls-11{fill:#b3974e;}.cls-12{fill:#3c5f40;}.cls-13{fill:#603813;}.cls-14{fill:#ecc004;}.cls-15{fill:#7d3d2c;}.cls-16{fill:#83a7bb;}.cls-17{fill:#d7e8f2;}.cls-18{fill:#5f8395;}.cls-19{fill:#3b2314;}</style><linearGradient id="linear-gradient" x1="144.5" y1="276" x2="144.5" gradientUnits="userSpaceOnUse"><stop offset="0.32" stop-color="#fff"/><stop offset="1" stop-color="#ade1f9"/></linearGradient></defs><title>food</title><rect class="cls-1" width="289" height="276" rx="11.34" ry="11.34"/><path class="cls-2" d="M170,160.58V117.14L168.56,114l1.46-2.78v-4.76l-1.59-3.31,1.59-3V96l-1.59-2.91L170,90.16V86l-1.68-3.17,1.68-3V73.27c0-7.94-4.41-12.17-4.41-12.17L154.67,46.9V42.67h-9.61v0h-9.61V46.9L124.51,61.1s-4.41,4.23-4.41,12.17V79.8l1.68,3L120.1,86v4.19l1.59,2.91L120.1,96v4.1l1.59,3-1.59,3.31v4.76l1.46,2.78-1.46,3.17v43.43A15.79,15.79,0,0,0,122,168c2.12,4.06,4.76,9.52,10.23,9.52s8.08-3,12.79-3,7.35,3,12.79,3S166,172,168.08,168A15.79,15.79,0,0,0,170,160.58Z"/><path class="cls-3" d="M145.06,42.67h9.61V46.9l10.94,14.2S170,65.34,170,73.27V79.8l-1.68,3L170,86v4.19l-1.59,2.91L170,96v4.1l-1.59,3,1.59,3.31v4.76L168.56,114l1.46,3.17v43.43a15.79,15.79,0,0,1-1.94,7.41c-2.12,4.06-4.76,9.52-10.23,9.52s-8.11-3-12.88-3Z"/><path class="cls-4" d="M137.43,30.5h15.08a3.22,3.22,0,0,1,3.22,3.22V44.08a0,0,0,0,1,0,0H134.21a0,0,0,0,1,0,0V33.72A3.22,3.22,0,0,1,137.43,30.5Z"/><path class="cls-5" d="M153,30.5h-8.16V44.08h10.93V33.28A2.78,2.78,0,0,0,153,30.5Z"/><path class="cls-6" d="M149.31,155.17c0,16.63-21.08,17.09-47.08,17.09s-47.08-.7-47.08-17.09c0-9.44,21.08-10.64,47.08-10.64S149.31,145.73,149.31,155.17Z"/><path class="cls-7" d="M140.23,150.19h-76s-3.93.36-7.32,7c0,0,8-3.93,16.26-3.39s14.29,9.65,14.29,9.65,5.7-10,14.78-10,14.78,10,14.78,10,6.07-9.11,14.29-9.65,16.26,3.39,16.26,3.39C144.16,150.55,140.23,150.19,140.23,150.19Z"/><path class="cls-8" d="M145.58,146a6.41,6.41,0,0,1-6.41,6.41H65.29A6.41,6.41,0,0,1,58.88,146h0a6.41,6.41,0,0,1,6.41-6.41h73.88a6.41,6.41,0,0,1,6.41,6.41h0Z"/><path class="cls-9" d="M140.23,136.21h-76s-3.93.36-7.32,7c0,0,8-3.93,16.26-3.39s14.29,9.65,14.29,9.65,5.7-10,14.78-10,14.78,10,14.78,10,6.07-9.11,14.29-9.65,16.26,3.39,16.26,3.39C144.16,136.56,140.23,136.21,140.23,136.21Z"/><path class="cls-10" d="M143.15,129.14H61.31a3.85,3.85,0,0,0,0,7.69h81.85A3.85,3.85,0,0,0,143.15,129.14Z"/><path class="cls-6" d="M55.15,122.7c0-16.63,21.08-17.09,47.08-17.09s47.08,0.7,47.08,17.09c0,9.44-21.08,10.64-47.08,10.64S55.15,132.13,55.15,122.7Z"/><path class="cls-11" d="M102.23,144.52h-0.42v27.73h0.42c26,0,47.08-.47,47.08-17.09C149.31,145.73,128.23,144.52,102.23,144.52Z"/><path class="cls-12" d="M140.23,150.19H101.81v3.23l0.42,0c9.08,0,14.78,10,14.78,10s6.07-9.11,14.29-9.65,16.26,3.39,16.26,3.39C144.16,150.55,140.23,150.19,140.23,150.19Z"/><path class="cls-13" d="M139.17,139.63H101.81v12.82h37.36A6.41,6.41,0,0,0,139.17,139.63Z"/><path class="cls-14" d="M140.23,136.21H101.81v3.23l0.42,0c9.08,0,14.78,10,14.78,10s6.07-9.11,14.29-9.65,16.26,3.39,16.26,3.39C144.16,136.56,140.23,136.21,140.23,136.21Z"/><path class="cls-15" d="M143.15,129.14H101.81v7.69h41.35A3.85,3.85,0,0,0,143.15,129.14Z"/><path class="cls-11" d="M102.23,105.6h-0.42v27.73h0.42c26,0,47.08-1.2,47.08-10.64C149.31,106.3,128.23,105.6,102.23,105.6Z"/><ellipse class="cls-16" cx="182.46" cy="169.89" rx="47.49" ry="9.12" transform="matrix(1, -0.01, 0.01, 1, -1.79, 1.94)"/><ellipse class="cls-2" cx="182.42" cy="165.46" rx="55.65" ry="10.69" transform="translate(-1.74 1.94) rotate(-0.61)"/><ellipse class="cls-16" cx="182.43" cy="166.69" rx="33.75" ry="6.48" transform="translate(-1.75 1.94) rotate(-0.61)"/><path class="cls-17" d="M234.31,113.91a17.93,17.93,0,0,0-8.1.12c-6.83-12.87-24-14.54-44.15-14.33-26,.27-47,3.56-46.68,29.51s21.49,43,47.45,42.71c15-.16,28.27-6.07,36.77-16,8.62-2.3,25.26-8.46,28.2-22.16C249.72,124.79,243.68,115.91,234.31,113.91Zm3.22,19.59c-1.32,6.18-6.57,10.19-11.8,12.72a42.66,42.66,0,0,0,3.63-18,36.71,36.71,0,0,0-1-8.68A12,12,0,0,1,237.53,133.5Z"/><ellipse class="cls-8" cx="181.88" cy="111.37" rx="34.38" ry="5.68" transform="matrix(1, -0.01, 0.01, 1, -1.17, 1.93)"/><path class="cls-18" d="M182.37,160.77h0L182.54,179h0c26.23-.28,47.44-4.58,47.39-9.62S208.59,160.49,182.37,160.77Z"/><path class="cls-16" d="M182.31,154.77h0l0.23,21.37h0c30.73-.32,55.6-5.37,55.53-11.27S213,154.45,182.31,154.77Z"/><path class="cls-18" d="M182.36,160.21h0l0.14,13h0c18.64-.2,33.72-3.26,33.68-6.84S201,160,182.36,160.21Z"/><path class="cls-2" d="M234.31,113.91a17.93,17.93,0,0,0-8.1.12c-6.83-12.87-24-14.54-44.15-14.33H181.7l0.76,72.21h0.37c15-.16,28.27-6.07,36.77-16,8.62-2.3,25.26-8.46,28.2-22.16C249.72,124.79,243.68,115.91,234.31,113.91Zm3.22,19.59c-1.32,6.18-6.57,10.19-11.8,12.72a42.66,42.66,0,0,0,3.63-18,36.71,36.71,0,0,0-1-8.68A12,12,0,0,1,237.53,133.5Z"/><path class="cls-19" d="M181.82,105.69h-0.05L181.88,117h0.05c19-.2,34.35-2.9,34.31-6S200.8,105.49,181.82,105.69Z"/></svg>