<?xml version="1.0" encoding="utf-8"?>
<!-- Generator: Adobe Illustrator 19.2.1, SVG Export Plug-In . SVG Version: 6.00 Build 0)  -->
<svg version="1.1" id="Layer_1" xmlns="http://www.w3.org/2000/svg" xmlns:xlink="http://www.w3.org/1999/xlink" x="0px" y="0px"
	 width="289px" height="206.827px" viewBox="0 0 289 206.827" enable-background="new 0 0 289 206.827" xml:space="preserve">
<g>
	<defs>
		<path id="SVGID_1_" d="M0,206V11.348C0,5.081,5.076,0,11.339,0h266.323C283.924,0,289,5.081,289,11.348V206H0z"/>
	</defs>
	<clipPath id="SVGID_2_">
		<use xlink:href="#SVGID_1_"  overflow="visible"/>
	</clipPath>
	<linearGradient id="SVGID_3_" gradientUnits="userSpaceOnUse" x1="144.5" y1="276" x2="144.5" y2="-5.978109e-09">
		<stop  offset="0.3164" style="stop-color:#FFFFFF"/>
		<stop  offset="1" style="stop-color:#ADE1F9"/>
	</linearGradient>
	<path display="none" clip-path="url(#SVGID_2_)" fill="url(#SVGID_3_)" d="M277.661,276H11.339C5.076,276,0,270.924,0,264.661
		V11.339C0,5.076,5.076,0,11.339,0h266.323C283.924,0,289,5.076,289,11.339v253.323C289,270.924,283.924,276,277.661,276z"/>
	<g clip-path="url(#SVGID_2_)">
		<g>
			<g>
				<path fill="#ADE1F9" d="M167.511,141.796V104.85l-1.238-2.701l1.238-2.363v-4.051l-1.35-2.813l1.35-2.588v-3.488l-1.35-2.475
					l1.35-2.476v-3.564l-1.425-2.7l1.425-2.55c0,0,0-4.704,0-5.552c0-6.751-3.751-10.352-3.751-10.352l-9.302-12.078v-3.601h-8.177
					l-0.001,1.642l-0.001-1.642h-8.177v3.601l-9.302,12.078c0,0-3.751,3.601-3.751,10.352c0,0.848,0,5.552,0,5.552l1.425,2.55
					l-1.425,2.7v3.564l1.35,2.476l-1.35,2.475v3.488l1.35,2.588l-1.35,2.813v4.051l1.238,2.363l-1.238,2.701v36.946
					c0,0-0.15,2.851,1.65,6.301c1.8,3.451,4.051,8.102,8.702,8.102c4.622,0,6.875-2.516,10.878-2.548
					c4.003,0.032,6.257,2.548,10.878,2.548c4.651,0,6.901-4.651,8.702-8.102C167.661,144.646,167.511,141.796,167.511,141.796z"/>
				<path fill="#81D3F6" d="M146.281,41.499h8.177v3.601l9.302,12.078c0,0,3.751,3.601,3.751,10.352c0,0.848,0,5.551,0,5.551
					l-1.425,2.55l1.425,2.7v3.563l-1.35,2.476l1.35,2.475v3.488l-1.35,2.588l1.35,2.813v4.051l-1.238,2.363l1.238,2.701v36.946
					c0,0,0.15,2.851-1.65,6.301c-1.8,3.451-4.051,8.102-8.702,8.102c-4.651,0-6.902-2.551-10.952-2.551L146.281,41.499z"/>
				<path fill="#1B75BB" d="M155.356,42.699h-18.304v-8.816c0-1.511,1.225-2.736,2.736-2.736h12.832
					c1.511,0,2.736,1.225,2.736,2.736V42.699z"/>
				<path fill="#2B388F" d="M152.994,31.146h-6.94v11.552h9.302v-9.19C155.356,32.204,154.299,31.146,152.994,31.146z"/>
			</g>
		</g>
		<g>
			<g>
				<polygon fill="#754C28" points="213.312,151.501 208.478,157.107 164.337,157.107 159.493,151.501 159.493,80.503 
					165.272,76.299 207.342,76.299 213.312,80.503 				"/>
				<rect x="159.433" y="69.76" fill="#231F20" width="54.183" height="7.474"/>
				<rect x="159.667" y="92.414" fill="#C7C8CA" width="53.599" height="46.009"/>
			</g>
			<polygon opacity="0.53" fill="#231F20" points="213.616,69.76 186.058,69.76 186.058,157.107 208.478,157.107 213.312,151.501 
				213.312,80.503 208.669,77.233 213.616,77.233 			"/>
		</g>
		<g>
			<g>
				<rect x="50.406" y="88.681" fill="#BE1E2D" width="44.918" height="64.008"/>
				<path fill="#797A7D" d="M95.078,90.365H50.652c-1.042,0-1.895-0.853-1.895-1.895l0,0c0-1.042,0.853-1.895,1.895-1.895h44.427
					c1.042,0,1.895,0.853,1.895,1.895l0,0C96.973,89.512,96.12,90.365,95.078,90.365z"/>
				<path fill="#797A7D" d="M95.078,155.005H50.652c-1.042,0-1.895-0.853-1.895-1.895v0c0-1.042,0.853-1.895,1.895-1.895h44.427
					c1.042,0,1.895,0.853,1.895,1.895v0C96.973,154.152,96.12,155.005,95.078,155.005z"/>
				<path fill="#58595B" d="M82.919,109.946l3.158-7.159c-4.719-2.073-9.241-2.736-13.16-2.71v-0.001
					c-0.017,0-0.035,0.001-0.053,0.001c-0.017,0-0.035-0.001-0.053-0.001v0.001c-3.918-0.026-8.441,0.637-13.16,2.71l3.158,7.159
					h-6.106l4.422,32.425h11.686h0.105h11.686l4.422-32.425H82.919z"/>
			</g>
			<path opacity="0.53" fill="#231F20" d="M95.324,151.24v-60.9c0.926-0.122,1.649-0.912,1.649-1.87
				c0-1.042-0.853-1.895-1.895-1.895H72.746v68.43h22.332c1.042,0,1.895-0.853,1.895-1.895
				C96.973,152.152,96.25,151.362,95.324,151.24z"/>
		</g>
		<g>
			<g>
				<rect x="94.56" y="84.707" fill="#00ADEE" width="49.824" height="70.999"/>
				<path fill="#797A7D" d="M144.112,86.575H94.833c-1.156,0-2.102-0.946-2.102-2.102v0c0-1.156,0.946-2.102,2.102-2.102h49.279
					c1.156,0,2.102,0.946,2.102,2.102v0C146.213,85.629,145.268,86.575,144.112,86.575z"/>
				<path fill="#797A7D" d="M144.112,158.274H94.833c-1.156,0-2.102-0.946-2.102-2.102v0c0-1.156,0.946-2.102,2.102-2.102h49.279
					c1.156,0,2.102,0.946,2.102,2.102v0C146.213,157.328,145.268,158.274,144.112,158.274z"/>
				<path fill="#58595B" d="M130.624,108.295l3.503-7.941c-5.234-2.3-10.251-3.035-14.597-3.006v-0.002
					c-0.019,0-0.039,0.001-0.058,0.001c-0.019,0-0.039-0.001-0.058-0.001v0.002c-4.346-0.029-9.362,0.706-14.597,3.006l3.503,7.941
					h-6.773l4.905,35.966h12.962h0.117h12.962l4.905-35.966H130.624z"/>
			</g>
			<path opacity="0.53" fill="#231F20" d="M144.384,154.098V86.547c1.027-0.136,1.829-1.012,1.829-2.074
				c0-1.156-0.946-2.102-2.102-2.102h-24.771v75.903h24.771c1.156,0,2.102-0.946,2.102-2.102
				C146.213,155.11,145.411,154.234,144.384,154.098z"/>
		</g>
		<g>
			<g>
				<rect x="193.585" y="131.416" fill="#A9AAC6" width="49.824" height="24.286"/>
				<path fill="#797A7D" d="M243.136,133.285h-49.279c-1.156,0-2.102-0.946-2.102-2.102v0c0-1.156,0.946-2.102,2.102-2.102h49.279
					c1.156,0,2.102,0.946,2.102,2.102v0C245.238,132.339,244.292,133.285,243.136,133.285z"/>
				<path fill="#797A7D" d="M243.136,158.271h-49.279c-1.156,0-2.102-0.946-2.102-2.102v0c0-1.156,0.946-2.102,2.102-2.102h49.279
					c1.156,0,2.102,0.946,2.102,2.102v0C245.238,157.325,244.292,158.271,243.136,158.271z"/>
			</g>
			<rect x="193.492" y="137.255" fill="#C6686B" width="49.746" height="12.495"/>
			<path opacity="0.53" fill="#231F20" d="M243.408,154.095v-20.838c1.027-0.136,1.829-1.012,1.829-2.074
				c0-1.156-0.946-2.102-2.102-2.102h-24.771v29.191h24.771c1.156,0,2.102-0.946,2.102-2.102
				C245.238,155.107,244.436,154.231,243.408,154.095z"/>
		</g>
	</g>
</g>
</svg>
