<svg id="Layer_1" data-name="Layer 1" xmlns="http://www.w3.org/2000/svg" xmlns:xlink="http://www.w3.org/1999/xlink" width="289" height="276" viewBox="0 0 289 276"><defs><linearGradient id="linear-gradient" x1="144.5" y1="276" x2="144.5" gradientUnits="userSpaceOnUse"><stop offset="0.32" stop-color="#fff"/><stop offset="1" stop-color="#ade1f9"/></linearGradient><clipPath id="clip-path"><rect x="33.4" y="21.82" width="112.39" height="152.79" style="fill:none"/></clipPath></defs><title>give</title><rect width="289" height="276" rx="11.34" ry="11.34" style="fill:url(#linear-gradient)"/><path d="M106.45,115a9.71,9.71,0,0,1,4.38-7.58l23.61-13.63c2.41-1.39,2.41-3.66,0-5.06L115.82,78a9.71,9.71,0,0,0-8.76,0l-23,13.29a9.71,9.71,0,0,0-4.38,7.59v19.71a9.71,9.71,0,0,0,4.38,7.58l18,10.4c2.41,1.39,4.38.25,4.38-2.53V115Z" style="fill:#007c8e"/><path d="M142.71,83.95a9.72,9.72,0,0,0,8.76,0l17.31-10c2.41-1.39,2.41-3.67,0-5.06L150.16,58.15a9.71,9.71,0,0,0-8.76,0l-17.31,10c-2.41,1.39-2.41,3.67,0,5.06Z" style="fill:#007c8e"/><path d="M179.46,119.76a9.71,9.71,0,0,0-4.38-7.58L151.47,98.55a9.71,9.71,0,0,0-8.76,0L119.1,112.18a9.72,9.72,0,0,0-4.38,7.58v19a9.71,9.71,0,0,0,4.38,7.58l22.3,12.88a9.71,9.71,0,0,0,8.76,0l24.92-14.39a9.71,9.71,0,0,0,4.38-7.58V119.76Z" style="fill:#007c8e"/><path d="M185.81,78.73a9.72,9.72,0,0,0-8.76,0l-17.31,10c-2.41,1.39-2.41,3.67,0,5.06l23.61,13.63a9.71,9.71,0,0,1,4.38,7.58V132.5c0,2.78,2,3.92,4.38,2.53l15.4-8.89a9.72,9.72,0,0,0,4.38-7.58V98.85a9.71,9.71,0,0,0-4.38-7.58Z" style="fill:#007c8e"/><g style="clip-path:url(#clip-path)"><path d="M106.45,115a9.71,9.71,0,0,1,4.38-7.58l23.61-13.63c2.41-1.39,2.41-3.66,0-5.06L115.82,78a9.71,9.71,0,0,0-8.76,0l-23,13.29a9.71,9.71,0,0,0-4.38,7.59v19.71a9.71,9.71,0,0,0,4.38,7.58l18,10.4c2.41,1.39,4.38.25,4.38-2.53V115Z" style="fill:#00a5bd"/><path d="M142.71,83.95a9.72,9.72,0,0,0,8.76,0l17.31-10c2.41-1.39,2.41-3.67,0-5.06L150.16,58.15a9.71,9.71,0,0,0-8.76,0l-17.31,10c-2.41,1.39-2.41,3.67,0,5.06Z" style="fill:#00a5bd"/><path d="M179.46,119.76a9.71,9.71,0,0,0-4.38-7.58L151.47,98.55a9.71,9.71,0,0,0-8.76,0L119.1,112.18a9.72,9.72,0,0,0-4.38,7.58v19a9.71,9.71,0,0,0,4.38,7.58l22.3,12.88a9.71,9.71,0,0,0,8.76,0l24.92-14.39a9.71,9.71,0,0,0,4.38-7.58V119.76Z" style="fill:#00a5bd"/><path d="M185.81,78.73a9.72,9.72,0,0,0-8.76,0l-17.31,10c-2.41,1.39-2.41,3.67,0,5.06l23.61,13.63a9.71,9.71,0,0,1,4.38,7.58V132.5c0,2.78,2,3.92,4.38,2.53l15.4-8.89a9.72,9.72,0,0,0,4.38-7.58V98.85a9.71,9.71,0,0,0-4.38-7.58Z" style="fill:#e03e5b"/></g></svg>