<svg id="Layer_1" data-name="Layer 1" xmlns="http://www.w3.org/2000/svg" xmlns:xlink="http://www.w3.org/1999/xlink" width="289" height="276" viewBox="0 0 289 276"><defs><style>.cls-1{fill:url(#linear-gradient);}.cls-2{fill:#bc976d;}.cls-3{fill:#fdc98e;}.cls-4{fill:#7ac8a7;}.cls-5{fill:#1eb795;}</style><linearGradient id="linear-gradient" x1="144.5" y1="276" x2="144.5" gradientUnits="userSpaceOnUse"><stop offset="0.32" stop-color="#fff"/><stop offset="1" stop-color="#ade1f9"/></linearGradient></defs><title>give-help</title><rect class="cls-1" width="289" height="276" rx="11.34" ry="11.34"/><path class="cls-2" d="M159.9,146.86s-3.34-34-3.53-35.35c0-1.73-.94-6.06-6-5.48s-4.8,5.43-4.61,6.82c0,0.87-.08,53.44.18,60.89s2.21,41.61,39.65,38.23c21.66-2,24.63-15.2,28.53-23.23S235.65,141,235.65,141s4.26-7-.81-9.88c-3.49-1.69-9.69,2.19-11.56,5.16-3.4,6.11-13.79,23.06-13.79,23.06S201,83.59,200.8,82.2c-0.55-2.42-2.49-5.52-6.65-5a6.21,6.21,0,0,0-5.65,6.31c0,1.73,2.78,60.86,2.78,60.86h0s-6.52-69.15-6.71-70.53c-0.22-4-3-6.21-7-6a6.23,6.23,0,0,0-6,6.14c0,1.73,3.08,71.79,3.08,71.79h0s-4.74-50.61-5.11-52.51A5.71,5.71,0,0,0,163,88c-4.51.4-5.32,4.75-5.3,6.48-0.16,1.22,2.16,52.37,2.16,52.37h0Z"/><path class="cls-3" d="M129.1,146.86s2.32-51.15,2.16-52.37c0-1.73-.8-6.08-5.3-6.48a5.71,5.71,0,0,0-6.48,5.3c-0.37,1.9-5.11,52.51-5.11,52.51h0s3.06-70.06,3.08-71.79a6.23,6.23,0,0,0-6-6.14c-4-.22-6.79,2-7,6-0.19,1.39-6.71,70.53-6.71,70.53h0s2.76-59.13,2.78-60.86a6.21,6.21,0,0,0-5.65-6.31c-4.16-.57-6.1,2.53-6.65,5-0.19,1.39-8.69,77.1-8.69,77.1s-10.39-16.95-13.79-23.06c-1.87-3-8.08-6.86-11.56-5.16C49.1,134,53.35,141,53.35,141s17.59,39.76,21.49,47.78S81.71,210,103.37,212c37.44,3.38,39.39-30.78,39.65-38.23s0.17-60,.18-60.89c0.19-1.39.42-6.24-4.61-6.82s-5.94,3.75-6,5.48c-0.19,1.39-3.53,35.35-3.53,35.35h0Z"/><polygon class="cls-4" points="131.07 55.41 131.07 82.1 104.38 82.1 104.38 108.79 131.07 108.79 131.07 135.48 157.76 135.48 157.76 108.79 184.45 108.79 184.45 82.1 157.76 82.1 157.76 55.41 131.07 55.41"/><polygon class="cls-5" points="184.45 82.1 157.76 82.1 157.76 55.41 143.8 55.41 143.8 135.48 157.76 135.48 157.76 108.79 184.45 108.79 184.45 82.1"/></svg>