<?xml version="1.0" encoding="utf-8"?>
<!-- Generator: Adobe Illustrator 19.2.1, SVG Export Plug-In . SVG Version: 6.00 Build 0)  -->
<svg version="1.1" id="Layer_1" xmlns="http://www.w3.org/2000/svg" xmlns:xlink="http://www.w3.org/1999/xlink" x="0px" y="0px"
	 width="289px" height="206.327px" viewBox="0 0 289 206.327" enable-background="new 0 0 289 206.327" xml:space="preserve">
<g>
	<defs>
		<path id="SVGID_1_" d="M0,206V11.348C0,5.081,5.076,0,11.339,0h266.323C283.924,0,289,5.081,289,11.348V206H0z"/>
	</defs>
	<clipPath id="SVGID_2_">
		<use xlink:href="#SVGID_1_"  overflow="visible"/>
	</clipPath>
	<linearGradient id="SVGID_3_" gradientUnits="userSpaceOnUse" x1="144.5" y1="276" x2="144.5" y2="-5.978109e-09">
		<stop  offset="0.3164" style="stop-color:#FFFFFF"/>
		<stop  offset="1" style="stop-color:#ADE1F9"/>
	</linearGradient>
	<path display="none" clip-path="url(#SVGID_2_)" fill="url(#SVGID_3_)" d="M277.661,276H11.339C5.076,276,0,270.924,0,264.661
		V11.339C0,5.076,5.076,0,11.339,0h266.323C283.924,0,289,5.076,289,11.339v253.323C289,270.924,283.924,276,277.661,276z"/>
	<g clip-path="url(#SVGID_2_)">
		<g>
			<g>
				<g>
					<path fill="#BC976D" d="M164.571,152.832c0,0-3.339-33.966-3.529-35.352c-0.02-1.735-0.937-6.061-5.962-5.483
						c-5.025,0.578-4.795,5.433-4.606,6.819c0.01,0.867-0.081,53.437,0.178,60.894c0.259,7.457,2.213,41.613,39.648,38.234
						c21.664-1.984,24.635-15.203,28.533-23.229c3.898-8.025,21.485-47.784,21.485-47.784s4.257-6.989-0.807-9.88
						c-3.489-1.695-9.69,2.193-11.565,5.164c-3.4,6.111-13.788,23.059-13.788,23.059s-8.503-75.719-8.692-77.104
						c-0.548-2.423-2.492-5.523-6.65-4.955c-4.157,0.568-5.852,4.057-5.653,6.311c0.02,1.735,2.781,60.864,2.781,60.864l0,0
						c0,0-6.519-69.149-6.708-70.534c-0.219-3.988-3.021-6.211-7.008-5.992c-3.988,0.219-6.032,3.539-6.002,6.141
						c0.02,1.735,3.079,71.79,3.079,71.79l0,0c0,0-4.745-50.605-5.114-52.509c-0.199-2.253-1.974-5.703-6.48-5.304
						s-5.324,4.745-5.304,6.48C162.249,101.678,164.571,152.832,164.571,152.832L164.571,152.832z"/>
				</g>
			</g>
		</g>
		<g>
			<g>
				<g>
					<path fill="#FDC98E" d="M133.772,152.832c0,0,2.322-51.154,2.163-52.37c0.02-1.735-0.798-6.081-5.304-6.48
						s-6.281,3.051-6.48,5.304c-0.369,1.904-5.114,52.509-5.114,52.509l0,0c0,0,3.06-70.056,3.079-71.79
						c0.03-2.602-2.014-5.922-6.002-6.141c-3.988-0.219-6.789,2.004-7.008,5.992c-0.189,1.386-6.708,70.534-6.708,70.534l0,0
						c0,0,2.761-59.129,2.781-60.864c0.199-2.253-1.496-5.742-5.653-6.311c-4.157-0.568-6.101,2.532-6.65,4.955
						c-0.189,1.386-8.692,77.104-8.692,77.104s-10.388-16.948-13.788-23.059c-1.874-2.971-8.075-6.859-11.565-5.164
						c-5.064,2.891-0.807,9.88-0.807,9.88s17.587,39.758,21.485,47.784c3.898,8.025,6.869,21.245,28.533,23.229
						c37.436,3.379,39.389-30.777,39.648-38.234c0.259-7.457,0.169-60.026,0.178-60.894c0.189-1.386,0.419-6.241-4.606-6.819
						c-5.025-0.578-5.942,3.749-5.962,5.483C137.111,118.866,133.772,152.832,133.772,152.832L133.772,152.832z"/>
				</g>
			</g>
		</g>
		<g>
			<g>
				<polygon fill="#7AC8A7" points="135.738,61.379 135.738,88.069 109.049,88.069 109.049,114.758 135.738,114.758 
					135.738,141.448 162.428,141.448 162.428,114.758 189.117,114.758 189.117,88.069 162.428,88.069 162.428,61.379 				"/>
			</g>
			<polygon fill="#1EB795" points="189.117,88.069 162.428,88.068 162.428,61.379 148.474,61.379 148.474,141.448 162.428,141.448 
				162.428,114.758 189.117,114.758 			"/>
		</g>
	</g>
</g>
</svg>
