<?xml version="1.0" encoding="utf-8"?>
<!-- Generator: Adobe Illustrator 19.2.1, SVG Export Plug-In . SVG Version: 6.00 Build 0)  -->
<svg version="1.1" id="Layer_1" xmlns="http://www.w3.org/2000/svg" xmlns:xlink="http://www.w3.org/1999/xlink" x="0px" y="0px"
	 width="289px" height="206.8px" viewBox="0 0 289 206.8" enable-background="new 0 0 289 206.8" xml:space="preserve">
<g>
	<defs>
		<path id="SVGID_1_" d="M0,206V11.3C0,5.1,5.1,0,11.3,0h266.3c6.3,0,11.3,5.1,11.3,11.3V206H0z"/>
	</defs>
	<clipPath id="SVGID_2_">
		<use xlink:href="#SVGID_1_"  overflow="visible"/>
	</clipPath>
	<linearGradient id="SVGID_3_" gradientUnits="userSpaceOnUse" x1="144.5" y1="276" x2="144.5" y2="-5.978109e-09">
		<stop  offset="0.3164" style="stop-color:#FFFFFF"/>
		<stop  offset="1" style="stop-color:#ADE1F9"/>
	</linearGradient>
	<path display="none" clip-path="url(#SVGID_2_)" fill="url(#SVGID_3_)" d="M277.7,276H11.3C5.1,276,0,270.9,0,264.7V11.3
		C0,5.1,5.1,0,11.3,0h266.3c6.3,0,11.3,5.1,11.3,11.3v253.3C289,270.9,283.9,276,277.7,276z"/>
	<g clip-path="url(#SVGID_2_)">
		<path fill="#EC4A5D" d="M144.5,168.5c96.6-64.2,39.5-131.6,0-94.7C105,36.9,47.9,104.4,144.5,168.5z"/>
		<path fill="#E71D35" d="M144.5,73.7c39.5-36.7,96.5,30.6,0,94.7V73.7z"/>
	</g>
</g>
</svg>
