<?xml version="1.0" encoding="utf-8"?>
<!-- Generator: Adobe Illustrator 19.2.1, SVG Export Plug-In . SVG Version: 6.00 Build 0)  -->
<svg version="1.1" id="Layer_1" xmlns="http://www.w3.org/2000/svg" xmlns:xlink="http://www.w3.org/1999/xlink" x="0px" y="0px"
	 width="289px" height="206.3px" viewBox="0 0 289 206.3" enable-background="new 0 0 289 206.3" xml:space="preserve">
<g>
	<defs>
		<path id="SVGID_1_" d="M0,206V13.8C0,6.2,5.1,0,11.3,0h266.3c6.3,0,11.3,6.2,11.3,13.8V206H0z"/>
	</defs>
	<clipPath id="SVGID_2_">
		<use xlink:href="#SVGID_1_"  overflow="visible"/>
	</clipPath>
	<linearGradient id="SVGID_3_" gradientUnits="userSpaceOnUse" x1="144.5" y1="276" x2="144.5" y2="-5.979018e-09">
		<stop  offset="0.3164" style="stop-color:#FFFFFF"/>
		<stop  offset="1" style="stop-color:#ADE1F9"/>
	</linearGradient>
	<path display="none" clip-path="url(#SVGID_2_)" fill="url(#SVGID_3_)" d="M277.7,276H11.3C5.1,276,0,270.9,0,264.7V11.3
		C0,5.1,5.1,0,11.3,0h266.3c6.3,0,11.3,5.1,11.3,11.3v253.3C289,270.9,283.9,276,277.7,276z"/>
	<g clip-path="url(#SVGID_2_)">
		<g>
			<path fill="#007C8E" d="M106.4,115c0-2.8,2-6.2,4.4-7.6l23.6-13.6c2.4-1.4,2.4-3.7,0-5.1L115.8,78c-2.4-1.4-6.3-1.4-8.8,0
				l-23,13.3c-2.4,1.4-4.4,4.8-4.4,7.6v19.7c0,2.8,2,6.2,4.4,7.6l18,10.4c2.4,1.4,4.4,0.3,4.4-2.5L106.4,115z"/>
			<path fill="#007C8E" d="M142.7,83.9c2.4,1.4,6.3,1.4,8.8,0l17.3-10c2.4-1.4,2.4-3.7,0-5.1l-18.6-10.7c-2.4-1.4-6.3-1.4-8.8,0
				l-17.3,10c-2.4,1.4-2.4,3.7,0,5.1L142.7,83.9z"/>
			<path fill="#007C8E" d="M179.5,119.8c0-2.8-2-6.2-4.4-7.6l-23.6-13.6c-2.4-1.4-6.3-1.4-8.8,0l-23.6,13.6
				c-2.4,1.4-4.4,4.8-4.4,7.6v19c0,2.8,2,6.2,4.4,7.6l22.3,12.9c2.4,1.4,6.3,1.4,8.8,0l24.9-14.4c2.4-1.4,4.4-4.8,4.4-7.6V119.8z"/>
			<path fill="#007C8E" d="M185.8,78.7c-2.4-1.4-6.3-1.4-8.8,0l-17.3,10c-2.4,1.4-2.4,3.7,0,5.1l23.6,13.6c2.4,1.4,4.4,4.8,4.4,7.6
				v17.5c0,2.8,2,3.9,4.4,2.5l15.4-8.9c2.4-1.4,4.4-4.8,4.4-7.6V98.8c0-2.8-2-6.2-4.4-7.6L185.8,78.7z"/>
		</g>
		<g>
			<defs>
				<rect id="SVGID_4_" x="33.4" y="21.8" width="112.4" height="152.8"/>
			</defs>
			<clipPath id="SVGID_5_">
				<use xlink:href="#SVGID_4_"  overflow="visible"/>
			</clipPath>
			<g clip-path="url(#SVGID_5_)">
				<path fill="#00A5BD" d="M106.4,115c0-2.8,2-6.2,4.4-7.6l23.6-13.6c2.4-1.4,2.4-3.7,0-5.1L115.8,78c-2.4-1.4-6.3-1.4-8.8,0
					l-23,13.3c-2.4,1.4-4.4,4.8-4.4,7.6v19.7c0,2.8,2,6.2,4.4,7.6l18,10.4c2.4,1.4,4.4,0.3,4.4-2.5L106.4,115z"/>
				<path fill="#00A5BD" d="M142.7,83.9c2.4,1.4,6.3,1.4,8.8,0l17.3-10c2.4-1.4,2.4-3.7,0-5.1l-18.6-10.7c-2.4-1.4-6.3-1.4-8.8,0
					l-17.3,10c-2.4,1.4-2.4,3.7,0,5.1L142.7,83.9z"/>
				<path fill="#00A5BD" d="M179.5,119.8c0-2.8-2-6.2-4.4-7.6l-23.6-13.6c-2.4-1.4-6.3-1.4-8.8,0l-23.6,13.6
					c-2.4,1.4-4.4,4.8-4.4,7.6v19c0,2.8,2,6.2,4.4,7.6l22.3,12.9c2.4,1.4,6.3,1.4,8.8,0l24.9-14.4c2.4-1.4,4.4-4.8,4.4-7.6V119.8z"
					/>
				<path fill="#00A5BD" d="M185.8,78.7c-2.4-1.4-6.3-1.4-8.8,0l-17.3,10c-2.4,1.4-2.4,3.7,0,5.1l23.6,13.6c2.4,1.4,4.4,4.8,4.4,7.6
					v17.5c0,2.8,2,3.9,4.4,2.5l15.4-8.9c2.4-1.4,4.4-4.8,4.4-7.6V98.8c0-2.8-2-6.2-4.4-7.6L185.8,78.7z"/>
			</g>
		</g>
	</g>
</g>
</svg>
