<?xml version="1.0" encoding="utf-8"?>
<!-- Generator: Adobe Illustrator 19.2.1, SVG Export Plug-In . SVG Version: 6.00 Build 0)  -->
<svg version="1.1" id="holy-name-manchester" xmlns="http://www.w3.org/2000/svg" xmlns:xlink="http://www.w3.org/1999/xlink"
	 x="0px" y="0px" viewBox="0 0 115.5 21.75" enable-background="new 0 0 115.5 21.75" xml:space="preserve">
<rect fill="#1E1E1E" width="115.5" height="21.75"/>
<g>
	<path fill="#FFFFFF" d="M10.2544,10.3911H6.7886v3.8975c0,0.2041-0.2041,0.312-0.396,0.312c-0.2036,0-0.3955-0.1079-0.3955-0.312
		V6.1211c0-0.2036,0.1919-0.2876,0.3955-0.2876c0.1919,0,0.396,0.084,0.396,0.2876V9.707h3.4658V6.1211
		c0-0.2036,0.1919-0.2876,0.396-0.2876c0.1919,0,0.396,0.084,0.396,0.2876v8.1675c0,0.2041-0.2041,0.312-0.396,0.312
		c-0.2041,0-0.396-0.1079-0.396-0.312V10.3911z"/>
	<path fill="#FFFFFF" d="M16.9863,11.0986v1.3071c0,1.1875-1.0674,2.2788-2.2905,2.2788c-1.2114,0-2.2666-1.0796-2.2666-2.2788
		v-1.3071c0-1.1992,1.0195-2.2427,2.2666-2.2427C15.9189,8.856,16.9863,9.8633,16.9863,11.0986z M16.207,11.0986
		c0-0.7676-0.6719-1.5234-1.5112-1.5234s-1.4873,0.7559-1.4873,1.5234v1.3071c0,0.8037,0.6597,1.5591,1.4873,1.5591
		c0.8394,0,1.5112-0.7554,1.5112-1.5591V11.0986z"/>
	<path fill="#FFFFFF" d="M19.1484,5.7373v8.5513c0,0.1563-0.1675,0.312-0.3955,0.312c-0.2158,0-0.3838-0.1558-0.3838-0.312V5.7373
		c0-0.168,0.168-0.2876,0.3838-0.2876C18.981,5.4497,19.1484,5.5693,19.1484,5.7373z"/>
	<path fill="#FFFFFF" d="M20.2051,9.3354c-0.0244-0.0361-0.0361-0.0718-0.0361-0.1079c0-0.2041,0.2759-0.3716,0.4795-0.3716
		c0.1201,0,0.2402,0.0479,0.2759,0.1675l1.6431,4.4136l1.5474-4.4136c0.0479-0.1196,0.1558-0.1675,0.2637-0.1675
		c0.1919,0,0.48,0.1558,0.48,0.3838c0,0.0239,0,0.0718-0.0239,0.0957l-1.8589,5.0371c-0.48,1.2954-1.0796,3.0103-2.4351,3.0103
		c-0.2036,0-0.3599-0.0835-0.3599-0.3477c0-0.1797,0.0601-0.3599,0.2402-0.3599c0.7554,0,1.439-1.0674,1.7388-2.3145L20.2051,9.3354
		z"/>
	<path fill="#FFFFFF" d="M32.4785,14.145l-3.334-6.4888v6.6323c0,0.2041-0.2041,0.312-0.396,0.312
		c-0.2036,0-0.3955-0.1079-0.3955-0.312V6.1333c0-0.2158,0.1919-0.2998,0.3955-0.2998c0.2881,0,0.4678,0.252,0.624,0.5518
		l3.2378,6.3804V6.1211c0-0.2036,0.1919-0.2876,0.396-0.2876c0.1919,0,0.396,0.084,0.396,0.2876v8.1675
		c0,0.2041-0.2041,0.312-0.396,0.312C32.7783,14.6006,32.5986,14.3848,32.4785,14.145z"/>
	<path fill="#FFFFFF" d="M38.8628,11.1704v3.1182c0,0.1802-0.1558,0.312-0.3838,0.312c-0.2036,0-0.3599-0.1318-0.3599-0.312v-0.5273
		c-0.4194,0.4795-1.0073,0.9233-1.811,0.9233c-0.9111,0-1.6309-0.5039-1.6309-1.583c0-1.3076,1.1274-1.6431,2.7944-1.6431h0.6118
		v-0.2881c0-0.7676-0.3838-1.6309-1.4155-1.6309c-0.8032,0-1.0913,0.3477-1.2832,0.3477c-0.2041,0-0.312-0.2397-0.312-0.4199
		c0-0.3115,0.8516-0.6113,1.6191-0.6113C38.2993,8.856,38.8628,9.9712,38.8628,11.1704z M38.0835,11.998h-0.5039
		c-1.1035,0-2.123,0.1079-2.123,1.0313c0,0.6958,0.4561,0.9956,1.0435,0.9956c0.7676,0,1.5835-0.7197,1.5835-1.2593V11.998z"/>
	<path fill="#FFFFFF" d="M43.8906,11.0625c0-0.8633-0.6235-1.4873-1.3672-1.4873c-0.6953,0-1.415,0.5518-1.415,1.5234v3.1899
		c0,0.1563-0.1797,0.312-0.396,0.312c-0.2158,0-0.3838-0.1558-0.3838-0.312V9.2153c0-0.1675,0.168-0.2876,0.3838-0.2876
		c0.2041,0,0.3721,0.1201,0.3721,0.2876v0.5518c0.2637-0.4678,0.8037-0.9111,1.5952-0.9111s1.415,0.4917,1.7031,1.1992
		c0.4194-0.8154,1.127-1.1992,1.8228-1.1992c1.0313,0,2.0151,0.8154,2.0151,2.2427v3.1899c0,0.1563-0.168,0.312-0.396,0.312
		c-0.2041,0-0.3838-0.1558-0.3838-0.312v-3.1899c0-1.0078-0.7075-1.5234-1.3672-1.5234c-0.6958,0-1.4033,0.5757-1.4033,1.4756v3.25
		c0,0.2158-0.2036,0.2998-0.396,0.2998c-0.1797,0-0.3838-0.084-0.3838-0.2998V11.0625z"/>
	<path fill="#FFFFFF" d="M54.0063,11.0386c0,0.9233-0.5156,0.9595-1.0435,0.9595h-2.7104v0.4438
		c0,0.9595,0.7676,1.5591,1.8228,1.5591c0.9478,0,1.1758-0.48,1.4395-0.48c0.1919,0,0.3359,0.228,0.3359,0.3721
		c0,0.2876-0.6836,0.7915-1.7993,0.7915c-1.5112,0-2.5786-0.9116-2.5786-2.2788v-1.3433c0-1.1992,1.0317-2.2065,2.291-2.2065
		C52.9507,8.856,54.0063,9.7671,54.0063,11.0386z M52.6509,11.4224c0.48,0,0.6001-0.0718,0.6001-0.4077
		c0-0.7676-0.6118-1.5112-1.4995-1.5112c-0.8276,0-1.499,0.6597-1.499,1.4634v0.4556H52.6509z"/>
	<path fill="#FFFFFF" d="M61.1465,11.3145c-0.0957,0.1797-0.2158,0.252-0.3237,0.252s-0.2158-0.0723-0.3115-0.252l-1.979-3.8018
		v6.7759c0,0.2041-0.2041,0.312-0.396,0.312c-0.2036,0-0.3955-0.1079-0.3955-0.312V6.2173c0-0.2881,0.1919-0.3838,0.3955-0.3838
		c0.2881,0,0.48,0.252,0.6357,0.5518l2.063,3.9814l2.063-3.9814c0.1558-0.2998,0.3477-0.5518,0.6353-0.5518
		c0.2163,0,0.396,0.0957,0.396,0.3838v8.0713c0,0.2041-0.1919,0.312-0.396,0.312c-0.1919,0-0.3955-0.1079-0.3955-0.312V7.5483
		L61.1465,11.3145z"/>
	<path fill="#FFFFFF" d="M69.3901,11.1704v3.1182c0,0.1802-0.1558,0.312-0.3838,0.312c-0.2036,0-0.3599-0.1318-0.3599-0.312v-0.5273
		c-0.4194,0.4795-1.0073,0.9233-1.811,0.9233c-0.9111,0-1.6309-0.5039-1.6309-1.583c0-1.3076,1.1274-1.6431,2.7944-1.6431h0.6118
		v-0.2881c0-0.7676-0.3838-1.6309-1.4155-1.6309c-0.8032,0-1.0913,0.3477-1.2832,0.3477c-0.2041,0-0.312-0.2397-0.312-0.4199
		c0-0.3115,0.8516-0.6113,1.6191-0.6113C68.8267,8.856,69.3901,9.9712,69.3901,11.1704z M68.6108,11.998h-0.5039
		c-1.1035,0-2.123,0.1079-2.123,1.0313c0,0.6958,0.4561,0.9956,1.0435,0.9956c0.7676,0,1.5835-0.7197,1.5835-1.2593V11.998z"/>
	<path fill="#FFFFFF" d="M71.6357,14.2886c0,0.1563-0.1797,0.312-0.396,0.312c-0.2275,0-0.3838-0.1558-0.3838-0.312V9.2153
		c0-0.1675,0.1563-0.2876,0.3838-0.2876c0.1919,0,0.3599,0.1201,0.3599,0.2876v0.5518c0.252-0.4678,0.8037-0.9111,1.6074-0.9111
		c1.1514,0,2.1348,1.0073,2.1348,2.2427v3.1899c0,0.2041-0.2041,0.312-0.396,0.312c-0.1797,0-0.3838-0.1079-0.3838-0.312v-3.1899
		c0-0.7676-0.6714-1.5234-1.499-1.5234c-0.7075,0-1.4272,0.564-1.4272,1.5234V14.2886z"/>
	<path fill="#FFFFFF" d="M76.6045,12.4058v-1.2832c0-1.2715,0.7197-2.2666,2.3145-2.2666c1.0195,0,1.6914,0.4556,1.6914,0.7793
		c0,0.168-0.1563,0.3838-0.3481,0.3838c-0.2275,0-0.4316-0.4438-1.3071-0.4438c-1.0435,0-1.5713,0.5879-1.5713,1.5474v1.2832
		c0,0.9717,0.5278,1.5591,1.5835,1.5591c0.9233,0,1.1152-0.4556,1.355-0.4556c0.2158,0,0.3599,0.2036,0.3599,0.3838
		c0,0.3237-0.6958,0.7915-1.751,0.7915C77.3359,14.6846,76.6045,13.7129,76.6045,12.4058z"/>
	<path fill="#FFFFFF" d="M82.5195,14.2886c0,0.1563-0.1797,0.312-0.396,0.312c-0.2158,0-0.3838-0.1558-0.3838-0.312V5.7373
		c0-0.168,0.168-0.2876,0.3838-0.2876c0.2163,0,0.396,0.1196,0.396,0.2876v4.0298c0.252-0.4678,0.7915-0.9111,1.583-0.9111
		c1.1514,0,2.123,1.0073,2.123,2.2427v3.1899c0,0.2041-0.1919,0.312-0.396,0.312c-0.1797,0-0.3838-0.1079-0.3838-0.312v-3.1899
		c0-0.7676-0.6714-1.5234-1.4868-1.5234c-0.708,0-1.4395,0.564-1.4395,1.5234V14.2886z"/>
	<path fill="#FFFFFF" d="M92.0098,11.0386c0,0.9233-0.5156,0.9595-1.0435,0.9595h-2.7104v0.4438
		c0,0.9595,0.7676,1.5591,1.8228,1.5591c0.9478,0,1.1753-0.48,1.4395-0.48c0.1919,0,0.3359,0.228,0.3359,0.3721
		c0,0.2876-0.6836,0.7915-1.7993,0.7915c-1.5112,0-2.5786-0.9116-2.5786-2.2788v-1.3433c0-1.1992,1.0317-2.2065,2.291-2.2065
		C90.9541,8.856,92.0098,9.7671,92.0098,11.0386z M90.6543,11.4224c0.48,0,0.5996-0.0718,0.5996-0.4077
		c0-0.7676-0.6113-1.5112-1.499-1.5112c-0.8276,0-1.499,0.6597-1.499,1.4634v0.4556H90.6543z"/>
	<path fill="#FFFFFF" d="M95.9224,13.1733c0-1.5952-2.9624-0.6958-2.9624-2.6865c0-0.7676,0.5273-1.6309,1.895-1.6309
		c0.7915,0,1.6069,0.2998,1.6069,0.5874c0,0.1318-0.1318,0.4077-0.3237,0.4077s-0.564-0.3354-1.2715-0.3354
		c-0.8872,0-1.1992,0.5396-1.1992,0.9351c0,1.3677,2.9741,0.5039,2.9741,2.6865c0,0.9478-0.7075,1.5474-1.9307,1.5474
		c-1.1274,0-1.8828-0.5039-1.8828-0.8638c0-0.1558,0.1196-0.3594,0.2754-0.3594c0.2642,0,0.5039,0.5635,1.5835,0.5635
		C95.5986,14.0249,95.9224,13.6289,95.9224,13.1733z"/>
	<path fill="#FFFFFF" d="M98.5635,12.8374c0,0.7798,0.2876,1.0557,1.1152,1.0557h0.3359c0.2158,0,0.3599,0.168,0.3599,0.3477
		c0,0.1919-0.144,0.3599-0.3599,0.3599h-0.3359c-1.2354,0-1.895-0.5278-1.895-1.7632V6.5171c0-0.168,0.2041-0.2881,0.3838-0.2881
		c0.1919,0,0.396,0.1201,0.396,0.2881v2.4106h1.5469c0.1563,0,0.2759,0.1558,0.2759,0.3237s-0.1196,0.3237-0.2759,0.3237h-1.5469
		V12.8374z"/>
	<path fill="#FFFFFF" d="M105.5815,11.0386c0,0.9233-0.5156,0.9595-1.0435,0.9595h-2.7104v0.4438
		c0,0.9595,0.7676,1.5591,1.8228,1.5591c0.9478,0,1.1758-0.48,1.4395-0.48c0.1919,0,0.3359,0.228,0.3359,0.3721
		c0,0.2876-0.6836,0.7915-1.7993,0.7915c-1.5112,0-2.5786-0.9116-2.5786-2.2788v-1.3433c0-1.1992,1.0317-2.2065,2.291-2.2065
		C104.5259,8.856,105.5815,9.7671,105.5815,11.0386z M104.2261,11.4224c0.48,0,0.6001-0.0718,0.6001-0.4077
		c0-0.7676-0.6118-1.5112-1.4995-1.5112c-0.8276,0-1.499,0.6597-1.499,1.4634v0.4556H104.2261z"/>
	<path fill="#FFFFFF" d="M109.1226,9.5752c-0.7915,0-1.583,0.6597-1.583,1.751v2.9624c0,0.1563-0.168,0.312-0.396,0.312
		c-0.2158,0-0.3838-0.1558-0.3838-0.312V9.2153c0-0.1675,0.168-0.2876,0.3838-0.2876c0.2041,0,0.3721,0.1201,0.3721,0.2876v0.5879
		c0.2637-0.48,0.8276-0.9473,1.6069-0.9473h0.4199c0.168,0,0.312,0.1675,0.312,0.3594s-0.144,0.3599-0.312,0.3599H109.1226z"/>
</g>
</svg>
