<?xml version="1.0" standalone="no"?>
<!DOCTYPE svg PUBLIC "-//W3C//DTD SVG 20010904//EN"
 "http://www.w3.org/TR/2001/REC-SVG-20010904/DTD/svg10.dtd">
<svg version="1.0" xmlns="http://www.w3.org/2000/svg"
 width="482.000000pt" height="481.000000pt" viewBox="0 0 482.000000 481.000000"
 preserveAspectRatio="xMidYMid meet">

<g transform="translate(0.000000,481.000000) scale(0.100000,-0.100000)"
fill="#000000" stroke="none">
<path d="M2142 4585 c-649 -87 -1206 -433 -1563 -970 -138 -206 -260 -499
-313 -746 -60 -279 -64 -599 -11 -874 82 -432 287 -817 605 -1135 378 -380
853 -597 1399 -640 626 -50 1283 202 1726 661 630 653 796 1605 424 2432 -273
607 -831 1070 -1479 1226 -169 40 -272 53 -480 56 -138 3 -238 0 -308 -10z
m583 -49 c377 -55 763 -227 1054 -470 116 -97 297 -290 377 -402 270 -379 404
-795 404 -1254 0 -579 -213 -1099 -620 -1511 -297 -300 -635 -490 -1052 -589
-283 -67 -662 -67 -953 0 -794 183 -1415 791 -1611 1578 -156 629 -24 1286
364 1807 84 113 269 304 374 387 352 278 744 432 1198 472 84 7 364 -4 465
-18z"/>
<path d="M2310 4236 l0 -156 30 0 30 0 0 60 0 60 65 0 65 0 0 -59 c0 -58 1
-59 30 -63 17 -3 32 -2 35 0 3 3 5 72 5 154 l0 148 -35 0 -35 0 0 -60 0 -60
-60 0 -59 0 -3 63 c-3 62 -3 62 -35 65 l-33 3 0 -155z"/>
<path d="M1950 4331 c-58 -14 -107 -26 -108 -27 -8 -5 63 -287 73 -290 6 -3
55 6 110 19 101 23 116 34 101 72 -4 11 -19 10 -82 -6 -82 -22 -97 -17 -92 26
2 15 17 23 66 34 54 13 62 17 62 38 0 33 -18 37 -86 19 -61 -16 -74 -12 -74
26 0 12 16 21 54 32 30 9 61 16 70 16 21 0 31 26 20 49 -9 16 -15 16 -114 -8z"/>
<path d="M2714 4336 c-99 -43 -120 -183 -39 -255 95 -83 231 -49 265 66 40
132 -96 245 -226 189z m140 -76 c31 -30 29 -100 -3 -134 -33 -35 -89 -36 -128
-2 -22 19 -28 32 -28 66 0 35 6 47 34 72 28 25 39 29 69 24 20 -3 45 -15 56
-26z"/>
<path d="M3041 4238 c-10 -24 -37 -85 -60 -137 -22 -52 -40 -95 -38 -96 17
-14 51 -25 57 -18 5 4 23 43 41 87 36 86 42 85 55 -14 4 -27 9 -50 13 -50 3 0
30 16 60 35 30 19 56 33 58 31 2 -2 -12 -40 -32 -84 -19 -44 -35 -82 -35 -85
0 -3 14 -10 30 -16 26 -9 32 -8 37 7 4 9 30 71 60 136 29 66 53 121 53 122 0
2 -14 11 -31 20 -31 15 -32 15 -91 -27 -69 -48 -72 -46 -82 42 -6 52 -11 61
-36 74 -16 8 -32 15 -35 15 -3 0 -14 -19 -24 -42z"/>
<path d="M1655 4241 c-127 -31 -173 -176 -87 -269 65 -70 162 -64 240 13 l43
43 -26 57 c-14 32 -25 59 -25 61 0 9 -24 3 -71 -17 -49 -22 -61 -43 -38 -66 9
-9 19 -8 40 2 24 13 28 13 33 -1 11 -30 6 -44 -24 -59 -57 -30 -109 -16 -136
37 -34 66 11 138 87 138 33 0 40 4 45 25 4 14 5 28 3 30 -10 9 -57 13 -84 6z"/>
<path d="M3353 3992 c-44 -64 -83 -122 -86 -128 -4 -7 31 -37 89 -75 92 -60
97 -62 110 -44 8 10 14 22 14 25 0 4 -29 27 -64 51 l-64 44 15 28 c16 32 8 34
103 -30 33 -22 36 -22 48 -6 19 27 14 36 -43 76 -54 37 -55 38 -39 62 9 14 21
22 28 18 6 -3 37 -24 68 -45 l57 -38 15 22 c8 12 13 24 11 28 -3 4 -45 35 -94
69 l-89 61 -79 -118z"/>
<path d="M1337 4060 c-16 -5 -58 -28 -93 -51 l-64 -42 17 -27 c71 -109 150
-219 158 -220 22 0 135 91 151 122 60 115 -49 255 -169 218z m88 -84 c50 -50
43 -104 -21 -152 l-30 -24 -53 77 c-39 57 -49 79 -39 84 7 4 22 15 33 23 31
24 82 20 110 -8z"/>
<path d="M2130 3929 c-305 -57 -588 -206 -811 -429 -478 -477 -593 -1194 -288
-1790 191 -374 498 -637 898 -770 451 -150 945 -82 1345 184 368 245 612 639
671 1083 109 817 -448 1576 -1264 1722 -153 28 -400 28 -551 0z m585 -49 c305
-69 543 -198 753 -406 61 -61 112 -116 112 -122 0 -8 -47 -12 -145 -14 l-145
-3 58 -45 57 -45 -100 -5 c-80 -4 -100 -8 -100 -20 0 -9 11 -16 28 -18 l27 -3
0 -213 0 -214 -67 15 c-126 26 -256 27 -376 4 -59 -12 -112 -21 -118 -21 -5 0
-9 176 -9 458 l0 459 -25 23 c-17 16 -25 34 -25 57 0 23 -5 33 -15 33 -11 0
-15 -11 -15 -38 0 -26 -7 -45 -20 -57 -18 -17 -20 -31 -20 -172 0 -123 -3
-153 -14 -153 -21 0 -34 22 -38 64 -4 49 -28 62 -28 16 0 -54 -25 -29 -30 31
-4 39 -9 54 -20 54 -10 0 -16 -12 -18 -37 -3 -35 -4 -37 -28 -26 -18 9 -27 9
-36 0 -20 -20 -27 -14 -30 31 -4 60 -22 48 -28 -20 -5 -61 -30 -89 -30 -34 0
21 -5 31 -15 31 -11 0 -15 -12 -15 -44 0 -36 -5 -47 -25 -60 l-25 -16 0 157
c0 149 -1 158 -22 181 -14 14 -23 36 -23 55 0 22 -5 33 -17 35 -15 3 -18 -4
-18 -36 0 -28 -7 -45 -25 -62 l-25 -23 0 -464 0 -463 -34 0 c-28 0 -35 4 -38
23 -2 14 -10 22 -23 22 -13 0 -21 -8 -23 -22 -3 -20 -9 -23 -52 -23 -43 0 -49
3 -52 23 -2 14 -10 22 -23 22 -13 0 -21 -8 -23 -22 -2 -17 -10 -23 -27 -23
-17 0 -25 6 -27 23 -4 31 -42 30 -46 -1 -3 -21 -8 -23 -55 -20 -46 3 -52 6
-55 26 -5 30 -36 25 -40 -6 -3 -20 -8 -23 -40 -20 l-37 3 0 50 c0 49 -1 51
-73 119 l-73 70 -62 -62 c-35 -34 -71 -62 -82 -62 -12 0 -48 28 -85 66 l-65
66 53 101 c196 379 549 656 972 763 144 37 209 43 400 39 129 -3 199 -9 265
-25z m915 -590 c10 -19 8 -20 -97 -20 -92 0 -112 3 -133 20 l-25 20 122 0
c112 0 123 -2 133 -20z m-1168 -67 c43 -43 78 -81 78 -85 0 -5 -74 -8 -165 -8
-91 0 -165 3 -165 7 0 11 153 163 165 163 5 0 45 -35 87 -77z m1236 -35 c19
-19 14 -28 -13 -28 l-25 0 0 -170 0 -169 103 -3 c83 -2 102 -6 102 -18 0 -12
-19 -16 -102 -18 l-103 -3 0 -109 0 -110 125 0 c118 0 125 -1 125 -20 0 -19
-7 -20 -124 -20 l-124 0 -4 -25 c-3 -13 -3 -27 0 -30 3 -3 64 -5 135 -5 l130
0 -7 -107 c-19 -294 -95 -536 -242 -760 -91 -141 -119 -170 -199 -208 -40 -19
-81 -35 -91 -35 -10 0 -44 13 -74 30 -77 41 -152 41 -235 0 -33 -16 -69 -30
-80 -30 -11 0 -45 13 -75 30 -77 41 -152 41 -235 0 -33 -16 -69 -30 -80 -30
-11 0 -45 13 -75 30 -77 41 -152 41 -235 0 -33 -16 -69 -30 -80 -30 -11 0 -45
13 -75 30 -77 41 -152 41 -235 0 -33 -16 -69 -30 -81 -30 -12 0 -46 13 -77 30
-78 41 -149 41 -232 0 -33 -16 -69 -30 -79 -30 -11 0 -53 16 -93 36 -65 32
-81 46 -133 115 -178 237 -279 506 -299 794 -4 61 -5 129 -3 152 4 41 5 42 46
45 40 3 41 4 44 41 3 36 5 38 35 35 29 -3 32 -6 35 -41 l3 -38 107 3 107 3 3
38 c3 36 5 38 35 35 29 -3 32 -6 35 -40 3 -38 4 -38 48 -38 35 0 53 7 90 35
25 19 52 35 60 35 9 0 14 11 14 35 0 28 4 35 20 35 15 0 20 -7 20 -25 0 -25
13 -31 44 -19 11 4 16 19 16 45 0 32 3 39 20 39 17 0 20 -7 20 -40 l0 -40 55
0 55 0 0 40 c0 33 3 40 20 40 17 0 20 -7 20 -39 0 -26 5 -41 16 -45 31 -12 44
-6 44 19 0 18 5 25 20 25 16 0 20 -7 20 -30 0 -22 7 -33 29 -44 16 -9 42 -27
59 -41 30 -25 35 -26 149 -23 l118 3 3 65 c3 54 7 70 29 93 l27 27 33 -32 c30
-29 33 -37 33 -95 l0 -63 125 0 124 0 3 62 c3 58 5 63 36 81 50 29 145 46 259
47 102 0 235 -21 259 -41 8 -7 14 -41 16 -92 2 -53 7 -82 16 -85 9 -3 12 75
12 367 l0 371 198 0 c141 0 201 -3 210 -12z m-1128 -133 l0 -45 -190 0 -190 0
0 45 0 45 190 0 190 0 0 -45z m0 -160 l0 -85 -190 0 -190 0 0 85 0 85 190 0
190 0 0 -85z m-1570 -110 c0 -32 -2 -35 -29 -35 -29 0 -29 1 -20 32 5 18 9 34
9 35 0 2 9 3 20 3 16 0 20 -7 20 -35z m140 0 c0 -33 -2 -35 -35 -35 -33 0 -35
2 -35 35 0 33 2 35 35 35 33 0 35 -2 35 -35z m148 -2 c3 -32 2 -33 -37 -33
-40 0 -41 1 -41 36 0 35 1 35 38 32 34 -3 37 -6 40 -35z m142 1 c0 -35 -1 -35
-37 -32 -33 3 -37 6 -36 31 1 15 1 29 2 32 1 3 17 5 36 5 33 0 35 -2 35 -36z
m1571 -13 c-8 -5 -20 -7 -28 -4 -21 8 -15 13 15 13 20 0 23 -3 13 -9z m149
-11 c13 -8 13 -10 -2 -10 -9 0 -20 5 -23 10 -8 13 5 13 25 0z m-430 -35 c-7
-8 -16 -15 -21 -15 -5 0 -9 7 -9 15 0 9 9 15 21 15 18 0 19 -2 9 -15z m85 -5
c-3 -5 -15 -10 -26 -10 -11 0 -17 5 -14 10 3 6 15 10 26 10 11 0 17 -4 14 -10z
m200 0 c4 -6 -5 -10 -20 -10 -15 0 -24 4 -20 10 3 6 12 10 20 10 8 0 17 -4 20
-10z m215 0 c0 -5 -9 -10 -20 -10 -11 0 -20 5 -20 10 0 6 9 10 20 10 11 0 20
-4 20 -10z m-2220 -45 c0 -33 -2 -35 -35 -35 -33 0 -35 2 -35 35 0 33 2 35 35
35 33 0 35 -2 35 -35z m140 0 c0 -33 -2 -35 -35 -35 -33 0 -35 2 -35 35 0 33
2 35 35 35 33 0 35 -2 35 -35z m148 -2 c3 -32 2 -33 -37 -33 -40 0 -41 1 -41
36 0 35 1 35 38 32 34 -3 37 -6 40 -35z m142 1 c0 -35 -1 -35 -37 -32 -33 3
-37 6 -36 31 1 15 1 29 2 32 1 3 17 5 36 5 33 0 35 -2 35 -36z m285 -1374 c82
-41 149 -41 225 0 69 37 90 37 165 0 82 -41 149 -41 225 0 69 38 96 38 167 0
77 -41 146 -41 223 0 69 38 96 38 167 0 77 -41 146 -41 223 0 69 38 96 38 167
0 31 -16 66 -30 79 -30 13 0 24 -4 24 -10 0 -19 -47 -34 -110 -34 -52 -1 -74
-7 -112 -29 -59 -35 -104 -35 -171 1 -73 38 -153 38 -219 -1 -60 -35 -100 -34
-183 4 -57 27 -74 31 -117 26 -27 -4 -70 -18 -93 -32 -57 -33 -99 -32 -180 6
-57 27 -74 31 -117 26 -27 -4 -70 -18 -93 -32 -57 -33 -99 -32 -180 6 -57 27
-74 31 -117 26 -27 -4 -69 -18 -93 -31 l-43 -26 -56 43 c-30 23 -56 45 -56 50
0 4 12 7 28 7 15 1 52 14 82 30 69 37 90 37 165 0z m78 -187 c73 -39 153 -39
219 0 59 35 104 34 171 0 73 -39 153 -39 219 0 59 35 104 34 171 0 73 -39 153
-39 219 0 61 35 107 34 183 -3 36 -18 75 -30 100 -30 48 0 40 -7 -63 -50 l-72
-31 -48 28 c-67 40 -148 39 -216 -1 -64 -37 -108 -37 -172 0 -69 41 -149 41
-218 0 -64 -37 -108 -37 -172 0 -64 38 -150 40 -207 6 -21 -12 -44 -22 -50
-22 -18 0 -217 101 -217 110 0 29 91 25 153 -7z m273 -158 c18 -14 17 -15 -11
-9 -16 4 -39 11 -50 15 -17 6 -15 8 11 8 16 1 39 -6 50 -14z m417 -14 l56 -29
-60 -7 c-33 -4 -96 -4 -140 0 l-81 7 49 29 c63 37 106 37 176 0z m337 24 c0
-2 -19 -9 -42 -15 -24 -6 -51 -14 -62 -17 -26 -7 -11 16 18 27 22 9 86 13 86
5z"/>
<path d="M3320 2990 l0 -170 155 0 155 0 0 170 0 170 -155 0 -155 0 0 -170z"/>
<path d="M3320 2670 l0 -110 155 0 155 0 0 110 0 110 -155 0 -155 0 0 -110z"/>
<path d="M3320 2490 l0 -30 155 0 155 0 0 30 0 30 -155 0 -155 0 0 -30z"/>
<path d="M3427 2356 c-51 -19 -65 -32 -78 -76 -24 -80 16 -129 131 -160 54
-14 70 -26 70 -51 0 -43 -90 -44 -149 -3 -22 16 -24 16 -47 -12 -13 -16 -23
-32 -24 -36 0 -16 87 -51 140 -55 107 -10 170 34 170 119 0 55 -32 85 -125
117 -84 28 -105 52 -69 78 25 18 53 16 99 -7 21 -11 39 -19 40 -17 1 1 9 13
18 27 25 36 21 46 -20 63 -60 23 -114 28 -156 13z"/>
<path d="M1150 2165 l0 -195 45 0 45 0 0 195 0 195 -45 0 -45 0 0 -195z"/>
<path d="M1310 2320 l0 -39 58 -3 57 -3 3 -152 3 -153 39 0 40 0 0 155 0 155
60 0 60 0 0 40 0 40 -160 0 -160 0 0 -40z"/>
<path d="M1820 2320 l0 -39 58 -3 57 -3 3 -152 3 -153 39 0 40 0 0 155 0 155
60 0 60 0 0 40 0 40 -160 0 -160 0 0 -40z"/>
<path d="M2205 2178 c-43 -101 -80 -189 -82 -195 -4 -9 8 -13 39 -13 43 0 45
1 58 40 l13 40 87 0 87 0 16 -40 c15 -38 17 -40 60 -40 l45 0 -62 148 c-113
265 -99 242 -144 242 l-40 0 -77 -182z m160 -27 c6 -19 3 -21 -39 -21 -25 0
-47 3 -49 8 -2 4 7 32 20 62 l24 54 19 -41 c10 -22 21 -50 25 -62z"/>
<path d="M2590 2358 c0 -2 -1 -90 -3 -196 l-2 -192 43 0 42 0 0 58 c0 49 4 62
24 81 l24 22 58 -80 58 -81 53 0 54 0 -74 98 c-40 53 -77 103 -81 110 -5 8 19
41 70 95 l77 82 -49 3 -49 4 -82 -89 -83 -88 0 88 0 87 -40 0 c-22 0 -40 -1
-40 -2z"/>
<path d="M2990 2165 l0 -195 150 0 150 0 0 35 0 34 -107 3 -108 3 0 40 0 40
93 3 92 3 0 34 0 34 -92 3 -93 3 -3 37 -3 37 108 3 108 3 0 35 0 35 -147 3
-148 3 0 -196z"/>
<path d="M2190 1888 c-115 -33 -167 -168 -105 -274 45 -77 160 -108 245 -64
51 26 56 37 30 65 l-22 23 -32 -19 c-102 -62 -207 43 -151 151 27 51 86 65
147 34 29 -15 31 -14 54 7 13 12 24 25 24 29 0 13 -76 48 -115 53 -22 3 -56 1
-75 -5z"/>
<path d="M1631 1863 c-8 -15 -31 -68 -51 -118 -21 -49 -50 -116 -64 -147 l-26
-58 40 0 c36 0 41 3 54 35 l15 35 76 0 75 0 17 -35 c15 -31 21 -35 55 -35 21
0 38 3 37 8 0 4 -33 81 -73 172 l-72 165 -35 3 c-30 3 -37 -1 -48 -25z m83
-160 c7 -22 4 -23 -39 -23 -34 0 -46 4 -42 13 3 6 13 32 23 56 l17 44 17 -34
c10 -19 21 -44 24 -56z"/>
<path d="M2450 1715 l0 -175 40 0 40 0 0 175 0 175 -40 0 -40 0 0 -175z"/>
<path d="M2590 1855 l0 -35 55 0 55 0 0 -140 0 -140 40 0 40 0 0 140 0 140 50
0 50 0 0 35 0 35 -145 0 -145 0 0 -35z"/>
<path d="M2916 1878 c4 -7 36 -57 71 -112 60 -95 63 -102 63 -163 l0 -63 35 0
35 0 0 65 c0 64 2 68 65 166 36 55 65 104 65 109 0 6 -18 10 -40 10 -38 0 -40
-2 -81 -70 -23 -38 -43 -70 -44 -70 -1 0 -21 32 -44 70 l-42 70 -45 0 c-33 0
-43 -3 -38 -12z"/>
<path d="M3591 3810 c-57 -60 -101 -113 -99 -117 1 -5 36 -39 76 -77 l73 -70
22 23 22 23 -52 47 c-29 26 -53 52 -53 57 0 5 23 32 51 59 28 28 64 66 79 86
l29 36 -23 22 -23 21 -102 -110z"/>
<path d="M1083 3875 c-13 -9 -23 -21 -23 -27 0 -14 189 -218 203 -218 6 0 19
7 29 16 17 16 15 20 -45 87 -155 174 -139 160 -164 142z"/>
<path d="M888 3669 c-38 -39 -68 -75 -68 -79 0 -5 51 -51 113 -103 l112 -96
25 25 25 24 -37 31 c-33 27 -36 32 -25 50 11 18 19 20 74 16 56 -4 64 -2 85
20 19 20 20 25 8 33 -8 5 -36 10 -62 10 l-48 0 0 36 c0 46 -14 70 -50 89 -57
29 -79 21 -152 -56z m130 -11 c19 -19 14 -44 -14 -77 -31 -37 -35 -38 -71 -7
l-27 24 27 36 c29 37 62 47 85 24z"/>
<path d="M3810 3633 c-52 -41 -106 -83 -119 -92 l-24 -18 72 -91 c72 -91 72
-92 97 -76 15 11 21 21 16 28 -5 6 -28 35 -51 65 -40 51 -41 55 -25 72 25 28
35 24 80 -35 l40 -54 24 18 24 18 -43 56 c-43 57 -44 68 -12 85 15 8 26 0 66
-54 47 -62 49 -63 72 -48 12 8 23 18 23 20 0 7 -128 171 -138 176 -4 2 -50
-29 -102 -70z"/>
<path d="M734 3453 c-11 -10 -30 -34 -41 -53 -11 -19 -30 -51 -42 -72 l-22
-36 131 -76 c72 -42 133 -76 135 -76 13 0 95 172 95 199 0 52 -64 96 -106 73
-14 -8 -22 -4 -39 22 -25 38 -78 47 -111 19z m73 -69 c7 -19 -26 -94 -41 -94
-13 1 -46 24 -46 33 0 3 9 22 21 41 22 38 55 48 66 20z m123 -56 c0 -15 -49
-98 -58 -98 -4 0 -18 7 -30 16 l-23 16 22 36 c31 51 47 64 70 51 11 -5 19 -15
19 -21z"/>
<path d="M3995 3395 c-28 -27 -31 -54 -14 -121 11 -44 2 -74 -22 -74 -16 0
-49 64 -49 96 0 24 -5 33 -22 37 -29 8 -38 1 -38 -31 0 -47 20 -100 49 -131
37 -39 87 -42 127 -8 29 25 33 49 19 134 -6 46 -5 54 10 59 23 9 44 -18 52
-68 5 -34 9 -38 34 -38 24 0 29 4 29 24 0 38 -21 89 -48 119 -34 36 -92 38
-127 2z"/>
<path d="M580 3179 c-18 -32 -11 -55 32 -109 47 -59 46 -61 -43 -80 -51 -11
-59 -16 -69 -43 -6 -18 -7 -34 -1 -40 5 -5 69 -28 142 -52 l134 -43 12 26 c6
15 8 30 5 33 -4 4 -45 19 -92 34 l-85 28 40 13 c22 6 55 16 73 20 l33 9 -40
54 c-23 30 -39 56 -37 59 3 2 41 -8 86 -23 45 -15 83 -25 86 -22 3 2 6 17 7
32 2 26 -3 28 -136 75 -129 44 -138 46 -147 29z"/>
<path d="M4145 3150 c-40 -16 -50 -39 -48 -111 2 -51 -2 -70 -14 -80 -13 -11
-18 -10 -35 11 -16 19 -19 35 -16 72 5 43 3 47 -20 53 -31 8 -42 -7 -42 -60 0
-49 31 -120 58 -134 32 -17 77 -13 105 9 24 19 26 29 29 98 3 71 5 77 25 80
24 4 30 -10 35 -78 3 -30 7 -35 31 -38 22 -3 27 1 28 20 6 122 -54 192 -136
158z"/>
<path d="M4205 2860 c-55 -11 -115 -22 -132 -25 -28 -5 -33 -10 -33 -35 0 -35
4 -36 110 -16 41 8 76 13 78 12 1 -2 -34 -42 -78 -90 -66 -71 -80 -91 -74
-109 3 -12 8 -24 11 -27 4 -5 272 39 286 47 9 6 9 35 -2 51 -6 11 -20 11 -72
2 -35 -6 -72 -14 -83 -17 -28 -8 -18 8 59 94 56 63 69 83 67 106 -4 32 -2 32
-137 7z"/>
<path d="M612 2754 c-85 -24 -155 -44 -157 -46 -2 -2 -5 -16 -7 -32 -3 -28 4
-34 136 -113 76 -46 140 -82 142 -80 2 2 7 17 10 34 5 25 2 32 -14 37 -37 12
-44 31 -37 96 7 57 9 61 36 67 36 7 51 25 47 55 l-3 24 -153 -42z m14 -96 c-8
-42 -9 -42 -44 -24 -45 23 -47 34 -10 45 57 16 61 14 54 -21z"/>
<path d="M4087 2514 c-4 -4 -7 -56 -7 -116 l0 -108 30 0 30 0 0 81 0 80 33 -3
32 -3 -2 -67 -1 -68 28 0 c23 0 29 5 34 31 3 17 6 49 6 70 0 37 2 39 30 39
l30 0 0 -83 0 -83 28 2 27 1 0 114 0 114 -146 3 c-80 1 -148 -1 -152 -4z"/>
<path d="M655 2440 c-17 -19 -17 -21 1 -41 12 -13 19 -35 19 -61 0 -52 -38
-88 -93 -88 -73 0 -111 55 -86 126 13 36 12 40 -7 57 -28 22 -45 9 -60 -45
-29 -109 44 -208 153 -208 94 0 162 72 155 166 -2 32 -12 62 -26 82 -26 37
-32 39 -56 12z"/>
<path d="M4100 2225 c-26 -28 -51 -113 -43 -147 14 -58 83 -93 128 -64 13 8
36 39 52 68 19 37 34 53 48 53 29 0 32 -41 5 -77 l-22 -30 20 -21 c18 -18 23
-19 38 -6 39 32 56 118 32 162 -17 33 -39 46 -79 47 -41 0 -70 -25 -93 -81 -8
-20 -22 -42 -32 -49 -14 -12 -18 -12 -30 5 -16 22 -11 48 17 87 24 34 24 41 1
61 -17 16 -20 15 -42 -8z"/>
<path d="M695 1981 c-39 -32 -95 -80 -125 -108 -51 -47 -54 -52 -45 -79 l10
-29 158 -14 c87 -7 160 -11 163 -8 3 2 2 16 -1 30 -5 19 -15 26 -45 31 -36 6
-39 9 -58 65 l-20 59 28 28 c25 26 26 32 16 56 l-12 27 -69 -58z m0 -132 c4
-17 5 -33 2 -36 -3 -3 -25 -2 -49 2 l-43 8 35 28 c19 16 37 29 41 29 4 0 10
-14 14 -31z"/>
<path d="M4052 1975 c-56 -40 -83 -155 -46 -197 49 -54 104 -43 159 33 22 31
42 49 55 49 29 0 26 -41 -6 -79 -25 -30 -25 -32 -9 -57 l17 -26 25 24 c32 29
53 77 53 123 0 78 -96 116 -146 58 -87 -103 -83 -100 -98 -79 -18 22 -7 59 30
97 24 25 24 27 7 48 -17 20 -19 21 -41 6z"/>
<path d="M987 1233 c-58 -54 -106 -103 -106 -109 -1 -6 8 -19 19 -29 20 -18
21 -18 53 12 l32 31 44 -39 c36 -32 51 -39 86 -39 68 0 117 60 101 124 -6 25
-102 146 -116 146 -4 0 -55 -44 -113 -97z m142 -19 c26 -33 27 -70 2 -84 -26
-13 -66 2 -81 31 -10 18 -8 25 16 50 34 35 37 36 63 3z"/>
<path d="M3641 1245 l-66 -66 110 -104 110 -104 25 25 25 25 -35 29 -35 29 26
28 c61 65 66 118 15 169 -26 26 -42 34 -71 34 -32 0 -46 -9 -104 -65z m139
-25 c8 -15 7 -27 -5 -50 -23 -45 -42 -48 -78 -12 l-31 31 24 26 c29 31 75 34
90 5z"/>
<path d="M3497 1112 c-10 -10 -17 -22 -17 -26 0 -10 183 -226 191 -226 4 0 17
8 29 18 l22 18 -98 117 c-53 64 -100 117 -104 117 -4 0 -14 -8 -23 -18z"/>
<path d="M1216 1015 c-71 -41 -134 -76 -140 -79 -6 -2 -2 -13 11 -27 22 -23
23 -23 59 -6 l36 17 49 -36 c49 -35 50 -37 44 -78 -5 -36 -2 -43 19 -59 29
-20 20 -41 76 177 l34 129 -23 18 c-13 11 -26 19 -30 18 -3 0 -64 -34 -135
-74z m102 -52 c-14 -53 -19 -56 -53 -29 l-29 23 39 21 c53 28 55 28 43 -15z"/>
<path d="M3385 1026 c-19 -13 -18 -16 13 -65 l32 -52 -47 -29 c-26 -17 -50
-30 -55 -30 -4 0 -20 19 -34 43 -15 23 -28 44 -30 46 -6 7 -54 -22 -54 -32 0
-5 35 -65 77 -132 l78 -123 27 14 c32 16 33 22 15 49 -8 11 -22 32 -31 47
l-17 26 45 31 c24 17 49 31 55 31 6 0 22 -20 37 -45 14 -25 31 -45 37 -45 14
1 47 24 47 34 0 3 -24 43 -53 89 -29 45 -64 99 -76 120 -25 40 -37 45 -66 23z"/>
<path d="M1460 820 l-69 -137 25 -12 c36 -16 39 -15 59 29 10 22 21 40 25 40
20 0 41 -30 46 -65 10 -73 13 -81 39 -93 40 -18 42 -15 34 36 -12 70 -11 70
21 77 42 9 80 58 80 104 0 46 -27 74 -123 124 l-68 35 -69 -138z m151 27 c26
-17 34 -30 34 -52 0 -25 -4 -31 -27 -33 -29 -3 -88 22 -88 39 0 16 30 69 39
69 4 0 23 -10 42 -23z"/>
<path d="M3055 845 c-22 -8 -48 -24 -57 -36 -24 -28 -23 -91 1 -120 18 -22 26
-24 99 -21 63 2 81 -1 85 -13 13 -32 -48 -62 -102 -52 -25 5 -30 3 -36 -20 -7
-31 6 -43 50 -43 83 0 155 51 155 110 0 16 -11 41 -24 57 -23 27 -28 28 -101
26 -59 -2 -77 1 -82 12 -9 25 16 44 65 47 41 3 47 6 50 27 6 42 -32 51 -103
26z"/>
<path d="M1776 814 c-12 -31 -5 -41 34 -54 22 -7 40 -14 40 -15 0 -1 -16 -53
-35 -116 -36 -118 -35 -129 11 -129 17 0 25 16 54 110 18 61 38 110 45 110 7
0 26 -5 44 -11 37 -13 37 -13 46 23 7 26 5 27 -108 62 -63 20 -117 36 -120 36
-3 0 -8 -7 -11 -16z"/>
<path d="M2748 751 c-36 -9 -69 -19 -72 -22 -3 -3 8 -70 26 -148 l32 -142 30
3 c33 3 34 6 25 73 -6 46 35 46 83 0 24 -23 46 -35 65 -35 55 0 57 14 8 59
l-47 43 21 22 c39 41 23 124 -28 151 -36 18 -56 18 -143 -4z m120 -67 c17 -31
2 -53 -47 -68 -25 -8 -49 -11 -52 -7 -4 3 -10 23 -13 43 -7 41 -2 45 66 47 25
1 40 -4 46 -15z"/>
<path d="M2051 653 c-7 -48 -16 -115 -20 -148 -5 -33 -8 -60 -7 -61 0 -1 15
-4 33 -7 l32 -6 7 57 c3 31 9 75 13 96 l6 40 60 -105 c55 -95 63 -104 89 -104
l30 0 18 144 c20 154 18 164 -27 159 -17 -3 -22 -15 -32 -88 -6 -47 -12 -87
-12 -90 -1 -3 -27 40 -59 95 -51 90 -60 100 -88 103 l-32 3 -11 -88z"/>
<path d="M2411 713 c-23 -5 -24 -6 -17 -86 3 -45 6 -112 6 -149 l0 -68 83 0
c45 0 99 3 120 7 34 5 38 9 35 32 -3 26 -3 26 -85 23 l-83 -4 0 30 c0 34 17
42 93 42 47 0 48 1 45 28 -3 26 -5 27 -75 30 l-73 3 0 29 0 30 80 0 80 0 0 30
0 30 -92 -1 c-51 -1 -104 -4 -117 -6z"/>
</g>
</svg>
