<svg xmlns="http://www.w3.org/2000/svg" viewBox="0 0 199.45 152.68"><title>Items</title><path d="M173.65,80.12L159.14,44.81a6.55,6.55,0,0,0-6.06-4.06H104.91a6.55,6.55,0,0,0-6.06,4.06L84.34,80.12a6.55,6.55,0,0,1-8.55,3.57l-0.12-.05a6.55,6.55,0,0,1-3.57-8.55L90,31.58A6.55,6.55,0,0,1,96,27.52H162A6.55,6.55,0,0,1,168,31.58l17.88,43.52a6.55,6.55,0,0,1-3.57,8.55l-0.12.05A6.55,6.55,0,0,1,173.65,80.12Z" transform="translate(-29.36 -27.52)" style="fill:#ec1c24"/><path d="M185.89,75.09L168,31.58A6.55,6.55,0,0,0,162,27.52H128V40.75h25.1a6.55,6.55,0,0,1,6.06,4.06l14.51,35.31a6.55,6.55,0,0,0,8.55,3.57l0.12-.05A6.55,6.55,0,0,0,185.89,75.09Z" transform="translate(-29.36 -27.52)" style="fill:#b01117"/><path d="M29.54,88.7l16.61,83.87a9.46,9.46,0,0,0,9.28,7.62h147.3a9.46,9.46,0,0,0,9.28-7.62L228.62,88.7a9.46,9.46,0,0,0-9.28-11.3H38.82A9.46,9.46,0,0,0,29.54,88.7Zm36.12,79H65.48a9.46,9.46,0,0,1-9.27-7.58l-2.6-12.78A9.46,9.46,0,0,1,62.89,136h2.77a9.46,9.46,0,0,1,9.46,9.46v12.78A9.46,9.46,0,0,1,65.66,167.67Zm0-46H57.34A9.46,9.46,0,0,1,48,114l-2.46-12.78a9.46,9.46,0,0,1,9.29-11.25H65.66a9.46,9.46,0,0,1,9.46,9.46v12.78A9.46,9.46,0,0,1,65.66,121.63Zm46.54,46H99.42A9.46,9.46,0,0,1,90,158.21V145.43A9.46,9.46,0,0,1,99.42,136H112.2a9.46,9.46,0,0,1,9.46,9.46v12.78A9.46,9.46,0,0,1,112.2,167.67Zm0-46H99.42A9.46,9.46,0,0,1,90,112.17V99.39a9.46,9.46,0,0,1,9.46-9.46H112.2a9.46,9.46,0,0,1,9.46,9.46v12.78A9.46,9.46,0,0,1,112.2,121.63Zm46.54,46H146a9.46,9.46,0,0,1-9.46-9.46V145.43A9.46,9.46,0,0,1,146,136h12.78a9.46,9.46,0,0,1,9.46,9.46v12.78A9.46,9.46,0,0,1,158.74,167.67Zm0-46H146a9.46,9.46,0,0,1-9.46-9.46V99.39A9.46,9.46,0,0,1,146,89.93h12.78a9.46,9.46,0,0,1,9.46,9.46v12.78A9.46,9.46,0,0,1,158.74,121.63Zm33.92,46h-0.17a9.46,9.46,0,0,1-9.46-9.46V145.43a9.46,9.46,0,0,1,9.46-9.46h2.77a9.46,9.46,0,0,1,9.27,11.35l-2.6,12.78A9.46,9.46,0,0,1,192.66,167.67Zm8.15-46h-8.32a9.46,9.46,0,0,1-9.46-9.46V99.39a9.46,9.46,0,0,1,9.46-9.46h10.78a9.46,9.46,0,0,1,9.29,11.25L210.1,114A9.46,9.46,0,0,1,200.81,121.63Z" transform="translate(-29.36 -27.52)" style="fill:#aebec8"/><path d="M219.34,77.4H128V180.2h74.75a9.46,9.46,0,0,0,9.28-7.62L228.62,88.7A9.46,9.46,0,0,0,219.34,77.4ZM168.2,158.21a9.46,9.46,0,0,1-9.46,9.46H146a9.46,9.46,0,0,1-9.46-9.46V145.43A9.46,9.46,0,0,1,146,136h12.78a9.46,9.46,0,0,1,9.46,9.46v12.78Zm0-46a9.46,9.46,0,0,1-9.46,9.46H146a9.46,9.46,0,0,1-9.46-9.46V99.39A9.46,9.46,0,0,1,146,89.93h12.78a9.46,9.46,0,0,1,9.46,9.46v12.78Zm36.33,35.15-2.6,12.78a9.46,9.46,0,0,1-9.27,7.58h-0.17a9.46,9.46,0,0,1-9.46-9.46V145.43a9.46,9.46,0,0,1,9.46-9.46h2.77A9.46,9.46,0,0,1,204.53,147.31Zm8-46.13L210.1,114a9.46,9.46,0,0,1-9.29,7.67h-8.32a9.46,9.46,0,0,1-9.46-9.46V99.39a9.46,9.46,0,0,1,9.46-9.46h10.78A9.46,9.46,0,0,1,212.56,101.18Z" transform="translate(-29.36 -27.52)" style="fill:#81a0ae"/></svg>