<?xml version="1.0" encoding="utf-8"?>
<!-- Generator: Adobe Illustrator 19.2.1, SVG Export Plug-In . SVG Version: 6.00 Build 0)  -->
<svg version="1.1" id="Layer_1" xmlns="http://www.w3.org/2000/svg" xmlns:xlink="http://www.w3.org/1999/xlink" x="0px" y="0px"
	 width="289px" height="206.8px" viewBox="0 0 289 206.8" enable-background="new 0 0 289 206.8" xml:space="preserve">
<g display="none">
	<defs>
		<path id="SVGID_1_" d="M0,206V11.3C0,5.1,5.1,0,11.3,0h266.3c6.3,0,11.3,5.1,11.3,11.3V206H0z"/>
	</defs>
	<clipPath id="SVGID_2_" display="inline">
		<use xlink:href="#SVGID_1_"  overflow="visible"/>
	</clipPath>
	<linearGradient id="SVGID_3_" gradientUnits="userSpaceOnUse" x1="144.5" y1="276" x2="144.5" y2="-5.978109e-09">
		<stop  offset="0.3164" style="stop-color:#FFFFFF"/>
		<stop  offset="1" style="stop-color:#ADE1F9"/>
	</linearGradient>
	<path display="inline" clip-path="url(#SVGID_2_)" fill="url(#SVGID_3_)" d="M277.7,276H11.3C5.1,276,0,270.9,0,264.7V11.3
		C0,5.1,5.1,0,11.3,0h266.3c6.3,0,11.3,5.1,11.3,11.3v253.3C289,270.9,283.9,276,277.7,276z"/>
</g>
<g>
	<path fill="#6C97BB" d="M137,152.7l-29.6-9.5l-0.6-6.9c5.3-4.4,7.2-14.7,8.8-22.8c2.5-13.4-8.9-24.7-19.9-24.7
		c-11,0-22.5,11.3-19.9,24.7c1.8,9,3.5,18.4,8.8,22.8l-0.6,6.9l-29.2,9.5c-2,0.8-3.4,2.3-3.7,3.7h89.7
		C140.4,155,139,153.5,137,152.7z M95.5,150.5h0.3l-0.1,0.4L95.5,150.5z"/>
	<path fill="#6C7057" d="M234.9,152.7l-29.6-9.5l-0.6-6.9c5.3-4.4,7.2-14.7,8.8-22.8c2.5-13.4-8.9-24.7-19.9-24.7
		c-11,0-22.5,11.3-19.9,24.7c1.8,9,3.5,18.4,8.8,22.8l-0.6,6.9l-29.2,9.5c-2,0.8-3.4,2.3-3.7,3.7h89.7
		C238.3,155,236.9,153.5,234.9,152.7z M193.4,150.5h0.3l-0.1,0.4L193.4,150.5z"/>
	<g>
		<path fill="#703561" d="M204.8,151l-42.9-13.8l-0.9-10c7.7-6.4,10.5-21.4,12.7-33.1c3.7-19.5-12.9-35.9-28.8-35.9
			c-15.9,0-32.6,16.4-28.8,35.9c2.6,13.1,5,26.7,12.7,33.1l-0.9,10L85.4,151c-2.9,1.2-5,3.3-5.4,5.4h130.2
			C209.8,154.4,207.7,152.2,204.8,151z M144.7,147.8h0.4l-0.2,0.5L144.7,147.8z"/>
		<path opacity="0.2" fill="#273E49" d="M145,147.8L145,147.8L145,147.8v8.6h65.1c-0.4-2.1-2.5-4.2-5.4-5.4l-42.9-13.8l-0.9-10
			c7.7-6.4,10.5-21.4,12.7-33.1c3.7-19.4-12.8-35.7-28.7-35.9V147.8z"/>
	</g>
</g>
</svg>
