<svg xmlns="http://www.w3.org/2000/svg" xmlns:xlink="http://www.w3.org/1999/xlink" width="289" height="276" viewBox="0 0 289 276"><defs><style>.cls-1{isolation:isolate;}.cls-2{fill:url(#linear-gradient);}.cls-3{fill:#a0ce62;}.cls-4{fill:#fff350;}.cls-5{fill:#d7e8bd;}.cls-6{fill:#bbdebc;}.cls-11,.cls-6{mix-blend-mode:multiply;}.cls-7{fill:#d7e8f2;}.cls-8{fill:#6e757b;}.cls-9{fill:#ade1f9;}.cls-10{fill:#81a0ae;}.cls-11{fill:#52a4c5;opacity:0.4;}</style><linearGradient id="linear-gradient" x1="144.5" y1="276" x2="144.5" gradientUnits="userSpaceOnUse"><stop offset="0.32" stop-color="#fff"/><stop offset="1" stop-color="#ade1f9"/></linearGradient></defs><title>laundry</title><g class="cls-1"><g id="Layer_1" data-name="Layer 1"><rect class="cls-2" width="289" height="276" rx="11.34" ry="11.34"/><rect class="cls-3" x="157.45" y="31.96" width="28.69" height="34"/><rect class="cls-4" x="157.45" y="34.73" width="28.69" height="7.22"/><path class="cls-5" d="M175.52,41.18h0a4.15,4.15,0,0,0,3.12,2.27h0a4.15,4.15,0,0,1,2.3,7.07h0a4.15,4.15,0,0,0-1.19,3.67h0a4.15,4.15,0,0,1-6,4.37h0a4.15,4.15,0,0,0-3.86,0h0a4.15,4.15,0,0,1-6-4.37h0a4.15,4.15,0,0,0-1.19-3.67h0a4.15,4.15,0,0,1,2.3-7.07h0a4.15,4.15,0,0,0,3.12-2.27h0A4.15,4.15,0,0,1,175.52,41.18Z"/><polygon class="cls-6" points="171.62 31.96 171.62 34.73 171.62 41.95 171.62 65.96 186.14 65.96 186.14 41.95 186.14 34.73 186.14 31.96 171.62 31.96"/><rect class="cls-7" x="183.82" y="86.55" width="70.81" height="90.57"/><rect class="cls-8" x="183.82" y="173.83" width="70.81" height="3.29"/><rect class="cls-8" x="183.82" y="86.55" width="70.81" height="9.23"/><circle class="cls-9" cx="219.22" cy="133.9" r="20.17"/><path class="cls-10" d="M219.22,110.43a23.47,23.47,0,1,0,23.47,23.47A23.47,23.47,0,0,0,219.22,110.43Zm0,41.17a17.7,17.7,0,1,1,17.7-17.7A17.7,17.7,0,0,1,219.22,151.6Z"/><circle class="cls-7" cx="219.22" cy="90.95" r="3.02"/><circle class="cls-7" cx="229.65" cy="90.95" r="2.33"/><circle class="cls-7" cx="208.79" cy="90.95" r="2.33"/><path class="cls-8" d="M247.24,129.37h-9.88a5.23,5.23,0,0,0-5.21,5.21h0a5.23,5.23,0,0,0,5.21,5.21h9.88V129.37Z"/><polygon class="cls-11" points="219.34 86.55 219.34 95.79 219.34 173.84 219.34 177.12 254.62 177.12 254.62 173.84 254.62 95.79 254.62 86.55 219.34 86.55"/><rect class="cls-7" x="33.22" y="86.55" width="70.81" height="90.57"/><rect class="cls-8" x="33.22" y="173.83" width="70.81" height="3.29"/><rect class="cls-8" x="33.22" y="86.55" width="70.81" height="9.23"/><circle class="cls-9" cx="68.62" cy="133.9" r="20.17"/><path class="cls-10" d="M68.62,110.43A23.47,23.47,0,1,0,92.09,133.9,23.47,23.47,0,0,0,68.62,110.43Zm0,41.17a17.7,17.7,0,1,1,17.7-17.7A17.7,17.7,0,0,1,68.62,151.6Z"/><circle class="cls-7" cx="68.62" cy="90.95" r="3.02"/><circle class="cls-7" cx="79.05" cy="90.95" r="2.33"/><circle class="cls-7" cx="58.19" cy="90.95" r="2.33"/><path class="cls-8" d="M96.64,129.37H86.76a5.23,5.23,0,0,0-5.21,5.21h0a5.23,5.23,0,0,0,5.21,5.21h9.88V129.37Z"/><polygon class="cls-11" points="68.74 86.55 68.74 95.79 68.74 173.84 68.74 177.12 104.03 177.12 104.03 173.84 104.03 95.79 104.03 86.55 68.74 86.55"/><rect class="cls-7" x="98.24" y="65.83" width="91.37" height="116.87"/><rect class="cls-8" x="98.24" y="178.46" width="91.37" height="4.24"/><rect class="cls-8" x="98.24" y="65.83" width="91.37" height="11.91"/><circle class="cls-9" cx="143.92" cy="126.92" r="26.03"/><path class="cls-10" d="M143.92,96.64a30.28,30.28,0,1,0,30.28,30.28A30.28,30.28,0,0,0,143.92,96.64Zm0,53.12a22.84,22.84,0,1,1,22.84-22.84A22.84,22.84,0,0,1,143.92,149.76Z"/><circle class="cls-7" cx="143.92" cy="71.49" r="3.9"/><circle class="cls-7" cx="157.38" cy="71.49" r="3.01"/><circle class="cls-7" cx="130.46" cy="71.49" r="3.01"/><path class="cls-8" d="M180.07,121.08H167.33a6.75,6.75,0,0,0-6.73,6.73h0a6.75,6.75,0,0,0,6.73,6.73h12.75V121.08Z"/><polygon class="cls-11" points="144.07 65.83 144.07 77.74 144.07 178.46 144.07 182.7 189.61 182.7 189.61 178.46 189.61 77.74 189.61 65.83 144.07 65.83"/></g></g></svg>