<?xml version="1.0" encoding="utf-8"?>
<!-- Generator: Adobe Illustrator 20.0.0, SVG Export Plug-In . SVG Version: 6.00 Build 0)  -->
<svg version="1.1" id="Layer_1" xmlns="http://www.w3.org/2000/svg" xmlns:xlink="http://www.w3.org/1999/xlink" x="0px" y="0px"
	 viewBox="0 0 313.5 267" enable-background="new 0 0 313.5 267" xml:space="preserve">
<g>
	<g>
		<g>
			<path fill="#FFFFFF" d="M164.1,122.4h-15.3v-0.3l0,0v-13.9l0,0V87.4l0,0V74.1l0,0V48.2H121c-1.2,0-2,1.2-2,2.2V146c0,1,0.9,2,2,2
				h43v-25.6H164.1z"/>
		</g>
		<g>
			<path fill="#FFFFFF" d="M182.8,96.8c7.8-2.3,12.9-10,12.9-20.4c0-16.9-12.6-28.2-31.5-28.2H152v25.9h5.6c4.3,0,7.2,2.6,7.2,6.7
				c0,4-2.9,6.7-7.2,6.7H152v20.8h15.3v14.2V148c18.4-0.3,30.7-11.5,30.7-28.2C197.8,107.8,191.9,99.2,182.8,96.8"/>
		</g>
	</g>
	<g>
		<g>
			<path fill="#FFFFFF" d="M56.4,210.7H42.5v-28.2c0-0.5-0.4-0.9-0.9-0.9h-1.9c-0.5,0-0.9,0.4-0.9,0.9v30.9c0,0.5,0.4,0.9,0.9,0.9
				h16.6c0.5,0,0.9-0.4,0.9-0.9v-1.8C57.3,211,56.9,210.7,56.4,210.7"/>
		</g>
		<g>
			<path fill="#FFFFFF" d="M118,210.7h-14v-11.2h11.4c0.5,0,0.9-0.4,0.9-0.9v-1.8c0-0.5-0.4-0.9-0.9-0.9H104V185h14.1
				c0.5,0,0.9-0.4,0.9-0.9v-1.8c0-0.5-0.4-0.9-0.9-0.9h-16.9c-0.5,0-0.9,0.4-0.9,0.9v30.9c0,0.5,0.4,0.9,0.9,0.9H118
				c0.5,0,0.9-0.4,0.9-0.9v-1.8C118.9,211,118.5,210.7,118,210.7"/>
		</g>
		<g>
			<path fill="#FFFFFF" d="M135.1,185h6.6c8,0,12.8,4.8,12.8,12.8s-4.8,12.8-12.8,12.8h-6.6V185z M142.1,181.6h-9.7
				c-0.5,0-0.9,0.4-0.9,0.9v30.9c0,0.5,0.4,0.9,0.9,0.9h9.7c10,0,16.3-6.2,16.3-16.3C158.3,187.9,152,181.6,142.1,181.6"/>
		</g>
		<g>
			<path fill="#FFFFFF" d="M177.6,195.9c-3.6-1.5-6.7-2.8-6.7-6.1c0-2.6,2.4-5.2,6.5-5.2c3.7,0,6.1,2.4,6.1,2.4
				c0.2,0.2,0.4,0.3,0.7,0.2c0.3,0,0.5-0.2,0.6-0.4l1.1-1.6c0.2-0.3,0.2-0.8-0.1-1.1c-0.1-0.1-3.1-3.1-8.5-3.1
				c-6.3,0-10.1,4.5-10.1,8.9c0,5.5,4.6,7.5,8.7,9.3c3.8,1.6,7.1,3,7.1,6.8c0,3.1-2.5,5.2-6,5.2c-4.6,0-7.6-3.1-7.6-3.2
				c-0.2-0.2-0.4-0.3-0.6-0.3c-0.2,0-0.5,0.1-0.6,0.3l-1.3,1.5c-0.3,0.3-0.3,0.8,0,1.1c0.1,0.2,3.7,4.1,10.1,4.1
				c5.7,0,9.8-3.7,9.8-8.9C186.7,199.8,181.9,197.7,177.6,195.9"/>
		</g>
		<g>
			<path fill="#FFFFFF" d="M209.3,194.9h-6.7v-9h6.6c2.8,0,4.4,1.7,4.4,4.4C213.6,193.1,211.9,194.9,209.3,194.9 M209.7,209.7h-7.1
				v-10.4h7c3.2,0,5.3,2.1,5.3,5.3S212.9,209.7,209.7,209.7 M215.5,196.7c1.9-1.5,3-3.9,3-6.6c0-5.2-3.7-8.7-9.2-8.7h-10.6
				c-0.5,0-0.9,0.4-0.9,0.9v31c0,0.5,0.4,0.9,0.9,0.9h10.9c6.1,0,10.2-3.8,10.2-9.6C219.8,201.1,218.2,198.1,215.5,196.7"/>
		</g>
		<g>
			<path fill="#FFFFFF" d="M236.7,181.4h-3c-0.5,0-0.9,0.4-0.9,0.9v31c0,0.5,0.4,0.9,0.9,0.9h3c0.5,0,0.9-0.4,0.9-0.9v-31
				C237.5,181.8,237.2,181.4,236.7,181.4"/>
		</g>
		<g>
			<path fill="#FFFFFF" d="M256.2,185.9h5.8c7.4,0,11.8,4.4,11.8,11.9s-4.4,11.9-11.8,11.9h-5.8V185.9z M262.3,181.4h-10
				c-0.5,0-0.9,0.4-0.9,0.9v31c0,0.5,0.4,0.9,0.9,0.9h10c10.1,0,16.4-6.3,16.4-16.4C278.7,187.8,272.3,181.4,262.3,181.4"/>
		</g>
		<g>
			<path fill="#FFFFFF" d="M85.6,210.7h-14v-11.2H83c0.5,0,0.9-0.4,0.9-0.9v-1.8c0-0.5-0.4-0.9-0.9-0.9H71.6V185h14.1
				c0.5,0,0.9-0.4,0.9-0.9v-1.8c0-0.5-0.4-0.9-0.9-0.9H68.8c-0.5,0-0.9,0.4-0.9,0.9v30.9c0,0.5,0.4,0.9,0.9,0.9h16.7
				c0.5,0,0.9-0.4,0.9-0.9v-1.8C86.4,211,86,210.7,85.6,210.7"/>
		</g>
	</g>
</g>
</svg>
