<?xml version="1.0" encoding="utf-8"?>
<!-- Generator: Adobe Illustrator 16.0.0, SVG Export Plug-In . SVG Version: 6.00 Build 0)  -->
<!DOCTYPE svg PUBLIC "-//W3C//DTD SVG 1.1//EN" "http://www.w3.org/Graphics/SVG/1.1/DTD/svg11.dtd">
<svg version="1.1" id="Capa_1" xmlns="http://www.w3.org/2000/svg" xmlns:xlink="http://www.w3.org/1999/xlink" x="0px" y="0px"
	 width="283.46px" height="141.73px" viewBox="0 0 283.46 141.73" enable-background="new 0 0 283.46 141.73" xml:space="preserve">
<path d="M252.75,65.685c2.641-1.727,6.376-5.999,6.376-11.633c0-9.444-7.095-16.257-17.466-16.266H19.602l-0.001,34.498v29.795
	h16.683h198.39c3.263-0.014,9.643-0.096,13.215-0.509c6.622-0.768,11.899-4.872,14.605-10.289c-0.001-0.005,0-0.01-0.001-0.016
	h0.009c1.301-2.671,1.998-5.78,1.998-9.223C264.5,73.136,258.216,67.501,252.75,65.685"/>
<path fill="#FFFFFF" d="M93.591,85.397h4.905c2.671,0,4.384-1.705,4.384-4.224c0-1.947-1.375-3.172-2.568-3.571
	c0.575-0.375,1.393-1.305,1.393-2.538c0-2.063-1.554-3.547-3.829-3.547h-4.285V85.397z M95.483,77.011v-3.732h2.294
	c1.237,0,2.015,0.813,2.015,1.887c0,1.052-0.737,1.846-1.935,1.846H95.483z M95.483,83.634v-4.902h2.933
	c1.454,0,2.572,0.935,2.572,2.441c0,1.528-1.118,2.461-2.572,2.461H95.483z M106.152,85.397h1.892v-13.88h-1.892V85.397z
	 M112.272,85.397h3.586c4.486,0,7.357-2.893,7.357-6.938c0-4.008-2.671-6.941-7.357-6.941h-3.586V85.397z M114.165,83.634V73.279
	h1.871c3.213,0,5.268,1.984,5.268,5.18c0,3.189-2.076,5.176-5.268,5.176H114.165z M137.469,85.633c2.811,0,4.744-1.288,5.84-3.289
	l-1.654-0.852c-0.736,1.367-2.134,2.358-4.186,2.358c-2.892,0-4.905-2.24-4.905-5.393c0-3.156,2.055-5.396,4.843-5.396
	c2.154,0,3.431,0.95,4.128,2.4l1.655-0.853c-0.917-1.983-2.972-3.332-5.721-3.332c-4.128,0-6.817,3.133-6.817,7.18
	C130.652,82.485,133.302,85.633,137.469,85.633 M150.129,85.633c3.031,0,5.162-2.297,5.162-5.193s-2.131-5.194-5.162-5.194
	c-3.032,0-5.143,2.298-5.143,5.194S147.097,85.633,150.129,85.633 M150.129,84.028c-1.895,0-3.331-1.484-3.331-3.588
	c0-2.103,1.437-3.59,3.331-3.59c1.894,0,3.351,1.487,3.351,3.59C153.479,82.543,152.022,84.028,150.129,84.028 M158.205,85.397
	h1.771v-4.701c0-2.638,1.119-3.846,2.473-3.846c1.218,0,2.034,0.774,2.034,2.439v6.107h1.774v-4.701
	c0-2.638,1.134-3.846,2.473-3.846c1.216,0,2.034,0.774,2.034,2.439v6.107h1.791v-6.029c0-2.539-1.113-4.122-3.586-4.122
	c-1.657,0-2.654,0.81-3.151,1.663c-0.496-1.05-1.372-1.663-2.95-1.663c-1.416,0-2.313,0.613-2.91,1.505l-0.26-1.269h-1.492V85.397z
	 M181.029,84.028c-1.975,0-3.311-1.584-3.311-3.588c0-2.005,1.357-3.59,3.331-3.59c1.953,0,3.31,1.585,3.31,3.59
	C184.359,82.444,183.023,84.028,181.029,84.028 M176.105,89.362h1.772v-5.253c0.479,0.653,1.595,1.524,3.312,1.524
	c2.951,0,4.963-2.297,4.963-5.193s-1.853-5.194-4.882-5.194c-1.497,0-2.815,0.792-3.452,1.642l-0.219-1.405h-1.494V89.362z
	 M193.547,84.028c-1.993,0-3.31-1.584-3.31-3.588c0-2.005,1.316-3.59,3.31-3.59c1.979,0,3.313,1.585,3.313,3.59
	C196.86,82.444,195.525,84.028,193.547,84.028 M193.369,85.633c1.496,0,2.791-0.751,3.352-1.563l0.257,1.327h1.513v-9.915h-1.513
	l-0.257,1.247c-0.499-0.65-1.637-1.483-3.352-1.483c-2.912,0-4.943,2.298-4.943,5.194S190.338,85.633,193.369,85.633
	 M202.221,85.397h1.774v-4.701c0-2.696,1.255-3.846,2.632-3.846s2.333,0.969,2.333,2.736v5.811h1.772v-5.971
	c0-2.539-1.232-4.181-3.727-4.181c-1.437,0-2.434,0.574-3.033,1.466l-0.258-1.229h-1.494V85.397z M217.014,89.362l5.043-13.88
	h-1.854l-2.65,7.536l-2.89-7.536h-1.894l3.866,9.795l-1.455,4.085H217.014z"/>
<path fill="#FFFFFF" d="M93.591,63.088h7.355v-1.762h-5.461V49.208h-1.894V63.088z M103.122,51.149h1.991V49.21h-1.991V51.149z
	 M103.24,63.088h1.77v-9.913h-1.77V63.088z M110.935,63.088h1.772l3.79-9.915h-1.815l-2.83,7.953l-2.871-7.953h-1.814
	L110.935,63.088z M122.597,63.325c2.174,0,3.689-1.128,4.445-2.675l-1.455-0.715c-0.657,1.152-1.592,1.784-2.909,1.784
	c-1.855,0-3.112-1.189-3.252-3.015h7.853c0.023-0.239,0.042-0.554,0.042-0.791c0-2.778-1.692-4.977-4.724-4.977
	c-3.091,0-4.942,2.298-4.942,5.193C117.655,61.066,119.446,63.325,122.597,63.325 M119.446,57.258
	c0.179-1.626,1.437-2.717,3.172-2.717c1.715,0,2.811,1.091,2.951,2.717H119.446z M130.134,63.088h1.772v-5.177
	c0-2.143,1.016-3.172,2.312-3.172c0.481,0,1.016,0.118,1.416,0.336l0.577-1.745c-0.356-0.196-0.995-0.394-1.613-0.394
	c-1.297,0-2.175,0.591-2.712,1.564l-0.258-1.327h-1.494V63.088z M143.392,61.719c-1.975,0-3.31-1.584-3.31-3.588
	c0-2.005,1.354-3.59,3.328-3.59c1.955,0,3.31,1.585,3.31,3.59C146.72,60.135,145.384,61.719,143.392,61.719 M138.468,67.053h1.77
	V61.8c0.478,0.653,1.597,1.525,3.312,1.525c2.951,0,4.963-2.298,4.963-5.194c0-2.897-1.851-5.195-4.883-5.195
	c-1.496,0-2.813,0.792-3.449,1.643l-0.221-1.406h-1.492V67.053z M155.93,63.325c3.031,0,5.162-2.298,5.162-5.194
	c0-2.897-2.131-5.195-5.162-5.195s-5.142,2.298-5.142,5.195C150.788,61.027,152.898,63.325,155.93,63.325 M155.93,61.719
	c-1.895,0-3.33-1.486-3.33-3.588s1.436-3.59,3.33-3.59c1.896,0,3.351,1.488,3.351,3.59S157.825,61.719,155.93,61.719
	 M168.509,63.325c3.032,0,5.163-2.298,5.163-5.194c0-2.897-2.131-5.195-5.163-5.195c-3.031,0-5.142,2.298-5.142,5.195
	C163.367,61.027,165.478,63.325,168.509,63.325 M168.509,61.719c-1.894,0-3.332-1.486-3.332-3.588s1.438-3.59,3.332-3.59
	c1.895,0,3.352,1.488,3.352,3.59S170.403,61.719,168.509,61.719 M176.586,63.088h1.771V48.911h-1.771V63.088z"/>
<path fill="#FFFFFF" d="M67.072,75.535c0-6.03-4.245-9.845-7.937-11.075c1.784-1.169,4.307-4.061,4.307-7.875
	c0-6.398-4.799-11.012-11.812-11.012h-7.755v36.203h21.847C66.601,79.969,67.072,77.863,67.072,75.535"/>
<path fill="#FFFFFF" d="M52.445,92.011c4.294-0.526,7.746-3.119,9.595-6.603H40.163V49.206c0,0-6.887,0.005-7.369,0.005v43.15
	c1.242,0,7.517,0.009,7.517,0.009C40.991,92.366,49.115,92.42,52.445,92.011"/>
<rect fill="none" width="283.46" height="141.73"/>
</svg>
