<svg id="Layer_1" data-name="Layer 1" xmlns="http://www.w3.org/2000/svg" xmlns:xlink="http://www.w3.org/1999/xlink" width="52.44" height="55.67" viewBox="0 0 52.44 55.67"><defs><style>.cls-1{fill:none;}.cls-2{fill:#5c487d;}.cls-3{fill:#ffea82;}.cls-4{clip-path:url(#clip-path);}</style><clipPath id="clip-path"><rect class="cls-1" x="26.89" y="25.88" width="11.36" height="10.81" rx="2.61" ry="2.61"/></clipPath></defs><title>logo</title><path class="cls-2" d="M35.37,33.13a31.89,31.89,0,0,0-.71-5,34.2,34.2,0,0,0-1.19-4.08,33.14,33.14,0,0,0-3.94-7.7,28.72,28.72,0,0,0-3.18-3.84,28.74,28.74,0,0,0-3.28,3.76,33.15,33.15,0,0,0-4.13,7.58,34.15,34.15,0,0,0-1.34,4.25,31.78,31.78,0,0,0-.81,5c-0.48,5.81.79,11.12,3.51,14.82h0.09a12.56,12.56,0,0,0,5.49,4.27A12.58,12.58,0,0,0,31.47,48h0C34.35,44.35,35.74,39,35.37,33.13Zm-13.67,1a27,27,0,0,1,.75-4.91,28.72,28.72,0,0,1,3.8-8.77,28.67,28.67,0,0,1,2.55,5.32,28.87,28.87,0,0,1,1,3.47,27,27,0,0,1,.64,4.93,21,21,0,0,1-.66,6.21A11.69,11.69,0,0,1,26,46.59l0,0-0.06,0a11.65,11.65,0,0,1-3.68-6.35A21,21,0,0,1,21.7,34.11Z"/><path class="cls-3" d="M26.21,5A25.1,25.1,0,0,1,40.3,9c1.83,1.28,4.9,4,4.9,7.78s-3.07,6.5-4.9,7.78a25.1,25.1,0,0,1-14.09,4,25.1,25.1,0,0,1-14.09-4c-1.83-1.28-4.9-4-4.9-7.78s3.07-6.5,4.9-7.78A25.1,25.1,0,0,1,26.21,5m0-5C13,0,2.26,7.5,2.26,16.75S13,33.5,26.21,33.5,50.16,26,50.16,16.75,39.44,0,26.21,0h0Z"/><path class="cls-2" d="M13.73,10.54c2.91,0,6.23,1.67,9.12,4.58l3.44,3.47,3.52-3.38c2.88-2.77,6.18-4.35,9-4.35a7.17,7.17,0,0,1,2.61.48c3.53,1.37,4.95,5.21,5.47,7.38A25.1,25.1,0,0,1,45.56,33.3c-5.51,11.54-19.62,17-19.62,17S11.1,45.33,6.63,32.8a23.62,23.62,0,0,1-1-14.62c0.59-2.15,2.1-6,5.67-7.24a7.13,7.13,0,0,1,2.42-.41h0m0-5a12.06,12.06,0,0,0-4.09.71C0.93,9.41-2.51,22,2,34.48,7.62,49.64,26,55.76,25.82,55.66l0.06,0h0c1.42,0.55,19.28-8.33,24.29-20.55,4.79-12.33,1.69-25-6.93-28.39a12.1,12.1,0,0,0-4.41-.82c-4.25,0-8.69,2.1-12.48,5.73-3.79-3.82-8.3-6-12.64-6h0Z"/><g class="cls-4"><path class="cls-2" d="M35.34,33a31.89,31.89,0,0,0-.71-5,34.2,34.2,0,0,0-1.19-4.08,33.14,33.14,0,0,0-3.94-7.7,28.72,28.72,0,0,0-3.18-3.84A28.74,28.74,0,0,0,23,16.17a33.15,33.15,0,0,0-4.13,7.58A34.15,34.15,0,0,0,17.57,28a31.78,31.78,0,0,0-.81,5c-0.48,5.81.79,11.12,3.51,14.82h0.09A12.56,12.56,0,0,0,25.85,52a12.58,12.58,0,0,0,5.59-4.15h0C34.32,44.23,35.71,38.89,35.34,33ZM21.67,34a27,27,0,0,1,.75-4.91,28.72,28.72,0,0,1,3.8-8.77,28.67,28.67,0,0,1,2.55,5.32,28.87,28.87,0,0,1,1,3.47A27,27,0,0,1,30.42,34a21,21,0,0,1-.66,6.21A11.69,11.69,0,0,1,26,46.47l0,0-0.06,0a11.65,11.65,0,0,1-3.68-6.35A21,21,0,0,1,21.67,34Z"/></g></svg>