<?xml version="1.0" encoding="utf-8"?>
<!-- Generator: Adobe Illustrator 19.2.1, SVG Export Plug-In . SVG Version: 6.00 Build 0)  -->
<svg version="1.1" id="Layer_1" xmlns="http://www.w3.org/2000/svg" xmlns:xlink="http://www.w3.org/1999/xlink" x="0px" y="0px"
	 width="289px" height="206.827px" viewBox="0 0 289 206.827" enable-background="new 0 0 289 206.827" xml:space="preserve">
<g>
	<defs>
		<path id="SVGID_1_" d="M0,206V11.348C0,5.081,5.076,0,11.339,0h266.323C283.924,0,289,5.081,289,11.348V206H0z"/>
	</defs>
	<clipPath id="SVGID_2_">
		<use xlink:href="#SVGID_1_"  overflow="visible"/>
	</clipPath>
	<linearGradient id="SVGID_3_" gradientUnits="userSpaceOnUse" x1="144.5" y1="276" x2="144.5" y2="-5.978109e-09">
		<stop  offset="0.3164" style="stop-color:#FFFFFF"/>
		<stop  offset="1" style="stop-color:#ADE1F9"/>
	</linearGradient>
	<path display="none" clip-path="url(#SVGID_2_)" fill="url(#SVGID_3_)" d="M277.661,276H11.339C5.076,276,0,270.924,0,264.661
		V11.339C0,5.076,5.076,0,11.339,0h266.323C283.924,0,289,5.076,289,11.339v253.323C289,270.924,283.924,276,277.661,276z"/>
	<g clip-path="url(#SVGID_2_)">
		<g>
			<path fill="#ADE1F9" d="M168.994,142.702v-34.911l-1.17-2.552l1.17-2.233v-3.828l-1.276-2.658l1.276-2.446v-3.296l-1.276-2.339
				l1.276-2.339v-3.367l-1.347-2.552l1.347-2.41c0,0,0-4.445,0-5.246c0-6.38-3.544-9.782-3.544-9.782l-8.79-11.412v-3.402h-7.727
				l-0.001,1.552l-0.001-1.552h-7.727v3.402l-8.79,11.412c0,0-3.544,3.402-3.544,9.782c0,0.801,0,5.246,0,5.246l1.347,2.41
				l-1.347,2.552v3.367l1.276,2.339l-1.276,2.339v3.296l1.276,2.446l-1.276,2.658v3.828l1.17,2.233l-1.17,2.552v34.911
				c0,0-0.142,2.694,1.559,5.954c1.701,3.261,3.828,7.656,8.223,7.656c4.367,0,6.496-2.378,10.279-2.407
				c3.783,0.03,5.912,2.407,10.279,2.407c4.395,0,6.521-4.395,8.223-7.656C169.136,145.396,168.994,142.702,168.994,142.702z"/>
			<path fill="#81D3F6" d="M148.934,47.929h7.726v3.402l8.79,11.412c0,0,3.544,3.402,3.544,9.782c0,0.801,0,5.246,0,5.246
				l-1.347,2.41l1.347,2.552v3.367l-1.276,2.339l1.276,2.339v3.296l-1.276,2.446l1.276,2.658v3.828l-1.17,2.233l1.17,2.552v34.911
				c0,0,0.142,2.694-1.559,5.954c-1.701,3.261-3.828,7.656-8.223,7.656s-6.521-2.41-10.349-2.41L148.934,47.929z"/>
			<path fill="#1B75BB" d="M157.509,49.063h-17.296v-8.331c0-1.428,1.158-2.585,2.585-2.585h12.125c1.428,0,2.585,1.158,2.585,2.585
				V49.063z"/>
			<path fill="#2B388F" d="M155.277,38.147h-6.557v10.916h8.79v-8.684C157.509,39.146,156.51,38.147,155.277,38.147z"/>
		</g>
	</g>
	<g clip-path="url(#SVGID_2_)">
		<path fill="#D7E8F2" d="M236.481,107.845c-2.648-0.568-5.275-0.491-7.711,0.114c-6.502-12.26-22.872-13.849-42.048-13.647
			c-24.717,0.261-44.724,3.39-44.463,28.107c0.261,24.717,20.472,40.939,45.19,40.677c14.277-0.151,26.925-5.777,35.021-15.259
			c8.213-2.192,24.061-8.055,26.86-21.11C251.155,118.212,245.402,109.758,236.481,107.845z M239.546,126.507
			c-1.262,5.884-6.262,9.707-11.235,12.112c2.284-5.104,3.524-10.862,3.457-17.146c-0.033-3.086-0.374-5.829-0.995-8.266
			C236.903,114.704,240.817,120.579,239.546,126.507z"/>
		
			<ellipse transform="matrix(0.9999 -0.0106 0.0106 0.9999 -1.1039 1.9776)" fill="#754C28" cx="186.539" cy="105.429" rx="32.742" ry="5.407"/>
		<path fill="#ADE1F9" d="M236.481,107.845c-2.648-0.568-5.275-0.491-7.711,0.114c-6.502-12.26-22.872-13.849-42.048-13.647
			c-0.118,0.001-0.234,0.004-0.351,0.005l0.722,68.784c0.118-0.001,0.239-0.003,0.356-0.004
			c14.277-0.151,26.925-5.777,35.021-15.259c8.213-2.192,24.061-8.055,26.86-21.11C251.155,118.212,245.402,109.758,236.481,107.845
			z M239.546,126.507c-1.262,5.884-6.262,9.707-11.235,12.112c2.284-5.104,3.524-10.862,3.457-17.146
			c-0.033-3.086-0.374-5.829-0.995-8.266C236.903,114.704,240.817,120.579,239.546,126.507z"/>
		<path fill="#3B2314" d="M186.482,100.022c-0.017,0-0.034,0.001-0.051,0.001l0.114,10.813c0.017,0,0.034,0,0.051,0
			c18.082-0.191,32.715-2.767,32.683-5.753C219.247,102.097,204.563,99.831,186.482,100.022z"/>
	</g>
	<g clip-path="url(#SVGID_2_)">
		<g>
			
				<rect x="94.316" y="100.021" transform="matrix(4.493454e-11 1 -1 4.493454e-11 255.8328 56.3931)" fill="#F3C636" width="10.808" height="112.184"/>
			<path fill="#009345" d="M147.717,146.75h-47.67h-0.112h-47.67c0,0-4.935,0.449-9.198,8.749c0,0,10.095-4.935,20.414-4.262
				c10.319,0.673,17.946,12.114,17.946,12.114s7.156-12.519,18.564-12.561c11.408,0.041,18.563,12.561,18.563,12.561
				s7.627-11.441,17.947-12.114c10.319-0.673,20.414,4.262,20.414,4.262C152.653,147.198,147.717,146.75,147.717,146.75z"/>
			
				<rect x="98.255" y="92.314" transform="matrix(4.454019e-11 1 -1 4.454019e-11 246.452 46.5937)" fill="#EE7CAE" width="3.349" height="108.417"/>
			<path fill="#FFF100" d="M149.392,141.329h-47.67h-0.112h-47.67c0,0-4.935,0.449-9.198,8.749c0,0,10.095-4.935,20.414-4.262
				c10.319,0.673,17.946,12.114,17.946,12.114s7.156-12.519,18.564-12.561c11.408,0.041,18.563,12.561,18.563,12.561
				s7.627-11.441,17.947-12.114c10.319-0.673,20.414,4.262,20.414,4.262C154.327,141.777,149.392,141.329,149.392,141.329z"/>
			
				<rect x="93.744" y="80.688" transform="matrix(4.489901e-11 1 -1 4.489901e-11 236.4996 37.06)" fill="#F3C636" width="11.951" height="112.184"/>
		</g>
		<path fill="#B19225" d="M155.812,150.709h-2.067c-0.983-1.131-1.923-1.933-2.762-2.512h2.841c2.914,0.979,4.766,1.881,4.766,1.881
			c-2.04-3.973-4.229-6.135-5.962-7.322h3.185v-11.951h-55.077v30.713h16.612c0.789,1.103,1.208,1.833,1.208,1.833
			s0.488-0.731,1.382-1.833h35.876v-6.513c0.703,0.3,1.103,0.494,1.103,0.494c-0.364-0.709-0.733-1.34-1.103-1.939V150.709z"/>
	</g>
</g>
</svg>
