<?xml version="1.0" encoding="utf-8"?>
<!-- Generator: Adobe Illustrator 21.1.0, SVG Export Plug-In . SVG Version: 6.00 Build 0)  -->
<svg version="1.1" id="Layer_1" xmlns="http://www.w3.org/2000/svg" xmlns:xlink="http://www.w3.org/1999/xlink" x="0px" y="0px"
	 viewBox="0 0 289 206.8" style="enable-background:new 0 0 289 206.8;" xml:space="preserve">
<g>
	<g>
		<g>
			<path style="fill:#D07000;" d="M213.7,159.9C213.7,159.9,213.7,159.9,213.7,159.9C213.7,159.9,213.7,159.9,213.7,159.9v-9.3
				h-42.9v9.3h0c0.2,3.3,9.7,5.9,21.4,5.9C204,165.9,213.5,163.3,213.7,159.9L213.7,159.9L213.7,159.9z"/>
			<ellipse style="fill:#F6B300;" cx="192.3" cy="150.7" rx="21.5" ry="6"/>
		</g>
		<g>
			<path style="fill:#D07000;" d="M213.7,149.1C213.7,149.1,213.7,149,213.7,149.1C213.7,149,213.7,149,213.7,149.1v-9.3h-42.9v9.3
				h0c0.2,3.3,9.7,5.9,21.4,5.9C204,155,213.5,152.4,213.7,149.1L213.7,149.1L213.7,149.1z"/>
			<ellipse style="fill:#F6B300;" cx="192.3" cy="139.9" rx="21.5" ry="6"/>
		</g>
		<g>
			<path style="fill:#D07000;" d="M213.7,138.2C213.7,138.2,213.7,138.2,213.7,138.2C213.7,138.2,213.7,138.2,213.7,138.2v-9.3
				h-42.9v9.3h0c0.2,3.3,9.7,5.9,21.4,5.9C204,144.2,213.5,141.5,213.7,138.2L213.7,138.2L213.7,138.2z"/>
			<ellipse style="fill:#F6B300;" cx="192.3" cy="129" rx="21.5" ry="6"/>
		</g>
		<g>
			<path style="fill:#D07000;" d="M213.7,127.3C213.7,127.3,213.7,127.3,213.7,127.3C213.7,127.3,213.7,127.3,213.7,127.3V118h-42.9
				v9.3h0c0.2,3.3,9.7,5.9,21.4,5.9C204,133.3,213.5,130.6,213.7,127.3L213.7,127.3L213.7,127.3z"/>
			<ellipse style="fill:#F6B300;" cx="192.3" cy="118.1" rx="21.5" ry="6"/>
		</g>
		<g>
			<path style="fill:#D07000;" d="M213.7,116.4C213.7,116.4,213.7,116.4,213.7,116.4C213.7,116.4,213.7,116.4,213.7,116.4v-9.3
				h-42.9v9.3h0c0.2,3.3,9.7,5.9,21.4,5.9C204,122.4,213.5,119.8,213.7,116.4L213.7,116.4L213.7,116.4z"/>
			<ellipse style="fill:#F6B300;" cx="192.3" cy="107.2" rx="21.5" ry="6"/>
		</g>
	</g>
	<g>
		<g>
			<path style="fill:#F6A500;" d="M120.2,171C120.2,171,120.2,171,120.2,171C120.2,170.9,120.2,170.9,120.2,171v-9.3H77.3v9.3h0
				c0.2,3.3,9.7,5.9,21.4,5.9S120,174.3,120.2,171L120.2,171L120.2,171z"/>
			<ellipse style="fill:#FFCB00;" cx="98.7" cy="161.8" rx="21.5" ry="6"/>
		</g>
		<g>
			<path style="fill:#F6A500;" d="M120.2,160.1C120.2,160.1,120.2,160.1,120.2,160.1C120.2,160.1,120.2,160.1,120.2,160.1v-9.3H77.3
				v9.3h0c0.2,3.3,9.7,5.9,21.4,5.9S120,163.4,120.2,160.1L120.2,160.1L120.2,160.1z"/>
			<ellipse style="fill:#FFCB00;" cx="98.7" cy="150.9" rx="21.5" ry="6"/>
		</g>
		<g>
			<path style="fill:#F6A500;" d="M120.2,149.2C120.2,149.2,120.2,149.2,120.2,149.2C120.2,149.2,120.2,149.2,120.2,149.2v-9.3H77.3
				v9.3h0c0.2,3.3,9.7,5.9,21.4,5.9S120,152.6,120.2,149.2L120.2,149.2L120.2,149.2z"/>
			<ellipse style="fill:#FFCB00;" cx="98.7" cy="140" rx="21.5" ry="6"/>
		</g>
		<g>
			<path style="fill:#F6A500;" d="M120.2,138.4C120.2,138.3,120.2,138.3,120.2,138.4C120.2,138.3,120.2,138.3,120.2,138.4v-9.3H77.3
				v9.3h0c0.2,3.3,9.7,5.9,21.4,5.9S120,141.7,120.2,138.4L120.2,138.4L120.2,138.4z"/>
			<ellipse style="fill:#FFCB00;" cx="98.7" cy="129.1" rx="21.5" ry="6"/>
		</g>
		<g>
			<path style="fill:#F6A500;" d="M120.2,127.5C120.2,127.5,120.2,127.5,120.2,127.5C120.2,127.4,120.2,127.4,120.2,127.5v-9.3H77.3
				v9.3h0c0.2,3.3,9.7,5.9,21.4,5.9S120,130.8,120.2,127.5L120.2,127.5L120.2,127.5z"/>
			<ellipse style="fill:#FFCB00;" cx="98.7" cy="118.3" rx="21.5" ry="6"/>
		</g>
		<g>
			<path style="fill:#F6A500;" d="M120.2,116.6C120.2,116.6,120.2,116.6,120.2,116.6C120.2,116.6,120.2,116.6,120.2,116.6v-9.3H77.3
				v9.3h0c0.2,3.3,9.7,5.9,21.4,5.9S120,119.9,120.2,116.6L120.2,116.6L120.2,116.6z"/>
			<ellipse style="fill:#FFCB00;" cx="98.7" cy="107.4" rx="21.5" ry="6"/>
		</g>
		<g>
			<path style="fill:#F6A500;" d="M120.2,105.7C120.2,105.7,120.2,105.7,120.2,105.7C120.2,105.7,120.2,105.7,120.2,105.7v-9.3H77.3
				v9.3h0c0.2,3.3,9.7,5.9,21.4,5.9S120,109.1,120.2,105.7L120.2,105.7L120.2,105.7z"/>
			<ellipse style="fill:#FFCB00;" cx="98.7" cy="96.5" rx="21.5" ry="6"/>
		</g>
		<g>
			<path style="fill:#F6A500;" d="M120.2,94.8C120.2,94.8,120.2,94.8,120.2,94.8C120.2,94.8,120.2,94.8,120.2,94.8v-9.3H77.3v9.3h0
				c0.2,3.3,9.7,5.9,21.4,5.9S120,98.2,120.2,94.8L120.2,94.8L120.2,94.8z"/>
			<ellipse style="fill:#FFCB00;" cx="98.7" cy="85.6" rx="21.5" ry="6"/>
		</g>
		<g>
			<path style="fill:#F6A500;" d="M120.2,84C120.2,84,120.2,84,120.2,84C120.2,83.9,120.2,83.9,120.2,84v-9.3H77.3V84h0
				c0.2,3.3,9.7,5.9,21.4,5.9S120,87.3,120.2,84L120.2,84L120.2,84z"/>
			<ellipse style="fill:#FFCB00;" cx="98.7" cy="74.8" rx="21.5" ry="6"/>
		</g>
		<g>
			<path style="fill:#F6A500;" d="M120.2,73.1C120.2,73.1,120.2,73.1,120.2,73.1C120.2,73.1,120.2,73.1,120.2,73.1v-9.3H77.3v9.3h0
				c0.2,3.3,9.7,5.9,21.4,5.9S120,76.4,120.2,73.1L120.2,73.1L120.2,73.1z"/>
			<ellipse style="fill:#FFCB00;" cx="98.7" cy="63.9" rx="21.5" ry="6"/>
		</g>
		<g>
			<path style="fill:#F6A500;" d="M120.2,62.2C120.2,62.2,120.2,62.2,120.2,62.2C120.2,62.2,120.2,62.2,120.2,62.2v-9.3H77.3v9.3h0
				c0.2,3.3,9.7,5.9,21.4,5.9S120,65.5,120.2,62.2L120.2,62.2L120.2,62.2z"/>
			<ellipse style="fill:#FFCB00;" cx="98.7" cy="53" rx="21.5" ry="6"/>
		</g>
	</g>
	<g>
		<g>
			<path style="fill:#D07000;" d="M193.1,172C193.1,171.9,193.1,171.9,193.1,172C193.1,171.9,193.1,171.9,193.1,172v-9.3h-42.9v9.3
				h0c0.2,3.3,9.7,5.9,21.4,5.9C183.4,177.9,192.9,175.3,193.1,172L193.1,172L193.1,172z"/>
			<ellipse style="fill:#F6B300;" cx="171.6" cy="162.7" rx="21.5" ry="6"/>
		</g>
		<g>
			<path style="fill:#D07000;" d="M193.1,161.1C193.1,161.1,193.1,161.1,193.1,161.1C193.1,161,193.1,161,193.1,161.1v-9.3h-42.9
				v9.3h0c0.2,3.3,9.7,5.9,21.4,5.9C183.4,167.1,192.9,164.4,193.1,161.1L193.1,161.1L193.1,161.1z"/>
			<ellipse style="fill:#F6B300;" cx="171.6" cy="151.9" rx="21.5" ry="6"/>
		</g>
		<g>
			<path style="fill:#D07000;" d="M193.1,150.2C193.1,150.2,193.1,150.2,193.1,150.2C193.1,150.2,193.1,150.2,193.1,150.2v-9.3
				h-42.9v9.3h0c0.2,3.3,9.7,5.9,21.4,5.9C183.4,156.2,192.9,153.5,193.1,150.2L193.1,150.2L193.1,150.2z"/>
			<ellipse style="fill:#F6B300;" cx="171.6" cy="141" rx="21.5" ry="6"/>
		</g>
		<g>
			<path style="fill:#D07000;" d="M193.1,139.3C193.1,139.3,193.1,139.3,193.1,139.3C193.1,139.3,193.1,139.3,193.1,139.3V130h-42.9
				v9.3h0c0.2,3.3,9.7,5.9,21.4,5.9C183.4,145.3,192.9,142.7,193.1,139.3L193.1,139.3L193.1,139.3z"/>
			<ellipse style="fill:#F6B300;" cx="171.6" cy="130.1" rx="21.5" ry="6"/>
		</g>
		<g>
			<path style="fill:#D07000;" d="M193.1,128.5C193.1,128.4,193.1,128.4,193.1,128.5C193.1,128.4,193.1,128.4,193.1,128.5v-9.3
				h-42.9v9.3h0c0.2,3.3,9.7,5.9,21.4,5.9C183.4,134.4,192.9,131.8,193.1,128.5L193.1,128.5L193.1,128.5z"/>
			<ellipse style="fill:#F6B300;" cx="171.6" cy="119.2" rx="21.5" ry="6"/>
		</g>
		<g>
			<path style="fill:#D07000;" d="M193.1,117.6C193.1,117.6,193.1,117.6,193.1,117.6C193.1,117.5,193.1,117.5,193.1,117.6v-9.3
				h-42.9v9.3h0c0.2,3.3,9.7,5.9,21.4,5.9C183.4,123.6,192.9,120.9,193.1,117.6L193.1,117.6L193.1,117.6z"/>
			<ellipse style="fill:#F6B300;" cx="171.6" cy="108.4" rx="21.5" ry="6"/>
		</g>
		<g>
			<path style="fill:#D07000;" d="M193.1,106.7C193.1,106.7,193.1,106.7,193.1,106.7C193.1,106.7,193.1,106.7,193.1,106.7v-9.3
				h-42.9v9.3h0c0.2,3.3,9.7,5.9,21.4,5.9C183.4,112.7,192.9,110,193.1,106.7L193.1,106.7L193.1,106.7z"/>
			<ellipse style="fill:#F6B300;" cx="171.6" cy="97.5" rx="21.5" ry="6"/>
		</g>
		<g>
			<path style="fill:#D07000;" d="M193.1,95.8C193.1,95.8,193.1,95.8,193.1,95.8C193.1,95.8,193.1,95.8,193.1,95.8v-9.3h-42.9v9.3h0
				c0.2,3.3,9.7,5.9,21.4,5.9C183.4,101.8,192.9,99.2,193.1,95.8L193.1,95.8L193.1,95.8z"/>
			<ellipse style="fill:#F6B300;" cx="171.6" cy="86.6" rx="21.5" ry="6"/>
		</g>
	</g>
	<path style="fill:#F6A500;" d="M158.7,179.4C158.7,179.4,158.7,179.4,158.7,179.4C158.7,179.4,158.7,179.4,158.7,179.4v-9.3h-42.9
		v9.3h0c0.2,3.3,9.7,5.9,21.4,5.9C149,185.4,158.5,182.7,158.7,179.4L158.7,179.4L158.7,179.4z"/>
	<ellipse style="fill:#FFCB00;" cx="137.2" cy="170.2" rx="21.5" ry="6"/>
	<path style="fill:#F6A500;" d="M158.7,168.5C158.7,168.5,158.7,168.5,158.7,168.5C158.7,168.5,158.7,168.5,158.7,168.5v-9.3h-42.9
		v9.3h0c0.2,3.3,9.7,5.9,21.4,5.9C149,174.5,158.5,171.8,158.7,168.5L158.7,168.5L158.7,168.5z"/>
	<ellipse style="fill:#FFCB00;" cx="137.2" cy="159.3" rx="21.5" ry="6"/>
	<path style="fill:#F6A500;" d="M158.7,157.6C158.7,157.6,158.7,157.6,158.7,157.6C158.7,157.6,158.7,157.6,158.7,157.6v-9.3h-42.9
		v9.3h0c0.2,3.3,9.7,5.9,21.4,5.9C149,163.6,158.5,161,158.7,157.6L158.7,157.6L158.7,157.6z"/>
	<ellipse style="fill:#FFCB00;" cx="137.2" cy="148.4" rx="21.5" ry="6"/>
	<path style="fill:#F6A500;" d="M158.7,146.8C158.7,146.8,158.7,146.7,158.7,146.8C158.7,146.7,158.7,146.7,158.7,146.8v-9.3h-42.9
		v9.3h0c0.2,3.3,9.7,5.9,21.4,5.9C149,152.7,158.5,150.1,158.7,146.8L158.7,146.8L158.7,146.8z"/>
	<ellipse style="fill:#FFCB00;" cx="137.2" cy="137.5" rx="21.5" ry="6"/>
	<path style="fill:#F6A500;" d="M158.7,135.9C158.7,135.9,158.7,135.9,158.7,135.9C158.7,135.9,158.7,135.8,158.7,135.9v-9.3h-42.9
		v9.3h0c0.2,3.3,9.7,5.9,21.4,5.9C149,141.9,158.5,139.2,158.7,135.9L158.7,135.9L158.7,135.9z"/>
	<ellipse style="fill:#FFCB00;" cx="137.2" cy="126.7" rx="21.5" ry="6"/>
	<path style="fill:#D07000;" d="M158.7,179.3v-9.2h-13.3v14.8C153.1,184,158.5,181.9,158.7,179.3L158.7,179.3L158.7,179.3
		C158.7,179.4,158.7,179.4,158.7,179.3C158.7,179.4,158.7,179.4,158.7,179.3z"/>
	<path style="fill:#F6B300;" d="M145.4,164.6v11.1c7.8-0.9,13.3-3,13.3-5.6S153.2,165.5,145.4,164.6z"/>
	<path style="fill:#D07000;" d="M158.7,168.5v-9.2h-13.3V174C153.1,173.2,158.5,171,158.7,168.5L158.7,168.5L158.7,168.5
		C158.7,168.5,158.7,168.5,158.7,168.5C158.7,168.5,158.7,168.5,158.7,168.5z"/>
	<path style="fill:#F6B300;" d="M145.4,153.7v11.1c7.8-0.9,13.3-3,13.3-5.6C158.7,156.8,153.2,154.6,145.4,153.7z"/>
	<path style="fill:#D07000;" d="M158.7,157.6v-9.2h-13.3v14.8C153.1,162.3,158.5,160.2,158.7,157.6L158.7,157.6L158.7,157.6
		C158.7,157.6,158.7,157.6,158.7,157.6C158.7,157.6,158.7,157.6,158.7,157.6z"/>
	<path style="fill:#F6B300;" d="M145.4,142.9V154c7.8-0.9,13.3-3,13.3-5.6S153.2,143.8,145.4,142.9z"/>
	<path style="fill:#D07000;" d="M158.7,146.7v-9.2h-13.3v14.8C153.1,151.4,158.5,149.3,158.7,146.7L158.7,146.7L158.7,146.7
		C158.7,146.8,158.7,146.7,158.7,146.7C158.7,146.7,158.7,146.7,158.7,146.7z"/>
	<path style="fill:#F6B300;" d="M145.4,132v11.1c7.8-0.9,13.3-3,13.3-5.6S153.2,132.9,145.4,132z"/>
	<path style="fill:#D07000;" d="M158.7,135.8v-9.2h-13.3v14.8C153.1,140.5,158.5,138.4,158.7,135.8L158.7,135.8L158.7,135.8
		C158.7,135.9,158.7,135.9,158.7,135.8C158.7,135.9,158.7,135.8,158.7,135.8z"/>
	<path style="fill:#F6B300;" d="M145.4,121.1v11.1c7.8-0.9,13.3-3,13.3-5.6S153.2,122,145.4,121.1z"/>
</g>
</svg>
