<svg xmlns="http://www.w3.org/2000/svg" viewBox="0 0 197.75 200.54"><title>Money</title><path d="M208.29,173.16s0,0,0,0V159.7H146.12v13.52h0c0.22,4.75,14,8.59,31.08,8.59s30.85-3.83,31.08-8.59h0v-0.07Z" transform="translate(-10.55 -9.46)" style="fill:#d07119"/><ellipse cx="166.66" cy="150.34" rx="31.09" ry="8.7" style="fill:#f6b015"/><path d="M208.29,157.4s0,0,0,0V143.94H146.12v13.52h0c0.22,4.75,14,8.59,31.08,8.59s30.85-3.83,31.08-8.59h0V157.4Z" transform="translate(-10.55 -9.46)" style="fill:#d07119"/><ellipse cx="166.66" cy="134.57" rx="31.09" ry="8.7" style="fill:#f6b015"/><path d="M208.29,141.63s0,0,0,0V128.18H146.12V141.7h0c0.22,4.75,14,8.59,31.08,8.59s30.85-3.83,31.08-8.59h0v-0.07Z" transform="translate(-10.55 -9.46)" style="fill:#d07119"/><ellipse cx="166.66" cy="118.81" rx="31.09" ry="8.7" style="fill:#f6b015"/><path d="M208.29,125.87s0,0,0,0V112.42H146.12v13.52h0c0.22,4.75,14,8.59,31.08,8.59s30.85-3.83,31.08-8.59h0v-0.07Z" transform="translate(-10.55 -9.46)" style="fill:#d07119"/><ellipse cx="166.66" cy="103.05" rx="31.09" ry="8.7" style="fill:#f6b015"/><path d="M208.29,110.11s0,0,0,0V96.66H146.12v13.52h0c0.22,4.75,14,8.59,31.08,8.59s30.85-3.83,31.08-8.59h0v-0.07Z" transform="translate(-10.55 -9.46)" style="fill:#d07119"/><ellipse cx="166.66" cy="87.29" rx="31.09" ry="8.7" style="fill:#f6b015"/><path d="M72.73,189.15s0,0,0,0V175.69H10.55v13.52h0c0.22,4.75,14,8.59,31.08,8.59S72.5,194,72.72,189.22h0v-0.07Z" transform="translate(-10.55 -9.46)" style="fill:#faa61a"/><ellipse cx="31.09" cy="166.33" rx="31.09" ry="8.7" style="fill:#ffcb05"/><path d="M72.73,173.39s0,0,0,0V159.93H10.55v13.52h0c0.22,4.75,14,8.59,31.08,8.59s30.85-3.83,31.08-8.59h0v-0.07Z" transform="translate(-10.55 -9.46)" style="fill:#faa61a"/><ellipse cx="31.09" cy="150.56" rx="31.09" ry="8.7" style="fill:#ffcb05"/><path d="M72.73,157.62s0,0,0,0V144.17H10.55v13.52h0c0.22,4.75,14,8.59,31.08,8.59s30.85-3.83,31.08-8.59h0v-0.07Z" transform="translate(-10.55 -9.46)" style="fill:#faa61a"/><ellipse cx="31.09" cy="134.8" rx="31.09" ry="8.7" style="fill:#ffcb05"/><path d="M72.73,141.86s0,0,0,0V128.41H10.55v13.52h0c0.22,4.75,14,8.59,31.08,8.59s30.85-3.83,31.08-8.59h0v-0.07Z" transform="translate(-10.55 -9.46)" style="fill:#faa61a"/><ellipse cx="31.09" cy="119.04" rx="31.09" ry="8.7" style="fill:#ffcb05"/><path d="M72.73,126.1s0,0,0,0V112.65H10.55v13.52h0c0.22,4.75,14,8.59,31.08,8.59s30.85-3.83,31.08-8.59h0V126.1Z" transform="translate(-10.55 -9.46)" style="fill:#faa61a"/><ellipse cx="31.09" cy="103.28" rx="31.09" ry="8.7" style="fill:#ffcb05"/><path d="M72.73,110.34s0,0,0,0V96.88H10.55v13.52h0c0.22,4.75,14,8.59,31.08,8.59s30.85-3.83,31.08-8.59h0v-0.07Z" transform="translate(-10.55 -9.46)" style="fill:#faa61a"/><ellipse cx="31.09" cy="87.52" rx="31.09" ry="8.7" style="fill:#ffcb05"/><path d="M72.73,94.58s0,0,0,0V81.12H10.55V94.65h0c0.22,4.75,14,8.59,31.08,8.59S72.5,99.4,72.72,94.65h0V94.58Z" transform="translate(-10.55 -9.46)" style="fill:#faa61a"/><ellipse cx="31.09" cy="71.75" rx="31.09" ry="8.7" style="fill:#ffcb05"/><path d="M72.73,78.81s0,0,0,0V65.36H10.55V78.88h0c0.22,4.75,14,8.59,31.08,8.59s30.85-3.83,31.08-8.59h0V78.81Z" transform="translate(-10.55 -9.46)" style="fill:#faa61a"/><ellipse cx="31.09" cy="55.99" rx="31.09" ry="8.7" style="fill:#ffcb05"/><path d="M72.73,63.05s0,0,0,0V49.6H10.55V63.12h0c0.22,4.75,14,8.59,31.08,8.59s30.85-3.83,31.08-8.59h0V63.05Z" transform="translate(-10.55 -9.46)" style="fill:#faa61a"/><ellipse cx="31.09" cy="40.23" rx="31.09" ry="8.7" style="fill:#ffcb05"/><path d="M72.73,47.29s0,0,0,0V33.84H10.55V47.36h0c0.22,4.75,14,8.59,31.08,8.59s30.85-3.83,31.08-8.59h0V47.29Z" transform="translate(-10.55 -9.46)" style="fill:#faa61a"/><ellipse cx="31.09" cy="24.47" rx="31.09" ry="8.7" style="fill:#ffcb05"/><path d="M72.73,31.53s0,0,0,0V18.07H10.55V31.6h0c0.22,4.75,14,8.59,31.08,8.59S72.5,36.35,72.72,31.6h0V31.53Z" transform="translate(-10.55 -9.46)" style="fill:#faa61a"/><ellipse cx="31.09" cy="8.7" rx="31.09" ry="8.7" style="fill:#ffcb05"/><path d="M178.41,190.57s0,0,0,0V177.11H116.23v13.52h0c0.22,4.75,14,8.59,31.08,8.59s30.85-3.83,31.08-8.59h0v-0.07Z" transform="translate(-10.55 -9.46)" style="fill:#d07119"/><ellipse cx="136.78" cy="167.75" rx="31.09" ry="8.7" style="fill:#f6b015"/><path d="M178.41,174.81s0,0,0,0V161.35H116.23v13.52h0c0.22,4.75,14,8.59,31.08,8.59s30.85-3.83,31.08-8.59h0v-0.07Z" transform="translate(-10.55 -9.46)" style="fill:#d07119"/><ellipse cx="136.78" cy="151.98" rx="31.09" ry="8.7" style="fill:#f6b015"/><path d="M178.41,159s0,0,0,0V145.59H116.23v13.52h0c0.22,4.75,14,8.59,31.08,8.59s30.85-3.83,31.08-8.59h0V159Z" transform="translate(-10.55 -9.46)" style="fill:#d07119"/><ellipse cx="136.78" cy="136.22" rx="31.09" ry="8.7" style="fill:#f6b015"/><path d="M178.41,143.28s0,0,0,0V129.83H116.23v13.52h0c0.22,4.75,14,8.59,31.08,8.59s30.85-3.83,31.08-8.59h0v-0.07Z" transform="translate(-10.55 -9.46)" style="fill:#d07119"/><ellipse cx="136.78" cy="120.46" rx="31.09" ry="8.7" style="fill:#f6b015"/><path d="M178.41,127.52s0,0,0,0V114.07H116.23v13.52h0c0.22,4.75,14,8.59,31.08,8.59s30.85-3.83,31.08-8.59h0v-0.07Z" transform="translate(-10.55 -9.46)" style="fill:#d07119"/><ellipse cx="136.78" cy="104.7" rx="31.09" ry="8.7" style="fill:#f6b015"/><path d="M178.41,111.76s0,0,0,0V98.3H116.23v13.52h0c0.22,4.75,14,8.59,31.08,8.59s30.85-3.83,31.08-8.59h0v-0.07Z" transform="translate(-10.55 -9.46)" style="fill:#d07119"/><ellipse cx="136.78" cy="88.94" rx="31.09" ry="8.7" style="fill:#f6b015"/><path d="M178.41,96s0,0,0,0V82.54H116.23V96.07h0c0.22,4.75,14,8.59,31.08,8.59s30.85-3.83,31.08-8.59h0V96Z" transform="translate(-10.55 -9.46)" style="fill:#d07119"/><ellipse cx="136.78" cy="73.17" rx="31.09" ry="8.7" style="fill:#f6b015"/><path d="M178.41,80.23s0,0,0,0V66.78H116.23V80.3h0c0.22,4.75,14,8.59,31.08,8.59s30.85-3.83,31.08-8.59h0V80.23Z" transform="translate(-10.55 -9.46)" style="fill:#d07119"/><ellipse cx="136.78" cy="57.41" rx="31.09" ry="8.7" style="fill:#f6b015"/><path d="M128.51,201.35s0,0,0,0V187.89H66.33v13.52h0c0.22,4.75,14,8.59,31.08,8.59s30.85-3.83,31.08-8.59h0v-0.07Z" transform="translate(-10.55 -9.46)" style="fill:#faa61a"/><ellipse cx="86.88" cy="178.52" rx="31.09" ry="8.7" style="fill:#ffcb05"/><path d="M128.51,185.58s0,0,0,0V172.13H66.33v13.52h0c0.22,4.75,14,8.59,31.08,8.59s30.85-3.83,31.08-8.59h0v-0.07Z" transform="translate(-10.55 -9.46)" style="fill:#faa61a"/><ellipse cx="86.88" cy="162.76" rx="31.09" ry="8.7" style="fill:#ffcb05"/><path d="M128.51,169.82s0,0,0,0V156.37H66.33v13.52h0c0.22,4.75,14,8.59,31.08,8.59s30.85-3.83,31.08-8.59h0v-0.07Z" transform="translate(-10.55 -9.46)" style="fill:#faa61a"/><ellipse cx="86.88" cy="147" rx="31.09" ry="8.7" style="fill:#ffcb05"/><path d="M128.51,154.06s0,0,0,0V140.61H66.33v13.52h0c0.22,4.75,14,8.59,31.08,8.59s30.85-3.83,31.08-8.59h0v-0.07Z" transform="translate(-10.55 -9.46)" style="fill:#faa61a"/><ellipse cx="86.88" cy="131.24" rx="31.09" ry="8.7" style="fill:#ffcb05"/><path d="M128.51,138.3s0,0,0,0V124.84H66.33v13.52h0c0.22,4.75,14,8.59,31.08,8.59s30.85-3.83,31.08-8.59h0V138.3Z" transform="translate(-10.55 -9.46)" style="fill:#faa61a"/><ellipse cx="86.88" cy="115.47" rx="31.09" ry="8.7" style="fill:#ffcb05"/><path d="M128.51,201.27V187.89H109.27v21.46c11.17-1.29,19.06-4.35,19.23-7.93h0v-0.07s0,0,0,0v0Z" transform="translate(-10.55 -9.46)" style="fill:#d07119"/><path d="M109.27,179.93V196c11.29-1.3,19.24-4.42,19.24-8S120.56,181.24,109.27,179.93Z" transform="translate(-10.55 -9.46)" style="fill:#f6b015"/><path d="M128.51,185.51V172.13H109.27v21.46c11.17-1.29,19.06-4.35,19.23-7.93h0v-0.07s0,0,0,0v0Z" transform="translate(-10.55 -9.46)" style="fill:#d07119"/><path d="M109.27,164.17v16.1c11.29-1.3,19.24-4.42,19.24-8S120.56,165.48,109.27,164.17Z" transform="translate(-10.55 -9.46)" style="fill:#f6b015"/><path d="M128.51,169.75V156.37H109.27v21.46c11.17-1.29,19.06-4.35,19.23-7.93h0v-0.07s0,0,0,0v0Z" transform="translate(-10.55 -9.46)" style="fill:#d07119"/><path d="M109.27,148.41v16.1c11.29-1.3,19.24-4.42,19.24-8S120.56,149.71,109.27,148.41Z" transform="translate(-10.55 -9.46)" style="fill:#f6b015"/><path d="M128.51,154V140.61H109.27v21.46c11.17-1.29,19.06-4.35,19.23-7.93h0v-0.07s0,0,0,0v0Z" transform="translate(-10.55 -9.46)" style="fill:#d07119"/><path d="M109.27,132.65v16.1c11.29-1.3,19.24-4.42,19.24-8S120.56,134,109.27,132.65Z" transform="translate(-10.55 -9.46)" style="fill:#f6b015"/><path d="M128.51,138.22V124.84H109.27V146.3c11.17-1.29,19.06-4.35,19.23-7.93h0V138.3s0,0,0,0v0Z" transform="translate(-10.55 -9.46)" style="fill:#d07119"/><path d="M109.27,116.89V133c11.29-1.3,19.24-4.42,19.24-8S120.56,118.19,109.27,116.89Z" transform="translate(-10.55 -9.46)" style="fill:#f6b015"/></svg>