<?xml version="1.0" encoding="utf-8"?>
<!-- Generator: Adobe Illustrator 19.2.1, SVG Export Plug-In . SVG Version: 6.00 Build 0)  -->
<svg version="1.1" id="Layer_1" xmlns="http://www.w3.org/2000/svg" xmlns:xlink="http://www.w3.org/1999/xlink" x="0px" y="0px"
	 width="289px" height="206.7px" viewBox="0 0 289 206.7" enable-background="new 0 0 289 206.7" xml:space="preserve">
<g>
	<defs>
		<path id="SVGID_1_" d="M0,206V11.3C0,5.1,5.1,0,11.3,0h266.3c6.3,0,11.3,5.1,11.3,11.3V206H0z"/>
	</defs>
	<clipPath id="SVGID_2_">
		<use xlink:href="#SVGID_1_"  overflow="visible"/>
	</clipPath>
	<linearGradient id="SVGID_3_" gradientUnits="userSpaceOnUse" x1="144.5" y1="276" x2="144.5" y2="-5.979018e-09">
		<stop  offset="0.3164" style="stop-color:#FFFFFF"/>
		<stop  offset="1" style="stop-color:#ADE1F9"/>
	</linearGradient>
	<path display="none" clip-path="url(#SVGID_2_)" fill="url(#SVGID_3_)" d="M277.7,276H11.3C5.1,276,0,270.9,0,264.7V11.3
		C0,5.1,5.1,0,11.3,0h266.3c6.3,0,11.3,5.1,11.3,11.3v253.3C289,270.9,283.9,276,277.7,276z"/>
	<g clip-path="url(#SVGID_2_)">
		<g>
			<path fill="#72562A" d="M74.3,134.5l55.3,32.2c10.4,5.5,21.7,6,31.7-0.5l42-26.9l-37.3-40.6c-2.7-3-5.2-3.5-7.9-1.5l-15.5,11.3
				h-0.1c-4.9,2.5-7.4,2.3-9.7,1.1c-1.7-0.9-3.4-3-5.1-5.6l23.3-23.1l-5.9-7c-4.7-4.1-11-6.5-16.9-6.8c-12-0.5-24.8,5.5-40.9,10.2
				c-6.4-3.4-12.4-7.2-19-11.1c-3-1.8-6.9,0.9-6.9,3.8l0,0v54.4c0,2,1.5,4,3.4,4.4C68,129.8,71,132.1,74.3,134.5"/>
		</g>
		<g>
			<path fill="#E9BFA9" d="M74.3,134.5c-0.6,1-1.3,2-1.9,3c-1.1,2-0.4,4.8,1.5,6l33.5,22.3c6.4,5,16.4,4.3,22.2,1l7.5-6.7
				c1.9-2.5,3.4-5.4,4.3-8.5c0.5-1.8-0.2-3.9-1.7-5l-35.2-24.9c-5.6-4.2-13.7-1-18.4,1.9c-1.9,1.2-3.8,2.6-5.5,4.2 M138.4,80.3
				L138.4,80.3l-19.9,19.9c-1.4,1.4-1.7,3.7-0.8,5.3c2.6,4.9,5.7,9.5,10.7,12.1c7.1,2.3,13.6,1.2,18.7-1.4l13.3-9.7l28.5,31l6.6,6.9
				c9.1-6.4,20.9-11.8,29.5-15.6c1.6-0.7,2.7-2.3,2.7-4.1V70.1c0-4.1-3.8-5.4-6.9-3.8c-6.9,3.5-12.2,7.6-19.1,11.1
				c-9.1-2.7-17.6-6.2-25.1-8.4c-4.5-1.3-9.8-1.9-14-1.9c-6.4-0.1-12.3,2.1-17.8,6.8L138.4,80.3z"/>
		</g>
	</g>
</g>
</svg>
