<?xml version="1.0" encoding="utf-8"?>
<!-- Generator: Adobe Illustrator 19.2.1, SVG Export Plug-In . SVG Version: 6.00 Build 0)  -->
<svg version="1.1" id="Layer_1" xmlns="http://www.w3.org/2000/svg" xmlns:xlink="http://www.w3.org/1999/xlink" x="0px" y="0px"
	 width="289px" height="206.8px" viewBox="0 0 289 206.8" enable-background="new 0 0 289 206.8" xml:space="preserve">
<g display="none">
	<defs>
		<path id="SVGID_1_" d="M0,206V11.3C0,5.1,5.1,0,11.3,0h266.3c6.3,0,11.3,5.1,11.3,11.3V206H0z"/>
	</defs>
	<clipPath id="SVGID_2_" display="inline">
		<use xlink:href="#SVGID_1_"  overflow="visible"/>
	</clipPath>
	<linearGradient id="SVGID_3_" gradientUnits="userSpaceOnUse" x1="144.5" y1="276" x2="144.5" y2="-5.978109e-09">
		<stop  offset="0.3164" style="stop-color:#FFFFFF"/>
		<stop  offset="1" style="stop-color:#ADE1F9"/>
	</linearGradient>
	<path display="inline" clip-path="url(#SVGID_2_)" fill="url(#SVGID_3_)" d="M277.7,276H11.3C5.1,276,0,270.9,0,264.7V11.3
		C0,5.1,5.1,0,11.3,0h266.3c6.3,0,11.3,5.1,11.3,11.3v253.3C289,270.9,283.9,276,277.7,276z"/>
</g>
<g>
	<g>
		<path fill="#C04598" d="M169.1,83.4c5.6-14.9-3-40.6-23.5-41.6c-0.3,0-0.3,0-0.7,0c-0.3,0-0.3,0-0.7,0
			c-20.5,1-28.7,26.8-23.5,41.6c1.3,4,6.6,14.2,12.9,26.1c-11.9,21.1-21.5,36-21.5,36l10.6,24.1c0,0,10.9-19.2,22.1-39.7
			c11.2,20.5,22.1,39.7,22.1,39.7l10.6-24.1c0,0-9.6-14.9-21.5-36C162.5,97.3,167.8,87.4,169.1,83.4z M145,89.1
			c-6.3-11.6-10.9-20.8-10.9-23.5c0-7.3,8.6-8.3,10.9-8.3c2.6,0.3,10.9,1.3,10.9,8.3C155.9,67.9,151.3,77.5,145,89.1z"/>
	</g>
	<path fill="#C070AD" d="M144.6,88.2c-6.1-11.2-10.5-20.1-10.5-22.6c0-6.9,7.7-8.1,10.5-8.2V41.8c-0.1,0-0.1,0-0.2,0
		c-20.5,1-28.7,26.8-23.5,41.6c1.3,4,6.6,14.2,12.9,26.1c-11.9,21.1-21.5,36-21.5,36l10.6,24.1c0,0,10.6-18.7,21.7-38.8V88.2z"/>
</g>
</svg>
