<svg xmlns="http://www.w3.org/2000/svg" xmlns:xlink="http://www.w3.org/1999/xlink" width="289" height="276" viewBox="0 0 289 276"><defs><style>.cls-1{fill:#84c66f;}.cls-2{fill:none;}.cls-3{isolation:isolate;}.cls-4{fill:url(#linear-gradient);}.cls-5{fill:#7d6254;}.cls-6{fill:#5587c6;}.cls-7{clip-path:url(#clip-path);}.cls-8{fill:#497b3a;}.cls-9{fill:#284d7b;}.cls-13,.cls-17,.cls-9{opacity:0.4;mix-blend-mode:multiply;}.cls-10{fill:#f58e75;}.cls-11{clip-path:url(#clip-path-2);}.cls-12,.cls-13{fill:#aa5640;}.cls-14{fill:#b19ac9;}.cls-15{clip-path:url(#clip-path-3);}.cls-16,.cls-17{fill:#67547e;}</style><linearGradient id="linear-gradient" x1="144.5" y1="276" x2="144.5" gradientUnits="userSpaceOnUse"><stop offset="0.32" stop-color="#fff"/><stop offset="1" stop-color="#ade1f9"/></linearGradient><clipPath id="clip-path"><path class="cls-1" d="M78.75,261.5H57a21.21,21.21,0,0,1-21.2-20.58L32.27,121.17a21.21,21.21,0,0,1,21.2-21.85H82.33a21.21,21.21,0,0,1,21.2,21.85L100,240.92A21.21,21.21,0,0,1,78.75,261.5Z"/></clipPath><clipPath id="clip-path-2"><path class="cls-2" d="M155.58,261.5H133.88a21.21,21.21,0,0,1-21.2-20.58L109.1,121.17a21.21,21.21,0,0,1,21.2-21.85h28.85a21.21,21.21,0,0,1,21.2,21.85l-3.57,119.75A21.21,21.21,0,0,1,155.58,261.5Z"/></clipPath><clipPath id="clip-path-3"><path class="cls-2" d="M232,261.5H210.25A21.21,21.21,0,0,1,189,240.92l-3.57-119.75a21.21,21.21,0,0,1,21.2-21.85h28.85a21.21,21.21,0,0,1,21.2,21.85l-3.57,119.75A21.21,21.21,0,0,1,232,261.5Z"/></clipPath></defs><title>sleeping</title><g class="cls-3"><g id="Layer_1" data-name="Layer 1"><rect class="cls-4" width="289" height="276" rx="11.34" ry="11.34"/><ellipse class="cls-1" cx="67.9" cy="99.03" rx="28.91" ry="25.44"/><ellipse class="cls-5" cx="67.9" cy="99.03" rx="23.32" ry="20.53"/><path class="cls-6" d="M78.75,261.5H57a21.21,21.21,0,0,1-21.2-20.58L32.27,121.17a21.21,21.21,0,0,1,21.2-21.85H82.33a21.21,21.21,0,0,1,21.2,21.85L100,240.92A21.21,21.21,0,0,1,78.75,261.5Z"/><path class="cls-1" d="M78.75,261.5H57a21.21,21.21,0,0,1-21.2-20.58L32.27,121.17a21.21,21.21,0,0,1,21.2-21.85H82.33a21.21,21.21,0,0,1,21.2,21.85L100,240.92A21.21,21.21,0,0,1,78.75,261.5Z"/><g class="cls-7"><rect class="cls-8" x="31.55" y="127.03" width="72.85" height="2.89"/><rect class="cls-8" x="31.55" y="153.62" width="72.85" height="2.89"/><rect class="cls-8" x="31.55" y="180.22" width="72.85" height="2.89"/><rect class="cls-8" x="31.55" y="206.82" width="72.85" height="2.89"/><rect class="cls-8" x="31.55" y="233.41" width="72.85" height="2.89"/></g><path class="cls-9" d="M103.35,127l0.17-5.85a21.16,21.16,0,0,0-7.38-16.72A22.59,22.59,0,0,0,96.81,99C96.81,85,83.87,73.59,67.9,73.59H67.58V261.5H78.75A21.21,21.21,0,0,0,100,240.92l0.14-4.62"/><ellipse class="cls-10" cx="144.73" cy="99.03" rx="28.91" ry="25.44"/><ellipse class="cls-5" cx="144.73" cy="99.03" rx="23.32" ry="20.53"/><path class="cls-10" d="M155.58,261.5H133.88a21.21,21.21,0,0,1-21.2-20.58L109.1,121.17a21.21,21.21,0,0,1,21.2-21.85h28.85a21.21,21.21,0,0,1,21.2,21.85l-3.57,119.75A21.21,21.21,0,0,1,155.58,261.5Z"/><g class="cls-11"><rect class="cls-12" x="108.38" y="127.03" width="72.85" height="2.89"/><rect class="cls-12" x="108.38" y="153.62" width="72.85" height="2.89"/><rect class="cls-12" x="108.38" y="180.22" width="72.85" height="2.89"/><rect class="cls-12" x="108.38" y="206.82" width="72.85" height="2.89"/><rect class="cls-12" x="108.38" y="233.41" width="72.85" height="2.89"/></g><path class="cls-13" d="M180.19,127l0.17-5.85A21.16,21.16,0,0,0,173,104.45a22.58,22.58,0,0,0,.66-5.42c0-14-12.9-25.4-28.84-25.44V261.5h10.78a21.21,21.21,0,0,0,21.2-20.58l0.14-4.62"/><ellipse class="cls-14" cx="221.1" cy="99.03" rx="28.91" ry="25.44"/><ellipse class="cls-5" cx="221.1" cy="99.03" rx="23.32" ry="20.53"/><path class="cls-14" d="M232,261.5H210.25A21.21,21.21,0,0,1,189,240.92l-3.57-119.75a21.21,21.21,0,0,1,21.2-21.85h28.85a21.21,21.21,0,0,1,21.2,21.85l-3.57,119.75A21.21,21.21,0,0,1,232,261.5Z"/><g class="cls-15"><rect class="cls-16" x="184.75" y="127.03" width="72.85" height="2.89"/><rect class="cls-16" x="184.75" y="153.62" width="72.85" height="2.89"/><rect class="cls-16" x="184.75" y="180.22" width="72.85" height="2.89"/><rect class="cls-16" x="184.75" y="206.82" width="72.85" height="2.89"/><rect class="cls-16" x="184.75" y="233.41" width="72.85" height="2.89"/></g><line class="cls-17" x1="254.17" y1="206.82" x2="254.88" y2="183.11"/><line class="cls-17" x1="253.38" y1="233.41" x2="254.09" y2="209.71"/><path class="cls-17" d="M256.55,127l0.17-5.85a21.16,21.16,0,0,0-7.38-16.72A22.58,22.58,0,0,0,250,99C250,85,237.07,73.59,221.1,73.59h-0.27V261.5H232a21.21,21.21,0,0,0,21.2-20.58l0.14-4.62"/></g></g></svg>