<?xml version="1.0" encoding="utf-8"?>

<svg xmlns="http://www.w3.org/2000/svg" xmlns:xlink="http://www.w3.org/1999/xlink" version="1.1" id="shelter" x="0px" y="0px" viewBox="0 0 457.432 120.586" enable-background="new 0 0 457.432 120.586" xml:space="preserve">
	<path fill="#FFFFFF" d="M0.059,80.067c-1.296,28.201,18.801,40.52,46.192,40.52c41.006,0,44.248-25.123,44.248-33.063   c0-18.963-13.613-26.097-29.983-30.471l-28.202-6.969c-9.4-2.269-17.505-6.808-17.505-17.666c0-17.181,13.938-23.016,29.013-23.016   c16.37,0,30.957,8.914,31.604,26.581h11.021C86.609,12.317,66.512,0,43.659,0C11.081,0,3.787,21.232,3.787,32.578   c0,17.99,12.48,24.474,26.095,27.878l25.771,6.32c10.697,2.594,23.826,7.779,23.826,20.908c0,16.857-18.479,23.502-30.633,23.502   c-21.071,0-38.251-7.293-37.766-31.119H0.059L0.059,80.067z"></path>
	<path fill="#FFFFFF" d="M256.592,79.095c0.812-23.501-9.887-47.003-36.792-47.003c-26.58,0-37.764,22.205-37.764,44.247   c0,23.826,11.185,44.248,37.764,44.248c21.069,0,32.094-11.021,36.469-29.983h-10.211c-3.24,12.644-11.347,21.396-26.258,21.396   c-19.61,0-27.391-17.992-27.553-32.902L256.592,79.095L256.592,79.095z M192.247,70.504c1.621-15.235,10.859-29.821,27.553-29.821   c16.532,0,26.096,14.424,26.581,29.821H192.247L192.247,70.504z"></path>
	<path fill="#FFFFFF" d="M404.732,79.095c0.811-23.501-9.887-47.003-36.793-47.003c-26.582,0-37.765,22.205-37.765,44.247   c0,23.826,11.183,44.248,37.765,44.248c21.071,0,32.092-11.021,36.469-29.983h-10.211c-3.24,12.644-11.346,21.396-26.258,21.396   c-19.611,0-27.392-17.992-27.554-32.902L404.732,79.095L404.732,79.095z M340.387,70.504c1.618-15.235,10.858-29.821,27.553-29.821   c16.533,0,26.096,14.424,26.582,29.821H340.387L340.387,70.504z"></path>
	<path fill="#FFFFFF" d="M416.104,118.295h10.211V73.726c0-17.342,12.641-30.956,31.116-29.984V33.53   c-15.071-0.648-26.418,7.294-31.604,20.747h-0.324v-19.61h-9.399V118.295L416.104,118.295z"></path>
	<path fill="#FFFFFF" d="M310.758,2.617h-10.211v31.906h-14.586v8.59h14.586v57.214c-0.162,14.264,4.539,18.801,18.154,18.801   c3.078,0,5.998-0.323,9.074-0.323v-8.75c-2.916,0.321-5.834,0.483-8.75,0.483c-7.295-0.483-8.269-4.377-8.269-11.021V43.113h17.019   v-8.59h-17.019L310.758,2.617L310.758,2.617z"></path>
	<polygon fill="#FFFFFF" points="267.977,2.617 278.188,2.617 278.188,118.295 267.977,118.295  "></polygon>
	<polygon fill="#FFFFFF" points="112.279,2.617 112.279,52.039 138.435,29.234 171.191,58.876 171.191,118.295 160.88,118.295    160.881,62.483 137.847,41.725 112.279,63.965 112.279,118.293 102.068,118.293 102.068,2.617  "></polygon>
</svg>
