<?xml version="1.0" encoding="utf-8"?>
<!-- Generator: Adobe Illustrator 19.2.1, SVG Export Plug-In . SVG Version: 6.00 Build 0)  -->
<svg version="1.1" id="Layer_1" xmlns="http://www.w3.org/2000/svg" xmlns:xlink="http://www.w3.org/1999/xlink" x="0px" y="0px"
	 width="289px" height="206.827px" viewBox="0 0 289 206.827" enable-background="new 0 0 289 206.827" xml:space="preserve">
<g>
	<defs>
		<path id="SVGID_1_" d="M0,206V11.348C0,5.081,5.076,0,11.339,0h266.323C283.924,0,289,5.081,289,11.348V206H0z"/>
	</defs>
	<clipPath id="SVGID_2_">
		<use xlink:href="#SVGID_1_"  overflow="visible"/>
	</clipPath>
	<linearGradient id="SVGID_3_" gradientUnits="userSpaceOnUse" x1="144.5" y1="276" x2="144.5" y2="-5.978109e-09">
		<stop  offset="0.3164" style="stop-color:#FFFFFF"/>
		<stop  offset="1" style="stop-color:#ADE1F9"/>
	</linearGradient>
	<path display="none" clip-path="url(#SVGID_2_)" fill="url(#SVGID_3_)" d="M277.661,276H11.339C5.076,276,0,270.924,0,264.661
		V11.339C0,5.076,5.076,0,11.339,0h266.323C283.924,0,289,5.076,289,11.339v253.323C289,270.924,283.924,276,277.661,276z"/>
	<g clip-path="url(#SVGID_2_)">
		<g>
			<path fill="#667982" d="M205.642,154.522l-48.658-15.697l-1.006-11.346c8.703-7.306,11.908-24.214,14.425-37.571
				c4.158-22.067-14.64-40.658-32.699-40.658c-18.059,0-37.01,18.621-32.699,40.658c2.905,14.847,5.722,30.265,14.425,37.571
				l-1.007,11.361l-48.118,15.683c-3.339,1.341-5.671,3.794-6.119,6.126h147.575C211.313,158.316,208.981,155.863,205.642,154.522z
				 M137.467,150.896h0.475l-0.237,0.591L137.467,150.896z"/>
			<path fill="#273E49" d="M137.905,150.896h0.037l-0.037,0.092v9.66h73.856c-0.448-2.332-2.781-4.785-6.119-6.126l-48.658-15.697
				l-1.006-11.346c8.703-7.306,11.908-24.214,14.425-37.571c4.143-21.985-14.501-40.515-32.498-40.652V150.896z"/>
		</g>
		<g>
			<path fill="#86C440" d="M227.102,45.694h-45.597c-4.042,0-7.319,3.277-7.319,7.319V78.26c0,4.042,3.277,7.319,7.319,7.319h0.924
				v10.836l10.836-10.836h33.837c4.042,0,7.319-3.277,7.319-7.319V53.012C234.421,48.97,231.144,45.694,227.102,45.694z
				 M187.691,70.799c-2.47,0-4.473-2.003-4.473-4.473c0-2.47,2.003-4.473,4.473-4.473s4.473,2.003,4.473,4.473
				C192.164,68.797,190.162,70.799,187.691,70.799z M204.059,70.799c-2.47,0-4.473-2.003-4.473-4.473
				c0-2.47,2.003-4.473,4.473-4.473c2.47,0,4.473,2.003,4.473,4.473C208.532,68.797,206.529,70.799,204.059,70.799z M220.427,70.799
				c-2.47,0-4.473-2.003-4.473-4.473c0-2.47,2.003-4.473,4.473-4.473c2.47,0,4.473,2.003,4.473,4.473
				C224.9,68.797,222.897,70.799,220.427,70.799z"/>
			<path fill="#5FA53B" d="M227.102,45.694h-23.383V61.87c0.112-0.008,0.225-0.017,0.34-0.017c2.47,0,4.473,2.003,4.473,4.473
				c0,2.47-2.003,4.473-4.473,4.473c-0.115,0-0.227-0.009-0.34-0.017v14.796h23.383c4.042,0,7.319-3.277,7.319-7.319V53.012
				C234.421,48.97,231.144,45.694,227.102,45.694z M220.427,70.799c-2.47,0-4.473-2.003-4.473-4.473c0-2.47,2.003-4.473,4.473-4.473
				c2.47,0,4.473,2.003,4.473,4.473C224.9,68.797,222.897,70.799,220.427,70.799z"/>
		</g>
	</g>
</g>
</svg>
