<svg xmlns="http://www.w3.org/2000/svg" viewBox="0 0 200.03 200.08"><title>time</title><circle cx="100.29" cy="101.48" r="88.67" style="fill:#fff"/><path d="M109.3,27V204.29A88.67,88.67,0,1,0,109.3,27Z" transform="translate(-8.21 -14.86)" style="fill:#d4effc"/><path d="M108.21,17.51a97.5,97.5,0,1,0,97.5,97.5A97.5,97.5,0,0,0,108.21,17.51Zm0,177A79.46,79.46,0,1,1,187.68,115,79.46,79.46,0,0,1,108.21,194.47Z" transform="translate(-8.21 -14.86)" style="fill:#b11116"/><path d="M108.21,14.94a100,100,0,1,0,100,100A100,100,0,0,0,108.21,14.94Zm0,187a87,87,0,1,1,87-87A87,87,0,0,1,108.21,201.94Z" transform="translate(-8.21 -14.86)" style="fill:#ed1c24"/><polygon points="101.3 32.4 98.7 32.4 97.95 23.65 102.05 23.65 101.3 32.4" style="fill:#8f9194"/><polygon points="98.7 168.15 101.3 168.15 102.05 176.9 97.95 176.9 98.7 168.15" style="fill:#8f9194"/><polygon points="32.13 98.97 32.13 101.58 23.38 102.32 23.38 98.23 32.13 98.97" style="fill:#8f9194"/><polygon points="167.88 101.58 167.88 98.97 176.63 98.23 176.63 102.32 167.88 101.58" style="fill:#8f9194"/><polygon points="64.32 158.03 66.56 159.36 62.75 167.27 59.22 165.18 64.32 158.03" style="fill:#8f9194"/><polygon points="135.68 42.52 133.44 41.19 137.25 33.28 140.78 35.37 135.68 42.52" style="fill:#8f9194"/><polygon points="39.62 131.32 40.86 133.61 33.51 138.42 31.57 134.81 39.62 131.32" style="fill:#8f9194"/><polygon points="160.38 69.24 159.14 66.94 166.49 62.14 168.43 65.74 160.38 69.24" style="fill:#8f9194"/><polygon points="157.75 135.96 159.08 133.71 166.99 137.53 164.91 141.05 157.75 135.96" style="fill:#8f9194"/><polygon points="42.24 64.6 40.92 66.84 33.01 63.03 35.09 59.5 42.24 64.6" style="fill:#8f9194"/><polygon points="131.04 160.65 133.34 159.42 138.14 166.77 134.53 168.71 131.04 160.65" style="fill:#8f9194"/><polygon points="68.96 39.9 66.67 41.14 61.86 33.79 65.47 31.84 68.96 39.9" style="fill:#8f9194"/><path d="M109.87,17.41V35.46a79.44,79.44,0,0,1,0,158.85v18.06A97.49,97.49,0,0,0,109.87,17.41Z" transform="translate(-8.21 -14.86)" style="fill:#600000"/><path d="M109.87,14.86v13a87,87,0,0,1,0,174v13A100,100,0,0,0,109.87,14.86Z" transform="translate(-8.21 -14.86)" style="fill:#b11116"/><polygon points="102.04 100.91 100.53 103.3 98.26 101.76 82.81 28.88 84.64 28.46 102.04 100.91" style="fill:#48484a"/><polygon points="102.31 103.14 99.49 103.13 99.58 100.39 135.12 66.09 136.45 67.42 102.31 103.14" style="fill:#48484a"/></svg>