<?xml version="1.0" encoding="utf-8"?>
<!-- Generator: Adobe Illustrator 19.2.1, SVG Export Plug-In . SVG Version: 6.00 Build 0)  -->
<svg version="1.1" id="Layer_1" xmlns="http://www.w3.org/2000/svg" xmlns:xlink="http://www.w3.org/1999/xlink" x="0px" y="0px"
	 width="289px" height="206.827px" viewBox="0 0 289 206.827" enable-background="new 0 0 289 206.827" xml:space="preserve">
<g>
	<defs>
		<path id="SVGID_1_" d="M0,206V11.348C0,5.081,5.076,0,11.339,0h266.323C283.924,0,289,5.081,289,11.348V206H0z"/>
	</defs>
	<clipPath id="SVGID_2_">
		<use xlink:href="#SVGID_1_"  overflow="visible"/>
	</clipPath>
	<linearGradient id="SVGID_3_" gradientUnits="userSpaceOnUse" x1="144.5" y1="276" x2="144.5" y2="-5.978109e-09">
		<stop  offset="0.3164" style="stop-color:#FFFFFF"/>
		<stop  offset="1" style="stop-color:#ADE1F9"/>
	</linearGradient>
	<path display="none" clip-path="url(#SVGID_2_)" fill="url(#SVGID_3_)" d="M277.661,276H11.339C5.076,276,0,270.924,0,264.661
		V11.339C0,5.076,5.076,0,11.339,0h266.323C283.924,0,289,5.076,289,11.339v253.323C289,270.924,283.924,276,277.661,276z"/>
	<g clip-path="url(#SVGID_2_)">
		<g>
			<path fill="#48484A" d="M142.834,150.281c-6.094-6.259-19.331-6.369-19.331-26.136h-8.712h-2.101h-1.069h-0.321h-8.391
				c0,19.767-13.237,19.877-19.331,26.136c-2.927,3.006-0.823,8.044,3.373,8.044h24.04h0.63h1.069h2.101h24.67
				C143.656,158.325,145.761,153.287,142.834,150.281z"/>
			<path fill="#231F20" d="M142.834,150.281c-6.094-6.259-19.331-6.369-19.331-26.136h-8.712h-0.911v34.181h0.911h24.67
				C143.656,158.325,145.761,153.287,142.834,150.281z"/>
			<path fill="#808184" d="M174.979,136.886c0,3.412-2.766,6.177-6.177,6.177H57.611c-3.412,0-6.177-2.766-6.177-6.177V55.964
				c0-3.412,2.766-6.177,6.177-6.177h111.19c3.412,0,6.177,2.766,6.177,6.177V136.886z"/>
			<path fill="#48484A" d="M168.801,49.787H113.88v93.276h54.921c3.412,0,6.177-2.766,6.177-6.177V55.964
				C174.979,52.553,172.213,49.787,168.801,49.787z"/>
			<rect x="55.243" y="58.435" fill="#FFFFFF" width="115.926" height="70.009"/>
			<rect x="113.88" y="58.435" fill="#D7E8F2" width="57.289" height="70.009"/>
			<circle fill="#B2D235" cx="168.24" cy="135.445" r="2.059"/>
		</g>
		<g>
			<rect x="183.18" y="92.494" fill="#FFFFFF" width="46.329" height="65.024"/>
			<rect x="190.224" y="105.498" fill="#808184" width="32.512" height="2.709"/>
			<rect x="190.224" y="114.71" fill="#808184" width="32.512" height="2.709"/>
			<rect x="190.224" y="123.922" fill="#808184" width="21.083" height="2.709"/>
			<path fill="#A7A5A6" d="M190.597,97.777L190.597,97.777c-0.726,0-1.321-0.594-1.321-1.321v-8.128
				c0-0.726,0.594-1.321,1.321-1.321l0,0c0.726,0,1.321,0.594,1.321,1.321v8.128C191.918,97.182,191.324,97.777,190.597,97.777z"/>
			<path fill="#A7A5A6" d="M198.395,97.777L198.395,97.777c-0.726,0-1.321-0.594-1.321-1.321v-8.128
				c0-0.726,0.594-1.321,1.321-1.321h0c0.726,0,1.321,0.594,1.321,1.321v8.128C199.716,97.182,199.121,97.777,198.395,97.777z"/>
			<path fill="#A7A5A6" d="M206.193,97.777L206.193,97.777c-0.726,0-1.321-0.594-1.321-1.321v-8.128
				c0-0.726,0.594-1.321,1.321-1.321l0,0c0.726,0,1.321,0.594,1.321,1.321v8.128C207.513,97.182,206.919,97.777,206.193,97.777z"/>
			<path fill="#A7A5A6" d="M213.99,97.777L213.99,97.777c-0.726,0-1.321-0.594-1.321-1.321v-8.128c0-0.726,0.594-1.321,1.321-1.321
				l0,0c0.726,0,1.321,0.594,1.321,1.321v8.128C215.311,97.182,214.717,97.777,213.99,97.777z"/>
			<path fill="#A7A5A6" d="M221.788,97.777L221.788,97.777c-0.726,0-1.321-0.594-1.321-1.321v-8.128
				c0-0.726,0.594-1.321,1.321-1.321l0,0c0.726,0,1.321,0.594,1.321,1.321v8.128C223.109,97.182,222.515,97.777,221.788,97.777z"/>
		</g>
		<path fill="#A7A5A6" d="M223.109,92.494v-4.166c0-0.726-0.594-1.321-1.321-1.321s-1.321,0.594-1.321,1.321v4.166h-5.156v-4.166
			c0-0.726-0.594-1.321-1.321-1.321s-1.321,0.594-1.321,1.321v4.166h-5.156v-4.166c0-0.726-0.594-1.321-1.321-1.321
			c-0.017,0-0.034,0.004-0.051,0.005v70.505h23.368V92.494H223.109z"/>
		<g>
			<g>
				
					<rect x="191.643" y="127.387" transform="matrix(0.7071 -0.7071 0.7071 0.7071 -30.5311 193.9333)" fill="#FFCA05" width="54.379" height="12.867"/>
				
					<rect x="237.057" y="106.152" transform="matrix(0.7071 -0.7071 0.7071 0.7071 -9.2961 202.7283)" fill="#F69A7E" width="6.023" height="12.867"/>
				<polygon fill="#FFDCAD" points="195.062,157.592 204.16,157.592 195.062,148.493 				"/>
				<polygon fill="#48484A" points="195.062,157.592 198.199,157.592 195.062,154.455 				"/>
			</g>
			<polygon fill="#E6BC81" points="195.078,157.592 204.16,157.592 199.619,153.05 			"/>
			
				<rect x="193.922" y="132.888" transform="matrix(0.7071 -0.7071 0.7071 0.7071 -31.4747 196.2126)" fill="#F9A51A" width="54.379" height="6.423"/>
			<polygon fill="#323031" points="195.078,157.592 198.199,157.592 196.638,156.031 			"/>
			
				<rect x="239.335" y="111.653" transform="matrix(0.7071 -0.7071 0.7071 0.7071 -10.2396 205.0078)" fill="#EC1C24" width="6.023" height="6.423"/>
		</g>
	</g>
</g>
</svg>
