<svg xmlns="http://www.w3.org/2000/svg" xmlns:xlink="http://www.w3.org/1999/xlink" width="289" height="276" viewBox="0 0 289 276"><defs><style>.cls-1{isolation:isolate;}.cls-2{fill:url(#linear-gradient);}.cls-3{fill:#3d391b;}.cls-4{fill:#f1e469;}.cls-5{fill:#647575;}.cls-6{fill:#f6921e;}.cls-7{fill:#fff;}.cls-8,.cls-9{fill:#af9e46;}.cls-13,.cls-9{mix-blend-mode:multiply;}.cls-10{fill:#ade1f9;}.cls-11{fill:#f58e75;}.cls-12{fill:#c1ddd5;}.cls-13{fill:#aa5640;opacity:0.4;}</style><linearGradient id="linear-gradient" x1="144.5" y1="276" x2="144.5" gradientUnits="userSpaceOnUse"><stop offset="0.32" stop-color="#fff"/><stop offset="1" stop-color="#ade1f9"/></linearGradient></defs><title>transport</title><g class="cls-1"><g id="Layer_1" data-name="Layer 1"><rect class="cls-2" width="289" height="276" rx="11.34" ry="11.34"/><rect class="cls-3" x="151.84" y="161.11" width="76.63" height="17.82" rx="3.28" ry="3.28"/><path class="cls-3" d="M202.69,23.68h-7a3,3,0,0,0-3,3h0a3,3,0,0,0,3,3h1.74V54.84a1.74,1.74,0,0,0,3.48,0V29.69h1.74a3,3,0,0,0,3-3h0A3,3,0,0,0,202.69,23.68Z"/><path class="cls-4" d="M225.2,56.69a7.43,7.43,0,0,0-5.82-2.8H160.91a7.43,7.43,0,0,0-5.82,2.8l-12,15.07V154l4.75,19.93,12.65,1.42,10.12-2.56a161.16,161.16,0,0,1,19.53-2.6,161.16,161.16,0,0,1,19.53,2.6l10.12,2.56,12.65-1.42L237.21,154V71.76Z"/><path class="cls-3" d="M221.09,80.3V71.94a9.35,9.35,0,0,0-9.35-9.35H168.56a9.35,9.35,0,0,0-9.35,9.35V80.3H143.07v39.54h6.64l9.49,10.76h61.88v0l9.49-10.76h6.64V80.3H221.09Z"/><path class="cls-5" d="M217,83.94v-10c0-3.81-1.76-6.9-6.9-6.9H169c-2.48,0-5.57,3.09-5.57,6.9v10H143v32.27h10.33l8.65,9.81h56.41v0l8.65-9.81h10.33V83.94H217Z"/><polygon class="cls-3" points="225.11 154.07 221.79 151.22 160.1 151.22 156.14 154.07 143.14 154.07 143.41 155.33 156.14 155.33 160.1 152.49 221.79 152.49 225.11 155.33 236.94 155.33 237.21 154.07 225.11 154.07"/><path class="cls-6" d="M163.88,132.68l12.56,17.59s-8.86.29-11.32-.51A9.25,9.25,0,0,1,163.88,132.68Z"/><circle class="cls-7" cx="165.59" cy="144.88" r="3.44"/><path class="cls-6" d="M216.42,132.68l-12.56,17.59s8.86,0.29,11.32-.51A9.25,9.25,0,0,0,216.42,132.68Z"/><circle class="cls-7" cx="214.71" cy="144.88" r="3.44"/><rect class="cls-8" x="177.58" y="165.64" width="25.15" height="1.66" rx="0.59" ry="0.59" transform="translate(380.3 332.93) rotate(-180)"/><rect class="cls-8" x="175.68" y="163.03" width="28.95" height="1.66" rx="0.59" ry="0.59" transform="translate(380.3 327.71) rotate(180)"/><rect class="cls-8" x="173.78" y="160.42" width="32.74" height="1.66" rx="0.59" ry="0.59" transform="translate(380.3 322.49) rotate(180)"/><path class="cls-9" d="M237.23,83.94V80.3h0V71.76l-12-15.07a7.43,7.43,0,0,0-5.82-2.8H201V29.69h1.74a3,3,0,0,0,3-3h0a3,3,0,0,0-3-3h-7a3,3,0,0,0-3,3h0a3,3,0,0,0,3,3h1.74v24.2h-7.75V170.23l0.43,0a161.16,161.16,0,0,1,19.53,2.6l10.12,2.56,12.65-1.42,4.43-18.61h0l0.28-1.27h0V119.84h0v-3.64h0.11V83.94h-0.11Z"/><circle class="cls-4" cx="65.39" cy="150.3" r="8.61"/><circle class="cls-4" cx="122.77" cy="150.3" r="8.61"/><rect class="cls-3" x="58.11" y="161.11" width="13.02" height="18.32" rx="6.05" ry="6.05"/><rect class="cls-3" x="115.93" y="161.11" width="13.02" height="18.32" rx="6.05" ry="6.05"/><polygon class="cls-10" points="122.77 140.14 64.07 140.14 70.69 118.74 116.15 118.74 122.77 140.14"/><path class="cls-11" d="M128,137.75L121.12,120c-1.29-3.4-4.1-6.3-9.42-6.32H75.53c-5.3,0-8.11,2.92-9.42,6.32l-6.88,17.77a9.66,9.66,0,0,0-7.56,9.65v18.67a4,4,0,0,0,4,4h76a4,4,0,0,0,4-4V147.4A9.71,9.71,0,0,0,128,137.75ZM64.87,156.37a6,6,0,1,1,5.81-6A5.88,5.88,0,0,1,64.87,156.37Zm28.77-18.79H66.39l5.19-14c0.63-2,1.6-3.41,3.89-3.44h36.34c2.26,0,3.24,1.45,3.89,3.44l5.19,14H93.64Zm28.78,18.79a6,6,0,1,1,5.81-6A5.93,5.93,0,0,1,122.42,156.37Z"/><rect class="cls-12" x="79.08" y="151.73" width="28.3" height="4.47" rx="2.08" ry="2.08"/><rect class="cls-12" x="79.08" y="158.19" width="28.3" height="4.47" rx="2.08" ry="2.08"/><path class="cls-13" d="M128,137.75L121.12,120c-1.29-3.4-4.1-6.3-9.42-6.32H93.64V170h22.29v2.89a6.51,6.51,0,1,0,13,0V170h2.71a4,4,0,0,0,4-4V147.4A9.71,9.71,0,0,0,128,137.75Z"/></g></g></svg>