<svg id="Capa_1" data-name="Capa 1" xmlns="http://www.w3.org/2000/svg" width="34.02" height="37.02" viewBox="0 0 34.02 37.02"><defs><style>.cls-1{fill:#103d2b;}.cls-2{fill:#fff;}</style></defs><title>twitter</title><path class="cls-1" d="M18.06,4.85a17,17,0,1,0,17,17A17,17,0,0,0,18.06,4.85Zm6.79,14.36c0,0.15,0,.3,0,0.45A9.94,9.94,0,0,1,9.55,28a7.07,7.07,0,0,0,5.17-1.45,3.5,3.5,0,0,1-3.26-2.43,3.46,3.46,0,0,0,.66.06A3.41,3.41,0,0,0,13,24.1a3.5,3.5,0,0,1-2.8-3.43v0a3.5,3.5,0,0,0,1.58.44,3.5,3.5,0,0,1-1.08-4.67,9.92,9.92,0,0,0,7.2,3.65,3.5,3.5,0,0,1,6-3.19A7,7,0,0,0,26.12,16,3.5,3.5,0,0,1,24.58,18a7,7,0,0,0,2-.55A7.09,7.09,0,0,1,24.85,19.21Z" transform="translate(-1.05 -1.85)"/><path class="cls-2" d="M18.06,1.85a17,17,0,1,0,17,17A17,17,0,0,0,18.06,1.85Zm6.79,14.36c0,0.15,0,.3,0,0.45A9.94,9.94,0,0,1,9.55,25a7.07,7.07,0,0,0,5.17-1.45,3.5,3.5,0,0,1-3.26-2.43,3.46,3.46,0,0,0,.66.06A3.41,3.41,0,0,0,13,21.1a3.5,3.5,0,0,1-2.8-3.43v0a3.5,3.5,0,0,0,1.58.44,3.5,3.5,0,0,1-1.08-4.67,9.92,9.92,0,0,0,7.2,3.65,3.5,3.5,0,0,1,6-3.19A7,7,0,0,0,26.12,13,3.5,3.5,0,0,1,24.58,15a7,7,0,0,0,2-.55A7.09,7.09,0,0,1,24.85,16.21Z" transform="translate(-1.05 -1.85)"/></svg>