<svg id="Layer_1" data-name="Layer 1" xmlns="http://www.w3.org/2000/svg" xmlns:xlink="http://www.w3.org/1999/xlink" width="289" height="276" viewBox="0 0 289 276"><defs><linearGradient id="linear-gradient" x1="144.5" y1="276" x2="144.5" gradientUnits="userSpaceOnUse"><stop offset="0.32" stop-color="#fff"/><stop offset="1" stop-color="#ade1f9"/></linearGradient><clipPath id="clip-path"><rect x="95.79" y="15.22" width="54.18" height="213" style="fill:none"/></clipPath></defs><title>volunteer</title><rect width="289" height="276" rx="11.34" ry="11.34" style="fill:url(#linear-gradient)"/><path d="M159.76,150.89l-0.55-.45H140.67l-0.56.44a0.51,0.51,0,0,0-.19.39l-0.83,62.27c0,5.12,3.34,9.28,7.45,9.28h6.82c4.1,0,7.45-4.16,7.45-9.28l-0.85-62.26A0.51,0.51,0,0,0,159.76,150.89Z" style="fill:#58241a"/><path d="M185.15,39.12h-8.91c-2.69,0-4.25,1.31-4.5,3.68A5.54,5.54,0,0,1,167.56,45a5.19,5.19,0,0,1-4.08-2.25,0.51,0.51,0,0,0-.4-0.2l-5.16,0a1.43,1.43,0,0,0-.27-0.59,2.66,2.66,0,0,0-2.24-.71H144.48a2.67,2.67,0,0,0-2.24.71,1.47,1.47,0,0,0-.27.6c-2.4,0-4.16.06-4.58,0.12-11.23.52-19.44,3.81-24.4,9.83-6.91,8.38-5,18.87-4.88,19.31a0.5,0.5,0,0,0,.5.41h1.94a0.5,0.5,0,0,0,.5-0.43c1.46-10.37,15.35-12.82,23.68-13.35,0,0.11.07,0.24,0.1,0.33,0.17,0.6.3,1.07,0.81,1.07h0c0.75,0,1.43-.06,2-0.08v0h1l1.94,17.18a0.51,0.51,0,0,0,.5.45h1.39l-1,74.13h17l-1-74.13h1.38a0.51,0.51,0,0,0,.5-0.45l2-17.31h1.5a0.49,0.49,0,0,0,.35-0.15,7,7,0,0,1,4.32-1.58,7.64,7.64,0,0,1,4.32,1.44,4.21,4.21,0,0,0,4.48,3.81h8.91c1,0,1.58-1.24,2-4a54.82,54.82,0,0,0,.51-8C187.67,47.51,187.42,39.12,185.15,39.12Z" style="fill:#7f94ae"/><g style="clip-path:url(#clip-path)"><path d="M159.76,150.89l-0.55-.45H140.67l-0.56.44a0.51,0.51,0,0,0-.19.39l-0.83,62.27c0,5.12,3.34,9.28,7.45,9.28h6.82c4.1,0,7.45-4.16,7.45-9.28l-0.85-62.26A0.51,0.51,0,0,0,159.76,150.89Z" style="fill:#753022"/><path d="M185.15,39.12h-8.91c-2.69,0-4.25,1.31-4.5,3.68A5.54,5.54,0,0,1,167.56,45a5.19,5.19,0,0,1-4.08-2.25,0.51,0.51,0,0,0-.4-0.2l-5.16,0a1.43,1.43,0,0,0-.27-0.59,2.66,2.66,0,0,0-2.24-.71H144.48a2.67,2.67,0,0,0-2.24.71,1.47,1.47,0,0,0-.27.6c-2.4,0-4.16.06-4.58,0.12-11.23.52-19.44,3.81-24.4,9.83-6.91,8.38-5,18.87-4.88,19.31a0.5,0.5,0,0,0,.5.41h1.94a0.5,0.5,0,0,0,.5-0.43c1.46-10.37,15.35-12.82,23.68-13.35,0,0.11.07,0.24,0.1,0.33,0.17,0.6.3,1.07,0.81,1.07h0c0.75,0,1.43-.06,2-0.08v0h1l1.94,17.18a0.51,0.51,0,0,0,.5.45h1.39l-1,74.13h17l-1-74.13h1.38a0.51,0.51,0,0,0,.5-0.45l2-17.31h1.5a0.49,0.49,0,0,0,.35-0.15,7,7,0,0,1,4.32-1.58,7.64,7.64,0,0,1,4.32,1.44,4.21,4.21,0,0,0,4.48,3.81h8.91c1,0,1.58-1.24,2-4a54.82,54.82,0,0,0,.51-8C187.67,47.51,187.42,39.12,185.15,39.12Z" style="fill:#9fafc2"/></g></svg>