<?xml version="1.0" encoding="utf-8"?>
<!-- Generator: Adobe Illustrator 19.2.1, SVG Export Plug-In . SVG Version: 6.00 Build 0)  -->
<svg version="1.1" id="Layer_1" xmlns="http://www.w3.org/2000/svg" xmlns:xlink="http://www.w3.org/1999/xlink" x="0px" y="0px"
	 width="289px" height="206.327px" viewBox="0 0 289 206.327" enable-background="new 0 0 289 206.327" xml:space="preserve">
<g>
	<defs>
		<path id="SVGID_1_" d="M0,206V11.348C0,5.081,5.076,0,11.339,0h266.323C283.924,0,289,5.081,289,11.348V206H0z"/>
	</defs>
	<clipPath id="SVGID_2_">
		<use xlink:href="#SVGID_1_"  overflow="visible"/>
	</clipPath>
	<linearGradient id="SVGID_3_" gradientUnits="userSpaceOnUse" x1="144.5" y1="276" x2="144.5" y2="-5.978109e-09">
		<stop  offset="0.3164" style="stop-color:#FFFFFF"/>
		<stop  offset="1" style="stop-color:#ADE1F9"/>
	</linearGradient>
	<path display="none" clip-path="url(#SVGID_2_)" fill="url(#SVGID_3_)" d="M277.661,276H11.339C5.076,276,0,270.924,0,264.661
		V11.339C0,5.076,5.076,0,11.339,0h266.323C283.924,0,289,5.076,289,11.339v253.323C289,270.924,283.924,276,277.661,276z"/>
	<g clip-path="url(#SVGID_2_)">
		<g>
			<path fill="#58241A" d="M159.762,150.892l-0.549-0.45h-18.54l-0.562,0.445c-0.118,0.095-0.191,0.235-0.192,0.389l-0.83,62.265
				c0,5.116,3.341,9.277,7.449,9.277h6.816c4.105,0,7.446-4.161,7.446-9.282l-0.852-62.26
				C159.944,151.126,159.878,150.987,159.762,150.892z"/>
			<path fill="#7F94AE" d="M185.152,39.116h-8.909c-2.689,0-4.254,1.308-4.501,3.681c-1.058,1.33-2.653,2.156-4.183,2.156
				c-1.521,0-2.973-0.802-4.082-2.253c-0.095-0.123-0.243-0.196-0.4-0.198c-0.275,0-2.324-0.015-5.157-0.026
				c-0.047-0.215-0.133-0.415-0.273-0.592c-0.387-0.49-1.074-0.708-2.237-0.708h-10.932c-1.162,0-1.852,0.219-2.238,0.708
				c-0.14,0.179-0.224,0.379-0.273,0.596c-2.401,0.021-4.155,0.06-4.583,0.12c-11.231,0.516-19.437,3.812-24.402,9.833
				c-6.908,8.384-4.968,18.865-4.882,19.306c0.045,0.237,0.254,0.407,0.495,0.407h1.936c0.252,0,0.465-0.185,0.499-0.433
				c1.459-10.366,15.351-12.819,23.684-13.348c0.036,0.108,0.071,0.237,0.097,0.333c0.172,0.598,0.305,1.072,0.811,1.072
				c0,0,0,0,0.002,0c0.745-0.039,1.426-0.062,2.02-0.077v0.043l0.994-0.006l1.939,17.18c0.03,0.256,0.245,0.448,0.501,0.448h1.388
				l-0.985,74.128h16.954l-1.003-74.128h1.381c0.258,0,0.473-0.192,0.503-0.448l1.954-17.305l1.504-0.007
				c0.133,0,0.262-0.054,0.353-0.149c0.97-0.973,2.995-1.575,4.318-1.575c1.319,0,3.382,0.59,4.324,1.442
				c0.351,2.375,1.995,3.813,4.477,3.813h8.909c0.958,0,1.577-1.241,2.009-4.021c0.329-2.111,0.508-4.948,0.508-7.986
				C187.671,47.514,187.424,39.116,185.152,39.116z"/>
		</g>
		<g>
			<defs>
				<rect id="SVGID_4_" x="95.793" y="15.217" width="54.184" height="213"/>
			</defs>
			<clipPath id="SVGID_5_">
				<use xlink:href="#SVGID_4_"  overflow="visible"/>
			</clipPath>
			<g clip-path="url(#SVGID_5_)">
				<path fill="#753022" d="M159.762,150.892l-0.549-0.45h-18.54l-0.562,0.445c-0.118,0.095-0.191,0.235-0.192,0.389l-0.83,62.265
					c0,5.116,3.341,9.277,7.449,9.277h6.816c4.105,0,7.446-4.161,7.446-9.282l-0.852-62.26
					C159.944,151.126,159.878,150.987,159.762,150.892z"/>
				<path fill="#9FAFC2" d="M185.152,39.116h-8.909c-2.689,0-4.254,1.308-4.501,3.681c-1.058,1.33-2.653,2.156-4.183,2.156
					c-1.521,0-2.973-0.802-4.082-2.253c-0.095-0.123-0.243-0.196-0.4-0.198c-0.275,0-2.324-0.015-5.157-0.026
					c-0.047-0.215-0.133-0.415-0.273-0.592c-0.387-0.49-1.074-0.708-2.237-0.708h-10.932c-1.162,0-1.852,0.219-2.238,0.708
					c-0.14,0.179-0.224,0.379-0.273,0.596c-2.401,0.021-4.155,0.06-4.583,0.12c-11.231,0.516-19.437,3.812-24.402,9.833
					c-6.908,8.384-4.968,18.865-4.882,19.306c0.045,0.237,0.254,0.407,0.495,0.407h1.936c0.252,0,0.465-0.185,0.499-0.433
					c1.459-10.366,15.351-12.819,23.684-13.348c0.036,0.108,0.071,0.237,0.097,0.333c0.172,0.598,0.305,1.072,0.811,1.072
					c0,0,0,0,0.002,0c0.745-0.039,1.426-0.062,2.02-0.077v0.043l0.994-0.006l1.939,17.18c0.03,0.256,0.245,0.448,0.501,0.448h1.388
					l-0.985,74.128h16.954l-1.003-74.128h1.381c0.258,0,0.473-0.192,0.503-0.448l1.954-17.305l1.504-0.007
					c0.133,0,0.262-0.054,0.353-0.149c0.97-0.973,2.995-1.575,4.318-1.575c1.319,0,3.382,0.59,4.324,1.442
					c0.351,2.375,1.995,3.813,4.477,3.813h8.909c0.958,0,1.577-1.241,2.009-4.021c0.329-2.111,0.508-4.948,0.508-7.986
					C187.671,47.514,187.424,39.116,185.152,39.116z"/>
			</g>
		</g>
	</g>
</g>
</svg>
