<?xml version="1.0" encoding="UTF-8"?>
<svg width="1815px" height="488px" viewBox="0 0 1815 488" version="1.1" xmlns="http://www.w3.org/2000/svg" xmlns:xlink="http://www.w3.org/1999/xlink">
    <title>logo-mobile</title>
    <g id="Horizontal" stroke="none" stroke-width="1" fill="none" fill-rule="evenodd">
        <g id="logo-mobile" fill-rule="nonzero">
            <rect id="Rectangle" fill="#D00E38" x="0" y="0" width="487.69" height="487.94" rx="50"></rect>
            <path d="M317.32,267.74 C317.32,185.51 317.23,116.74 317.23,116.74 L262.88,116.74 L262.88,283.74 C262.88,310.146667 270.14,330.666667 284.66,345.3 C299.18,359.933333 319.293333,367.243333 345,367.23 C354.81,367.23 376.77,367.35 376.77,367.35 C353.82,359.33 317.32,350 317.32,267.74 Z" id="Path" fill="#FFFFFF"></path>
            <path d="M110.25,367.23 C110.25,367.23 132.25,367.11 142.07,367.11 C167.81,367.11 187.953333,359.8 202.5,345.18 C217.046667,330.56 224.32,310.05 224.32,283.65 L224.32,116.74 L169.88,116.74 C169.88,116.74 169.79,185.47 169.79,267.66 C169.79,349.85 133.22,359.21 110.25,367.23 Z" id="Path" fill="#FFFFFF"></path>
            <path d="M761.39,116.23 L761.39,292.76 C761.39,316.86 754.723333,335.586667 741.39,348.94 C728.056667,362.293333 709.573333,368.96 685.94,368.940045 C660.433333,368.940045 640.24,361.606667 625.36,346.94 C610.48,332.273333 603.026667,311.376667 603,284.25 L652.24,284.25 C652.24,297.01 654.906667,306.816667 660.24,313.67 C665.573333,320.523333 673.426667,323.966667 683.8,324 C693.24,324 700.206667,321.223333 704.7,315.67 C709.193333,310.116667 711.436667,302.496667 711.43,292.81 L711.43,116.23 L761.39,116.23 Z" id="Path" fill="#3C3C3B"></path>
            <path d="M992.74,170.11 L992.74,366.49 L942.74,366.49 L942.74,326.78 C937.831749,339.661885 928.803562,350.560398 917.06,357.78 C905.16,365.26 891.413333,369 875.82,369 C853.153333,369 835.083333,361.556667 821.61,346.67 C808.136667,331.783333 801.406667,310.986667 801.41998,284.28 L801.41998,170.11 L851,170.11 L851,278.58 C851,294.173333 855.016667,306.283333 863.05,314.91 C871.083333,323.536667 881.946667,327.85 895.64,327.85 C910.053333,327.85 921.51,323.24 930.01,314.02 C938.51,304.8 942.76,291.566667 942.76,274.32 L942.76,170.11 L992.74,170.11 Z" id="Path" fill="#3C3C3B"></path>
            <path d="M1156.07,185.7 C1170.47,197.76 1179.44333,213.83 1182.99,233.91 L1136.23,233.91 C1134.33,224.456667 1130.07667,216.896667 1123.47,211.23 C1116.86333,205.563333 1108.24333,202.726667 1097.61,202.72 C1089.09667,202.72 1082.48333,204.72 1077.77,208.72 C1073.05667,212.72 1070.69333,218.156667 1070.68,225.03 C1070.49119,230.035278 1072.57524,234.857636 1076.35,238.15 C1080.50198,241.672325 1085.32126,244.321738 1090.52,245.94 C1096.19333,247.84 1104.34333,250.086667 1114.97,252.68 C1129.85,256.013333 1141.95333,259.5 1151.28,263.14 C1160.6401,266.822437 1168.92649,272.794825 1175.38,280.51 C1182.10667,288.43 1185.47,299.123333 1185.47,312.59 C1185.47,329.37 1178.91667,342.956667 1165.81,353.35 C1152.70333,363.743333 1135.03667,368.943333 1112.81,368.95 C1087.29667,368.95 1066.86667,363.22 1051.52,351.76 C1036.17333,340.3 1026.84,323.933333 1023.52,302.66 L1071.35,302.66 C1072.53,312.353333 1076.78,319.976667 1084.1,325.53 C1091.42,331.083333 1100.98667,333.856667 1112.8,333.85 C1121.31333,333.85 1127.81,331.783333 1132.29,327.65 C1136.77,323.516667 1139.01333,318.14 1139.02,311.52 C1139.20216,306.276285 1137.06154,301.21932 1133.17,297.7 C1128.96695,293.978438 1124.01607,291.199535 1118.65,289.55 C1112.86333,287.663333 1104.65333,285.416667 1094.02,282.81 C1079.35333,279.476667 1067.48667,276.11 1058.42,272.71 C1049.34244,269.302155 1041.28963,263.624906 1035.03,256.22 C1028.53,248.66 1025.28333,238.263333 1025.29,225.03 C1025.29,208.023333 1031.78667,194.2 1044.78,183.56 C1057.77333,172.92 1075.72333,167.586667 1098.63,167.56 C1122.51,167.6 1141.65667,173.646667 1156.07,185.7 Z" id="Path" fill="#3C3C3B"></path>
            <path d="M1327.54,323.6 L1327.54,366.49 L1301.33,366.49 C1279.33,366.49 1262.5,361.156667 1250.84,350.49 C1239.18,339.823333 1233.33333,322.1 1233.3,297.32 L1233.3,212.29 L1206,212.29 L1206,170.11 L1233.28,170.11 L1233.28,121.54 L1283.28,121.54 L1283.28,170.11 L1327.21,170.11 L1327.21,212.29 L1283.28,212.29 L1283.28,298.07 C1283.28,307.53 1285.16667,314.146667 1288.94,317.92 C1292.71333,321.693333 1299.09333,323.586667 1308.08,323.6 L1327.54,323.6 Z" id="Path" fill="#3C3C3B"></path>
            <polygon id="Path" fill="#3C3C3B" points="1400.83 104.17 1400.83 366.49 1375.68 366.49 1375.68 104.17"></polygon>
            <path d="M1453.14,103.11 C1456.56,100.036667 1460.99,98.5 1466.43,98.5 C1471.87,98.5 1476.24,100.036667 1479.54,103.11 C1482.84,106.19 1484.50667,110.326667 1484.54,115.52 C1484.68414,120.054303 1482.86112,124.429552 1479.54,127.52 C1476.20667,130.586667 1471.83667,132.123333 1466.43,132.130022 C1461.02333,132.136667 1456.59333,130.6 1453.14,127.52 C1449.73332,124.47914 1447.85073,120.083991 1448,115.52 C1448,110.32 1449.71333,106.183333 1453.14,103.11 Z M1478.83,172.94 L1478.83,366.49 L1453.67,366.49 L1453.67,172.94 L1478.83,172.94 Z" id="Shape" fill="#3C3C3B"></path>
            <path d="M1577.45,131.29 C1570.23667,138.03 1566.63333,149.313333 1566.64,165.14 L1566.64,172.94 L1615.18,172.94 L1615.18,194.94 L1566.64,194.94 L1566.64,366.49 L1541.84,366.49 L1541.84,194.92 L1513.14,194.92 L1513.14,172.92 L1541.84,172.92 L1541.84,163.35 C1541.84,141.61 1547.74333,125.303333 1559.55,114.43 C1571.35667,103.556667 1589.9,98.5966667 1615.18,99.55 L1615.18,121.55 C1597.23333,121.316667 1584.65667,124.563333 1577.45,131.29 Z" id="Path" fill="#3C3C3B"></path>
            <path d="M1766.46,335.29 C1778.26667,326.55 1785.35333,314.736667 1787.72,299.85 L1813.94,299.85 C1810.39333,320.41 1800.59,337.076667 1784.53,349.85 C1768.47,362.623333 1748.15667,369.006667 1723.59,369.000005 C1705.17,369.000005 1688.81333,365.04 1674.52,357.12 C1660.20241,349.200523 1648.54165,337.230159 1641,322.71 C1633,307.71 1629,290.043333 1629,269.71 C1629,249.376667 1633,231.71 1641,216.71 C1648.54155,202.210774 1660.18588,190.253422 1674.48,182.33 C1688.76667,174.41 1705.12333,170.45 1723.55,170.45 C1742.44333,170.45 1758.8,174.41 1772.62,182.33 C1786.44,190.25 1796.95,200.823333 1804.15,214.05 C1811.3797,227.315395 1815.11361,242.202837 1815,257.31 C1815.04179,263.366086 1814.56673,269.414694 1813.58,275.39 L1653.44,275.39 C1653.67333,291.69 1657.04,305.336667 1663.54,316.33 C1670.04,327.323333 1678.48333,335.416667 1688.87,340.61 C1699.31937,345.82395 1710.85237,348.49648 1722.53,348.41 C1740.01,348.41 1754.65333,344.036667 1766.46,335.29 Z M1689.22,198.46 C1678.82667,203.666667 1670.38333,211.643333 1663.89,222.39 C1657.65238,233.108846 1654.06935,245.164305 1653.44,257.55 L1790.2,257.55 C1791.02012,245.37719 1788.31558,233.225863 1782.41,222.55 C1776.25667,211.676667 1767.98667,203.64 1757.6,198.44 C1747.03639,193.207341 1735.38805,190.538502 1723.6,190.65 C1711.68572,190.517612 1699.90775,193.193178 1689.22,198.46 Z" id="Shape" fill="#3C3C3B"></path>
        </g>
    </g>
</svg>