<svg xmlns="http://www.w3.org/2000/svg" xmlns:xlink="http://www.w3.org/1999/xlink" width="289" height="276" viewBox="0 0 289 276"><defs><style>.cls-1{isolation:isolate;}.cls-2{fill:url(#linear-gradient);}.cls-3{fill:url(#linear-gradient-2);}.cls-4{fill:#5d5876;}.cls-5{fill:#7b585b;}.cls-6{fill:#fff;}.cls-7{fill:#484759;opacity:0.54;mix-blend-mode:multiply;}</style><linearGradient id="linear-gradient" x1="144.5" y1="276" x2="144.5" gradientUnits="userSpaceOnUse"><stop offset="0.32" stop-color="#fff"/><stop offset="1" stop-color="#ade1f9"/></linearGradient><linearGradient id="linear-gradient-2" x1="89.66" y1="76.82" x2="89.66" y2="24.31" gradientUnits="userSpaceOnUse"><stop offset="0" stop-color="#fff"/><stop offset="1" stop-color="#fff"/></linearGradient></defs><title>accom</title><g class="cls-1"><g id="Layer_1" data-name="Layer 1"><rect class="cls-2" width="289" height="276" rx="11.34" ry="11.34"/><rect class="cls-3" x="69.6" y="24.31" width="40.12" height="52.51"/><rect class="cls-4" x="72.3" y="51.97" width="34.73" height="21.26"/><rect class="cls-4" x="72.3" y="27.57" width="15.71" height="21.26"/><rect class="cls-4" x="91.15" y="27.57" width="15.87" height="21.26"/><rect class="cls-5" x="119.46" y="70.58" width="56.61" height="28.14" rx="6.21" ry="6.21"/><rect class="cls-5" x="100.07" y="132.86" width="95.39" height="28.14" rx="6.21" ry="6.21"/><path class="cls-4" d="M190.44,146.3H105.09A6.7,6.7,0,0,1,99,136.85L116.9,97A6.7,6.7,0,0,1,123,93h49.5a6.7,6.7,0,0,1,6.12,4l17.93,39.89A6.7,6.7,0,0,1,190.44,146.3Z"/><path class="cls-6" d="M172.74,93.82l-1.68-15.44a3.26,3.26,0,0,0-3.24-2.9h-40.1a3.26,3.26,0,0,0-3.24,2.9l-1.68,15.44A3.26,3.26,0,0,0,126,97.43H169.5A3.26,3.26,0,0,0,172.74,93.82Z"/><path class="cls-7" d="M196.56,136.85L178.63,97a6.68,6.68,0,0,0-2.73-3,6.21,6.21,0,0,0,.17-1.42V76.79a6.21,6.21,0,0,0-6.21-6.21h-22V161h41.44a6.21,6.21,0,0,0,6.21-6.21V144A6.67,6.67,0,0,0,196.56,136.85Z"/></g></g></svg>