<svg id="Layer_1" data-name="Layer 1" xmlns="http://www.w3.org/2000/svg" xmlns:xlink="http://www.w3.org/1999/xlink" width="289" height="276" viewBox="0 0 289 276"><defs><style>.cls-1{fill:url(#linear-gradient);}.cls-2{fill:#1b75bb;}.cls-3{fill:#2b388f;}.cls-4{fill:#f69a7e;}.cls-5{fill:#ec1c24;}.cls-6{fill:#d96757;}.cls-7{fill:#b01117;}.cls-8{fill:#fff;}.cls-9{fill:#d3eefb;}</style><linearGradient id="linear-gradient" x1="144.5" y1="276" x2="144.5" gradientUnits="userSpaceOnUse"><stop offset="0.32" stop-color="#fff"/><stop offset="1" stop-color="#ade1f9"/></linearGradient></defs><title>communications</title><rect class="cls-1" width="289" height="276" rx="11.34" ry="11.34"/><path class="cls-2" d="M123.2,74.3a5.76,5.76,0,0,0,7.86.23,74.94,74.94,0,0,1,98.11-.1,5.76,5.76,0,0,0,7.85-.24l0.22-.22a5.74,5.74,0,0,0-.31-8.4,86.71,86.71,0,0,0-113.65.12,5.74,5.74,0,0,0-.3,8.39Z"/><path class="cls-2" d="M140.72,91.82a5.74,5.74,0,0,0,7.7.36,50.24,50.24,0,0,1,63.37-.1,5.74,5.74,0,0,0,7.69-.37l1.39-1.39a5.75,5.75,0,0,0-.46-8.52,63.66,63.66,0,0,0-80.64.12,5.75,5.75,0,0,0-.45,8.51Z"/><path class="cls-2" d="M159,110.07a5.75,5.75,0,0,0,7.33.62,24.7,24.7,0,0,1,27.64-.07,5.73,5.73,0,0,0,7.28-.63l1.13-1.13a5.73,5.73,0,0,0-.77-8.76,37.69,37.69,0,0,0-43,.11,5.73,5.73,0,0,0-.76,8.74Z"/><path class="cls-2" d="M190.46,127.07a10.07,10.07,0,1,1-8.67-8.67A10.07,10.07,0,0,1,190.46,127.07Z"/><path class="cls-3" d="M190.46,127.07a10.08,10.08,0,0,0-8.67-8.67,10.42,10.42,0,0,0-1.42-.08v20.12A10.07,10.07,0,0,0,190.46,127.07Z"/><path class="cls-3" d="M236.93,65.57a86.37,86.37,0,0,0-56.56-21.15V56.19a74.64,74.64,0,0,1,48.79,18.23,5.76,5.76,0,0,0,7.85-.24l0.22-.22A5.74,5.74,0,0,0,236.93,65.57Z"/><path class="cls-3" d="M220.42,81.8a63.39,63.39,0,0,0-40.05-14.34V80.88a50,50,0,0,1,31.43,11.2,5.74,5.74,0,0,0,7.69-.37l1.39-1.39A5.75,5.75,0,0,0,220.42,81.8Z"/><path class="cls-3" d="M201.57,100.1a37.5,37.5,0,0,0-21.2-6.66v13a24.57,24.57,0,0,1,13.56,4.19,5.73,5.73,0,0,0,7.28-.63l1.13-1.13A5.73,5.73,0,0,0,201.57,100.1Z"/><path class="cls-4" d="M141.75,116.41l-6.67-22.54c0-9.06-6.66-18.25-15.72-18.25L102,71.43h0l-15.47,6a16.4,16.4,0,0,0-16.4,16.4l-6.67,22.54c-4.18,12.74,7.34,16.4,16.4,16.4h45.51C134.4,132.82,145.93,129.16,141.75,116.41Z"/><path class="cls-5" d="M146.14,77.74c-4.78-8.68-22.47-15.12-43.55-15.12S63.82,69.06,59,77.74a16.48,16.48,0,0,0-3.47,10.14c0,9.15,16.56,7.86,16.56,7.86S88.69,97,88.69,87.88A16.48,16.48,0,0,0,85.2,77.72a52,52,0,0,1,18.4-3.23,52.7,52.7,0,0,1,16.83,2.67,16.49,16.49,0,0,0-3.94,10.72c0,9.15,16.56,7.86,16.56,7.86s16.56,1.29,16.56-7.86A16.48,16.48,0,0,0,146.14,77.74Z"/><path class="cls-6" d="M141.75,116.41l-6.67-22.54c0-9.06-6.66-18.25-15.72-18.25l-16.84-4.07v61.26h22.83C134.4,132.82,145.93,129.16,141.75,116.41Z"/><path class="cls-7" d="M146.14,77.74c-4.78-8.68-22.47-15.12-43.55-15.12h-0.07V74.5h1.09a52.7,52.7,0,0,1,16.83,2.67,16.49,16.49,0,0,0-3.94,10.72c0,9.15,16.56,7.86,16.56,7.86s16.56,1.29,16.56-7.86A16.48,16.48,0,0,0,146.14,77.74Z"/><circle class="cls-8" cx="102.59" cy="104.65" r="15"/><path class="cls-9" d="M102.59,89.65h-0.07v30h0.07A15,15,0,0,0,102.59,89.65Z"/></svg>