<svg id="Layer_1" data-name="Layer 1" xmlns="http://www.w3.org/2000/svg" xmlns:xlink="http://www.w3.org/1999/xlink" width="289" height="276" viewBox="0 0 289 276"><defs><style>.cls-1{fill:url(#linear-gradient);}.cls-2{fill:#1b75bb;}.cls-3{fill:#2b388f;}.cls-4{fill:#f69a7e;}.cls-5{fill:#ec1c24;}.cls-6{fill:#d96757;}.cls-7{fill:#b01117;}.cls-8{fill:#fff;}.cls-9{fill:#d3eefb;}</style><linearGradient id="linear-gradient" x1="144.5" y1="276" x2="144.5" gradientUnits="userSpaceOnUse"><stop offset="0.32" stop-color="#fff"/><stop offset="1" stop-color="#ade1f9"/></linearGradient></defs><title>communications</title><rect class="cls-1" width="289" height="276" rx="11.34" ry="11.34"/><path class="cls-2" d="M129,96.27a6,6,0,0,0,8.24.24,78.52,78.52,0,0,1,102.8-.11,6,6,0,0,0,8.23-.25l0.23-.23a6,6,0,0,0-.33-8.8,90.86,90.86,0,0,0-119.09.12,6,6,0,0,0-.32,8.79Z"/><path class="cls-2" d="M147.41,114.63a6,6,0,0,0,8.07.38,52.65,52.65,0,0,1,66.4-.1,6,6,0,0,0,8.06-.39l1.46-1.46a6,6,0,0,0-.48-8.93,66.71,66.71,0,0,0-84.5.12,6,6,0,0,0-.47,8.92Z"/><path class="cls-2" d="M166.54,133.75a6,6,0,0,0,7.68.65,25.88,25.88,0,0,1,29-.07,6,6,0,0,0,7.63-.67l1.18-1.18a6,6,0,0,0-.81-9.17,39.5,39.5,0,0,0-45,.11,6,6,0,0,0-.79,9.16Z"/><path class="cls-2" d="M199.53,151.57a10.55,10.55,0,1,1-9.09-9.09A10.55,10.55,0,0,1,199.53,151.57Z"/><path class="cls-3" d="M199.53,151.57a10.57,10.57,0,0,0-9.09-9.09,10.91,10.91,0,0,0-1.48-.08v21.08A10.55,10.55,0,0,0,199.53,151.57Z"/><path class="cls-3" d="M248.22,87.12A90.5,90.5,0,0,0,189,65V77.29A78.21,78.21,0,0,1,240.09,96.4a6,6,0,0,0,8.23-.25l0.23-.23A6,6,0,0,0,248.22,87.12Z"/><path class="cls-3" d="M230.92,104.13a66.42,66.42,0,0,0-42-15v14.06a52.42,52.42,0,0,1,32.93,11.73,6,6,0,0,0,8.06-.39l1.46-1.46A6,6,0,0,0,230.92,104.13Z"/><path class="cls-3" d="M211.17,123.31a39.29,39.29,0,0,0-22.21-7v13.61a25.75,25.75,0,0,1,14.21,4.39,6,6,0,0,0,7.63-.67l1.18-1.18A6,6,0,0,0,211.17,123.31Z"/><path class="cls-4" d="M154.4,148.52l-8-27c0-10.86-8-21.88-18.85-21.88l-20.83-5h0l-18.55,7.24A19.67,19.67,0,0,0,68.5,121.5l-8,27c-5,15.27,8.8,19.67,19.67,19.67h54.56C145.59,168.18,159.41,163.79,154.4,148.52Z"/><path class="cls-5" d="M159.66,102.16C153.93,91.75,132.73,84,107.45,84S61,91.75,55.24,102.16a19.76,19.76,0,0,0-4.16,12.15c0,11,19.85,9.42,19.85,9.42s19.85,1.54,19.85-9.42a19.76,19.76,0,0,0-4.18-12.17,62.32,62.32,0,0,1,22.06-3.87,63.17,63.17,0,0,1,20.17,3.19,19.77,19.77,0,0,0-4.73,12.85c0,11,19.85,9.42,19.85,9.42s19.85,1.54,19.85-9.42A19.76,19.76,0,0,0,159.66,102.16Z"/><path class="cls-6" d="M154.4,148.52l-8-27c0-10.86-8-21.88-18.85-21.88l-20.19-4.87v73.43h27.36C145.59,168.18,159.41,163.79,154.4,148.52Z"/><path class="cls-7" d="M159.66,102.16C153.93,91.75,132.73,84,107.45,84h-0.08V98.28h1.3a63.17,63.17,0,0,1,20.17,3.19,19.77,19.77,0,0,0-4.73,12.85c0,11,19.85,9.42,19.85,9.42s19.85,1.54,19.85-9.42A19.76,19.76,0,0,0,159.66,102.16Z"/><circle class="cls-8" cx="107.45" cy="134.42" r="17.99"/><path class="cls-9" d="M107.45,116.43h-0.08v36h0.08A18,18,0,1,0,107.45,116.43Z"/></svg>