<svg id="Layer_1" data-name="Layer 1" xmlns="http://www.w3.org/2000/svg" xmlns:xlink="http://www.w3.org/1999/xlink" width="289" height="276" viewBox="0 0 289 276"><defs><style>.cls-1{fill:url(#linear-gradient);}.cls-2{fill:#ffdcad;}.cls-3{fill:#830000;}.cls-4{fill:#b01117;}.cls-5{fill:#f4f4f4;}.cls-6{fill:#faaf40;}.cls-7{fill:#8dd7f7;}.cls-8{fill:#c6e9fa;}.cls-9{fill:#420000;}</style><linearGradient id="linear-gradient" x1="144.5" y1="276" x2="144.5" gradientUnits="userSpaceOnUse"><stop offset="0.32" stop-color="#fff"/><stop offset="1" stop-color="#ade1f9"/></linearGradient></defs><title>dropin</title><rect class="cls-1" width="289" height="276" rx="11.34" ry="11.34"/><polygon class="cls-2" points="218.29 119.75 145.68 47.15 127.53 65.3 109.38 65.3 109.38 83.45 73.08 119.75 91.23 119.75 91.23 174.21 128.98 174.21 128.98 137.9 165.28 137.9 165.28 174.21 200.13 174.21 200.13 119.75 218.29 119.75"/><polygon class="cls-3" points="145.42 72.37 193.08 120.03 193.08 119.81 208.88 119.81 145.68 56.61 129.88 72.41 114.08 72.41 114.08 88.21 82.48 119.81 97.98 119.81 145.42 72.37"/><polygon class="cls-4" points="145.38 65.28 200.13 120.03 200.13 119.78 218.29 119.78 145.68 47.17 127.53 65.33 109.38 65.33 109.38 83.48 73.08 119.78 90.88 119.78 145.38 65.28"/><rect class="cls-4" x="128.98" y="137.9" width="36.3" height="36.3"/><rect class="cls-5" x="101.72" y="138.14" width="16.46" height="16.46"/><rect class="cls-5" x="174.63" y="138.14" width="16.46" height="16.46"/><rect class="cls-5" x="101.72" y="138.14" width="16.46" height="16.46"/><rect class="cls-5" x="101.72" y="138.14" width="16.46" height="16.46"/><rect class="cls-5" x="101.72" y="138.14" width="16.46" height="16.46"/><polygon class="cls-6" points="145.68 47.15 145.53 47.3 145.53 137.9 165.28 137.9 165.28 174.21 200.13 174.21 200.13 119.75 218.29 119.75 145.68 47.15"/><rect class="cls-5" x="101.72" y="138.14" width="16.46" height="16.46"/><rect class="cls-7" x="174.63" y="138.14" width="16.46" height="16.46"/><rect class="cls-5" x="101.72" y="138.14" width="16.46" height="16.46"/><rect class="cls-5" x="101.72" y="138.14" width="16.46" height="16.46"/><rect class="cls-8" x="101.72" y="138.14" width="16.46" height="16.46"/><rect class="cls-3" x="145.53" y="137.9" width="19.75" height="36.3"/><polygon class="cls-9" points="145.68 56.61 145.53 56.76 145.53 72.48 193.08 120.03 193.08 119.81 208.88 119.81 145.68 56.61"/><polygon class="cls-3" points="145.68 47.17 145.53 47.32 145.53 65.42 200.13 120.03 200.13 119.78 218.29 119.78 145.68 47.17"/></svg>