<svg id="Layer_1" data-name="Layer 1" xmlns="http://www.w3.org/2000/svg" xmlns:xlink="http://www.w3.org/1999/xlink" width="289" height="276" viewBox="0 0 289 276"><defs><style>.cls-1{fill:url(#linear-gradient);}.cls-2{fill:#ffdcad;}.cls-3{fill:#830000;}.cls-4{fill:#b01117;}.cls-5{fill:#f4f4f4;}.cls-6{fill:#faaf40;}.cls-7{fill:#8dd7f7;}.cls-8{fill:#c6e9fa;}.cls-9{fill:#420000;}</style><linearGradient id="linear-gradient" x1="144.5" y1="276" x2="144.5" gradientUnits="userSpaceOnUse"><stop offset="0.32" stop-color="#fff"/><stop offset="1" stop-color="#ade1f9"/></linearGradient></defs><title>dropin</title><rect class="cls-1" width="289" height="276" rx="11.34" ry="11.34"/><polygon class="cls-2" points="205.35 96.32 145.68 36.65 130.76 51.56 115.84 51.56 115.84 66.48 86.01 96.32 100.93 96.32 100.93 141.07 131.96 141.07 131.96 111.23 161.79 111.23 161.79 141.07 190.43 141.07 190.43 96.32 205.35 96.32"/><polygon class="cls-3" points="145.47 57.38 184.63 96.54 184.63 96.37 197.62 96.37 145.68 44.43 132.7 57.41 119.71 57.41 119.71 70.4 93.74 96.37 106.48 96.37 145.47 57.38"/><polygon class="cls-4" points="145.44 51.55 190.43 96.54 190.43 96.34 205.35 96.34 145.68 36.67 130.76 51.59 115.84 51.59 115.84 66.5 86.01 96.34 100.64 96.34 145.44 51.55"/><rect class="cls-4" x="131.96" y="111.23" width="29.84" height="29.84"/><rect class="cls-5" x="109.55" y="111.43" width="13.53" height="13.53"/><rect class="cls-5" x="169.47" y="111.43" width="13.53" height="13.53"/><rect class="cls-5" x="109.55" y="111.43" width="13.53" height="13.53"/><rect class="cls-5" x="109.55" y="111.43" width="13.53" height="13.53"/><rect class="cls-5" x="109.55" y="111.43" width="13.53" height="13.53"/><polygon class="cls-6" points="145.68 36.65 145.56 36.77 145.56 111.23 161.79 111.23 161.79 141.07 190.43 141.07 190.43 96.32 205.35 96.32 145.68 36.65"/><rect class="cls-5" x="109.55" y="111.43" width="13.53" height="13.53"/><rect class="cls-7" x="169.47" y="111.43" width="13.53" height="13.53"/><rect class="cls-5" x="109.55" y="111.43" width="13.53" height="13.53"/><rect class="cls-5" x="109.55" y="111.43" width="13.53" height="13.53"/><rect class="cls-8" x="109.55" y="111.43" width="13.53" height="13.53"/><rect class="cls-3" x="145.56" y="111.23" width="16.23" height="29.84"/><polygon class="cls-9" points="145.68 44.43 145.56 44.55 145.56 57.47 184.63 96.54 184.63 96.37 197.62 96.37 145.68 44.43"/><polygon class="cls-3" points="145.68 36.67 145.56 36.79 145.56 51.67 190.43 96.54 190.43 96.34 205.35 96.34 145.68 36.67"/></svg>