<svg xmlns="http://www.w3.org/2000/svg" xmlns:xlink="http://www.w3.org/1999/xlink" width="289" height="276" viewBox="0 0 289 276"><defs><style>.cls-1{isolation:isolate;}.cls-2{fill:url(#linear-gradient);}.cls-3{fill:#ade1f9;}.cls-4{fill:#81d3f6;}.cls-5{fill:#1b75bb;}.cls-6{fill:#2b388f;}.cls-7{fill:#754c28;}.cls-10,.cls-8{fill:#231f20;}.cls-9{fill:#c7c8ca;}.cls-10{opacity:0.53;mix-blend-mode:multiply;}.cls-11{fill:#be1e2d;}.cls-12{fill:#797a7d;}.cls-13{fill:#00adee;}.cls-14{fill:#a9aac6;}.cls-15{fill:#c6686b;}</style><linearGradient id="linear-gradient" x1="144.5" y1="276" x2="144.5" gradientUnits="userSpaceOnUse"><stop offset="0.32" stop-color="#fff"/><stop offset="1" stop-color="#ade1f9"/></linearGradient></defs><title>foodbank</title><g class="cls-1"><g id="Layer_1" data-name="Layer 1"><rect class="cls-2" width="289" height="276" rx="11.34" ry="11.34"/><path class="cls-3" d="M169,169.59V130l-1.32-2.89,1.32-2.53v-4.34l-1.45-3L169,114.5v-3.73l-1.45-2.65,1.45-2.65v-3.81l-1.53-2.89L169,96V90.09a16,16,0,0,0-4-11.08L155,66.08V62.23h-8.75v0h-8.75v3.85L127.52,79a16,16,0,0,0-4,11.08V96L125,98.76l-1.53,2.89v3.81l1.45,2.65-1.45,2.65v3.73l1.45,2.77-1.45,3v4.34l1.32,2.53L123.5,130v39.55a14.38,14.38,0,0,0,1.77,6.75c1.93,3.69,4.34,8.67,9.31,8.67s7.36-2.69,11.64-2.73,6.7,2.73,11.64,2.73,7.39-5,9.31-8.67A14.38,14.38,0,0,0,169,169.59Z"/><path class="cls-4" d="M146.23,62.23H155v3.85l10,12.93a16,16,0,0,1,4,11.08V96l-1.53,2.73,1.53,2.89v3.81l-1.45,2.65,1.45,2.65v3.73l-1.45,2.77,1.45,3v4.34l-1.32,2.53L169,130v39.55a14.38,14.38,0,0,1-1.77,6.75c-1.93,3.69-4.34,8.67-9.31,8.67s-7.39-2.73-11.72-2.73Z"/><path class="cls-5" d="M139.28,51.15H153a2.93,2.93,0,0,1,2.93,2.93v9.44a0,0,0,0,1,0,0H136.35a0,0,0,0,1,0,0V54.08A2.93,2.93,0,0,1,139.28,51.15Z"/><path class="cls-6" d="M153.42,51.15H146V63.51h10V53.68A2.53,2.53,0,0,0,153.42,51.15Z"/><polygon class="cls-7" points="217.98 179.98 212.81 185.98 165.56 185.98 160.37 179.98 160.37 103.98 166.56 99.48 211.59 99.48 217.98 103.98 217.98 179.98"/><rect class="cls-8" x="160.31" y="92.48" width="58" height="8"/><rect class="cls-9" x="160.56" y="116.73" width="57.38" height="49.25"/><polygon class="cls-10" points="218.31 92.48 188.81 92.48 188.81 185.98 212.81 185.98 217.98 179.98 217.98 103.98 213.01 100.48 218.31 100.48 218.31 92.48"/><rect class="cls-11" x="43.6" y="112.73" width="48.08" height="68.52"/><rect class="cls-12" x="41.84" y="110.48" width="51.61" height="4.06" rx="2.03" ry="2.03"/><rect class="cls-12" x="41.84" y="179.67" width="51.61" height="4.06" rx="2.03" ry="2.03"/><path class="cls-8" d="M78.4,135.5l3.38-7.66a34.23,34.23,0,0,0-14.09-2.9H67.59a34.23,34.23,0,0,0-14.09,2.9l3.38,7.66H50.34l4.73,34.71H80.21l4.73-34.71H78.4Z"/><path class="cls-10" d="M91.68,179.7V114.51a2,2,0,0,0-.26-4H67.52v73.25h23.9A2,2,0,0,0,91.68,179.7Z"/><rect class="cls-13" x="90.87" y="108.48" width="53.33" height="76"/><rect class="cls-12" x="88.91" y="105.98" width="57.25" height="4.5" rx="2.25" ry="2.25"/><rect class="cls-12" x="88.91" y="182.73" width="57.25" height="4.5" rx="2.25" ry="2.25"/><path class="cls-8" d="M129.47,133.73l3.75-8.5A38,38,0,0,0,117.6,122h-0.12a38,38,0,0,0-15.62,3.22l3.75,8.5H98.35l5.25,38.5h27.87l5.25-38.5h-7.25Z"/><path class="cls-10" d="M144.2,182.76V110.45a2.24,2.24,0,0,0-.29-4.47H117.39v81.25h26.52A2.24,2.24,0,0,0,144.2,182.76Z"/><rect class="cls-14" x="196.87" y="158.48" width="53.33" height="26"/><rect class="cls-12" x="194.91" y="155.98" width="57.25" height="4.5" rx="2.25" ry="2.25"/><rect class="cls-12" x="194.91" y="182.73" width="57.25" height="4.5" rx="2.25" ry="2.25"/><rect class="cls-15" x="196.77" y="164.73" width="53.25" height="13.38"/><path class="cls-10" d="M250.2,182.76V160.45a2.24,2.24,0,0,0-.29-4.47H223.39v31.25h26.52A2.24,2.24,0,0,0,250.2,182.76Z"/></g></g></svg>