<svg xmlns="http://www.w3.org/2000/svg" xmlns:xlink="http://www.w3.org/1999/xlink" width="289" height="276" viewBox="0 0 289 276"><defs><style>.cls-1{isolation:isolate;}.cls-2{fill:url(#linear-gradient);}.cls-3{fill:#ade1f9;}.cls-4{fill:#81d3f6;}.cls-5{fill:#1b75bb;}.cls-6{fill:#2b388f;}.cls-7{fill:#754c28;}.cls-10,.cls-8{fill:#231f20;}.cls-9{fill:#c7c8ca;}.cls-10{opacity:0.53;mix-blend-mode:multiply;}.cls-11{fill:#be1e2d;}.cls-12{fill:#797a7d;}.cls-13{fill:#00adee;}.cls-14{fill:#a9aac6;}.cls-15{fill:#c6686b;}</style><linearGradient id="linear-gradient" x1="144.5" y1="276" x2="144.5" gradientUnits="userSpaceOnUse"><stop offset="0.32" stop-color="#fff"/><stop offset="1" stop-color="#ade1f9"/></linearGradient></defs><title>foodbank</title><g class="cls-1"><g id="Layer_1" data-name="Layer 1"><rect class="cls-2" width="289" height="276" rx="11.34" ry="11.34"/><path class="cls-3" d="M166.11,134.25V99.83L165,97.31l1.15-2.2V91.33l-1.26-2.62,1.26-2.41V83l-1.26-2.31,1.26-2.31V75.11l-1.33-2.52,1.33-2.38V65a13.89,13.89,0,0,0-3.5-9.65l-8.67-11.25V40.79h-7.62v0h-7.62v3.36L130,55.4a13.89,13.89,0,0,0-3.5,9.65v5.17l1.33,2.38-1.33,2.52v3.32l1.26,2.31L126.55,83V86.3l1.26,2.41-1.26,2.62v3.77l1.15,2.2-1.15,2.52v34.43a12.52,12.52,0,0,0,1.54,5.87c1.68,3.22,3.77,7.55,8.11,7.55s6.41-2.34,10.14-2.37,5.83,2.37,10.14,2.37,6.43-4.33,8.11-7.55A12.52,12.52,0,0,0,166.11,134.25Z"/><path class="cls-4" d="M146.33,40.79h7.62v3.36l8.67,11.25a13.89,13.89,0,0,1,3.5,9.65v5.17l-1.33,2.38,1.33,2.52v3.32l-1.26,2.31L166.11,83V86.3l-1.26,2.41,1.26,2.62v3.77L165,97.31l1.15,2.52v34.43a12.52,12.52,0,0,1-1.54,5.87c-1.68,3.22-3.77,7.55-8.11,7.55s-6.43-2.38-10.21-2.38Z"/><path class="cls-5" d="M140.28,31.15h12a2.55,2.55,0,0,1,2.55,2.55v8.22a0,0,0,0,1,0,0H137.73a0,0,0,0,1,0,0V33.7A2.55,2.55,0,0,1,140.28,31.15Z"/><path class="cls-6" d="M152.59,31.15h-6.47V41.91h8.67V33.35A2.2,2.2,0,0,0,152.59,31.15Z"/><polygon class="cls-7" points="208.79 143.3 204.29 148.52 163.16 148.52 158.64 143.3 158.64 77.14 164.03 73.22 203.23 73.22 208.79 77.14 208.79 143.3"/><rect class="cls-8" x="158.59" y="67.13" width="50.49" height="6.96"/><rect class="cls-9" x="158.8" y="88.24" width="49.95" height="42.87"/><polygon class="cls-10" points="209.07 67.13 183.4 67.13 183.4 148.52 204.29 148.52 208.79 143.3 208.79 77.14 204.46 74.09 209.07 74.09 209.07 67.13"/><rect class="cls-11" x="56.99" y="84.76" width="41.86" height="59.64"/><rect class="cls-12" x="55.45" y="82.8" width="44.93" height="3.53" rx="1.77" ry="1.77"/><rect class="cls-12" x="55.45" y="143.03" width="44.93" height="3.53" rx="1.77" ry="1.77"/><path class="cls-8" d="M87.29,104.57l2.94-6.67A29.8,29.8,0,0,0,78,95.38h-0.1A29.8,29.8,0,0,0,65.61,97.9l2.94,6.67H62.86L67,134.79H88.86L93,104.57H87.29Z"/><path class="cls-10" d="M98.85,143.05V86.3a1.76,1.76,0,0,0-.23-3.51H77.81v63.76H98.62A1.76,1.76,0,0,0,98.85,143.05Z"/><rect class="cls-13" x="98.14" y="81.06" width="46.43" height="66.16"/><rect class="cls-12" x="96.43" y="78.88" width="49.84" height="3.92" rx="1.96" ry="1.96"/><rect class="cls-12" x="96.43" y="145.69" width="49.84" height="3.92" rx="1.96" ry="1.96"/><path class="cls-8" d="M131.74,103l3.26-7.4a33,33,0,0,0-13.6-2.8h-0.11a33,33,0,0,0-13.6,2.8L111,103h-6.31l4.57,33.51h24.27L138.05,103h-6.31Z"/><path class="cls-10" d="M144.56,145.72V82.77a2,2,0,0,0-.25-3.89H121.23v70.73h23.08A2,2,0,0,0,144.56,145.72Z"/><rect class="cls-14" x="190.41" y="124.58" width="46.43" height="22.63"/><rect class="cls-12" x="188.7" y="122.4" width="49.84" height="3.92" rx="1.96" ry="1.96"/><rect class="cls-12" x="188.7" y="145.69" width="49.84" height="3.92" rx="1.96" ry="1.96"/><rect class="cls-15" x="190.32" y="130.02" width="46.35" height="11.64"/><path class="cls-10" d="M236.84,145.71V126.3a2,2,0,0,0-.25-3.89H213.5v27.2h23.08A2,2,0,0,0,236.84,145.71Z"/></g></g></svg>