<svg xmlns="http://www.w3.org/2000/svg" xmlns:xlink="http://www.w3.org/1999/xlink" width="289" height="276" viewBox="0 0 289 276"><defs><style>.cls-1{fill:#84c66f;}.cls-2{isolation:isolate;}.cls-3{fill:url(#linear-gradient);}.cls-4{fill:#7d6254;}.cls-5{fill:#5587c6;}.cls-6{clip-path:url(#clip-path);}.cls-7{fill:#497b3a;}.cls-8{fill:#284d7b;}.cls-12,.cls-8{opacity:0.4;mix-blend-mode:multiply;}.cls-9{fill:#93c4db;}.cls-10{fill:#83a7bb;}.cls-11{fill:#f58e75;}.cls-12{fill:#aa5640;}</style><linearGradient id="linear-gradient" x1="144.5" y1="276" x2="144.5" gradientUnits="userSpaceOnUse"><stop offset="0.32" stop-color="#fff"/><stop offset="1" stop-color="#ade1f9"/></linearGradient><clipPath id="clip-path"><path class="cls-1" d="M237.75,220.5H216a21.21,21.21,0,0,1-21.2-20.58L191.27,80.17a21.21,21.21,0,0,1,21.2-21.85h28.85a21.21,21.21,0,0,1,21.2,21.85L259,199.92A21.21,21.21,0,0,1,237.75,220.5Z"/></clipPath></defs><title>items</title><g class="cls-2"><g id="Layer_1" data-name="Layer 1"><rect class="cls-3" width="289" height="276" rx="11.34" ry="11.34"/><ellipse class="cls-1" cx="226.9" cy="58.03" rx="28.91" ry="25.44"/><ellipse class="cls-4" cx="226.9" cy="58.03" rx="23.32" ry="20.53"/><path class="cls-5" d="M237.75,220.5H216a21.21,21.21,0,0,1-21.2-20.58L191.27,80.17a21.21,21.21,0,0,1,21.2-21.85h28.85a21.21,21.21,0,0,1,21.2,21.85L259,199.92A21.21,21.21,0,0,1,237.75,220.5Z"/><path class="cls-1" d="M237.75,220.5H216a21.21,21.21,0,0,1-21.2-20.58L191.27,80.17a21.21,21.21,0,0,1,21.2-21.85h28.85a21.21,21.21,0,0,1,21.2,21.85L259,199.92A21.21,21.21,0,0,1,237.75,220.5Z"/><g class="cls-6"><rect class="cls-7" x="190.55" y="86.03" width="72.85" height="2.89"/><rect class="cls-7" x="190.55" y="112.62" width="72.85" height="2.89"/><rect class="cls-7" x="190.55" y="139.22" width="72.85" height="2.89"/><rect class="cls-7" x="190.55" y="165.82" width="72.85" height="2.89"/><rect class="cls-7" x="190.55" y="192.41" width="72.85" height="2.89"/></g><path class="cls-8" d="M262.35,86l0.17-5.85a21.16,21.16,0,0,0-7.38-16.72,22.59,22.59,0,0,0,.66-5.42c0-14.05-12.94-25.44-28.91-25.44h-0.32V220.5h11.18A21.21,21.21,0,0,0,259,199.92l0.14-4.62"/><polygon class="cls-9" points="186.88 187.13 176.99 67 176.99 57.43 114.78 57.43 114.78 64.99 104.73 187.13 139.31 189.98 145.81 111.11 152.3 189.98 186.88 187.13"/><polygon class="cls-10" points="176.99 67 176.99 57.43 145.74 57.43 145.74 111.84 145.81 111.11 152.3 189.98 186.88 187.13 176.99 67"/><path class="cls-11" d="M158.44,125.39L107.81,70.91V70.75H99.63c0,0.11,0,.22,0,0.33a17.3,17.3,0,1,1-34.59,0c0-.11,0-0.22,0-0.33H56.89v0.16L6.25,125.39l9.81,11.39,38.8-33.28-2.37,47.83H112.2l-2.37-47.83,38.8,33.28Z"/><path class="cls-12" d="M158.44,125.39L107.81,70.91V70.75H99.63c0,0.11,0,.22,0,0.33A17.52,17.52,0,0,1,82.5,88.6v62.73h29.7l-2.37-47.83,38.8,33.28Z"/></g></g></svg>