<svg xmlns="http://www.w3.org/2000/svg" xmlns:xlink="http://www.w3.org/1999/xlink" width="289" height="276" viewBox="0 0 289 276"><defs><style>.cls-1{isolation:isolate;}.cls-2{fill:url(#linear-gradient);}.cls-3{fill:#ade1f9;}.cls-4{fill:#81d3f6;}.cls-5{fill:#1b75bb;}.cls-6{fill:#2b388f;}.cls-7{fill:#d7e8f2;}.cls-8{fill:#754c28;}.cls-9{fill:#3b2314;}.cls-10{fill:#f3c636;}.cls-11{fill:#009345;}.cls-12{fill:#ee7cae;}.cls-13{fill:#fff100;}.cls-14{fill:#b19225;mix-blend-mode:multiply;}</style><linearGradient id="linear-gradient" x1="144.5" y1="276" x2="144.5" gradientUnits="userSpaceOnUse"><stop offset="0.32" stop-color="#fff"/><stop offset="1" stop-color="#ade1f9"/></linearGradient></defs><title>meals</title><g class="cls-1"><g id="Layer_1" data-name="Layer 1"><rect class="cls-2" width="289" height="276" rx="11.34" ry="11.34"/><path class="cls-3" d="M171.79,151.59V112l-1.32-2.89,1.32-2.53v-4.34l-1.45-3,1.45-2.77V92.77l-1.45-2.65,1.45-2.65V83.66l-1.53-2.89L171.79,78V72.09a16,16,0,0,0-4-11.08l-10-12.93V44.23h-8.75v0h-8.75v3.85L130.35,61a16,16,0,0,0-4,11.08V78l1.53,2.73-1.53,2.89v3.81l1.45,2.65-1.45,2.65V96.5l1.45,2.77-1.45,3v4.34l1.32,2.53L126.33,112v39.55a14.38,14.38,0,0,0,1.77,6.75C130,162,132.44,167,137.42,167s7.36-2.69,11.64-2.73,6.7,2.73,11.64,2.73,7.39-5,9.31-8.67A14.38,14.38,0,0,0,171.79,151.59Z"/><path class="cls-4" d="M149.06,44.23h8.75v3.85l10,12.93a16,16,0,0,1,4,11.08V78l-1.53,2.73,1.53,2.89v3.81l-1.45,2.65,1.45,2.65V96.5l-1.45,2.77,1.45,3v4.34l-1.32,2.53,1.32,2.89v39.55a14.38,14.38,0,0,1-1.77,6.75c-1.93,3.69-4.34,8.67-9.31,8.67s-7.39-2.73-11.72-2.73Z"/><path class="cls-5" d="M142.11,33.15h13.74a2.93,2.93,0,0,1,2.93,2.93v9.44a0,0,0,0,1,0,0H139.18a0,0,0,0,1,0,0V36.08A2.93,2.93,0,0,1,142.11,33.15Z"/><path class="cls-6" d="M156.25,33.15h-7.43V45.51h10V35.68A2.53,2.53,0,0,0,156.25,33.15Z"/><path class="cls-7" d="M241,120.57a17.93,17.93,0,0,0-8.1.12c-6.83-12.87-24-14.54-44.15-14.33-26,.27-47,3.56-46.68,29.51s21.49,43,47.45,42.71c15-.16,28.27-6.07,36.77-16,8.62-2.3,25.26-8.46,28.2-22.16C256.39,131.46,250.35,122.58,241,120.57Zm3.22,19.59c-1.32,6.18-6.57,10.19-11.8,12.72a42.66,42.66,0,0,0,3.63-18,36.71,36.71,0,0,0-1-8.68A12,12,0,0,1,244.2,140.17Z"/><ellipse class="cls-8" cx="188.54" cy="118.04" rx="34.38" ry="5.68" transform="matrix(1, -0.01, 0.01, 1, -1.24, 2)"/><path class="cls-3" d="M241,120.57a17.93,17.93,0,0,0-8.1.12c-6.83-12.87-24-14.54-44.15-14.33h-0.37l0.76,72.22h0.37c15-.16,28.27-6.07,36.77-16,8.62-2.3,25.26-8.46,28.2-22.16C256.39,131.46,250.35,122.58,241,120.57Zm3.22,19.59c-1.32,6.18-6.57,10.19-11.8,12.72a42.66,42.66,0,0,0,3.63-18,36.71,36.71,0,0,0-1-8.68A12,12,0,0,1,244.2,140.17Z"/><path class="cls-9" d="M188.48,112.36h-0.05l0.12,11.35h0.05c19-.2,34.35-2.9,34.31-6S207.47,112.16,188.48,112.36Z"/><rect class="cls-10" x="91.72" y="112.36" width="11.35" height="117.78" transform="translate(268.64 73.86) rotate(90)"/><path class="cls-11" d="M147.78,161.42H47.57s-5.18.47-9.66,9.19c0,0,10.6-5.18,21.43-4.48s18.84,12.72,18.84,12.72,7.51-13.14,19.49-13.19,19.49,13.19,19.49,13.19,8-12,18.84-12.72,21.43,4.48,21.43,4.48C153,161.89,147.78,161.42,147.78,161.42Z"/><rect class="cls-12" x="95.85" y="104.27" width="3.52" height="113.83" transform="translate(258.79 63.57) rotate(90)"/><path class="cls-13" d="M149.54,155.73H49.33s-5.18.47-9.66,9.19c0,0,10.6-5.18,21.43-4.48s18.84,12.72,18.84,12.72S87.46,160,99.43,160s19.49,13.19,19.49,13.19,8-12,18.84-12.72,21.43,4.48,21.43,4.48C154.72,156.2,149.54,155.73,149.54,155.73Z"/><rect class="cls-10" x="91.12" y="92.06" width="12.55" height="117.78" transform="translate(248.34 53.56) rotate(90)"/><path class="cls-14" d="M156.28,165.58h-2.17a15.54,15.54,0,0,0-2.9-2.64h3a46.2,46.2,0,0,1,5,2,20.12,20.12,0,0,0-6.26-7.69h3.34V144.68H98.46v32.25H115.9c0.83,1.16,1.27,1.92,1.27,1.92s0.51-.77,1.45-1.92h37.67v-6.84c0.74,0.32,1.16.52,1.16,0.52-0.38-.74-0.77-1.41-1.16-2v-3Z"/></g></g></svg>