<svg xmlns="http://www.w3.org/2000/svg" xmlns:xlink="http://www.w3.org/1999/xlink" width="289" height="276" viewBox="0 0 289 276"><defs><style>.cls-1{isolation:isolate;}.cls-2{fill:url(#linear-gradient);}.cls-3{fill:#ade1f9;}.cls-4{fill:#81d3f6;}.cls-5{fill:#1b75bb;}.cls-6{fill:#2b388f;}.cls-7{fill:#d7e8f2;}.cls-8{fill:#754c28;}.cls-9{fill:#3b2314;}.cls-10{fill:#f3c636;}.cls-11{fill:#009345;}.cls-12{fill:#ee7cae;}.cls-13{fill:#fff100;}.cls-14{fill:#b19225;mix-blend-mode:multiply;}</style><linearGradient id="linear-gradient" x1="144.5" y1="276" x2="144.5" gradientUnits="userSpaceOnUse"><stop offset="0.32" stop-color="#fff"/><stop offset="1" stop-color="#ade1f9"/></linearGradient></defs><title>meals</title><g class="cls-1"><g id="Layer_1" data-name="Layer 1"><rect class="cls-2" width="289" height="276" rx="11.34" ry="11.34"/><path class="cls-3" d="M169,132.7V97.79l-1.17-2.55L169,93V89.18l-1.28-2.66L169,84.07v-3.3l-1.28-2.34L169,76.1V72.73l-1.35-2.55L169,67.77V62.53a14.09,14.09,0,0,0-3.54-9.78l-8.79-11.41v-3.4h-7.73v0h-7.73v3.4l-8.79,11.41a14.09,14.09,0,0,0-3.54,9.78v5.25l1.35,2.41-1.35,2.55V76.1l1.28,2.34-1.28,2.34v3.3l1.28,2.45-1.28,2.66V93L130,95.24l-1.17,2.55V132.7a12.69,12.69,0,0,0,1.56,6c1.7,3.26,3.83,7.66,8.22,7.66s6.5-2.38,10.28-2.41,5.91,2.41,10.28,2.41,6.52-4.39,8.22-7.66A12.69,12.69,0,0,0,169,132.7Z"/><path class="cls-4" d="M148.93,37.93h7.73v3.4l8.79,11.41A14.09,14.09,0,0,1,169,62.53v5.25l-1.35,2.41L169,72.73V76.1l-1.28,2.34L169,80.78v3.3l-1.28,2.45L169,89.18V93l-1.17,2.23L169,97.79V132.7a12.69,12.69,0,0,1-1.56,6c-1.7,3.26-3.83,7.66-8.22,7.66s-6.52-2.41-10.35-2.41Z"/><path class="cls-5" d="M142.8,28.15h12.13a2.59,2.59,0,0,1,2.59,2.59v8.33a0,0,0,0,1,0,0h-17.3a0,0,0,0,1,0,0V30.73A2.59,2.59,0,0,1,142.8,28.15Z"/><path class="cls-6" d="M155.28,28.15h-6.56V39.06h8.79V30.38A2.23,2.23,0,0,0,155.28,28.15Z"/><path class="cls-7" d="M236.48,97.84a17.08,17.08,0,0,0-7.71.11c-6.5-12.26-22.87-13.85-42-13.65C162,84.57,142,87.7,142.26,112.42s20.47,40.94,45.19,40.68c14.28-.15,26.93-5.78,35-15.26,8.21-2.19,24.06-8.06,26.86-21.11C251.15,108.21,245.4,99.76,236.48,97.84Zm3.07,18.66c-1.26,5.88-6.26,9.71-11.23,12.11a40.63,40.63,0,0,0,3.46-17.15,35,35,0,0,0-1-8.27A11.43,11.43,0,0,1,239.55,116.51Z"/><ellipse class="cls-8" cx="186.54" cy="95.43" rx="32.74" ry="5.41" transform="translate(-1 1.98) rotate(-0.61)"/><path class="cls-3" d="M236.48,97.84a17.08,17.08,0,0,0-7.71.11c-6.5-12.26-22.87-13.85-42-13.65h-0.35l0.72,68.78h0.36c14.28-.15,26.93-5.78,35-15.26,8.21-2.19,24.06-8.06,26.86-21.11C251.15,108.21,245.4,99.76,236.48,97.84Zm3.07,18.66c-1.26,5.88-6.26,9.71-11.23,12.11a40.63,40.63,0,0,0,3.46-17.15,35,35,0,0,0-1-8.27A11.43,11.43,0,0,1,239.55,116.51Z"/><path class="cls-9" d="M186.48,90h-0.05l0.11,10.81h0.05c18.08-.19,32.71-2.77,32.68-5.75S204.56,89.83,186.48,90Z"/><rect class="cls-10" x="94.32" y="90.02" width="10.81" height="112.18" transform="translate(245.83 46.39) rotate(90)"/><path class="cls-11" d="M147.72,136.75H52.26s-4.94.45-9.2,8.75c0,0,10.09-4.94,20.41-4.26s17.95,12.11,17.95,12.11,7.16-12.52,18.56-12.56,18.56,12.56,18.56,12.56,7.63-11.44,17.95-12.11,20.41,4.26,20.41,4.26C152.65,137.2,147.72,136.75,147.72,136.75Z"/><rect class="cls-12" x="98.25" y="82.31" width="3.35" height="108.42" transform="translate(236.45 36.59) rotate(90)"/><path class="cls-13" d="M149.39,131.33H53.94s-4.94.45-9.2,8.75c0,0,10.09-4.94,20.41-4.26S83.1,147.93,83.1,147.93s7.16-12.52,18.56-12.56,18.56,12.56,18.56,12.56,7.63-11.44,17.95-12.11,20.41,4.26,20.41,4.26C154.33,131.78,149.39,131.33,149.39,131.33Z"/><rect class="cls-10" x="93.74" y="70.69" width="11.95" height="112.18" transform="translate(226.5 27.06) rotate(90)"/><path class="cls-14" d="M155.81,140.71h-2.07A14.8,14.8,0,0,0,151,138.2h2.84a44,44,0,0,1,4.77,1.88,19.16,19.16,0,0,0-6-7.32h3.18v-12H100.73v30.71h16.61c0.79,1.1,1.21,1.83,1.21,1.83s0.49-.73,1.38-1.83h35.88V145c0.7,0.3,1.1.49,1.1,0.49-0.36-.71-0.73-1.34-1.1-1.94v-2.85Z"/></g></g></svg>