<svg xmlns="http://www.w3.org/2000/svg" xmlns:xlink="http://www.w3.org/1999/xlink" width="289" height="276" viewBox="0 0 289 276"><defs><style>.cls-1{isolation:isolate;}.cls-2{fill:url(#linear-gradient);}.cls-3{fill:#a0ce62;}.cls-4{fill:#fff350;}.cls-5{fill:#d7e8bd;}.cls-6{fill:#bbdebc;}.cls-11,.cls-14,.cls-17,.cls-6{mix-blend-mode:multiply;}.cls-7{fill:#d7e8f2;}.cls-8{fill:#6e757b;}.cls-9{fill:#ade1f9;}.cls-10{fill:#81a0ae;}.cls-11{fill:#52a4c5;opacity:0.4;}.cls-12{fill:none;stroke:#b0bfc8;stroke-miterlimit:10;stroke-width:4px;}.cls-13,.cls-14{fill:#b0bfc8;}.cls-15{fill:#1b75bb;}.cls-16{fill:#ed1a3d;}.cls-17{fill:#bd1330;}.cls-18{fill:#fff;}</style><linearGradient id="linear-gradient" x1="144.5" y1="276" x2="144.5" gradientUnits="userSpaceOnUse"><stop offset="0.32" stop-color="#fff"/><stop offset="1" stop-color="#ade1f9"/></linearGradient></defs><title>services</title><g class="cls-1"><g id="Layer_1" data-name="Layer 1"><rect class="cls-2" width="289" height="276" rx="11.34" ry="11.34"/><rect class="cls-3" x="173.85" y="72.66" width="21.43" height="25.4"/><rect class="cls-4" x="173.85" y="74.73" width="21.43" height="5.39"/><path class="cls-5" d="M187.34,79.55h0a3.1,3.1,0,0,0,2.33,1.7h0a3.1,3.1,0,0,1,1.72,5.29h0a3.1,3.1,0,0,0-.89,2.74h0a3.1,3.1,0,0,1-4.5,3.27h0a3.1,3.1,0,0,0-2.88,0h0a3.1,3.1,0,0,1-4.5-3.27h0a3.1,3.1,0,0,0-.89-2.74h0a3.1,3.1,0,0,1,1.72-5.29h0a3.1,3.1,0,0,0,2.33-1.7h0A3.1,3.1,0,0,1,187.34,79.55Z"/><polygon class="cls-6" points="184.43 72.66 184.43 74.73 184.43 80.13 184.43 98.07 195.28 98.07 195.28 80.13 195.28 74.73 195.28 72.66 184.43 72.66"/><rect class="cls-7" x="131.89" y="97.7" width="64.32" height="82.28"/><rect class="cls-8" x="131.89" y="176.99" width="64.32" height="2.99"/><rect class="cls-8" x="131.89" y="97.7" width="64.32" height="8.39"/><circle class="cls-9" cx="164.05" cy="140.71" r="18.33"/><path class="cls-10" d="M164.05,119.39a21.32,21.32,0,1,0,21.32,21.32A21.32,21.32,0,0,0,164.05,119.39Zm0,37.4a16.08,16.08,0,1,1,16.08-16.08A16.08,16.08,0,0,1,164.05,156.79Z"/><circle class="cls-7" cx="164.05" cy="101.69" r="2.74"/><circle class="cls-7" cx="173.53" cy="101.69" r="2.12"/><circle class="cls-7" cx="154.58" cy="101.69" r="2.12"/><path class="cls-8" d="M189.51,136.59h-9a4.75,4.75,0,0,0-4.74,4.74h0a4.75,4.75,0,0,0,4.74,4.74h9v-9.47Z"/><polygon class="cls-11" points="164.16 97.7 164.16 106.08 164.16 176.99 164.16 179.97 196.22 179.97 196.22 176.99 196.22 106.08 196.22 97.7 164.16 97.7"/><path class="cls-12" d="M59.48,178.33V47A21.73,21.73,0,0,1,81.14,25.33h0A21.73,21.73,0,0,1,102.81,47"/><path class="cls-13" d="M114.93,57.18h-0.2a12.4,12.4,0,0,0-24.62,0h-0.2a1.16,1.16,0,1,0,0,2.32h25A1.16,1.16,0,1,0,114.93,57.18Z"/><polygon class="cls-13" points="35.43 179.33 59.48 172.33 83.52 179.33 35.43 179.33"/><rect class="cls-13" x="34.48" y="177" width="50" height="3" rx="1.5" ry="1.5"/><rect class="cls-11" x="101.42" y="63.16" width="2" height="10.39"/><rect class="cls-11" x="101.42" y="77.83" width="2" height="10.39"/><rect class="cls-11" x="101.42" y="92.5" width="2" height="10.39"/><rect class="cls-11" x="101.42" y="107.16" width="2" height="10.39"/><rect class="cls-11" x="93.32" y="63.34" width="2" height="10.39" transform="translate(9.38 -11.33) rotate(7.23)"/><rect class="cls-11" x="91.47" y="77.89" width="2" height="10.39" transform="translate(11.2 -10.98) rotate(7.23)"/><rect class="cls-11" x="89.63" y="92.44" width="2" height="10.39" transform="translate(13.02 -10.63) rotate(7.23)"/><rect class="cls-11" x="87.78" y="106.99" width="2" height="10.39" transform="translate(14.83 -10.29) rotate(7.23)"/><path class="cls-14" d="M114.93,57.18h-0.2a12.4,12.4,0,0,0-11.59-10.9V59.5h11.79A1.16,1.16,0,0,0,114.93,57.18Z"/><rect class="cls-15" x="109.53" y="63.34" width="2" height="10.39" transform="translate(228.81 122.6) rotate(172.77)"/><rect class="cls-15" x="111.38" y="77.89" width="2" height="10.39" transform="matrix(-0.99, 0.13, -0.13, -0.99, 234.32, 151.36)"/><rect class="cls-15" x="113.22" y="92.44" width="2" height="10.39" transform="translate(239.83 180.11) rotate(172.77)"/><rect class="cls-15" x="115.07" y="106.99" width="2" height="10.39" transform="translate(245.34 208.86) rotate(172.77)"/><rect class="cls-16" x="226.86" y="77.2" width="5.18" height="90.68" rx="2.59" ry="2.59" transform="translate(-21.13 52.72) rotate(-12.54)"/><path class="cls-17" d="M222.71,80.25a2.59,2.59,0,0,0-2.91-2l19.31,88.56,0.18,0a2.6,2.6,0,0,0,2-3.09Z"/><rect class="cls-18" x="224.99" y="79.64" width="11.8" height="25.81" transform="translate(-14.58 52.32) rotate(-12.54)"/></g></g></svg>