<svg id="Layer_1" data-name="Layer 1" xmlns="http://www.w3.org/2000/svg" xmlns:xlink="http://www.w3.org/1999/xlink" width="289" height="276" viewBox="0 0 289 276"><defs><style>.cls-1{fill:url(#linear-gradient);}.cls-2{fill:#667982;}.cls-3{fill:#273e49;}.cls-4{fill:#86c440;}.cls-5{fill:#5fa53b;}</style><linearGradient id="linear-gradient" x1="144.5" y1="276" x2="144.5" gradientUnits="userSpaceOnUse"><stop offset="0.32" stop-color="#fff"/><stop offset="1" stop-color="#ade1f9"/></linearGradient></defs><title>support</title><rect class="cls-1" width="289" height="276" rx="11.34" ry="11.34"/><path class="cls-2" d="M205.64,154.52L157,138.82l-1-11.35c8.7-7.31,11.91-24.21,14.42-37.57,4.16-22.07-14.64-40.66-32.7-40.66s-37,18.62-32.7,40.66c2.9,14.85,5.72,30.27,14.43,37.57l-1,11.36L70.31,154.52c-3.34,1.34-5.67,3.79-6.12,6.13H211.76C211.31,158.32,209,155.86,205.64,154.52Zm-68.17-3.63h0.47l-0.24.59Z"/><path class="cls-3" d="M137.91,150.9h0l0,0.09v9.66h73.86c-0.45-2.33-2.78-4.79-6.12-6.13L157,138.82l-1-11.35c8.7-7.31,11.91-24.21,14.42-37.57,4.14-22-14.5-40.52-32.5-40.65V150.9Z"/><path class="cls-4" d="M227.1,45.69H181.5A7.32,7.32,0,0,0,174.19,53V78.26a7.32,7.32,0,0,0,7.32,7.32h0.92V96.41l10.84-10.84H227.1a7.32,7.32,0,0,0,7.32-7.32V53A7.32,7.32,0,0,0,227.1,45.69ZM187.69,70.8a4.47,4.47,0,1,1,4.47-4.47A4.47,4.47,0,0,1,187.69,70.8Zm16.37,0a4.47,4.47,0,1,1,4.47-4.47A4.47,4.47,0,0,1,204.06,70.8Zm16.37,0a4.47,4.47,0,1,1,4.47-4.47A4.47,4.47,0,0,1,220.43,70.8Z"/><path class="cls-5" d="M227.1,45.69H203.72V61.87l0.34,0a4.47,4.47,0,1,1,0,8.95l-0.34,0v14.8H227.1a7.32,7.32,0,0,0,7.32-7.32V53A7.32,7.32,0,0,0,227.1,45.69ZM220.43,70.8a4.47,4.47,0,1,1,4.47-4.47A4.47,4.47,0,0,1,220.43,70.8Z"/></svg>