<svg id="Layer_1" data-name="Layer 1" xmlns="http://www.w3.org/2000/svg" xmlns:xlink="http://www.w3.org/1999/xlink" width="289" height="276" viewBox="0 0 289 276"><defs><style>.cls-1{fill:url(#linear-gradient);}.cls-2{fill:#667982;}.cls-3{fill:#273e49;}.cls-4{fill:#86c440;}.cls-5{fill:#5fa53b;}</style><linearGradient id="linear-gradient" x1="144.5" y1="276" x2="144.5" gradientUnits="userSpaceOnUse"><stop offset="0.32" stop-color="#fff"/><stop offset="1" stop-color="#ade1f9"/></linearGradient></defs><title>support</title><rect class="cls-1" width="289" height="276" rx="11.34" ry="11.34"/><path class="cls-2" d="M209.32,188.62L157.49,171.9l-1.07-12.09c9.27-7.78,12.68-25.79,15.37-40,4.43-23.51-15.59-43.31-34.83-43.31s-39.42,19.84-34.83,43.31c3.09,15.82,6.1,32.24,15.37,40l-1.07,12.1L65.15,188.62c-3.56,1.43-6,4-6.52,6.53h157.2C215.36,192.66,212.87,190,209.32,188.62Zm-72.62-3.86h0.51l-0.25.63Z"/><path class="cls-3" d="M137.16,184.76h0l0,0.1v10.29h78.67c-0.48-2.48-3-5.1-6.52-6.53L157.49,171.9l-1.07-12.09c9.27-7.78,12.68-25.79,15.37-40,4.41-23.42-15.45-43.16-34.62-43.3V184.76Z"/><path class="cls-4" d="M232.18,72.69H183.61a7.8,7.8,0,0,0-7.8,7.8v26.89a7.8,7.8,0,0,0,7.8,7.8h1v11.54l11.54-11.54h36a7.8,7.8,0,0,0,7.8-7.8V80.49A7.8,7.8,0,0,0,232.18,72.69Zm-42,26.74A4.76,4.76,0,1,1,195,94.67,4.76,4.76,0,0,1,190.2,99.44Zm17.44,0a4.76,4.76,0,1,1,4.77-4.77A4.76,4.76,0,0,1,207.63,99.44Zm17.44,0a4.76,4.76,0,1,1,4.76-4.77A4.77,4.77,0,0,1,225.07,99.44Z"/><path class="cls-5" d="M232.18,72.69H207.27V89.92l0.36,0a4.76,4.76,0,1,1,0,9.53l-0.36,0v15.76h24.91a7.8,7.8,0,0,0,7.8-7.8V80.49A7.8,7.8,0,0,0,232.18,72.69Zm-7.11,26.74a4.76,4.76,0,1,1,4.76-4.77A4.77,4.77,0,0,1,225.07,99.44Z"/></svg>