<svg id="Layer_1" data-name="Layer 1" xmlns="http://www.w3.org/2000/svg" xmlns:xlink="http://www.w3.org/1999/xlink" width="289" height="276" viewBox="0 0 289 276"><defs><style>.cls-1{fill:url(#linear-gradient);}.cls-2{fill:#7ac8a7;}.cls-3{fill:#1eb795;}.cls-4{fill:#fff;}</style><linearGradient id="linear-gradient" x1="144.5" y1="276" x2="144.5" gradientUnits="userSpaceOnUse"><stop offset="0.32" stop-color="#fff"/><stop offset="1" stop-color="#ade1f9"/></linearGradient></defs><title>support</title><rect class="cls-1" width="289" height="276" rx="11.34" ry="11.34"/><circle class="cls-2" cx="144.5" cy="94.17" r="48.83"/><path class="cls-3" d="M144.5,45.34h-0.45V143h0.45A48.83,48.83,0,1,0,144.5,45.34Z"/><path class="cls-4" d="M148.56,109.89q0,2.36,5,2.36l-0.87,5H130.37l0.87-5q5.36,0,5.86-2.8L140,92.91q0-2.42-4.92-2.42l0.87-4.91H152.8ZM155,75.49a6.14,6.14,0,0,1-.5,2.46,6.36,6.36,0,0,1-1.34,2,6.46,6.46,0,0,1-2,1.34,5.91,5.91,0,0,1-2.43.5,6.13,6.13,0,0,1-2.46-.5A6.24,6.24,0,0,1,143,77.95a6.12,6.12,0,0,1-.5-2.46,5.9,5.9,0,0,1,.5-2.43,6.45,6.45,0,0,1,1.34-2,6.36,6.36,0,0,1,2-1.34,6.14,6.14,0,0,1,2.46-.5,5.92,5.92,0,0,1,2.43.5,6.41,6.41,0,0,1,3.3,3.3A5.92,5.92,0,0,1,155,75.49Z"/></svg>