<svg xmlns="http://www.w3.org/2000/svg" xmlns:xlink="http://www.w3.org/1999/xlink" width="289" height="276" viewBox="0 0 289 276"><defs><style>.cls-1{isolation:isolate;}.cls-2{fill:url(#linear-gradient);}.cls-3{fill:#48484a;}.cls-4{fill:#231f20;}.cls-5{fill:#808184;}.cls-6{fill:#fff;}.cls-7{fill:#d7e8f2;}.cls-8{fill:#b2d235;}.cls-10,.cls-9{fill:#a7a5a6;}.cls-10{mix-blend-mode:multiply;}.cls-11{fill:#ffca05;}.cls-12{fill:#f69a7e;}.cls-13{fill:#ffdcad;}.cls-14{fill:#e6bc81;}.cls-15{fill:#f9a51a;}.cls-16{fill:#323031;}.cls-17{fill:#ec1c24;}</style><linearGradient id="linear-gradient" x1="144.5" y1="276" x2="144.5" gradientUnits="userSpaceOnUse"><stop offset="0.32" stop-color="#fff"/><stop offset="1" stop-color="#ade1f9"/></linearGradient></defs><title>training</title><g class="cls-1"><g id="Layer_1" data-name="Layer 1"><rect class="cls-2" width="289" height="276" rx="11.34" ry="11.34"/><path class="cls-3" d="M142.83,140.28c-6.09-6.26-19.33-6.37-19.33-26.14H102.91c0,19.77-13.24,19.88-19.33,26.14a4.73,4.73,0,0,0,3.37,8h52.51A4.73,4.73,0,0,0,142.83,140.28Z"/><path class="cls-4" d="M142.83,140.28c-6.09-6.26-19.33-6.37-19.33-26.14h-9.62v34.18h25.58A4.73,4.73,0,0,0,142.83,140.28Z"/><rect class="cls-5" x="51.43" y="39.79" width="123.54" height="93.28" rx="6.18" ry="6.18"/><path class="cls-3" d="M168.8,39.79H113.88v93.28H168.8a6.18,6.18,0,0,0,6.18-6.18V46A6.18,6.18,0,0,0,168.8,39.79Z"/><rect class="cls-6" x="55.24" y="48.44" width="115.93" height="70.01"/><rect class="cls-7" x="113.88" y="48.44" width="57.29" height="70.01"/><circle class="cls-8" cx="168.24" cy="125.44" r="2.06"/><rect class="cls-6" x="183.18" y="82.49" width="46.33" height="65.02"/><rect class="cls-5" x="190.22" y="95.5" width="32.51" height="2.71"/><rect class="cls-5" x="190.22" y="104.71" width="32.51" height="2.71"/><rect class="cls-5" x="190.22" y="113.92" width="21.08" height="2.71"/><rect class="cls-9" x="189.28" y="77.01" width="2.64" height="10.77" rx="1.32" ry="1.32"/><rect class="cls-9" x="197.07" y="77.01" width="2.64" height="10.77" rx="1.32" ry="1.32"/><rect class="cls-9" x="204.87" y="77.01" width="2.64" height="10.77" rx="1.32" ry="1.32"/><rect class="cls-9" x="212.67" y="77.01" width="2.64" height="10.77" rx="1.32" ry="1.32"/><rect class="cls-9" x="220.47" y="77.01" width="2.64" height="10.77" rx="1.32" ry="1.32"/><path class="cls-10" d="M223.11,82.49V78.33a1.32,1.32,0,1,0-2.64,0v4.17h-5.16V78.33a1.32,1.32,0,1,0-2.64,0v4.17h-5.16V78.33A1.32,1.32,0,0,0,206.19,77h-0.05v70.5h23.37v-65h-6.4Z"/><rect class="cls-11" x="191.64" y="117.39" width="54.38" height="12.87" transform="translate(-23.46 191) rotate(-45)"/><rect class="cls-12" x="237.06" y="96.15" width="6.02" height="12.87" transform="translate(-2.23 199.8) rotate(-45)"/><polygon class="cls-13" points="195.06 147.59 204.16 147.59 195.06 138.49 195.06 147.59"/><polygon class="cls-3" points="195.06 147.59 198.2 147.59 195.06 144.46 195.06 147.59"/><polygon class="cls-14" points="195.08 147.59 204.16 147.59 199.62 143.05 195.08 147.59"/><rect class="cls-15" x="193.92" y="122.89" width="54.38" height="6.42" transform="translate(-24.4 193.28) rotate(-45)"/><polygon class="cls-16" points="195.08 147.59 198.2 147.59 196.64 146.03 195.08 147.59"/><rect class="cls-17" x="239.34" y="101.65" width="6.02" height="6.42" transform="translate(-3.17 202.08) rotate(-45)"/></g></g></svg>