<svg xmlns="http://www.w3.org/2000/svg" xmlns:xlink="http://www.w3.org/1999/xlink" width="289" height="276" viewBox="0 0 289 276"><defs><style>.cls-1{isolation:isolate;}.cls-2{fill:url(#linear-gradient);}.cls-3{fill:#48484a;}.cls-4{fill:#231f20;}.cls-5{fill:#808184;}.cls-6{fill:#fff;}.cls-7{fill:#d7e8f2;}.cls-8{fill:#b2d235;}.cls-10,.cls-9{fill:#a7a5a6;}.cls-10{mix-blend-mode:multiply;}.cls-11{fill:#ffca05;}.cls-12{fill:#f69a7e;}.cls-13{fill:#ffdcad;}.cls-14{fill:#e6bc81;}.cls-15{fill:#f9a51a;}.cls-16{fill:#323031;}.cls-17{fill:#ec1c24;}</style><linearGradient id="linear-gradient" x1="144.5" y1="276" x2="144.5" gradientUnits="userSpaceOnUse"><stop offset="0.32" stop-color="#fff"/><stop offset="1" stop-color="#ade1f9"/></linearGradient></defs><title>training</title><g class="cls-1"><g id="Layer_1" data-name="Layer 1"><rect class="cls-2" width="289" height="276" rx="11.34" ry="11.34"/><path class="cls-3" d="M141.39,174.09c-7.5-7.7-23.78-7.84-23.78-32.16H92.27c0,24.32-16.29,24.46-23.78,32.16a5.82,5.82,0,0,0,4.15,9.9h64.6A5.82,5.82,0,0,0,141.39,174.09Z"/><path class="cls-4" d="M141.39,174.09c-7.5-7.7-23.78-7.84-23.78-32.16H105.77V184h31.47A5.82,5.82,0,0,0,141.39,174.09Z"/><rect class="cls-5" x="28.94" y="50.45" width="152" height="114.76" rx="7.6" ry="7.6"/><path class="cls-3" d="M173.34,50.45H105.77V165.21h67.57a7.6,7.6,0,0,0,7.6-7.6V58.05A7.6,7.6,0,0,0,173.34,50.45Z"/><rect class="cls-6" x="33.63" y="61.09" width="142.63" height="86.13"/><rect class="cls-7" x="105.77" y="61.09" width="70.48" height="86.13"/><circle class="cls-8" cx="172.65" cy="155.84" r="2.53"/><rect class="cls-6" x="191.03" y="103" width="57" height="80"/><rect class="cls-5" x="199.7" y="119" width="40" height="3.33"/><rect class="cls-5" x="199.7" y="130.33" width="40" height="3.33"/><rect class="cls-5" x="199.7" y="141.66" width="25.94" height="3.33"/><rect class="cls-9" x="198.53" y="96.25" width="3.25" height="13.25" rx="1.62" ry="1.62"/><rect class="cls-9" x="208.13" y="96.25" width="3.25" height="13.25" rx="1.62" ry="1.62"/><rect class="cls-9" x="217.72" y="96.25" width="3.25" height="13.25" rx="1.62" ry="1.62"/><rect class="cls-9" x="227.31" y="96.25" width="3.25" height="13.25" rx="1.62" ry="1.62"/><rect class="cls-9" x="236.91" y="96.25" width="3.25" height="13.25" rx="1.62" ry="1.62"/><path class="cls-10" d="M240.16,103V97.87a1.63,1.63,0,0,0-3.25,0V103h-6.34V97.87a1.63,1.63,0,0,0-3.25,0V103H221V97.87a1.63,1.63,0,0,0-1.62-1.62h-0.06V183H248V103h-7.87Z"/><rect class="cls-11" x="201.44" y="145.93" width="66.9" height="15.83" transform="translate(-39.98 211.16) rotate(-45)"/><rect class="cls-12" x="257.32" y="119.8" width="7.41" height="15.83" transform="translate(-13.86 221.98) rotate(-45)"/><polygon class="cls-13" points="205.65 183.09 216.84 183.09 205.65 171.89 205.65 183.09"/><polygon class="cls-3" points="205.65 183.09 209.51 183.09 205.65 179.23 205.65 183.09"/><polygon class="cls-14" points="205.67 183.09 216.84 183.09 211.26 177.5 205.67 183.09"/><rect class="cls-15" x="204.25" y="152.7" width="66.9" height="7.9" transform="translate(-41.14 213.96) rotate(-45)"/><polygon class="cls-16" points="205.67 183.09 209.51 183.09 207.59 181.17 205.67 183.09"/><rect class="cls-17" x="260.12" y="126.57" width="7.41" height="7.9" transform="translate(-15.02 224.78) rotate(-45)"/></g></g></svg>