<svg xmlns="http://www.w3.org/2000/svg" xmlns:xlink="http://www.w3.org/1999/xlink" width="94.494" height="149.293" viewBox="0 0 94.494 149.293"><defs><style>.a{fill:url(#a);}.b,.c{stroke:none;}.c{fill:#fff;}</style><linearGradient id="a" x1="0.5" x2="0.5" y2="1" gradientUnits="objectBoundingBox"><stop offset="0" stop-color="#0b9a74"/><stop offset="1" stop-color="#076049"/></linearGradient></defs><g class="a" transform="translate(-2 0.991)"><path class="b" d="M 49.24698638916016 145.9062347412109 L 48.07734680175781 144.4497985839844 C 48.0494270324707 144.4150085449219 45.23702621459961 140.9054260253906 41.11144638061523 135.1117401123047 C 37.30826568603516 129.7708129882812 31.56922721862793 121.3276138305664 25.82618713378906 111.4346542358398 C 19.3614673614502 100.2985153198242 14.2078275680542 89.62985229492188 10.50838756561279 79.72501373291016 C 5.857967376708984 67.27395629882812 3.500007152557373 55.98355484008789 3.500007152557373 46.16739273071289 C 3.500007152557373 39.99333190917969 4.709607124328613 34.00707244873047 7.095227241516113 28.37487411499023 C 9.39882755279541 22.9362735748291 12.69710731506348 18.05401420593262 16.89844703674316 13.86371326446533 C 21.09804725646973 9.67513370513916 25.99030685424805 6.38697338104248 31.43932723999023 4.090593338012695 C 37.07854843139648 1.714033246040344 43.06988906860352 0.5090132355690002 49.24688720703125 0.5090132355690002 C 55.42368698120117 0.5090132355690002 61.41506576538086 1.714473247528076 67.05460357666016 4.091893196105957 C 72.50336456298828 6.388893127441406 77.39560699462891 9.677753448486328 81.59540557861328 13.86711311340332 C 85.79660797119141 18.05785369873047 89.0948486328125 22.94021415710449 91.39852905273438 28.37857246398926 C 93.78414916992188 34.01035308837891 94.99376678466797 39.9953727722168 94.99376678466797 46.16739273071289 C 94.99376678466797 55.98153305053711 92.63581085205078 67.27069091796875 87.98536682128906 79.72129058837891 C 84.28594970703125 89.62575531005859 79.13230895996094 100.2945327758789 72.66761016845703 111.4312896728516 C 69.49770355224609 116.8920745849609 64.27272796630859 125.4329299926758 57.38238906860352 135.1104125976562 C 53.25680541992188 140.9048004150391 50.44442749023438 144.4149169921875 50.41650772094727 144.4496917724609 L 49.24698638916016 145.9062347412109 Z M 49.24688720703125 24.31389236450195 C 46.22148895263672 24.31389236450195 43.28794860839844 24.90583419799805 40.52774810791016 26.07327270507812 C 37.86128616333008 27.20105361938477 35.46646881103516 28.81597328186035 33.40980911254883 30.87317276000977 C 31.35340690612793 32.93009185791016 29.73912811279297 35.3250732421875 28.61178779602051 37.99159240722656 C 27.44512748718262 40.75115203857422 26.85356712341309 43.68351364135742 26.85356712341309 46.70721435546875 C 26.85356712341309 49.73091506958008 27.44512748718262 52.66327285766602 28.61178779602051 55.42283248901367 C 29.73912811279297 58.08935165405273 31.35340690612793 60.48433303833008 33.40980911254883 62.54125213623047 C 35.46646881103516 64.59844970703125 37.86128616333008 66.21337127685547 40.52774810791016 67.34115600585938 C 43.28794860839844 68.50859069824219 46.22148895263672 69.10053253173828 49.24688720703125 69.10053253173828 C 52.26802825927734 69.10053253173828 55.198486328125 68.50863647460938 57.95688629150391 67.34127044677734 C 60.62212753295898 66.21335601806641 63.01630783081055 64.59839630126953 65.07290649414062 62.54125213623047 C 67.12968444824219 60.48397445678711 68.74436950683594 58.08891296386719 69.87210845947266 55.42261505126953 C 71.03944396972656 52.66273498535156 71.63134765625 49.73043441772461 71.63134765625 46.70721435546875 C 71.63134765625 43.68399429321289 71.03944396972656 40.75169372558594 69.87210845947266 37.99181365966797 C 68.74436950683594 35.32551193237305 67.12968444824219 32.93045425415039 65.07290649414062 30.87317276000977 C 63.01630783081055 28.81603240966797 60.62212753295898 27.20107269287109 57.95688629150391 26.07315254211426 C 55.198486328125 24.90579414367676 52.26802825927734 24.31389236450195 49.24688720703125 24.31389236450195 Z"/><path class="c" d="M 49.24688720703125 2.008987426757812 C 24.80490875244141 2.008987426757812 5.000007629394531 21.7342529296875 5.000007629394531 46.16739654541016 C 5.000007629394531 88.41431427001953 49.24688720703125 143.5105285644531 49.24688720703125 143.5105285644531 C 49.24688720703125 143.5105285644531 93.49376678466797 88.40547180175781 93.49376678466797 46.16739654541016 C 93.49376678466797 21.74311065673828 73.6888427734375 2.008987426757812 49.24688720703125 2.008987426757812 M 49.24688720703125 70.60053253173828 C 36.04360580444336 70.60053253173828 25.35356903076172 59.90163421630859 25.35356903076172 46.70721435546875 C 25.35356903076172 33.51279449462891 36.04360580444336 22.81389617919922 49.24688720703125 22.81389617919922 C 62.43246841430664 22.81389617919922 73.13134765625 33.51279449462891 73.13134765625 46.70721435546875 C 73.13134765625 59.90163421630859 62.43246841430664 70.60053253173828 49.24688720703125 70.60053253173828 M 49.24688720703125 -0.9910125732421875 C 55.62490844726562 -0.9910125732421875 61.81232833862305 0.25408935546875 67.63728332519531 2.709671020507812 C 73.26490783691406 5.082077026367188 78.3175048828125 8.478668212890625 82.65474700927734 12.80513000488281 C 86.99362945556641 17.13323974609375 90.40016937255859 22.17605590820312 92.77972412109375 27.79351043701172 C 95.24418640136719 33.61139678955078 96.49376678466797 39.79325103759766 96.49376678466797 46.16739654541016 C 96.49376678466797 56.16135406494141 94.10390472412109 67.62709045410156 89.39054870605469 80.24615478515625 C 85.66172790527344 90.22933197021484 80.47178649902344 100.9748916625977 73.96486663818359 112.1843338012695 C 70.77902984619141 117.6725921630859 65.52803039550781 126.2560348510742 58.60430908203125 135.9804077148438 C 54.45358657836914 141.8101196289062 51.70124816894531 145.2454376220703 51.58612823486328 145.3888397216797 L 49.24706649780273 148.3018798828125 L 46.90780639648438 145.3890075683594 C 46.79266738891602 145.2456512451172 44.04032897949219 141.8108367919922 39.88956832885742 135.9817962646484 C 36.06796646118164 130.614990234375 30.30088806152344 122.1304779052734 24.5289306640625 112.1877136230469 C 18.02201080322266 100.9788970947266 12.83204650878906 90.23342895507812 9.10321044921875 80.24985504150391 C 4.389869689941406 67.63035583496094 2.000007629394531 56.16335296630859 2.000007629394531 46.16739654541016 C 2.000007629394531 39.79123687744141 3.249588012695312 33.60813140869141 5.714004516601562 27.78985595703125 C 8.093505859375 22.17209625244141 11.50010681152344 17.12934875488281 15.83916473388672 12.80165100097656 C 20.17622375488281 8.475997924804688 25.22888946533203 5.080093383789062 30.85678863525391 2.70831298828125 C 36.68138885498047 0.2536163330078125 42.86870574951172 -0.9910125732421875 49.24688720703125 -0.9910125732421875 Z M 49.24688720703125 67.60053253173828 C 52.06608581542969 67.60053253173828 54.79986572265625 67.04853057861328 57.37228775024414 65.95989227294922 C 59.85878753662109 64.90761566162109 62.09274673461914 63.40059661865234 64.01210784912109 61.48073577880859 C 65.93167114257812 59.56069183349609 67.43844604492188 57.32583618164062 68.49060821533203 54.83827209472656 C 69.57933044433594 52.26428985595703 70.13134765625 49.52859497070312 70.13134765625 46.70721435546875 C 70.13134765625 43.88583374023438 69.57933044433594 41.15013122558594 68.49060821533203 38.57615661621094 C 67.43844604492188 36.08859252929688 65.93167114257812 33.85373687744141 64.01210784912109 31.93369293212891 C 62.09274673461914 30.01383209228516 59.85878753662109 28.50681304931641 57.37228775024414 27.45453643798828 C 54.79986572265625 26.36589050292969 52.06608581542969 25.81389617919922 49.24688720703125 25.81389617919922 C 43.66364669799805 25.81389617919922 38.41598892211914 27.98727416992188 34.47058868408203 31.93369293212891 C 32.55146789550781 33.85330963134766 31.04512786865234 36.08798980712891 29.99338531494141 38.57569122314453 C 28.90528869628906 41.14943695068359 28.35356903076172 43.88527679443359 28.35356903076172 46.70721435546875 C 28.35356903076172 49.52915191650391 28.90528869628906 52.26499176025391 29.99338531494141 54.83872985839844 C 31.04512786865234 57.32643127441406 32.55146789550781 59.56111145019531 34.47058868408203 61.48073577880859 C 38.41598892211914 65.42715454101562 43.66364669799805 67.60053253173828 49.24688720703125 67.60053253173828 Z"/></g></svg>