<?xml version="1.0" encoding="iso-8859-1"?>
<!-- Generator: Adobe Illustrator 18.1.1, SVG Export Plug-In . SVG Version: 6.00 Build 0)  -->
<svg version="1.1" id="Layer_1" xmlns="http://www.w3.org/2000/svg" xmlns:xlink="http://www.w3.org/1999/xlink" x="0px" y="0px"
	 width="275px" height="100px" viewBox="0 0 275 100" style="enable-background:new 0 0 275 100;" xml:space="preserve">
<g>
	<defs>
		<rect id="SVGID_1_" x="5" y="1.993" width="90" height="96.014"/>
	</defs>
	<clipPath id="SVGID_2_">
		<use xlink:href="#SVGID_1_"  style="overflow:visible;"/>
	</clipPath>
	<path style="clip-path:url(#SVGID_2_);fill:#FFFFFF;" d="M94.635,47.408c0,27.559-23.382,50.421-47.368,50.421
		c-0.039,0,2.754-7.316,2.717-7.316c-24.661,0-44.652-18.269-44.652-43.105S25.323,2.437,49.984,2.437
		C74.644,2.437,94.635,22.572,94.635,47.408"/>
	<path style="clip-path:url(#SVGID_2_);fill:#FFFFFF;" d="M74.114,62.255c0.51-0.11,0.989-0.278,1.438-0.504v-2.002
		c-0.549,0.26-1.077,0.45-1.581,0.568c-0.504,0.119-1.04,0.179-1.606,0.179c-0.729,0-1.295-0.207-1.699-0.619
		c-0.403-0.413-0.619-0.987-0.647-1.722h6.063V56.9c0-1.345-0.37-2.4-1.11-3.163c-0.74-0.763-1.775-1.145-3.103-1.145
		c-1.39,0-2.48,0.435-3.267,1.302c-0.788,0.868-1.182,2.096-1.182,3.685c0,1.543,0.426,2.736,1.279,3.578
		c0.852,0.843,2.034,1.264,3.548,1.264C72.982,62.421,73.604,62.365,74.114,62.255 M73.181,54.954
		c0.319,0.348,0.485,0.841,0.496,1.48h-3.599c0.044-0.639,0.221-1.132,0.529-1.48c0.309-0.348,0.735-0.521,1.279-0.521
		C72.429,54.433,72.861,54.606,73.181,54.954 M64.901,62.268c0.424-0.102,0.843-0.285,1.258-0.551v-2.213
		c-0.421,0.282-0.841,0.49-1.262,0.623c-0.42,0.133-0.877,0.199-1.371,0.199c-1.334,0-2.001-0.927-2.001-2.781
		c0-1.911,0.667-2.866,2.001-2.866c0.348,0,0.696,0.052,1.043,0.156c0.348,0.105,0.723,0.239,1.127,0.403l0.757-2.001
		c-0.864-0.429-1.839-0.645-2.927-0.645c-1.485,0-2.626,0.426-3.422,1.277c-0.796,0.851-1.194,2.082-1.194,3.693
		c0,3.239,1.463,4.859,4.39,4.859C63.944,62.421,64.478,62.37,64.901,62.268 M57.135,52.771H54.57v9.48h2.565V52.771z
		 M55.857,51.592c0.465,0,0.814-0.111,1.047-0.335c0.233-0.223,0.349-0.535,0.349-0.937c0-0.842-0.465-1.264-1.396-1.264
		c-0.93,0-1.396,0.422-1.396,1.264C54.461,51.168,54.927,51.592,55.857,51.592 M49.987,62.251l3.582-9.48h-2.682l-1.808,5.401
		c-0.224,0.752-0.35,1.399-0.378,1.942H48.65c-0.05-0.61-0.176-1.258-0.378-1.942l-1.817-5.401h-2.682l3.582,9.48H49.987z
		 M37.07,59.661c-0.319-0.467-0.479-1.167-0.479-2.099c0-0.933,0.159-1.644,0.475-2.133c0.317-0.489,0.761-0.733,1.333-0.733
		c0.701,0,1.207,0.22,1.518,0.661c0.311,0.441,0.467,1.17,0.467,2.188v0.28c-0.028,0.921-0.195,1.574-0.501,1.958
		c-0.305,0.385-0.786,0.577-1.442,0.577C37.847,60.36,37.39,60.127,37.07,59.661 M40.207,61.022h0.109l0.496,1.229h1.968V49.056
		h-2.573v3.036c0,0.554,0.064,1.185,0.194,1.891h-0.085c-0.622-0.927-1.525-1.391-2.707-1.391c-1.127,0-2.012,0.435-2.654,1.302
		c-0.641,0.868-0.962,2.079-0.962,3.634c0,1.532,0.315,2.73,0.946,3.595c0.631,0.865,1.498,1.298,2.603,1.298
		C38.735,62.421,39.624,61.954,40.207,61.022 M30.065,58.639c0,0.571-0.178,1.028-0.534,1.373c-0.356,0.345-0.831,0.518-1.425,0.518
		c-0.83,0-1.245-0.365-1.245-1.094c0-0.509,0.182-0.888,0.547-1.137c0.364-0.248,0.919-0.384,1.665-0.407l0.992-0.033V58.639z
		 M32.613,62.251v-6.317c0-1.131-0.337-1.973-1.009-2.527c-0.673-0.554-1.64-0.831-2.901-0.831c-1.318,0-2.518,0.285-3.599,0.856
		l0.849,1.747c1.014-0.458,1.897-0.687,2.649-0.687c0.975,0,1.463,0.481,1.463,1.442v0.415L28.434,56.4
		c-1.408,0.051-2.46,0.315-3.158,0.793s-1.047,1.219-1.047,2.226c0,0.961,0.259,1.701,0.778,2.222c0.519,0.52,1.229,0.78,2.132,0.78
		c0.734,0,1.33-0.106,1.787-0.319c0.456-0.211,0.901-0.591,1.332-1.14h0.068l0.496,1.289H32.613z"/>
	<path style="clip-path:url(#SVGID_2_);fill:#FFFFFF;" d="M80.64,40.465c-0.163-0.339-0.415-0.638-0.757-0.899
		c-0.342-0.26-0.88-0.539-1.615-0.839c-0.824-0.334-1.358-0.585-1.602-0.755c-0.243-0.169-0.365-0.37-0.365-0.602
		c0-0.412,0.378-0.619,1.135-0.619c0.426,0,0.843,0.065,1.253,0.195c0.409,0.13,0.849,0.297,1.32,0.5l0.774-1.865
		c-1.071-0.498-2.173-0.746-3.305-0.746c-1.189,0-2.107,0.23-2.754,0.691c-0.647,0.461-0.971,1.112-0.971,1.954
		c0,0.492,0.077,0.906,0.231,1.243c0.154,0.336,0.401,0.634,0.74,0.894c0.339,0.26,0.87,0.543,1.593,0.848
		c0.505,0.215,0.909,0.403,1.211,0.564c0.303,0.161,0.516,0.305,0.64,0.433c0.123,0.127,0.185,0.292,0.185,0.496
		c0,0.542-0.466,0.814-1.397,0.814c-0.454,0-0.979-0.077-1.576-0.229c-0.597-0.153-1.134-0.342-1.61-0.569v2.137
		c0.42,0.181,0.871,0.319,1.353,0.412c0.483,0.093,1.066,0.14,1.75,0.14c1.334,0,2.336-0.255,3.006-0.763
		c0.67-0.509,1.005-1.25,1.005-2.222C80.884,41.208,80.802,40.804,80.64,40.465 M72.029,38.311c0-1.125-0.284-1.985-0.85-2.582
		c-0.566-0.596-1.396-0.894-2.489-0.894c-0.639,0-1.21,0.117-1.711,0.352c-0.502,0.234-0.896,0.58-1.182,1.038h-0.143l-0.344-1.212
		h-1.96v9.48h2.565v-4.46c0-1.119,0.16-1.921,0.479-2.404c0.32-0.484,0.838-0.725,1.556-0.725c0.527,0,0.911,0.171,1.152,0.513
		c0.241,0.342,0.362,0.855,0.362,1.539v5.537h2.565V38.311z M59.642,44.497c0.51-0.11,0.989-0.278,1.438-0.504v-2.001
		c-0.55,0.26-1.077,0.449-1.581,0.568c-0.505,0.119-1.04,0.178-1.606,0.178c-0.729,0-1.295-0.207-1.699-0.619
		c-0.404-0.413-0.62-0.987-0.648-1.722h6.063v-1.255c0-1.345-0.37-2.399-1.11-3.162c-0.74-0.764-1.774-1.145-3.102-1.145
		c-1.391,0-2.48,0.433-3.268,1.301c-0.787,0.868-1.181,2.096-1.181,3.685c0,1.543,0.426,2.736,1.278,3.578
		c0.852,0.843,2.035,1.264,3.549,1.264C58.509,44.663,59.131,44.608,59.642,44.497 M58.708,37.196
		c0.32,0.348,0.485,0.841,0.496,1.48h-3.599c0.045-0.639,0.222-1.132,0.53-1.48c0.308-0.347,0.734-0.521,1.278-0.521
		S58.389,36.849,58.708,37.196 M52.006,42.517h-4.39l4.239-5.825v-1.679h-7.014v1.975h4.095l-4.355,5.979v1.526h7.425V42.517z
		 M43.117,35.013h-2.565v9.48h2.565V35.013z M41.839,33.834c0.465,0,0.814-0.111,1.047-0.335c0.232-0.223,0.349-0.535,0.349-0.937
		c0-0.842-0.466-1.263-1.396-1.263c-0.931,0-1.396,0.421-1.396,1.263C40.443,33.41,40.908,33.834,41.839,33.834 M36.57,42.339
		c-0.205-0.175-0.307-0.446-0.307-0.814v-4.57h2.632v-1.942h-2.632v-2.019h-1.639l-0.74,2.002l-1.413,0.865v1.094h1.228v4.57
		c0,1.046,0.234,1.831,0.701,2.353c0.469,0.523,1.216,0.785,2.242,0.785c0.93,0,1.715-0.145,2.354-0.433v-1.925
		c-0.628,0.198-1.166,0.297-1.614,0.297C37.045,42.602,36.775,42.515,36.57,42.339 M31.074,35.013h-2.565v9.48h2.565V35.013z
		 M29.796,33.834c0.466,0,0.815-0.111,1.047-0.335c0.233-0.223,0.349-0.535,0.349-0.937c0-0.842-0.465-1.263-1.396-1.263
		c-0.93,0-1.396,0.421-1.396,1.263C28.4,33.41,28.866,33.834,29.796,33.834 M25.419,44.51c0.423-0.102,0.842-0.285,1.257-0.551
		v-2.213c-0.42,0.283-0.841,0.49-1.261,0.623c-0.421,0.133-0.878,0.199-1.371,0.199c-1.334,0-2.001-0.927-2.001-2.781
		c0-1.911,0.667-2.866,2.001-2.866c0.348,0,0.695,0.052,1.043,0.157c0.347,0.104,0.723,0.239,1.126,0.402l0.758-2.001
		c-0.864-0.429-1.84-0.644-2.927-0.644c-1.485,0-2.626,0.425-3.422,1.276c-0.797,0.851-1.195,2.082-1.195,3.693
		c0,3.239,1.464,4.859,4.39,4.859C24.462,44.663,24.996,44.612,25.419,44.51"/>
	<path style="clip-path:url(#SVGID_2_);fill:#004B88;" d="M94.635,47.408c0,27.559-23.382,50.421-47.368,50.421
		c-0.039,0,2.754-7.316,2.717-7.316c-24.661,0-44.652-18.269-44.652-43.105S25.323,2.437,49.984,2.437
		C74.644,2.437,94.635,22.572,94.635,47.408"/>
	<path style="clip-path:url(#SVGID_2_);fill:#FFFFFF;" d="M74.114,62.255c0.51-0.11,0.989-0.278,1.438-0.504v-2.002
		c-0.549,0.26-1.077,0.45-1.581,0.568c-0.504,0.119-1.04,0.179-1.606,0.179c-0.729,0-1.295-0.207-1.699-0.619
		c-0.403-0.413-0.619-0.987-0.647-1.722h6.063V56.9c0-1.345-0.37-2.4-1.11-3.163c-0.74-0.763-1.775-1.145-3.103-1.145
		c-1.39,0-2.48,0.435-3.267,1.302c-0.788,0.868-1.182,2.096-1.182,3.685c0,1.543,0.426,2.736,1.279,3.578
		c0.852,0.843,2.034,1.264,3.548,1.264C72.982,62.421,73.604,62.365,74.114,62.255 M73.181,54.954
		c0.319,0.348,0.485,0.841,0.496,1.48h-3.599c0.044-0.639,0.221-1.132,0.529-1.48c0.309-0.348,0.735-0.521,1.279-0.521
		C72.429,54.433,72.861,54.606,73.181,54.954 M64.901,62.268c0.424-0.102,0.843-0.285,1.258-0.551v-2.213
		c-0.421,0.282-0.841,0.49-1.262,0.623c-0.42,0.133-0.877,0.199-1.371,0.199c-1.334,0-2.001-0.927-2.001-2.781
		c0-1.911,0.667-2.866,2.001-2.866c0.348,0,0.696,0.052,1.043,0.156c0.348,0.105,0.723,0.239,1.127,0.403l0.757-2.001
		c-0.864-0.429-1.839-0.645-2.927-0.645c-1.485,0-2.626,0.426-3.422,1.277c-0.796,0.851-1.194,2.082-1.194,3.693
		c0,3.239,1.463,4.859,4.39,4.859C63.944,62.421,64.478,62.37,64.901,62.268 M57.135,52.771H54.57v9.48h2.565V52.771z
		 M55.857,51.592c0.465,0,0.814-0.111,1.047-0.335c0.233-0.223,0.349-0.535,0.349-0.937c0-0.842-0.465-1.264-1.396-1.264
		c-0.93,0-1.396,0.422-1.396,1.264C54.461,51.168,54.927,51.592,55.857,51.592 M49.987,62.251l3.582-9.48h-2.682l-1.808,5.401
		c-0.224,0.752-0.35,1.399-0.378,1.942H48.65c-0.05-0.61-0.176-1.258-0.378-1.942l-1.817-5.401h-2.682l3.582,9.48H49.987z
		 M37.07,59.661c-0.319-0.467-0.479-1.167-0.479-2.099c0-0.933,0.159-1.644,0.475-2.133c0.317-0.489,0.761-0.733,1.333-0.733
		c0.701,0,1.207,0.22,1.518,0.661c0.311,0.441,0.467,1.17,0.467,2.188v0.28c-0.028,0.921-0.195,1.574-0.501,1.958
		c-0.305,0.385-0.786,0.577-1.442,0.577C37.847,60.36,37.39,60.127,37.07,59.661 M40.207,61.022h0.109l0.496,1.229h1.968V49.056
		h-2.573v3.036c0,0.554,0.064,1.185,0.194,1.891h-0.085c-0.622-0.927-1.525-1.391-2.707-1.391c-1.127,0-2.012,0.435-2.654,1.302
		c-0.641,0.868-0.962,2.079-0.962,3.634c0,1.532,0.315,2.73,0.946,3.595c0.631,0.865,1.498,1.298,2.603,1.298
		C38.735,62.421,39.624,61.954,40.207,61.022 M30.065,58.639c0,0.571-0.178,1.028-0.534,1.373c-0.356,0.345-0.831,0.518-1.425,0.518
		c-0.83,0-1.245-0.365-1.245-1.094c0-0.509,0.182-0.888,0.547-1.137c0.364-0.248,0.919-0.384,1.665-0.407l0.992-0.033V58.639z
		 M32.613,62.251v-6.317c0-1.131-0.337-1.973-1.009-2.527c-0.673-0.554-1.64-0.831-2.901-0.831c-1.318,0-2.518,0.285-3.599,0.856
		l0.849,1.747c1.014-0.458,1.897-0.687,2.649-0.687c0.975,0,1.463,0.481,1.463,1.442v0.415L28.434,56.4
		c-1.408,0.051-2.46,0.315-3.158,0.793s-1.047,1.219-1.047,2.226c0,0.961,0.259,1.701,0.778,2.221
		c0.519,0.521,1.229,0.781,2.132,0.781c0.734,0,1.33-0.106,1.787-0.319c0.456-0.211,0.901-0.591,1.332-1.14h0.068l0.496,1.289
		H32.613z"/>
	<path style="clip-path:url(#SVGID_2_);fill:#FFFFFF;" d="M80.64,40.465c-0.163-0.339-0.415-0.638-0.757-0.899
		c-0.342-0.26-0.88-0.539-1.615-0.839c-0.824-0.334-1.358-0.585-1.602-0.755c-0.243-0.169-0.365-0.37-0.365-0.602
		c0-0.412,0.378-0.619,1.135-0.619c0.426,0,0.843,0.065,1.253,0.195c0.409,0.13,0.849,0.297,1.32,0.5l0.774-1.865
		c-1.071-0.498-2.173-0.746-3.305-0.746c-1.189,0-2.107,0.23-2.754,0.691c-0.647,0.461-0.971,1.112-0.971,1.954
		c0,0.492,0.077,0.906,0.231,1.243c0.154,0.336,0.401,0.634,0.74,0.894c0.339,0.26,0.87,0.543,1.593,0.848
		c0.505,0.215,0.909,0.403,1.211,0.564c0.303,0.161,0.516,0.305,0.64,0.433c0.123,0.127,0.185,0.292,0.185,0.496
		c0,0.542-0.466,0.814-1.397,0.814c-0.454,0-0.979-0.077-1.576-0.229c-0.597-0.153-1.134-0.342-1.61-0.569v2.137
		c0.42,0.181,0.871,0.319,1.353,0.412c0.483,0.093,1.066,0.14,1.75,0.14c1.334,0,2.336-0.255,3.006-0.763
		c0.67-0.509,1.005-1.25,1.005-2.222C80.884,41.208,80.802,40.804,80.64,40.465 M72.029,38.311c0-1.125-0.284-1.985-0.85-2.582
		c-0.566-0.596-1.396-0.894-2.489-0.894c-0.639,0-1.21,0.117-1.711,0.352c-0.502,0.234-0.896,0.58-1.182,1.038h-0.143l-0.344-1.212
		h-1.96v9.48h2.565v-4.46c0-1.119,0.16-1.921,0.479-2.404c0.32-0.484,0.838-0.725,1.556-0.725c0.527,0,0.911,0.171,1.152,0.513
		c0.241,0.342,0.362,0.855,0.362,1.539v5.537h2.565V38.311z M59.642,44.497c0.51-0.11,0.989-0.278,1.438-0.504v-2.001
		c-0.55,0.26-1.077,0.449-1.581,0.568c-0.505,0.119-1.04,0.178-1.606,0.178c-0.729,0-1.295-0.207-1.699-0.619
		c-0.404-0.413-0.62-0.987-0.648-1.722h6.063v-1.255c0-1.345-0.37-2.399-1.11-3.162c-0.74-0.764-1.774-1.145-3.102-1.145
		c-1.391,0-2.48,0.433-3.268,1.301c-0.787,0.868-1.181,2.096-1.181,3.685c0,1.543,0.426,2.736,1.278,3.578
		c0.852,0.843,2.035,1.264,3.549,1.264C58.509,44.663,59.131,44.608,59.642,44.497 M58.708,37.196
		c0.32,0.348,0.485,0.841,0.496,1.48h-3.599c0.045-0.639,0.222-1.132,0.53-1.48c0.308-0.347,0.734-0.521,1.278-0.521
		S58.389,36.849,58.708,37.196 M52.006,42.517h-4.39l4.239-5.825v-1.679h-7.014v1.975h4.095l-4.355,5.979v1.526h7.425V42.517z
		 M43.117,35.013h-2.565v9.48h2.565V35.013z M41.839,33.834c0.465,0,0.814-0.111,1.047-0.335c0.232-0.223,0.349-0.535,0.349-0.937
		c0-0.842-0.466-1.263-1.396-1.263c-0.931,0-1.396,0.421-1.396,1.263C40.443,33.41,40.908,33.834,41.839,33.834 M36.57,42.339
		c-0.205-0.175-0.307-0.446-0.307-0.814v-4.57h2.632v-1.942h-2.632v-2.019h-1.639l-0.74,2.002l-1.413,0.865v1.094h1.228v4.57
		c0,1.046,0.234,1.831,0.701,2.353c0.469,0.523,1.216,0.785,2.242,0.785c0.93,0,1.715-0.145,2.354-0.433v-1.925
		c-0.628,0.198-1.166,0.297-1.614,0.297C37.045,42.602,36.775,42.515,36.57,42.339 M31.074,35.013h-2.565v9.48h2.565V35.013z
		 M29.796,33.834c0.466,0,0.815-0.111,1.047-0.335c0.233-0.223,0.349-0.535,0.349-0.937c0-0.842-0.465-1.263-1.396-1.263
		c-0.93,0-1.396,0.421-1.396,1.263C28.4,33.41,28.866,33.834,29.796,33.834 M25.419,44.51c0.423-0.102,0.842-0.285,1.257-0.551
		v-2.213c-0.42,0.283-0.841,0.49-1.261,0.623c-0.421,0.133-0.878,0.199-1.371,0.199c-1.334,0-2.001-0.927-2.001-2.781
		c0-1.911,0.667-2.866,2.001-2.866c0.348,0,0.695,0.052,1.043,0.157c0.347,0.104,0.723,0.239,1.126,0.402l0.758-2.001
		c-0.864-0.429-1.84-0.644-2.927-0.644c-1.485,0-2.626,0.425-3.422,1.276c-0.797,0.851-1.195,2.082-1.195,3.693
		c0,3.239,1.464,4.859,4.39,4.859C24.462,44.663,24.996,44.612,25.419,44.51"/>
</g>
<path style="fill:#004B88;" d="M104.898,47.698v4.711h-2.603V40.132h3.577c1.668,0,2.903,0.304,3.703,0.911
	c0.801,0.607,1.201,1.53,1.201,2.767c0,0.722-0.199,1.365-0.596,1.927c-0.397,0.563-0.96,1.003-1.688,1.323
	c1.847,2.76,3.051,4.543,3.611,5.349h-2.889l-2.931-4.711H104.898z M104.898,45.582h0.84c0.823,0,1.43-0.137,1.822-0.411
	c0.392-0.274,0.588-0.705,0.588-1.293c0-0.582-0.2-0.996-0.6-1.243c-0.4-0.246-1.02-0.369-1.86-0.369h-0.789V45.582z"/>
<path style="fill:#004B88;" d="M117.021,52.577c-1.512,0-2.693-0.417-3.544-1.251c-0.851-0.834-1.276-2.015-1.276-3.544
	c0-1.573,0.393-2.789,1.18-3.649c0.787-0.859,1.874-1.289,3.262-1.289c1.327,0,2.36,0.378,3.099,1.134
	c0.739,0.756,1.108,1.8,1.108,3.132v1.243h-6.055c0.028,0.728,0.244,1.296,0.647,1.705c0.403,0.409,0.968,0.613,1.696,0.613
	c0.565,0,1.1-0.059,1.604-0.176c0.504-0.118,1.03-0.305,1.579-0.563v1.982c-0.448,0.224-0.927,0.39-1.436,0.5
	C118.376,52.522,117.754,52.577,117.021,52.577z M116.66,44.666c-0.543,0-0.968,0.172-1.276,0.516
	c-0.308,0.344-0.484,0.833-0.529,1.465h3.594c-0.011-0.633-0.176-1.121-0.495-1.465C117.634,44.839,117.203,44.666,116.66,44.666z"
	/>
<path style="fill:#004B88;" d="M127.633,48.059l-0.991,0.034c-0.745,0.022-1.299,0.157-1.663,0.403
	c-0.364,0.246-0.546,0.621-0.546,1.125c0,0.722,0.414,1.083,1.243,1.083c0.593,0,1.068-0.171,1.423-0.512
	c0.355-0.341,0.533-0.795,0.533-1.36V48.059z M128.389,52.409l-0.495-1.276h-0.067c-0.431,0.543-0.875,0.92-1.331,1.129
	c-0.456,0.21-1.051,0.315-1.784,0.315c-0.901,0-1.611-0.258-2.129-0.773c-0.518-0.515-0.777-1.248-0.777-2.2
	c0-0.996,0.348-1.731,1.045-2.204c0.697-0.473,1.748-0.735,3.153-0.785l1.629-0.05v-0.411c0-0.952-0.487-1.428-1.461-1.428
	c-0.75,0-1.632,0.227-2.645,0.68l-0.848-1.73c1.08-0.565,2.278-0.848,3.594-0.848c1.26,0,2.225,0.274,2.897,0.823
	s1.008,1.383,1.008,2.502v6.256H128.389z"/>
<path style="fill:#004B88;" d="M136.187,50.536c0.655,0,1.135-0.19,1.44-0.571c0.305-0.381,0.472-1.027,0.5-1.94v-0.277
	c0-1.008-0.155-1.73-0.466-2.167c-0.311-0.437-0.816-0.655-1.516-0.655c-0.571,0-1.015,0.242-1.331,0.726
	c-0.316,0.484-0.474,1.188-0.474,2.112c0,0.924,0.16,1.617,0.479,2.078C135.137,50.305,135.593,50.536,136.187,50.536z
	 M135.288,52.577c-1.103,0-1.969-0.428-2.599-1.285c-0.63-0.857-0.945-2.043-0.945-3.56c0-1.54,0.32-2.739,0.962-3.598
	c0.641-0.859,1.524-1.289,2.649-1.289c1.181,0,2.083,0.459,2.704,1.377h0.084c-0.129-0.7-0.193-1.324-0.193-1.873v-3.006h2.57
	v13.066h-1.965l-0.495-1.218h-0.109C137.368,52.115,136.481,52.577,135.288,52.577z"/>
<path style="fill:#004B88;" d="M145.171,52.409h-2.561V43.02h2.561V52.409z M142.501,40.594c0-0.834,0.465-1.251,1.394-1.251
	c0.929,0,1.394,0.417,1.394,1.251c0,0.397-0.116,0.707-0.348,0.928c-0.232,0.221-0.581,0.332-1.045,0.332
	C142.966,41.853,142.501,41.433,142.501,40.594z"/>
<path style="fill:#004B88;" d="M155.939,52.409h-2.561v-5.484c0-0.677-0.12-1.185-0.361-1.524s-0.624-0.508-1.15-0.508
	c-0.717,0-1.234,0.239-1.554,0.718c-0.319,0.479-0.479,1.272-0.479,2.381v4.417h-2.561V43.02h1.957l0.344,1.201h0.143
	c0.286-0.453,0.679-0.796,1.18-1.029c0.501-0.232,1.071-0.348,1.709-0.348c1.092,0,1.92,0.295,2.486,0.886
	c0.565,0.591,0.848,1.443,0.848,2.557V52.409z"/>
<path style="fill:#004B88;" d="M159.929,46.094c0,0.509,0.116,0.913,0.348,1.209s0.586,0.445,1.062,0.445
	c0.481,0,0.834-0.148,1.058-0.445c0.224-0.297,0.336-0.7,0.336-1.209c0-1.131-0.465-1.696-1.394-1.696
	C160.399,44.398,159.929,44.963,159.929,46.094z M158.996,53.736c0,0.353,0.169,0.63,0.508,0.831
	c0.339,0.202,0.813,0.302,1.423,0.302c0.918,0,1.637-0.126,2.158-0.378c0.521-0.252,0.781-0.596,0.781-1.033
	c0-0.353-0.154-0.596-0.462-0.731c-0.308-0.134-0.784-0.202-1.428-0.202h-1.327c-0.47,0-0.864,0.111-1.18,0.332
	S158.996,53.372,158.996,53.736z M166.243,43.02v1.302l-1.47,0.378c0.269,0.42,0.403,0.89,0.403,1.411
	c0,1.008-0.351,1.793-1.054,2.355c-0.703,0.563-1.678,0.844-2.926,0.844l-0.462-0.025l-0.378-0.042
	c-0.263,0.202-0.395,0.425-0.395,0.672c0,0.369,0.47,0.554,1.411,0.554h1.596c1.03,0,1.815,0.221,2.355,0.663
	c0.54,0.442,0.81,1.092,0.81,1.948c0,1.097-0.458,1.948-1.373,2.553c-0.915,0.605-2.23,0.907-3.943,0.907
	c-1.31,0-2.311-0.228-3.002-0.684c-0.691-0.456-1.037-1.096-1.037-1.919c0-0.565,0.176-1.038,0.529-1.419
	c0.353-0.381,0.871-0.652,1.554-0.815c-0.263-0.112-0.493-0.295-0.689-0.55c-0.196-0.255-0.294-0.525-0.294-0.81
	c0-0.358,0.104-0.656,0.311-0.894c0.207-0.238,0.507-0.472,0.899-0.701c-0.493-0.213-0.883-0.554-1.171-1.024
	c-0.288-0.47-0.432-1.024-0.432-1.663c0-1.024,0.333-1.817,0.999-2.376s1.618-0.84,2.855-0.84c0.263,0,0.575,0.024,0.936,0.071
	c0.361,0.048,0.592,0.083,0.693,0.105H166.243z"/>
</svg>
