<svg id="Layer_1" data-name="Layer 1" xmlns="http://www.w3.org/2000/svg" xmlns:xlink="http://www.w3.org/1999/xlink" viewBox="0 0 316.32 341.76"><defs><style>.cls-1{fill:none;}.cls-2{fill:#fff;}.cls-3{clip-path:url(#clip-path);}.cls-4{fill:#7332aa;}.cls-5{fill:#7334a9;}.cls-6{fill:#7334a8;}.cls-7{fill:#7233a8;}.cls-8{fill:#7233a9;}.cls-9{fill:#724b96;}.cls-10{fill:#6b4391;}.cls-11{fill:#6e3f92;}.cls-12{fill:#693b8c;}</style><clipPath id="clip-path"><rect class="cls-1" x="19.21" y="20.76" width="277.89" height="300.24"/></clipPath></defs><title>Artboard 1</title><rect class="cls-2" width="316.32" height="341.76"/><g class="cls-3"><path class="cls-4" d="M19.43,147.9c3-3,6-6,9-9L51.32,116.1c.65-.65,1.33-1.29,2-1.93l1.76-.77v0l.36.31.17.17.65.66c3.17,3.15,6.35,6.32,9.52,9.42q11.67,11.67,23.31,23.35c.76.76,1.2.62,1.88-.07q16.56-16.59,33.15-33.15a4.34,4.34,0,0,1,.52-.53c.67-.54.65-1,0-1.63q-7.2-7.12-14.33-14.29L90.92,78.36c-.74-.73-.77-1.16,0-1.92q16.92-16.83,33.72-33.66c.79-.79,1.07-.77,2,.14l34.12,34.14,61.5,61.49c2.91,2.91,5.8,5.83,8.73,8.72.7.69.75,1.17,0,1.9q-16.64,16.54-33.23,33.24c-1.3,1.3-1.3,1.3-2.64,0q-16.62-16.69-33.22-33.31c-.74-.75-1.16-.65-1.87.05q-16.92,17-33.92,33.91c-.65.66-.25.87.15,1.31l32,32c.64.65,1.27,1.32,1.95,1.93s.61,1,0,1.62c-4,4-8,8-12,12L127,253.18c-.44.44-.88.83-1.53,1.37q-2.64-2.75-5.27-5.38L36.7,165.71,19.9,148.93a4.33,4.33,0,0,0-.47-.4Z"/><path class="cls-4" d="M220.57,21c1.41.28,2.82.61,4.24.82a28.21,28.21,0,0,1,9.41,3.36,34.48,34.48,0,0,1,17.9,24.32,35.22,35.22,0,0,1,.31,10.6,33.63,33.63,0,0,1-9.56,20.43,35.51,35.51,0,0,1-27.6,10.66A57.27,57.27,0,0,1,209.33,90,26.37,26.37,0,0,1,201.12,87a35.17,35.17,0,0,1-17.57-22.57,32.73,32.73,0,0,1-.88-11.62,35.21,35.21,0,0,1,29.7-31.46c.7-.1,1.39-.27,2.08-.41Z"/><path class="cls-5" d="M188.94,321.21q-6.15-13-12.3-25.89a1.19,1.19,0,0,1,.25-1.63c1.41-1.33,2.72-2.74,4.14-4.06a1.25,1.25,0,0,1,1.13-.24Q195,295.54,207.9,301.8l.33.25a4.21,4.21,0,0,1-.47.64c-1.35,1.38-2.75,2.72-4.08,4.12a1.1,1.1,0,0,1-1.54.24h0c-1.15-.66-2.33-1.27-3.52-1.88l-6.51,6.48c.63,1.16,1.23,2.34,1.88,3.52a1.13,1.13,0,0,1-.23,1.58c-1.49,1.47-2.94,3-4.4,4.5Zm4-19.12-8.16-4.39c1.55,2.94,2.92,5.56,4.35,8.25Z"/><path class="cls-6" d="M297.32,213.26q-3.46,3.39-6.9,6.77c-1.6,1.58-3.2,3.17-4.75,4.79-.57.58-.88.5-1.45,0q-9.2-9.27-18.45-18.45c-.55-.56-.61-.88,0-1.45,1.3-1.23,2.56-2.51,3.8-3.8.52-.52.88-.5,1.37,0,4.53,4.57,9.08,9.1,13.62,13.66.31.35.61.71.88,1.08,1.51-1.49,2.87-2.83,4.22-4.19.88-.87,1.72-1.67,2.53-2.53.52-.58.88-.59,1.46,0,1.2,1.22,2.46,2.37,3.7,3.51Z"/><path class="cls-7" d="M204.34,226.21c-2-5.05-3.92-9.9-5.88-14.73a1.54,1.54,0,0,1,.41-1.95c1.39-1.33,2.72-2.73,4.16-4.19.34.29.63.53.88.79q9.42,9.44,18.86,18.83c.64.63.65,1,0,1.61-1.13,1-2.21,2.15-3.26,3.28-.53.55-.88.57-1.44,0-3.15-3.21-6.35-6.37-9.53-9.55a1.16,1.16,0,0,0-.69-.38c.51,1.29,1,2.58,1.54,3.86.87,2.15,1.67,4.31,2.57,6.43a1.76,1.76,0,0,1-.38,2c-1.48,2-3,2.39-5.32,1.17a64.55,64.55,0,0,0-7.17-2.93,2.21,2.21,0,0,0-1.29-.15l7.15,7.08c1,.94,1.88,1.89,2.84,2.83.41.41.53.8.08,1.26l-4.12,4.21a11.1,11.1,0,0,1-.93-.88L184,225.94c-.6-.61-.6-1,0-1.53,1.25-1.19,2.47-2.4,3.65-3.66a1.37,1.37,0,0,1,1.75-.33c4.65,1.84,9.32,3.63,14,5.44A7.42,7.42,0,0,0,204.34,226.21Z"/><path class="cls-7" d="M236.63,174.5l10,2.86c2.1.62,4.2,1.24,6.4,1.69l-.69-.73c-3.45-3.45-6.89-6.91-10.37-10.35-.56-.55-.56-.88,0-1.44,1.1-1,2.18-2.09,3.2-3.21.64-.72,1.07-.73,1.75,0,3.72,3.78,7.49,7.52,11.24,11.27,2.48,2.48,4.95,5,7.46,7.45a7.55,7.55,0,0,0,1.18.74c-1.87,1.8-3.41,3.34-5,4.79a1.5,1.5,0,0,1-1.24.1q-8.48-2.47-16.95-5c-.23,0-.47-.07-.7-.12l12,11.84-5,4.74a6,6,0,0,1-.55-.45l-19-19c-.58-.58-.64-1,0-1.54s1.36-1.31,2.05-2l1.75-1.76h0Z"/><path class="cls-6" d="M172.23,277.13l-7.9-8.07-6.81,6.83,5.36,5.27a29.22,29.22,0,0,1,2.05,2.11,1,1,0,0,1,.07,1c-1.51,1.61-3.07,3.16-4.68,4.8-.32-.27-.56-.44-.77-.65q-9.44-9.5-18.93-18.94c-.63-.64-.74-1,0-1.67,1.23-1.1,2.39-2.3,3.52-3.52.7-.73,1.26-.73,2,0,2,2,4,4,5.95,6,.56.58.88.67,1.52,0,1.93-2,3.91-3.92,6-6-2.37-2.31-4.66-4.59-7-6.8-.7-.65-.66-1.05,0-1.67,1.26-1.18,2.49-2.39,3.64-3.66.64-.68,1-.66,1.68,0q8.06,8.12,16.16,16.19c1,1,1.93,1.94,2.91,2.9.34.34.48.62,0,1C175.47,273.84,173.92,275.42,172.23,277.13Z"/><path class="cls-8" d="M167.38,241l6.94,7q2.82,2.85,5.66,5.67a10.65,10.65,0,0,0,1,.88c2.93,2.47,6.07,0,6.54-2.29a4.16,4.16,0,0,0-1.42-3.83q-5.64-5.61-11.26-11.25c-1.76-1.76-1.76-1.76,0-3.45,1.16-1.16,2.3-2.34,3.51-3.51.31.24.51.37.68.53,4.1,4.1,8.21,8.18,12.3,12.3a11,11,0,0,1,3.59,8.23,11.14,11.14,0,0,1-3.1,7.14,12.64,12.64,0,0,1-8.35,4.58,8.88,8.88,0,0,1-6.25-2c-2-1.65-3.92-3.52-5.8-5.34-2.85-2.76-5.61-5.62-8.44-8.4-.65-.62-.61-1,0-1.6C164.4,244.17,165.8,242.65,167.38,241Z"/><path class="cls-8" d="M214.5,196.39l-.16-.38.19-.3-.35-.14v0h.06c.28-.7.55-1.41.81-2.11,1.21-1.23,2.39-2.48,3.65-3.65a1.31,1.31,0,0,1,1.17-.11q10.84,5.16,21.66,10.43l5,2.41.26.41c-.65.52-1.35,1-2,1.57a32.56,32.56,0,0,0-2.75,2.76,1.38,1.38,0,0,1-1.86.49l-.2-.15c-.88-.57-1.85-1-2.77-1.51a.81.81,0,0,0-1.14.15h0c-1.84,1.9-3.71,3.76-5.59,5.59a.79.79,0,0,0-.23,1.11,0,0,0,0,0,0,.05c.59,1,1.17,2.08,1.66,3.16a1.4,1.4,0,0,1-.1,1.2c-1.55,1.68-3.15,3.28-4.84,5a5,5,0,0,1-.58-.79l-11.21-23.63c-.07-.16-.11-.32-.18-.49l-.21-.46h0l-.22-.44h0Zm8.33,1.91-.19.16c1.43,2.69,2.85,5.4,4.12,7.83l4-3.7Z"/><path class="cls-5" d="M282.3,228c-.17.25-.36.49-.55.72-1.39,1.4-2.75,2.82-4.19,4.16a1.43,1.43,0,0,1-1.25.19c-1.08-.47-2.1-1.11-3.17-1.62a1.75,1.75,0,0,0-.88,0c-.09,0-.15.14-.22.22l-6,5.79c.68,1.27,1.25,2.38,1.88,3.52a1.34,1.34,0,0,1-.28,1.85c-1.5,1.46-2.94,3-4.55,4.64-.65-1.34-1.19-2.45-1.75-3.58-3.52-7.46-7-14.93-10.66-22.37a1.44,1.44,0,0,1,.31-2h0l.08-.06q1.86-1.71,3.58-3.57a1.35,1.35,0,0,1,1.87-.34h0c7.91,3.88,15.88,7.7,23.83,11.54Zm-23.2-4.16L259,224l4.12,7.8,3.87-3.68Z"/><path class="cls-6" d="M209.59,287.42c2.1,2.16,4,4.17,5.95,6.15.51.51.6.88,0,1.45-1.47,1.44-2.88,3-4.27,4.39l-20-20c1.76-1.75,3.68-3.7,5.62-5.57a44.56,44.56,0,0,1,4.66-4.24c5.39-3.92,11.34-1.35,13.86,3.83,1.68,3.44,1,6.94-1.92,10.28C212.29,285,210.85,286.21,209.59,287.42Zm-4.32-4.22c1.09-1.08,2.19-2.07,3.16-3.16a3.17,3.17,0,0,0-.12-4.4,3.39,3.39,0,0,0-4.3-.18c-1.07,1.09-2.17,2.15-3.2,3.17Z"/><path class="cls-7" d="M229.22,267.89l-.19.2-.45.42h0c-.34.34-.88.66-1,1a.67.67,0,0,0,.63.72h0a.69.69,0,0,0,.37-.08c1.75,1.75,3.51,3.51,5.32,5.27.44.43.37.74,0,1.13-1.33,1.3-2.64,2.64-3.94,4-.55.59-.87.43-1.36-.05l-11.3-11.34c-2.41-2.41-4.81-4.83-7.23-7.21-.52-.51-.58-.83,0-1.37,2.73-2.67,5.4-5.42,8.15-8.08a9.85,9.85,0,0,1,6.71-3.12c4.1,0,7,2.14,8.79,5.65s.87,6.74-1.38,9.72c-.46.61-1,1.12-1.56,1.69l-.52.51h0ZM219,260.36l4.46,4.39c1.06-1.05,2.24-2.1,3.28-3.27a2.73,2.73,0,0,0,.65-2.63,3.17,3.17,0,0,0-5.2-1.59A38.85,38.85,0,0,0,219,260.36Z"/><path class="cls-5" d="M247.74,262.45l-19.66-19.63,12.7-12.67c1.22,1.21,2.56,2.52,3.84,3.89.12.13-.1.76-.33,1-2.06,2.11-4.16,4.18-6.25,6.26-.22.22-.42.45-.63.69l3.39,3.32c1.76-1.76,3.52-3.52,5.27-5.35.64-.69,1.08-.68,1.7,0,.88.94,1.76,1.84,2.63,2.69.6.55.64.95,0,1.53-1.85,1.76-3.65,3.59-5.5,5.41l3.71,3.62c.59-.65,1.18-1.39,1.85-2.05,1.62-1.62,3.3-3.18,4.92-4.81.5-.51.95-.56,1.44-.1,1.22,1.15,2.41,2.33,3.51,3.45Q254,256.2,247.74,262.45Z"/><path class="cls-9" d="M215.12,193.43c-.26.7-.53,1.42-.81,2.12-.58-.34-.61-.76-.16-1.22A6.9,6.9,0,0,1,215.12,193.43Z"/><path class="cls-10" d="M236.63,174.5l-2.44-.11C235.05,173.25,235.82,174.34,236.63,174.5Z"/><path class="cls-11" d="M228.63,270.18a.69.69,0,0,1-.93-.25.6.6,0,0,1-.08-.39c0-.38.63-.7,1-1l-.67.82Z"/><path class="cls-10" d="M234.15,174.38l-1.76,1.75Z"/><path class="cls-12" d="M55.15,113.37l-1.76.78C53.88,113.74,54.08,112.56,55.15,113.37Z"/><path class="cls-11" d="M229.22,267.89l.88-.95Z"/><path class="cls-12" d="M56.35,114.57l-.65-.66Z"/><path class="cls-11" d="M230.19,266.9l.52-.51Z"/><path class="cls-9" d="M214.18,195.58l.35.14-.19.3Z"/><path class="cls-11" d="M228.58,268.5l.45-.42Z"/><path class="cls-9" d="M214.85,197l.22.46Z"/><path class="cls-12" d="M55.52,113.73l-.36-.3Z"/><path class="cls-9" d="M214.64,196.61l.22.44Z"/><path class="cls-9" d="M214.5,196.39l.15.24Z"/></g></svg>