<?xml version="1.0" encoding="UTF-8" standalone="no"?>
<svg
   xmlns:dc="http://purl.org/dc/elements/1.1/"
   xmlns:cc="http://creativecommons.org/ns#"
   xmlns:rdf="http://www.w3.org/1999/02/22-rdf-syntax-ns#"
   xmlns:svg="http://www.w3.org/2000/svg"
   xmlns="http://www.w3.org/2000/svg"
   viewBox="0 0 794.29333 304.49332"
   height="304.49332"
   width="794.29333"
   xml:space="preserve"
   id="svg2"
   version="1.1"><metadata
     id="metadata8"><rdf:RDF><cc:Work
         rdf:about=""><dc:format>image/svg+xml</dc:format><dc:type
           rdf:resource="http://purl.org/dc/dcmitype/StillImage" /></cc:Work></rdf:RDF></metadata><defs
     id="defs6" /><g
     transform="matrix(1.3333333,0,0,-1.3333333,0,304.49333)"
     id="g10"><g
       transform="scale(0.1)"
       id="g12"><path
         id="path14"
         style="fill:#ffffff;fill-opacity:1;fill-rule:nonzero;stroke:none"
         d="m 71.0156,709.078 c 17.7383,16.25 39.1994,24.32 54.0664,44.602 0,1.34 6.758,1.34 6.758,0 6.758,-10.821 18.922,-17.571 18.922,-29.739 -43.25,-6.761 -97.3128,-43.25 -81.094,-93.25 2.6992,-9.472 9.457,-20.293 20.2734,-20.293 35.1406,-2.687 66.2266,18.93 89.2066,44.614 4.055,5.41 2.704,12.168 2.704,18.918 1.351,2.699 5.406,1.359 6.757,1.359 6.758,-13.519 17.567,-20.277 27.032,-31.098 -24.332,-9.461 -47.305,-21.621 -68.93,-39.203 -21.629,-17.558 -36.496,-37.828 -51.3633,-59.457 -8.1133,2.699 -9.4649,12.16 -14.8711,17.571 -4.0547,4.058 4.0586,12.168 8.1132,17.578 0,1.332 0,4.05 -1.3554,4.05 -12.1602,-1.359 -25.6836,0 -36.4922,6.75 -22.9766,14.872 -27.0313,44.61 -18.9219,67.59 6.7578,20.27 22.9727,35.141 39.1953,50.008" /><path
         id="path16"
         style="fill:#ffffff;fill-opacity:1;fill-rule:nonzero;stroke:none"
         d="m 189.961,546.879 c 17.574,16.223 33.789,28.391 48.656,48.66 1.356,1.352 0,4.051 0,6.762 1.356,2.687 5.41,4.051 6.758,2.687 14.867,-18.91 32.441,-31.066 50.012,-47.297 6.761,-6.761 10.812,-13.511 12.164,-22.972 2.703,-17.578 -1.352,-36.489 -17.571,-45.957 -16.218,-8.114 -35.14,-8.114 -51.363,0 -5.402,-22.981 -10.812,-44.614 -13.515,-67.582 0,-6.75 2.703,-13.508 2.703,-20.27 0,-1.359 -4.055,-2.711 -5.403,-2.711 -22.984,37.852 -9.464,79.742 -13.519,120.289 -1.348,2.711 -4.055,6.762 -5.406,5.41 -18.926,-12.168 -32.438,-29.726 -51.364,-40.546 -5.402,8.117 -16.215,9.468 -24.324,12.168 0,1.351 -1.359,5.41 1.348,5.41 2.703,0 5.402,0 8.109,1.351 20.277,13.508 35.141,28.379 52.715,44.598 z m 36.492,1.351 c -6.121,-6.121 -16.219,-10.808 -13.515,-17.57 5.406,-12.172 21.625,-20.281 36.492,-18.93 10.812,2.711 18.925,9.469 24.332,18.93 6.758,14.871 -2.707,36.5 -18.922,43.262 -9.465,-8.121 -18.922,-16.231 -28.387,-25.692" /><path
         id="path18"
         style="fill:#ffffff;fill-opacity:1;fill-rule:nonzero;stroke:none"
         d="m 327.828,452.27 c 11.684,14.191 20.274,29.73 24.328,47.3 1.352,6.758 2.703,16.219 8.11,12.16 17.566,-12.16 33.789,-20.261 51.359,-32.429 10.816,-5.41 14.867,-16.223 14.867,-25.68 2.707,-21.633 -16.219,-40.551 -36.492,-44.601 -1.352,-1.348 -4.055,-1.348 -4.055,-2.711 5.407,-13.508 10.813,-29.731 5.407,-43.25 -10.809,-24.34 -43.25,-31.079 -64.875,-18.93 -16.223,9.473 -29.739,18.93 -44.606,31.101 -5.406,4.051 -12.164,1.348 -16.219,6.75 -1.355,2.7 1.352,5.411 2.703,6.75 32.434,2.711 40.551,40.559 59.473,63.54 z m 31.09,5.41 c -3.336,-4.668 -4.059,-8.121 -8.117,-12.168 -1.348,-2.703 2.707,-4.051 4.058,-5.41 4.059,-2.704 9.461,-4.051 13.516,-5.411 5.41,-1.351 12.168,0 17.57,1.36 14.868,2.687 20.278,18.918 14.868,32.429 -4.055,9.461 -16.219,13.52 -24.329,18.93 -6.757,-9.469 -10.816,-20.281 -17.566,-29.73 z M 321.07,398.199 c -6.976,-9.301 -13.519,-16.219 -18.922,-24.328 6.758,-9.461 16.215,-14.871 28.383,-17.57 18.922,-4.063 36.496,9.461 40.547,25.679 5.406,14.872 2.707,31.09 -10.812,40.551 -6.758,2.699 -12.164,9.457 -17.571,5.399 -10.816,-6.75 -13.519,-18.91 -21.625,-29.731" /><path
         id="path20"
         style="fill:#ffffff;fill-opacity:1;fill-rule:nonzero;stroke:none"
         d="m 462.988,365.762 c -6.062,14.547 -12.164,31.09 -2.699,44.597 4.047,5.411 8.106,9.469 13.512,13.52 6.758,4.051 14.867,5.41 22.976,4.051 12.168,-2.7 21.625,-9.45 32.438,-12.16 4.055,-1.34 9.461,0 10.812,-2.7 6.758,-5.398 5.411,-16.218 6.758,-24.34 0,-2.691 -5.402,-4.05 -6.758,-2.691 -14.867,17.57 -40.547,44.602 -59.468,22.981 -5.407,-6.758 -1.348,-13.52 2.703,-18.93 22.976,-25.68 44.605,-55.41 35.14,-90.559 -2.699,-12.16 -13.515,-22.972 -25.683,-27.043 -25.676,-8.097 -51.356,4.071 -68.926,24.34 -1.352,2.703 -8.113,2.703 -13.52,2.703 -4.05,1.348 -4.05,6.758 -2.699,10.809 4.051,8.109 10.809,13.519 17.567,18.93 4.058,-20.27 16.222,-43.25 39.195,-44.61 20.277,-1.351 35.144,21.629 27.035,39.199 -8.109,14.86 -21.625,25.68 -28.383,41.903" /><path
         id="path22"
         style="fill:#ffffff;fill-opacity:1;fill-rule:nonzero;stroke:none"
         d="m 615.719,299.531 c -9.364,1.34 -14.867,8.11 -13.512,16.219 2.699,9.469 10.813,14.871 20.273,12.172 5.407,-2.703 10.813,-8.113 9.461,-14.871 -2.703,-6.762 -6.761,-14.86 -16.222,-13.52" /><path
         id="path24"
         style="fill:#ffffff;fill-opacity:1;fill-rule:nonzero;stroke:none"
         d="m 706.277,315.75 c 0,13.52 -4.05,25.68 -8.109,39.199 0,1.352 4.059,0 4.059,2.699 6.757,-2.699 14.867,-2.699 21.625,-2.699 2.703,0 9.461,2.699 9.461,0 -10.813,-29.73 -13.516,-63.519 -10.813,-94.621 1.352,-9.457 1.352,-18.906 5.406,-28.379 2.703,-5.398 9.461,-13.519 6.758,-16.219 -6.758,-6.75 -18.922,2.7 -28.387,0 -2.699,0 -5.402,-5.398 -9.457,-5.398 -2.703,1.348 -1.351,5.398 -1.351,6.746 13.515,31.102 10.808,66.231 10.808,98.672" /><path
         id="path26"
         style="fill:#ffffff;fill-opacity:1;fill-rule:nonzero;stroke:none"
         d="m 791.43,303.59 c 0,14.859 0,39.199 -17.567,44.601 -2.707,1.348 -1.351,4.047 -1.351,6.758 6.758,1.352 13.511,-2.711 20.269,-4.058 5.407,0 12.168,1.347 16.223,-1.352 33.789,-22.969 52.715,-55.418 82.445,-83.801 1.356,-1.347 2.707,0 2.707,1.352 0,28.379 8.11,63.531 -14.871,86.512 0,1.347 -1.351,6.75 1.356,5.398 13.515,-2.699 24.332,-2.699 36.492,2.711 1.351,0 4.055,-2.711 2.707,-5.41 -4.059,-5.41 -9.465,-10.821 -9.465,-17.582 -1.352,-40.528 -2.703,-81.09 8.109,-120.289 -10.812,-10.809 -27.035,-4.051 -36.492,5.41 -25.683,31.09 -48.656,62.18 -74.34,91.91 -4.054,-16.219 -1.351,-32.441 -1.351,-48.66 1.351,-18.91 9.461,-39.199 8.109,-58.11 -1.351,-5.41 -10.812,2.7 -17.57,1.352 -4.059,-1.352 -10.817,-4.062 -10.817,-1.352 5.407,32.442 5.407,62.168 5.407,94.61" /><path
         id="path28"
         style="fill:#ffffff;fill-opacity:1;fill-rule:nonzero;stroke:none"
         d="m 986.063,291.43 c -5.403,6.761 -2.7,17.57 5.414,20.261 4.05,1.36 8.101,0 12.163,-2.691 6.76,-5.41 5.4,-13.531 1.35,-18.93 -5.412,-5.41 -13.513,-5.41 -18.927,1.36" /><path
         id="path30"
         style="fill:#ffffff;fill-opacity:1;fill-rule:nonzero;stroke:none"
         d="m 1080.68,323.859 c -6.51,19.532 -13.52,37.852 -31.09,51.371 -1.35,1.348 0,6.75 1.35,8.098 14.87,8.113 31.09,9.473 45.96,14.871 10.81,4.063 21.63,8.11 32.44,8.11 17.57,-1.36 33.79,-12.168 37.84,-31.079 2.71,-16.23 -1.35,-31.101 -12.16,-41.91 24.33,-13.511 44.6,-37.851 74.34,-33.789 1.35,1.348 5.41,4.059 6.76,1.348 0,-1.348 0,-2.688 0,-4.051 -2.71,-5.398 -6.76,-8.109 -10.82,-10.808 -4.05,-1.36 -6.76,-1.36 -10.81,-1.36 -8.11,-2.691 -16.22,-1.351 -24.33,-1.351 -1.35,0 -1.35,2.711 -2.7,2.711 -1.36,0 -4.06,0 -5.41,0 -21.63,10.808 -47.3,39.199 -67.58,18.91 -8.11,-8.102 4.06,-22.961 8.11,-33.782 2.7,-8.109 10.81,-14.867 20.27,-16.218 1.35,0 1.35,-2.7 1.35,-4.059 -12.16,-6.762 -24.32,-14.859 -39.19,-12.172 -2.71,29.742 -14.87,56.77 -24.33,85.16 z m 18.92,14.86 c 1.74,-5.789 1.35,-14.86 6.76,-14.86 16.22,0 28.39,17.571 29.73,33.789 1.36,13.524 -8.1,27.032 -20.27,31.082 -10.81,4.071 -27.03,0 -28.38,-9.449 -2.7,-13.519 8.11,-27.043 12.16,-40.562" /><path
         id="path32"
         style="fill:#ffffff;fill-opacity:1;fill-rule:nonzero;stroke:none"
         d="m 1245.58,399.551 c 11.73,-20.52 27.03,-50.012 54.06,-45.949 2.7,0 6.76,0 9.46,1.347 8.11,4.051 14.87,10.813 16.22,20.281 4.06,18.911 1.35,36.489 -10.81,52.7 -13.51,16.218 -22.98,37.851 -43.25,47.32 -1.35,1.34 1.35,4.051 1.35,5.398 10.81,4.051 20.28,10.821 28.39,18.922 16.21,-44.601 45.95,-83.8 86.5,-109.48 0,-10.809 -13.52,-21.621 -24.33,-20.27 -5.41,0 -10.82,4.051 -14.87,9.461 -4.05,-5.41 -4.05,-10.812 -6.76,-16.222 -8.11,-9.457 -12.16,-20.27 -21.62,-28.379 -16.22,-12.168 -39.2,-12.168 -55.42,0 -27.03,18.922 -32.44,48.648 -52.71,74.34 -6.76,9.46 -14.87,14.859 -24.33,21.621 -1.36,1.347 -1.36,5.41 0,6.757 10.81,6.75 24.33,8.114 31.08,21.633 1.36,0 4.06,0 4.06,-1.351 2.7,-21.629 12.17,-39.2 22.98,-58.129" /><path
         id="path34"
         style="fill:#ffffff;fill-opacity:1;fill-rule:nonzero;stroke:none"
         d="m 1382.09,471.18 c -17,18.23 -32.44,36.5 -54.06,48.672 -1.36,0 2.7,4.046 1.35,6.75 9.46,0 14.87,6.757 21.63,12.16 8.11,8.117 16.21,14.879 24.32,21.629 16.22,12.168 35.15,17.578 54.07,9.468 12.16,-5.41 18.92,-17.57 21.63,-29.738 2.7,-12.16 -6.76,-21.633 -4.06,-32.441 12.17,-1.352 21.62,-6.75 33.79,-8.11 6.76,-1.34 12.16,-4.05 18.92,-2.699 6.76,2.699 14.87,2.699 21.63,5.41 6.76,2.688 13.51,8.098 21.62,9.449 1.36,-12.16 -8.11,-20.261 -17.56,-25.671 -28.39,-16.219 -58.12,-1.36 -87.86,-5.411 -8.11,0 -17.57,-2.707 -22.98,-9.468 10.81,-14.86 24.33,-32.442 44.61,-32.442 1.35,0 1.35,-2.687 1.35,-4.047 -8.11,-13.511 -21.63,-21.621 -33.8,-31.082 -10.81,25.68 -25.67,47.301 -44.6,67.571 z m 41.9,59.48 c -1.86,12.102 -10.81,21.629 -22.97,22.981 -16.23,4.05 -32.45,-6.762 -39.2,-21.629 16.22,-13.524 25.68,-32.442 40.55,-47.313 16.21,9.473 24.32,28.391 21.62,45.961" /><path
         id="path36"
         style="fill:#ffffff;fill-opacity:1;fill-rule:nonzero;stroke:none"
         d="m 1465.89,600.941 c -8.75,7.411 -18.92,13.528 -31.09,10.821 0,0 -4.05,2.707 -2.7,4.047 28.39,25.691 43.25,58.121 67.58,86.511 1.36,0 2.71,0 4.06,0 4.05,-6.761 5.41,-13.519 10.81,-20.281 0,-1.348 1.35,-4.059 -1.35,-5.41 -18.92,-10.809 -36.5,-24.32 -44.61,-43.25 9.47,-14.859 25.69,-22.981 37.85,-35.141 16.22,12.16 29.74,32.453 22.98,54.071 0,1.351 2.7,1.351 4.05,1.351 6.76,-12.16 14.87,-20.281 27.04,-25.691 -9.47,-9.449 -22.98,-14.86 -31.09,-27.028 -2.71,-5.402 -10.82,-9.461 -6.76,-13.511 10.81,-14.871 27.03,-24.328 41.9,-35.141 12.17,12.16 18.93,28.391 22.98,44.602 1.35,10.82 -1.35,22.98 -1.35,33.8 0,1.329 2.7,4.039 5.4,2.688 8.11,-8.109 18.93,-18.91 16.22,-32.438 -6.76,-31.082 -25.68,-55.41 -48.65,-77.043 -2.71,-1.347 -6.76,-2.699 -9.47,-1.347 -12.16,10.808 -14.87,28.379 -29.73,37.84 -20.28,13.531 -36.5,25.687 -54.07,40.55" /><path
         id="path38"
         style="fill:none;stroke:#ffffff;stroke-width:48.65800095;stroke-linecap:butt;stroke-linejoin:miter;stroke-miterlimit:4;stroke-dasharray:none;stroke-opacity:1"
         d="m 852.258,529.309 c 0,0 -302.766,35.14 -459.555,197.332 C 281.469,841.711 214.293,967.23 216.992,1078.07 V 2089.08 H 1449.67 V 1078.07 C 1444.27,948.309 1365.87,813.148 1268.55,726.641 1065.98,546.578 852.258,529.309 852.258,529.309 Z" /><path
         id="path40"
         style="fill:#ffffff;fill-opacity:1;fill-rule:nonzero;stroke:none"
         d="m 1192.12,1883.58 c -13.54,1.08 -31.09,2.7 -37.85,16.22 -2.7,5.4 0,16.22 6.76,12.16 28.38,-16.21 68.94,-13.51 91.91,12.17 1.35,1.35 0,2.7 -1.35,2.7 -27.03,-9.46 -54.07,-4.05 -79.74,8.11 -13.52,6.76 -32.45,0 -35.15,-17.57 -1.35,-2.71 -8.11,-6.76 -8.11,-2.71 -1.35,27.04 40.55,39.2 58.12,35.15 29.72,-6.86 63.53,-14.87 89.21,4.05 8.11,-6.76 5.4,-17.57 2.7,-25.68 -17.57,-29.73 -52.71,-47.3 -86.5,-44.6" /><path
         id="path42"
         style="fill:#ffffff;fill-opacity:1;fill-rule:nonzero;stroke:none"
         d="m 1138.05,1875.47 c 1.21,0.6 2.71,2.7 5.41,1.35 4.05,-2.7 5.41,-5.41 4.05,-9.46 -9.46,-13.52 -27.03,-14.87 -39.19,-5.41 -5.41,5.41 -8.11,13.52 -5.41,21.63 4.06,9.46 14.87,22.97 25.68,14.87 2.7,-1.36 -4.05,-2.7 -5.41,-5.41 -1.34,-1.35 -2.7,0 -2.7,1.35 -4.05,-4.05 -9.46,-8.11 -6.75,-13.51 5.4,-8.11 16.22,-9.47 24.32,-5.41" /><path
         id="path44"
         style="fill:#ffffff;fill-opacity:1;fill-rule:nonzero;stroke:none"
         d="m 1258.35,1813.29 c 9.13,5.96 14.87,16.23 12.16,25.69 -5.4,13.51 -18.92,17.57 -32.44,16.21 -1.35,0 -2.7,1.36 -1.35,2.71 13.52,9.46 35.15,4.05 43.26,-10.82 5.4,-9.45 6.75,-18.92 2.7,-28.38 -14.87,-43.25 -67.58,-31.09 -105.43,-39.2 -9.46,-1.35 -20.27,-4.05 -27.03,-13.51 -1.35,-4.06 1.35,-8.11 5.4,-9.46 18.93,-5.41 33.79,5.4 51.37,9.46 5.4,0 12.16,1.35 17.57,-1.35 5.41,-4.06 5.41,-12.17 10.81,-16.23 1.35,0 4.05,-2.7 5.41,-1.35 4.05,2.71 6.75,4.06 10.81,2.71 6.76,-2.71 9.46,-9.47 9.46,-16.22 1.35,-5.41 8.11,-5.41 13.52,-6.76 1.35,-1.35 2.7,-2.7 4.05,-4.05 1.36,-5.41 -1.35,-10.82 1.36,-14.87 4.05,-4.06 10.81,-5.41 16.21,-2.71 5.41,1.36 6.76,-5.4 4.06,-8.11 -4.06,-2.7 -8.11,-5.4 -13.52,-6.75 -2.7,0 -5.41,0 -6.75,1.35 -4.06,1.35 -9.47,2.7 -10.82,8.11 0,2.7 0,6.76 -1.35,9.46 -4.06,4.05 -9.46,2.7 -13.52,5.41 -8.11,5.4 -2.7,14.87 -8.11,21.62 -12.16,-8.11 -21.62,4.05 -28.38,14.87 -4.05,4.06 -9.46,0 -13.52,-1.35 -20.27,-8.11 -43.25,-14.87 -63.52,-5.41 -9.47,5.41 -10.81,16.22 -6.76,25.68 5.4,10.81 16.22,16.22 27.03,20.28 32.44,10.81 66.23,2.7 97.32,22.97" /><path
         id="path46"
         style="fill:#ffffff;fill-opacity:1;fill-rule:nonzero;stroke:none"
         d="m 857.367,1740.3 c 13.117,4.24 26.582,12.17 40.098,4.06 -4.059,-8.11 -20.274,-17.57 -10.817,-24.33 4.059,-2.7 8.114,-1.35 10.817,-5.4 1.351,-2.71 -1.352,-5.41 -1.352,-6.76 -5.406,-8.11 -14.867,-13.52 -25.683,-13.52 -2.7,1.35 -6.758,2.7 -8.106,5.41 -1.351,4.05 -2.707,9.46 -2.707,14.87 1.356,4.05 5.406,8.11 2.707,13.51 -12.168,-6.75 -24.332,-17.57 -39.199,-17.57 -1.352,0 -1.352,2.7 -4.055,2.7 0,4.06 0,9.47 4.055,12.17 10.813,4.06 20.273,10.36 34.242,14.86" /><path
         id="path48"
         style="fill:#ffffff;fill-opacity:1;fill-rule:nonzero;stroke:none"
         d="m 1113.73,1826.81 c -21.9,2.19 -47.28,14.66 -50.01,36.49 -3.38,27.04 31.08,43.25 56.76,47.31 2.7,1.35 2.7,-4.06 0,-5.41 -13.51,-4.05 -27.03,-6.75 -33.79,-18.92 -5.41,-8.11 -8.11,-16.22 -1.35,-24.33 2.7,-4.05 6.76,-6.76 10.81,-9.46 10.82,-4.06 22.98,-5.41 33.8,-5.41 24.32,0 50.01,2.71 74.33,0 13.52,-1.35 31.09,-8.1 28.39,-25.68 -1.36,-2.7 -6.76,-1.35 -8.11,-1.35 -18.93,18.93 -47.31,13.52 -70.29,9.47 -13.51,-2.71 -27.03,-4.06 -40.54,-2.71" /><path
         id="path50"
         style="fill:#ffffff;fill-opacity:1;fill-rule:nonzero;stroke:none"
         d="m 767.711,1653.8 c 0,0 9.457,6.76 14.867,4.06 4.055,-1.35 2.699,-8.11 0,-10.82 -6.758,-9.46 -8.789,-26.01 -2.031,-36.83 5.41,8.11 14.195,19.27 22.305,15.21 6.757,-2.71 1.945,-13.31 4.05,-20.28 3.379,-11.15 18.586,-8.1 18.586,-8.1 0.68,18.24 13.86,25.67 26.02,31.08 10.816,4.06 23.652,2.7 29.738,-4.05 2.559,-2.85 -1.351,-10.82 -5.406,-14.87 2.699,-2.7 10.137,0 14.187,1.35 4.059,2.7 7.778,8.11 9.129,12.16 5.407,8.11 16.215,7.44 19.938,20.28 14.867,-5.41 32.566,-11.57 46.965,-6.08 21.289,8.11 20.613,30.41 16.558,49.33 -0.281,1.32 1.352,4.06 2.703,5.41 9.461,13.51 26.35,14.19 35.14,29.74 1.49,2.63 5.41,-2.71 8.11,-5.41 6.76,-6.76 10.81,-16.22 17.57,-22.98 5.41,-4.06 13.18,-8.11 19.94,-8.11 9.46,-1.35 16.56,0 24.67,-5.41 8.11,-5.41 15.2,-23.31 24.67,-13.85 18.92,16.22 38.85,38.18 63.18,26.02 9.46,-4.06 4.06,-17.58 0,-25.69 -2.7,-6.75 -10.81,1.36 -16.22,-1.34 -4.05,-1.35 -1.35,-8.11 1.36,-12.17 9.29,-12.39 22.3,-7.43 32.43,-5.41 2.65,0.53 8.11,-4.05 5.41,-8.11 -6.76,-9.45 -8.27,-20.35 -2.7,-31.09 4.73,-9.12 13.18,-8.78 13.18,-8.78 3.04,13.18 17.23,27.71 25.67,26.36 4.01,-0.64 0.34,-12.17 4.4,-18.92 5.4,-8.11 14.19,-10.82 22.98,-10.82 -2.71,10.82 -6.76,27.03 5.4,28.39 8.11,0 16.22,-2.71 24.33,0 4.06,1.35 6.76,5.41 9.46,8.11 -2.7,2.7 -8.11,1.35 -10.81,5.4 -2.7,5.41 0,9.46 2.7,14.87 0,1.35 -1.35,4.06 -1.35,5.41 -2.7,4.05 -8.11,6.76 -10.81,10.81 -2.71,4.06 4.05,10.81 0,10.81 -8.11,1.35 -14.87,-6.75 -10.81,-14.86 1.35,-2.71 1.35,-5.41 1.35,-9.47 0,-1.35 -1.35,-2.7 -2.7,-2.7 -1.36,0 -4.06,0 -5.41,0 -6.76,-2.7 -9.46,-12.16 -16.22,-10.81 -5.41,0 -6.76,8.11 -10.82,10.81 -5.4,2.7 -9.45,-6.76 -12.16,-6.76 -10.81,-2.7 1.01,11.83 -2.37,16.9 -3.09,4.63 -11.14,-0.68 -15.2,3.37 -6.76,5.42 -5.41,14.87 -4.06,21.63 1.36,6.76 -1.35,13.52 -8.11,16.22 -29.73,10.82 -62.17,0 -87.85,-16.22 -2.7,4.06 -6.76,4.06 -9.46,6.76 -12.17,5.41 -28.38,0 -37.85,9.46 -14.86,16.22 -31.09,40.55 -54.06,31.09 -2.7,-1.35 -1.35,-8.11 -4.06,-10.81 -10.81,-10.82 -28.381,-9.46 -37.845,-21.63 -10.809,-14.87 0,-31.08 -5.403,-45.95 -1.351,-1.36 -4.058,-2.71 -5.406,-4.06 -13.516,-2.7 -24.332,9.46 -37.848,5.41 -10.812,-2.71 -20.273,-6.76 -28.383,-13.52 -16.218,9.46 -35.14,2.7 -50.007,-5.41 -5.41,-2.7 -16.223,-8.11 -17.575,-1.35 -1.351,5.41 4.395,12.17 -5.406,16.22 -5.152,2.13 -9.465,-2.7 -14.867,-2.7 -1.355,1.35 -3.887,3.42 -1.355,5.07 6.757,4.39 5.406,11.15 0,15.21 2.707,2.69 6.757,2.69 9.464,4.05 4.051,2.7 5.407,9.46 10.813,9.46 6.758,1.35 10.812,-6.76 17.57,-9.46 5.406,-2.7 14.418,-5.86 19.824,-4.51 16.223,0 30.188,8.56 42.352,22.08 l -1.352,2.7 c -14.867,-5.4 -27.035,-17.57 -43.25,-14.87 -13.519,2.71 -21.628,12.17 -32.441,20.28 -2.703,1.35 -5.406,0 -8.109,0 -8.114,-4.06 -6.086,-9.46 -19.602,-9.13 -1.348,0.04 -6.078,-4.39 -8.781,-5.74 -1.356,0 -4.055,0 -5.406,0 -5.407,-2.7 -8.028,-5.49 -12.168,-9.46 -10.332,-9.91 -11.688,-18.02 -8.981,-21.63 2.703,-3.6 7.633,-1.35 7.633,-1.35" /><path
         id="path52"
         style="fill:#ffffff;fill-opacity:1;fill-rule:nonzero;stroke:none"
         d="m 767.711,1907.91 c 0,0 -15.742,-20.27 -25.656,-18.92 -7.797,1.06 -7.207,8.1 -4.051,16.67 3.152,8.56 20.273,23.88 33.34,30.18 17.566,8.11 23.398,12.61 38.265,18.02 59.473,21.63 121.645,37.85 171.657,82.45 1.351,2.71 4.054,-5.4 4.054,-8.11 6.758,-29.74 -5.41,-55.41 -22.976,-79.75 0,-1.35 0,-4.05 1.351,-4.05 59.465,9.46 113.535,31.09 168.955,50.01 8.78,-13.52 2.7,-27.03 -5.41,-37.84 -18.92,-24.33 -50.01,-27.03 -77.04,-32.44 4.05,-9.47 1.4,-17.19 -8.11,-25.68 -18.93,-16.9 -31.09,-12.17 -43.25,-22.98 -2.707,-1.35 3.82,-7.34 0,-13.52 -15.324,-24.78 -35.145,-22.97 -56.77,-24.32 3.606,-18.48 -20.277,-18.93 -32.441,-21.63 -9.461,-1.36 -15.316,-15.77 -21.625,-17.57 -2.906,-0.83 -7.637,0.14 -6.758,2.7 5.402,15.77 21.625,22.98 35.141,27.03 2.894,0.87 6.758,2.71 8.109,5.41 2.707,5.41 -4.051,8.11 -4.051,13.51 1.348,4.06 6.758,5.41 9.457,5.41 14.868,-1.35 46.856,1.35 40.551,21.63 -1.797,5.77 -9.461,-1.8 -20.277,5.4 -1.586,1.07 -1.348,2.71 -1.348,4.06 2.699,1.35 4.055,4.06 6.758,5.41 6.758,4.05 14.867,-1.35 21.625,0 8.109,2.7 16.219,2.7 24.329,5.4 9.46,5.41 27.03,12.16 22.98,25.68 -10.81,1.36 -21.63,-5.41 -31.09,-10.81 -2.703,-1.35 -4.055,1.35 -5.407,1.35 2.704,8.11 12.167,9.46 17.577,12.17 25.67,13.51 55.41,13.51 82.44,24.32 12.17,4.06 22.98,14.88 25.69,28.39 -47.31,-13.51 -93.27,-33.79 -143.277,-41.9 -36.492,-5.41 -71.637,-1.35 -109.48,-9.46 -8.114,-1.35 -16.223,-4.06 -24.332,-6.76 -10.813,-5.41 -18.922,-12.17 -27.032,-20.28 -2.707,-4.05 -5.406,-9.45 -5.406,-13.51 -2.703,-14.87 4.055,-32.44 -8.109,-44.6 -8.11,-6.77 -17.992,-13.07 -29.739,-14.87 0,0 -20.695,-1.8 -38.265,-14.87 -17.57,-13.06 -22.527,-30.64 -35.141,-29.74 -5.914,0.43 -7.211,1.8 -9.011,9.46 -1.805,7.67 9.011,17.13 20.273,25.68 11.262,8.57 26.16,13.07 61.723,22.53 16.218,2.71 16.644,23.43 17.992,35.6 0,14.87 8.109,28.38 20.277,39.19 37.844,31.09 86.504,31.09 132.457,31.09 14.867,21.63 37.848,41.9 39.199,70.28 -27.031,-13.51 -51.363,-29.73 -78.394,-43.25 -29.735,-13.51 -59.082,-22.48 -89.629,-35.59 -22.051,-9.46 -40.125,-26.58 -40.125,-26.58" /><path
         id="path54"
         style="fill:#ffffff;fill-opacity:1;fill-rule:nonzero;stroke:none"
         d="m 618.609,1674.07 c 9.438,0.63 20.274,-1.34 29.731,4.06 24.332,12.17 45.957,28.39 71.64,40.55 10.813,4.06 20.274,8.11 31.09,10.82 18.918,6.75 39.196,10.8 59.465,17.56 21.629,6.76 43.254,14.87 64.879,27.03 48.664,27.04 101.371,43.26 156.786,39.2 4.06,0 5.41,-9.46 0,-9.46 -47.302,-10.81 -93.259,-13.51 -136.512,-33.79 -45.954,-20.27 -93.262,-36.49 -140.567,-52.71 -35.141,-13.52 -63.523,-36.5 -97.316,-55.42 -9.465,-5.4 -22.977,5.41 -35.145,2.71 -24.324,-6.76 -34.691,-29.29 -70.281,-22.98 -32.977,5.84 -35.594,22.98 -40.547,24.32 -21.629,2.71 -22.035,-20.44 -24.785,-36.94 -2.25,-13.51 -17.121,-14.42 -17.121,-14.42 -1.348,0 -2.699,1.35 -2.699,2.71 0,10.81 5.406,25.68 -6.758,31.08 -1.352,0 -4.051,-1.35 -6.758,-1.35 -12.168,1.35 -21.625,13.52 -35.141,10.82 -13.519,-1.35 -27.031,0 -39.199,-8.11 -6.758,-4.06 -6.758,-12.17 -13.516,-16.22 -5.406,-2.71 -9.464,2.7 -10.812,6.76 -2.703,9.46 -1.352,20.27 6.754,27.03 -5.406,8.11 2.707,14.86 0,22.98 -1.348,6.75 -10.813,9.46 -17.567,4.05 -1.355,0 -6.757,-1.67 -6.757,1.35 0,9.01 14.867,16.22 24.324,20.28 4.058,1.35 8.113,-1.35 10.816,0 9.461,1.35 10.809,13.52 10.809,21.62 1.359,4.06 -5.402,4.06 -9.457,4.06 -1.352,0 -4.485,2.77 -4.055,4.05 1.801,5.41 16.219,9.47 24.328,6.76 6.758,-2.7 6.563,-14.38 10.813,-14.87 19.82,-2.25 21.625,-17.57 31.086,-25.68 10.816,-9.46 24.332,-14.87 37.847,-9.46 20.274,8.11 32.438,32.44 54.063,40.55 8.113,2.7 17.574,4.05 27.035,2.7 13.516,-2.7 25.68,-8.11 37.844,-12.16 -1.348,-4.05 -1.805,-8.56 -8.106,-9.46 -21.785,-3.12 -41.906,10.81 -62.179,2.7 -16.219,-6.76 -17.567,-25.68 -29.731,-36.49 -5.41,-4.06 -10.816,-9.47 -17.578,-12.17 -8.105,-2.7 -16.215,0 -24.324,1.35 -9.465,2.7 -16.219,8.11 -22.977,16.22 -8.113,10.82 -5.41,25.69 -17.57,32.44 -6.762,2.7 -17.125,-0.45 -17.574,-4.05 -1.914,-15.31 -10.813,-13.52 -17.571,-20.28 -1.351,-2.7 1.348,-6.76 2.704,-9.46 1.351,-5.41 -2.704,-10.81 -2.704,-14.87 1.348,-22.97 29.735,-4.05 44.602,-4.05 2.703,0 5.41,-1.36 8.113,-2.7 10.813,-6.77 18.922,-20.28 32.438,-17.58 20.273,4.06 35.14,32.44 56.765,18.92 8.114,-5.4 14.871,-10.8 22.977,-14.86 6.762,-2.7 13.519,-2.7 20.277,-1.35 20.274,2.7 37.848,14.87 58.121,16.21" /><path
         id="path56"
         style="fill:#ffffff;fill-opacity:1;fill-rule:nonzero;stroke:none"
         d="m 580.762,1784.91 c -22.434,6.41 -27.032,24.33 -36.492,40.55 -1.356,-1.35 -2.704,-1.35 -2.704,-2.7 -1.355,-5.41 5.961,-12.35 2.25,-17.12 -3.152,-4.06 -11.711,-1.81 -15.769,-0.46 -10.813,9.46 -4.055,22.98 8.113,29.74 0,1.35 1.352,4.06 1.352,5.4 1.351,2.71 6.758,2.71 9.461,1.36 12.164,-5.41 14.863,-21.63 25.679,-31.09 13.516,-12.16 36.493,-6.76 37.844,12.17 1.352,6.76 -1.351,13.51 -8.109,17.56 -2.703,1.36 -6.758,1.36 -9.461,1.36 -4.055,1.35 -6.758,5.4 -5.406,9.46 1.351,9.46 -1.352,18.92 -9.461,25.68 -10.813,6.76 -23.657,5.18 -33.789,10.82 1.125,8.11 13.519,9.91 17.566,10.81 7.109,1.58 19.828,-4.51 22.984,4.05 -8.566,5.63 -14.871,17.57 -25.683,14.87 -5.407,-1.35 -7.211,-4.96 -12.614,-9.01 -1.355,-1.36 -5.41,-0.9 -7.66,0.9 0,2.7 2.703,6.31 2.703,7.66 1.348,10.81 -6.761,20.72 -2.703,31.53 2.703,5.41 6.758,9.47 10.809,12.17 8.117,2.7 28.746,8.96 27.933,0.45 -0.894,-9.46 -11.296,-2.88 -17.117,-4.5 -8.109,-2.26 -10.793,-26.46 -1.804,-31.99 5.859,-3.61 13.968,3.6 22.078,-3.15 4.058,-4.06 8.109,-8.12 12.164,-12.17 4.054,-2.71 11.742,-0.41 12.504,-4.39 1.351,-7.1 -7.973,-11.39 -3.043,-17.23 12.164,-14.43 2.703,-18.93 4.058,-29.74 1.348,-2.71 2.7,-6.76 5.403,-8.11 9.461,0 18.922,-6.76 21.625,-16.22 1.355,-6.76 1.355,-14.87 -1.348,-21.63 -4.055,-6.76 -5.41,-14.87 -12.168,-20.27 -4.055,-2.71 -6.371,-6.1 -10.812,-8.11 -9.911,-4.51 -18.926,-1.36 -28.383,1.35" /><path
         id="path58"
         style="fill:#ffffff;fill-opacity:1;fill-rule:nonzero;stroke:none"
         d="m 668.281,1971.77 c -26.699,-22.64 -45.957,-12.5 -70.285,-4.39 -5.406,1.35 -14.535,1.35 -19.937,0 2.703,13.51 20.277,12.16 29.734,12.16 16.223,0 32.441,-4.05 48.66,2.71 14.871,5.4 23.313,24.32 32.438,35.14 1.949,2.31 8.113,0 9.464,-4.06 5.407,-14.87 4.051,-32.77 -8.113,-43.25 -1.449,-1.24 -2.703,1.35 -4.051,2.71 -1.355,8.1 8.106,14.86 2.7,21.62 -6.758,-8.11 -12.559,-15.81 -20.61,-22.64" /><path
         id="path60"
         style="fill:#ffffff;fill-opacity:1;fill-rule:nonzero;stroke:none"
         d="m 707.816,1907.91 c -4.332,5.19 -11.832,7.09 -18.586,5.74 0,2.71 -0.339,7.78 1.012,10.48 16.223,12.16 27.031,27.03 35.145,44.6 0,2.7 1.351,5.41 -1.356,8.11 -11.148,-19.6 -28.394,-24.62 -48.656,-30.07 -8.789,-2.37 -12.168,-11.49 -18.922,-12.84 -1.355,0 -2.367,1.69 -2.367,1.69 -0.672,4.72 7.809,18.52 14.531,22.63 16.559,10.14 42.238,10.14 56.77,36.16 0.66,1.18 5.406,1.36 6.758,-1.35 6.757,-24.33 -2.364,-50.35 -12.165,-70.28 13.18,-9.47 8.11,-27.03 17.571,-37.85 2.703,-2.7 8.109,-1.35 12.168,-2.7 4.051,-2.71 1.351,-10.82 -2.707,-12.17 -9.461,-2.7 -21.625,0 -27.032,9.46 -5.406,9.47 -5.406,20.28 -12.164,28.39" /><path
         id="path62"
         style="fill:#ffffff;fill-opacity:1;fill-rule:nonzero;stroke:none"
         d="m 684.504,1927.51 c -5.133,-4.4 -13.18,-7.78 -16.899,-3.38 -4.367,5.16 0.477,13.75 6.418,14.87 16.219,3.04 23.989,9.79 34.805,16.55 -2.707,-12.16 -14.867,-19.93 -24.324,-28.04" /><path
         id="path64"
         style="fill:#ffffff;fill-opacity:1;fill-rule:nonzero;stroke:none"
         d="m 496.957,1879.52 c -8.496,-11.89 -14.863,-24.33 -9.457,-37.84 4.055,-6.76 10.813,-10.81 17.574,-16.22 1.348,-1.35 2.699,-6.76 0,-9.46 -1.351,-1.36 -5.406,0 -6.761,0 -6.758,4.05 -12.165,9.46 -17.571,16.21 -5.41,9.47 -6.758,18.93 -5.41,28.39 1.356,8.11 2.711,16.22 5.41,22.98 4.055,9.46 14.867,17.57 14.867,28.38 0,2.7 -5.406,2.7 -8.109,2.7 -4.055,1.36 -5.621,9.04 -2.703,12.17 4.734,5.07 8.113,12.17 1.351,17.57 0,1.35 0,2.7 0,4.05 9.461,5.41 17.575,-4.05 20.274,-12.16 0,-5.4 -1.348,-10.81 0,-16.22 0,-4.05 1.351,-8.11 1.351,-12.16 1.352,-10.82 -4.05,-18.92 -10.816,-28.39" /><path
         id="path66"
         style="fill:#ffffff;fill-opacity:1;fill-rule:nonzero;stroke:none"
         d="m 478.043,1772.75 c -5.707,17.1 -5.41,40.54 -22.984,48.65 -8.106,4.06 -18.922,2.71 -27.028,0 -12.168,-4.05 -36.492,-6.76 -35.144,10.81 0,1.36 6.761,0 10.812,2.71 10.813,5.4 17.574,17.57 18.922,29.74 1.356,2.7 2.707,5.4 4.055,8.11 -14.867,2.7 -18.922,18.92 -28.383,27.03 -2.703,2.7 -5.406,4.05 -8.113,5.4 -5.399,1.35 -13.516,-5.4 -16.215,0 -5.41,8.11 5.406,13.52 10.816,17.58 6.758,2.7 14.867,2.7 21.625,0 2.699,-1.35 8.106,0 10.813,0 9.457,1.35 14.867,-6.76 21.625,-13.52 12.164,12.17 -2.707,27.03 -1.356,40.55 0,2.7 -5.402,5.4 -8.109,8.11 0,1.35 0,2.7 1.351,4.06 24.329,9.45 29.739,-18.93 47.313,-29.74 1.348,-1.35 0,-4.06 0,-6.76 -1.355,-2.7 -4.059,-4.05 -6.758,-2.7 -6.758,2.7 -6.758,9.46 -12.168,13.51 -2.699,1.35 -4.058,-1.35 -5.406,-2.7 -4.055,-12.16 0,-37.84 -16.223,-36.5 -6.758,1.36 -10.812,10.82 -17.57,14.87 -4.055,2.7 -9.457,6.76 -9.457,1.35 -1.356,-20.27 17.57,-37.84 37.84,-32.43 0,-1.36 0,-4.06 0,-5.41 -4.055,-4.06 -13.512,-5.41 -12.164,-10.81 0,-9.47 -5.407,-18.93 -1.348,-24.34 6.754,-10.8 22.977,-1.34 31.086,-9.45 10.813,-8.11 17.57,-20.28 21.625,-32.44 5.41,-16.23 6.758,-39.2 27.035,-41.9 -1.355,-10.82 -16.222,-8.12 -22.98,-5.41 -8.11,4.06 -10.813,13.52 -13.512,21.63" /><path
         id="path68"
         style="fill:#ffffff;fill-opacity:1;fill-rule:nonzero;stroke:none"
         d="m 599.684,1922.78 c -6.84,3.91 -10.813,10.81 -18.922,12.16 0.676,5.75 8.449,8.78 14.867,10.81 10.391,3.29 20.273,-2.7 29.738,-4.05 5.403,-1.36 10.809,4.05 16.215,4.05 1.356,0 2.703,-1.35 2.703,-2.7 1.356,-4.05 -0.531,-7.04 -4.051,-9.46 -5.406,-3.72 -16.558,-1.02 -20.277,-5.41 -1.234,-1.46 1.352,-2.7 1.352,-2.7 5.406,4.06 13.519,0 9.461,-5.41 -9.461,-9.46 -21.625,-2.7 -31.086,2.71 z m 1.214,15.31 c -1.355,0 -2.707,0 -2.707,-1.35 -1.351,-2.7 1.352,-4.05 2.707,-5.4 2.7,-1.36 2.7,2.7 4.051,4.05 0,1.35 0,2.7 -4.051,2.7" /><path
         id="path70"
         style="fill:#ffffff;fill-opacity:1;fill-rule:nonzero;stroke:none"
         d="m 816.109,782.98 c 0.895,0.04 1.789,0.098 2.696,0.161 21.625,1.347 50.008,1.347 64.879,-12.172 7.07,-6.43 -8.114,-14.867 -14.871,-20.278 -2.704,5.411 -6.758,10.821 -12.165,12.161 -14.378,2.16 -27.609,-1.422 -40.918,-4.832 l 1.442,-13.77 c 8.668,2.551 14.883,3.98 25.957,2.391 5.41,0 13.519,-2.711 13.519,-8.11 1.348,-5.41 1.348,-10.812 5.407,-14.871 10.812,-8.109 33.789,-14.871 21.629,-31.09 -16.223,4.059 -31.09,-1.351 -43.254,-10.808 -1.352,-1.364 1.351,-5.41 2.699,-5.41 13.519,8.117 28.387,2.707 43.254,5.41 5.41,0 10.812,2.707 13.519,6.758 6.758,10.808 8.106,27.031 -2.707,35.14 -6.757,4.059 -16.218,5.41 -18.918,12.16 -4.058,10.821 8.106,16.219 17.567,18.93 6.758,2.699 13.515,9.461 12.164,17.57 -1.348,2.7 -2.699,6.758 -4.055,9.461 -4.051,5.399 -9.461,6.758 -14.867,9.457 -4.051,1.352 -12.488,0.192 -10.809,2.703 8.106,12.168 29.731,24.778 45.051,29.289 12.164,1.801 11.715,-25.23 14.414,-38.742 0,-4.058 6.762,-4.058 10.817,-6.758 8.113,-2.71 18.921,2.032 22.98,6.079 25.68,22.98 31.081,61.5 22.973,93.941 -5.18,17.609 -15.922,32.852 -31.621,40.82 l -15.739,-26.031 c 3.246,-2.391 6.024,-5.641 8.164,-9.391 8.114,-17.57 8.114,-37.839 0,-55.41 -6.757,9.453 -9.597,21.153 -21.625,23.422 -33.339,6.309 -54.066,-30.18 -68.933,-55.859 -8.11,2.699 -17.57,-2.711 -21.629,4.051 -2.699,4.058 -0.246,10.878 1.351,16.218 12.168,40.559 44.606,69.828 85.153,80.649 6.535,1.633 12.574,-0.028 17.519,-3.68 l 15.739,26.031 c -4.778,2.43 -10.008,4.192 -15.684,5.129 -21.625,2.699 -43.254,-8.109 -60.824,-20.269 -1.348,16.211 1.351,32.441 -2.699,50 -4.059,18.929 -9.465,35.148 -18.926,51.37 -10.813,14.86 -21.629,31.09 -40.547,35.13 -29.738,-18.91 -52.961,-49.93 -63.527,-85.141 -4.059,-13.519 -1.352,-28.391 -6.758,-41.898 -22.981,17.57 -56.77,21.621 -81.098,4.05 -33.789,-24.332 -37.844,-68.929 -20.273,-102.722 0,-1.36 9.414,-5.879 10.136,-4.731 7.692,12.211 16.989,25.934 28.719,32.461 l -2.222,15.762 c -5.934,-3.93 -11.297,-8.691 -16.36,-13.75 -4.058,22.98 7.43,47.301 31.762,55.41 9.465,2.699 20.953,6.77 29.062,1.359 18.922,-9.468 32.34,-28.011 37.84,-48.671 5.41,-20.27 12.168,-42.571 15.551,-59.469 0.262,-1.328 -8.789,0 -12.844,-2.692 -6.758,17.551 -6.758,36.493 -16.219,52.704 -5.406,9.457 -12.164,17.578 -22.98,21.628 -8.109,1.348 -14.867,2.711 -22.973,2.711 -8.625,-1.441 -16.097,-4.793 -22.839,-9.23 l 2.222,-15.762 c 5.797,3.231 12.184,4.692 19.266,3.36 23.875,-4.508 33.789,-28.379 40.547,-51.368 1.351,-2.703 4.054,-4.043 6.757,-6.761 -8.113,-6.75 -20.722,-10.352 -25.679,-17.559 -3.43,-4.992 -1.356,-12.172 1.351,-17.582 2.7,-4.051 5.407,-6.75 8.106,-9.461 9.465,-5.398 18.926,-5.398 28.383,-4.047 2.707,0 4.058,-5.41 2.707,-6.761 -2.707,-17.579 -33.789,-27.032 -20.274,-47.301 12.16,-14.879 28.383,0 43.25,2.691 2.707,1.36 1.356,-4.051 1.356,-5.398 -2.707,-6.762 -8.114,-13.524 -4.059,-20.274 6.758,-10.808 17.57,-18.929 31.09,-17.566 10.809,1.348 20.269,8.098 24.328,18.906 1.348,4.063 -1.351,8.113 -5.41,8.113 -9.457,-1.351 -10.809,-17.57 -21.625,-13.511 -5.406,2.711 -10.813,6.75 -12.164,12.16 -1.352,12.172 12.164,28.39 -4.051,31.101 -8.109,2.7 -16.223,-2.711 -22.98,-8.121 -5.407,-2.691 -12.168,1.36 -12.168,6.758 -1.348,12.172 14.871,16.223 18.925,28.391 0,2.703 3.379,10.133 3.379,10.133 11.211,2.25 18.586,4.597 24.727,6.398 l -1.442,13.77 c -11.707,-3.008 -23.468,-5.891 -36.125,-4.629 -6.757,1.359 -13.515,5.41 -16.222,10.82 -1.348,6.758 6.758,12.168 12.168,14.867 13.961,3.801 26.758,3.223 40.558,3.902 l -2.73,13.098 c -2.301,0.293 -4.613,0.563 -6.742,0.563 -2.699,1.359 0,5.41 -1.348,6.769 -14.867,13.52 -8.109,35.141 -5.41,52.719 1.351,6.75 -1.156,13.152 -2.699,20.262 -6.758,31.089 -16.223,71.64 4.05,105.429 6.758,12.168 14.418,22.53 25.684,31.08 43.254,-48.65 35.59,-116.681 9.457,-175.709 -5.187,-11.722 -5.402,-25.671 -8.109,-37.839 -1.992,-4.993 -8.399,-4.082 -14.883,-3.274 l 2.73,-13.098" /><path
         id="path72"
         style="fill:#ffffff;fill-opacity:1;fill-rule:nonzero;stroke:none"
         d="m 477.305,1183.9 c 25.433,5.4 48.656,10.82 74.34,12.17 21.625,0 41.902,-2.71 63.527,-1.35 27.035,4.05 47.308,20.26 66.23,39.2 4.059,5.4 8.11,10.81 9.461,18.91 0,5.41 10.813,9.47 12.164,4.06 9.461,-24.33 -2.699,-51.36 -24.328,-62.17 -43.25,-22.99 -91.914,-16.23 -139.219,-18.93 -14.867,-1.35 -28.386,-9.46 -43.253,-10.82 -6.758,-1.34 -14.864,-4.04 -21.625,-2.69 -10.813,2.69 -20.27,2.69 -31.086,2.69 -25.684,0 -51.364,-4.04 -77.047,-2.69 -14.864,0 -28.383,4.05 -43.246,5.4 -1.352,0 -1.352,2.7 -1.352,4.05 5.402,9.47 17.57,10.82 27.031,12.17 43.25,5.41 83.801,-9.46 128.403,0" /><path
         id="path74"
         style="fill:#ffffff;fill-opacity:1;fill-rule:nonzero;stroke:none"
         d="m 505.691,1362.32 c -5.41,-2.71 -8.109,-10.82 -14.867,-9.46 -1.355,0 -1.355,1.35 -1.355,2.7 10.812,17.57 29.742,24.33 50.011,22.98 5.407,0 10.813,8.1 17.571,10.81 2.707,1.35 6.758,0 9.465,-1.35 2.699,-2.7 -1.356,-6.76 -2.707,-10.82 -2.7,-2.7 -6.758,0 -9.461,-1.35 -4.055,-2.7 -6.758,-6.76 -8.11,-12.16 -1.351,-2.71 -5.402,-5.4 -8.109,-6.76 -10.809,-1.35 -21.625,10.81 -32.438,5.41" /><path
         id="path76"
         style="fill:#ffffff;fill-opacity:1;fill-rule:nonzero;stroke:none"
         d="m 1004.65,1215.54 c 45.72,-13.42 71.85,-11.61 112.4,-18.38 18.92,-4.05 32.44,-18.92 50.01,-29.73 14.86,-8.11 29.73,-14.87 45.95,-13.51 25.68,0 51.37,5.4 77.04,9.45 6.76,0 10.82,13.52 1.36,14.87 -6.76,0 -13.52,-6.76 -20.28,-5.41 -16.22,5.41 -32.44,1.35 -48.66,5.41 -6.76,2.7 -12.16,2.7 -18.92,5.41 -14.87,6.75 -25.68,17.57 -39.19,24.32 -10.82,4.06 -22.98,2.72 -33.8,6.76 0,0 0,2.7 1.35,4.06 39.2,12.16 77.05,-4.06 112.19,-20.27 21.62,-10.81 47.31,-8.12 67.58,5.41 9.46,5.4 -8.11,10.8 -13.52,12.16 -35.14,9.46 -71.18,10.36 -100.02,39.2 -3.02,3.01 -8.11,2.69 -12.16,4.05 -14.87,2.7 -28.39,-4.05 -43.25,-1.36 -12.17,2.71 -22.98,5.41 -32.44,12.17 -24.33,18.92 -48.66,37.85 -78.4,37.85 -2.7,0 -10.81,-4.06 -6.75,-5.41 25.68,-13.52 51.36,-28.38 70.28,-50.01 -27.03,-10.81 -53.51,-10.15 -82,-9.01 -35.83,0.78 -72.506,13.32 -103.596,25.49 -39.195,-33.79 -83.801,-62.18 -136.511,-70.29 -20.278,-2.7 -40.547,4.06 -59.469,-2.7 -6.758,-1.35 -5.41,-9.47 1.347,-12.17 10.817,-4.05 22.977,-6.76 35.145,-9.46 14.863,-2.71 29.73,0 44.602,2.7 33.792,8.11 63.523,25.69 94.613,43.25 39.199,2.71 77.258,8.67 115.099,-4.85" /><path
         id="path78"
         style="fill:#ffffff;fill-opacity:1;fill-rule:nonzero;stroke:none"
         d="m 1040,1317.45 c 74.35,-4.04 148.68,-35.13 223.02,-10.81 14.87,4.06 27.03,14.88 33.79,29.74 5.41,13.51 4.06,27.03 -4.05,39.2 -8.11,10.81 -20.27,18.92 -32.44,10.81 6.76,-6.76 16.22,-9.46 17.57,-18.92 4.05,-12.17 0,-24.33 -8.11,-33.79 -28.38,-29.74 -74.34,-22.98 -110.83,-13.51 -16.22,4.05 -31.09,6.75 -47.31,9.45 -28.38,5.41 -54.52,12.17 -85.15,13.52 -5.4,0.24 -13.76,1 -24.33,0.9 -6.551,0.1 -26.105,-0.65 -34.215,-0.65 -51.363,1.35 -101.375,-6.76 -152.73,-6.76 -63.531,0 -124.352,18.93 -185.176,39.2 -2.703,1.35 -4.055,2.71 -5.406,5.41 -1.352,6.76 5.406,12.17 10.816,12.17 6.758,1.34 13.512,0 18.922,-1.36 6.758,-1.35 17.57,9.47 12.16,14.87 -4.051,4.05 -14.867,0 -22.976,2.7 -22.973,6.76 -44.602,13.52 -68.93,10.82 -54.066,-9.47 -100.023,-31.09 -151.383,-45.96 -8.109,-2.7 -17.574,0 -25.683,-2.7 -4.051,-1.35 -6.758,-5.41 -8.106,-9.46 0,-4.05 5.406,-5.41 8.106,-6.76 13.519,-9.46 4.058,-22.98 0,-35.14 4.058,-1.35 8.109,1.35 12.164,2.7 18.925,2.7 36.492,-9.46 54.066,-4.05 31.09,10.81 74.34,18.91 97.32,-9.47 14.864,-17.56 22.973,-50.01 4.051,-66.23 -2.703,-4.05 -10.812,-4.05 -16.215,-2.69 -29.734,2.69 -55.422,13.5 -83.804,18.91 -12.168,2.71 -25.684,1.35 -37.844,1.35 -24.332,-1.35 -45.957,-10.81 -70.285,-16.21 -6.758,-2.71 -13.516,0 -20.274,-1.36 -2.699,-1.35 -6.758,-4.05 -8.109,-6.76 0,-4.05 2.703,-6.75 6.758,-8.1 18.922,-6.76 39.199,-10.82 58.121,-4.06 16.215,6.75 31.082,13.52 48.656,13.52 28.383,2.71 52.715,-16.22 81.098,-21.63 4.058,0 8.14,-0.47 12.164,0 22.976,2.71 51.359,-2.7 66.23,16.22 5.407,5.41 -5.406,13.52 -5.406,20.27 0,16.23 6.758,33.8 1.348,50.01 -18.922,50.02 -85.149,45.96 -127.051,31.09 -4.055,-1.35 -13.516,-2.7 -14.867,4.05 -2.707,6.76 8.109,6.76 10.812,12.17 0,1.35 0,2.71 0,4.06 -2.703,2.7 -6.758,4.06 -10.812,2.7 -10.813,-4.05 -21.625,-10.81 -31.09,-17.57 -9.457,-6.76 -4.055,10.81 -9.457,17.57 25.68,9.46 52.711,16.22 78.39,24.33 31.09,9.46 60.825,20.28 93.262,16.22 1.356,0 1.356,-2.71 1.356,-4.05 -5.407,-5.41 -5.407,-14.87 0,-17.58 101.371,-67.58 218.964,-64.88 332.5,-59.47 9.461,0 6.504,-7.68 -0.93,-14.44 -1,-0.91 3.629,-5.83 4.98,-5.83 8.114,2.7 13.516,12.16 21.625,13.51 20.278,6.76 40.555,6.76 60.824,8.12 10.34,-0.27 32.86,-0.27 32.86,-0.27" /><path
         id="path80"
         style="fill:#ffffff;fill-opacity:1;fill-rule:nonzero;stroke:none"
         d="m 1356.41,1064.44 27.94,37.79 H 202.125 v -37.79 H 1356.41" /><path
         id="path82"
         style="fill:#ffffff;fill-opacity:1;fill-rule:nonzero;stroke:none"
         d="m 257.992,1523.99 41.449,-40.55 H 1456.43 v 40.55 H 257.992" /><path
         id="path84"
         style="fill:#7b7979;fill-opacity:1;fill-rule:nonzero;stroke:none"
         d="m 3632.47,1786.76 c 64.33,0 116.48,52.15 116.48,116.48 0,64.33 -52.15,116.48 -116.48,116.48 -64.33,0 -116.48,-52.15 -116.48,-116.48 0,-64.33 52.15,-116.48 116.48,-116.48" /><path
         id="path86"
         style="fill:none;stroke:#7b7979;stroke-width:12.20199966;stroke-linecap:butt;stroke-linejoin:miter;stroke-miterlimit:4;stroke-dasharray:none;stroke-opacity:1"
         d="m 3632.47,1786.76 c 64.33,0 116.48,52.15 116.48,116.48 0,64.33 -52.15,116.48 -116.48,116.48 -64.33,0 -116.48,-52.15 -116.48,-116.48 0,-64.33 52.15,-116.48 116.48,-116.48 z" /><path
         id="path88"
         style="fill:#7b7979;fill-opacity:1;fill-rule:nonzero;stroke:none"
         d="m 2887.62,1568.72 c 4.42,-28.43 6.9,-60.35 6.9,-94.08 0,-33.33 -2.93,-65.41 -7.26,-93.58 l -0.25,-1.99 c -4.58,-27.47 -21.85,-48.81 -48.81,-48.81 h -20.34 c -26.95,0 -44.23,21.85 -48.81,48.81 l -0.1,1.5 c -4.41,28.44 -6.9,60.35 -6.9,94.07 0,33.34 2.43,64.9 6.74,93.08 l 0.26,2.51 c 1.03,13.54 6.54,25.79 15.18,34.64 l -149.72,126.47 c -61.97,-44.26 -102.37,-116.78 -102.37,-198.73 v -99.65 c 0,-134.78 109.25,-244.04 244.03,-244.04 h 99.65 c 134.78,0 244.04,109.26 244.04,244.04 v 99.65 c 0,134.78 -109.26,244.03 -244.04,244.03 h -99.65 c -52.82,0 -101.72,-16.77 -141.66,-45.3 l 149.72,-126.47 c 8.57,8.75 20.22,14.17 33.63,14.17 h 20.34 c 26.96,0 46.26,-21.86 48.81,-48.81" /><path
         id="path90"
         style="fill:none;stroke:#7b7979;stroke-width:12.20199966;stroke-linecap:butt;stroke-linejoin:miter;stroke-miterlimit:4;stroke-dasharray:none;stroke-opacity:1"
         d="m 2887.62,1568.72 c 4.42,-28.43 6.9,-60.35 6.9,-94.08 0,-33.33 -2.93,-65.41 -7.26,-93.58 l -0.25,-1.99 c -4.58,-27.47 -21.85,-48.81 -48.81,-48.81 h -20.34 c -26.95,0 -44.23,21.85 -48.81,48.81 l -0.1,1.5 c -4.41,28.44 -6.9,60.35 -6.9,94.07 0,33.34 2.43,64.9 6.74,93.08 l 0.26,2.51 c 1.03,13.54 6.54,25.79 15.18,34.64 l -149.72,126.47 c -61.97,-44.26 -102.37,-116.78 -102.37,-198.73 v -99.65 c 0,-134.78 109.25,-244.04 244.03,-244.04 h 99.65 c 134.78,0 244.04,109.26 244.04,244.04 v 99.65 c 0,134.78 -109.26,244.03 -244.04,244.03 h -99.65 c -52.82,0 -101.72,-16.77 -141.66,-45.3 l 149.72,-126.47 c 8.57,8.75 20.22,14.17 33.63,14.17 h 20.34 c 26.96,0 46.26,-21.86 48.81,-48.81" /><path
         id="path92"
         style="fill:#7b7979;fill-opacity:1;fill-rule:nonzero;stroke:none"
         d="m 3106.77,1201.63 h 345.72 c 10.17,0 11.18,11.19 11.18,11.19 v 94.57 c -77.27,0 -77.27,56.93 -77.27,56.93 v 646.7 c 0,12.21 -12.21,18.3 -12.21,18.3 l -262.33,-16.27 c -20.35,-4.06 -24.42,-18.3 -24.42,-18.3 v -58.98 c 0,-22.36 20.34,-20.33 20.34,-20.33 54.91,-2.03 52.87,-44.74 52.87,-44.74 v -506.38 c -15.97,-61.3 -67.11,-54.91 -67.11,-54.91 v -94.56 c 0,-15.25 13.23,-13.22 13.23,-13.22" /><path
         id="path94"
         style="fill:none;stroke:#7b7979;stroke-width:12.20199966;stroke-linecap:butt;stroke-linejoin:miter;stroke-miterlimit:4;stroke-dasharray:none;stroke-opacity:1"
         d="m 3106.77,1201.63 h 345.72 c 10.17,0 11.18,11.19 11.18,11.19 v 94.57 c -77.27,0 -77.27,56.93 -77.27,56.93 v 646.7 c 0,12.21 -12.21,18.3 -12.21,18.3 l -262.33,-16.27 c -20.35,-4.06 -24.42,-18.3 -24.42,-18.3 v -58.98 c 0,-22.36 20.34,-20.33 20.34,-20.33 54.91,-2.03 52.87,-44.74 52.87,-44.74 v -506.38 c -15.97,-61.3 -67.11,-54.91 -67.11,-54.91 v -94.56 c 0,-15.25 13.23,-13.22 13.23,-13.22 z" /><path
         id="path96"
         style="fill:#7b7979;fill-opacity:1;fill-rule:nonzero;stroke:none"
         d="m 3478.93,1201.63 h 345.72 c 10.16,0 11.19,11.19 11.19,11.19 v 94.57 c -77.29,0 -77.29,56.93 -77.29,56.93 v 392.49 c 0,12.21 -12.19,18.3 -12.19,18.3 l -247.82,-4.64 c -20.35,-4.07 -38.94,-29.92 -38.94,-29.92 v -58.98 c 0,-22.37 20.34,-20.34 20.34,-20.34 54.91,-2.03 52.87,-44.74 52.87,-44.74 v -252.17 c 0,-67.11 -67.11,-54.91 -67.11,-54.91 v -94.56 c 0,-15.25 13.23,-13.22 13.23,-13.22" /><path
         id="path98"
         style="fill:none;stroke:#7b7979;stroke-width:12.20199966;stroke-linecap:butt;stroke-linejoin:miter;stroke-miterlimit:4;stroke-dasharray:none;stroke-opacity:1"
         d="m 3478.93,1201.63 h 345.72 c 10.16,0 11.19,11.19 11.19,11.19 v 94.57 c -77.29,0 -77.29,56.93 -77.29,56.93 v 392.49 c 0,12.21 -12.19,18.3 -12.19,18.3 l -247.82,-4.64 c -20.35,-4.07 -38.94,-29.92 -38.94,-29.92 v -58.98 c 0,-22.37 20.34,-20.34 20.34,-20.34 54.91,-2.03 52.87,-44.74 52.87,-44.74 v -252.17 c 0,-67.11 -67.11,-54.91 -67.11,-54.91 v -94.56 c 0,-15.25 13.23,-13.22 13.23,-13.22 z" /><path
         id="path100"
         style="fill:#7b7979;fill-opacity:1;fill-rule:nonzero;stroke:none"
         d="m 4465.76,1620.56 v -256.24 c 0,0 0,-56.93 77.28,-56.93 v -94.57 c 0,0 -1.02,-11.19 -11.18,-11.19 h -322.85 c 0,0 -13.22,-2.03 -13.22,13.22 v 92.54 c 0,0 44.23,-1.03 44.23,56.93 v 203.36 c 0,0 -7.63,30.51 -27.96,16.27 0,0 -75.24,-52.87 -81.34,-178.95 v -40.68 c 0,0 2.03,-58.98 65.07,-56.93 v -94.57 c 0,0 -1.01,-11.19 -11.18,-11.19 h -333.52 c 0,0 -13.23,-2.03 -13.23,13.22 v 94.56 c 0,0 67.12,-12.2 67.12,54.91 v 506.38 c 0,0 2.03,42.71 -52.88,44.74 0,0 -20.33,-2.03 -20.33,20.33 v 58.98 c 0,0 18.59,22.95 38.92,27.02 l 247.83,7.55 c 0,0 12.2,-6.09 12.2,-18.3 V 1677.5 c 56.94,79.31 115.92,95.59 115.92,95.59 67.11,24.4 113.88,-2.04 113.88,-2.04 117.95,-30.5 105.24,-150.49 105.24,-150.49" /><path
         id="path102"
         style="fill:none;stroke:#7b7979;stroke-width:12.20199966;stroke-linecap:butt;stroke-linejoin:miter;stroke-miterlimit:4;stroke-dasharray:none;stroke-opacity:1"
         d="m 4465.76,1620.56 v -256.24 c 0,0 0,-56.93 77.28,-56.93 v -94.57 c 0,0 -1.02,-11.19 -11.18,-11.19 h -322.85 c 0,0 -13.22,-2.03 -13.22,13.22 v 92.54 c 0,0 44.23,-1.03 44.23,56.93 v 203.36 c 0,0 -7.63,30.51 -27.96,16.27 0,0 -75.24,-52.87 -81.34,-178.95 v -40.68 c 0,0 2.03,-58.98 65.07,-56.93 v -94.57 c 0,0 -1.01,-11.19 -11.18,-11.19 h -333.52 c 0,0 -13.23,-2.03 -13.23,13.22 v 94.56 c 0,0 67.12,-12.2 67.12,54.91 v 506.38 c 0,0 2.03,42.71 -52.88,44.74 0,0 -20.33,-2.03 -20.33,20.33 v 58.98 c 0,0 18.59,22.95 38.92,27.02 l 247.83,7.55 c 0,0 12.2,-6.09 12.2,-18.3 V 1677.5 c 56.94,79.31 115.92,95.59 115.92,95.59 67.11,24.4 113.88,-2.04 113.88,-2.04 117.95,-30.5 105.24,-150.49 105.24,-150.49 z" /><path
         id="path104"
         style="fill:#7b7979;fill-opacity:1;fill-rule:nonzero;stroke:none"
         d="m 4890.54,1201.63 h 276.06 c 10.18,0 11.19,11.19 11.19,11.19 v 94.57 c -77.28,0 -77.28,56.93 -77.28,56.93 l 0.13,384.36 c 0,12.2 -12.2,18.3 -12.2,18.3 l -244.91,-3.19 c -20.35,-4.07 -41.84,-31.38 -41.84,-31.38 v -58.98 c 0,-22.37 20.33,-20.33 20.33,-20.33 54.91,-2.04 52.88,-44.74 52.88,-44.74 v -18.31 l -0.12,-16.27 c -6.11,-126.08 -81.35,-178.95 -81.35,-178.95 -20.33,-14.24 -27.96,13.72 -27.96,13.72 l -0.39,2.55 v 333.51 c 0,12.2 -12.2,18.3 -12.2,18.3 l -244.9,-3.19 c -20.33,-4.07 -41.84,-31.38 -41.84,-31.38 v -58.97 c 0,-22.37 20.33,-20.34 20.33,-20.34 54.92,-2.03 52.89,-44.74 52.89,-44.74 l 0.37,-246.07 c 0,0 -15.61,-120.71 102.34,-151.22 0,0 56.94,-21.35 116.79,-1.3 0,0 58.97,16.27 115.92,95.57 l 2.53,-86.42 c 0,-15.25 13.23,-13.22 13.23,-13.22" /><path
         id="path106"
         style="fill:none;stroke:#7b7979;stroke-width:12.20199966;stroke-linecap:butt;stroke-linejoin:miter;stroke-miterlimit:4;stroke-dasharray:none;stroke-opacity:1"
         d="m 4890.54,1201.63 h 276.06 c 10.18,0 11.19,11.19 11.19,11.19 v 94.57 c -77.28,0 -77.28,56.93 -77.28,56.93 l 0.13,384.36 c 0,12.2 -12.2,18.3 -12.2,18.3 l -244.91,-3.19 c -20.35,-4.07 -41.84,-31.38 -41.84,-31.38 v -58.98 c 0,-22.37 20.33,-20.33 20.33,-20.33 54.91,-2.04 52.88,-44.74 52.88,-44.74 v -18.31 l -0.12,-16.27 c -6.11,-126.08 -81.35,-178.95 -81.35,-178.95 -20.33,-14.24 -27.96,13.72 -27.96,13.72 l -0.39,2.55 v 333.51 c 0,12.2 -12.2,18.3 -12.2,18.3 l -244.9,-3.19 c -20.33,-4.07 -41.84,-31.38 -41.84,-31.38 v -58.97 c 0,-22.37 20.33,-20.34 20.33,-20.34 54.92,-2.03 52.89,-44.74 52.89,-44.74 l 0.37,-246.07 c 0,0 -15.61,-120.71 102.34,-151.22 0,0 56.94,-21.35 116.79,-1.3 0,0 58.97,16.27 115.92,95.57 l 2.53,-86.42 c 0,-15.25 13.23,-13.22 13.23,-13.22" /><path
         id="path108"
         style="fill:#7b7979;fill-opacity:1;fill-rule:nonzero;stroke:none"
         d="m 5189.23,1201.63 h 345.73 c 10.16,0 11.18,11.19 11.18,11.19 v 94.57 c -77.27,0 -77.27,56.93 -77.27,56.93 v 646.7 c 0,12.21 -12.21,18.3 -12.21,18.3 l -249.27,-4.64 c -20.34,-4.07 -37.48,-29.93 -37.48,-29.93 v -58.98 c 0,-22.36 20.34,-20.33 20.34,-20.33 54.91,-2.03 52.87,-44.74 52.87,-44.74 v -506.38 c 0,-67.11 -67.1,-54.91 -67.1,-54.91 v -94.56 c 0,-15.25 13.21,-13.22 13.21,-13.22" /><path
         id="path110"
         style="fill:none;stroke:#7b7979;stroke-width:12.20199966;stroke-linecap:butt;stroke-linejoin:miter;stroke-miterlimit:4;stroke-dasharray:none;stroke-opacity:1"
         d="m 5189.23,1201.63 h 345.73 c 10.16,0 11.18,11.19 11.18,11.19 v 94.57 c -77.27,0 -77.27,56.93 -77.27,56.93 v 646.7 c 0,12.21 -12.21,18.3 -12.21,18.3 l -249.27,-4.64 c -20.34,-4.07 -37.48,-29.93 -37.48,-29.93 v -58.98 c 0,-22.36 20.34,-20.33 20.34,-20.33 54.91,-2.03 52.87,-44.74 52.87,-44.74 v -506.38 c 0,-67.11 -67.1,-54.91 -67.1,-54.91 v -94.56 c 0,-15.25 13.21,-13.22 13.21,-13.22 z" /><path
         id="path112"
         style="fill:#7b7979;fill-opacity:1;fill-rule:nonzero;stroke:none"
         d="m 5559.36,1201.63 h 345.72 c 10.16,0 11.18,11.19 11.18,11.19 v 94.57 c -77.28,0 -77.28,56.93 -77.28,56.93 v 646.7 c 0,12.21 -12.2,18.3 -12.2,18.3 l -249.26,-4.64 c -20.34,-4.07 -37.48,-29.93 -37.48,-29.93 v -58.98 c 0,-22.36 20.33,-20.33 20.33,-20.33 54.91,-2.03 52.88,-44.74 52.88,-44.74 v -506.38 c 0,-67.11 -67.11,-54.91 -67.11,-54.91 v -94.56 c 0,-15.25 13.22,-13.22 13.22,-13.22" /><path
         id="path114"
         style="fill:none;stroke:#7b7979;stroke-width:12.20199966;stroke-linecap:butt;stroke-linejoin:miter;stroke-miterlimit:4;stroke-dasharray:none;stroke-opacity:1"
         d="m 5559.36,1201.63 h 345.72 c 10.16,0 11.18,11.19 11.18,11.19 v 94.57 c -77.28,0 -77.28,56.93 -77.28,56.93 v 646.7 c 0,12.21 -12.2,18.3 -12.2,18.3 l -249.26,-4.64 c -20.34,-4.07 -37.48,-29.93 -37.48,-29.93 v -58.98 c 0,-22.36 20.33,-20.33 20.33,-20.33 54.91,-2.03 52.88,-44.74 52.88,-44.74 v -506.38 c 0,-67.11 -67.11,-54.91 -67.11,-54.91 v -94.56 c 0,-15.25 13.22,-13.22 13.22,-13.22 z" /><path
         id="path116"
         style="fill:#7b7979;fill-opacity:1;fill-rule:nonzero;stroke:none"
         d="m 2397.75,1684.62 h 77.28 c 22.37,0 43,24.69 43,24.69 l -14.53,213.24 c 0,24.41 -22.37,28.48 -22.37,28.48 -63.04,-4.07 -130.16,4.07 -130.16,4.07 -154.55,14.24 -242.29,11.04 -242.29,11.04 -152.53,-10.17 -174.61,-149.33 -174.61,-149.33 -28.47,-170.83 20.34,-223.71 20.34,-223.71 46.77,-103.71 254.21,-105.74 254.21,-105.74 128.12,-4.07 117.95,-81.34 117.95,-81.34 0,-79.32 -99.65,-65.09 -99.65,-65.09 -174.89,0 -164.73,132.19 -164.73,132.19 -2.03,36.6 -20.33,34.57 -20.33,34.57 l -64.21,11.62 c -36.89,0 -37.47,-44.15 -37.47,-44.15 v -258.27 c 2.03,-34.58 42.7,-26.45 42.7,-26.45 54.91,30.51 201.33,10.17 201.33,10.17 191.17,-28.47 288.78,46.78 288.78,46.78 87.45,79.31 69.15,215.57 69.15,215.57 -2.03,172.85 -128.12,189.12 -128.12,189.12 -107.78,28.47 -176.93,34.57 -176.93,34.57 -91.51,-2.03 -89.48,63.05 -89.48,63.05 0,83.38 95.58,73.21 95.58,73.21 136.25,10.17 132.19,-111.85 132.19,-111.85 -4.07,-16.27 22.37,-26.44 22.37,-26.44" /><path
         id="path118"
         style="fill:none;stroke:#7b7979;stroke-width:12.20199966;stroke-linecap:butt;stroke-linejoin:miter;stroke-miterlimit:4;stroke-dasharray:none;stroke-opacity:1"
         d="m 2397.75,1684.62 h 77.28 c 22.37,0 43,24.69 43,24.69 l -14.53,213.24 c 0,24.41 -22.37,28.48 -22.37,28.48 -63.04,-4.07 -130.16,4.07 -130.16,4.07 -154.55,14.24 -242.29,11.04 -242.29,11.04 -152.53,-10.17 -174.61,-149.33 -174.61,-149.33 -28.47,-170.83 20.34,-223.71 20.34,-223.71 46.77,-103.71 254.21,-105.74 254.21,-105.74 128.12,-4.07 117.95,-81.34 117.95,-81.34 0,-79.32 -99.65,-65.09 -99.65,-65.09 -174.89,0 -164.73,132.19 -164.73,132.19 -2.03,36.6 -20.33,34.57 -20.33,34.57 l -64.21,11.62 c -36.89,0 -37.47,-44.15 -37.47,-44.15 v -258.27 c 2.03,-34.58 42.7,-26.45 42.7,-26.45 54.91,30.51 201.33,10.17 201.33,10.17 191.17,-28.47 288.78,46.78 288.78,46.78 87.45,79.31 69.15,215.57 69.15,215.57 -2.03,172.85 -128.12,189.12 -128.12,189.12 -107.78,28.47 -176.93,34.57 -176.93,34.57 -91.51,-2.03 -89.48,63.05 -89.48,63.05 0,83.38 95.58,73.21 95.58,73.21 136.25,10.17 132.19,-111.85 132.19,-111.85 -4.07,-16.27 22.37,-26.44 22.37,-26.44 z" /><path
         id="path120"
         style="fill:#ffffff;fill-opacity:1;fill-rule:nonzero;stroke:none"
         d="m 2934.1,1591.96 c 4.42,-28.43 6.9,-60.35 6.9,-94.07 0,-33.34 -2.93,-65.41 -7.25,-93.59 l -0.26,-1.99 c -4.58,-27.47 -21.85,-48.81 -48.81,-48.81 h -20.33 c -26.96,0 -44.24,21.85 -48.81,48.81 l -0.11,1.51 c -4.41,28.43 -6.89,60.34 -6.89,94.07 0,33.33 2.42,64.9 6.74,93.07 l 0.26,2.51 c 1.02,13.54 6.53,25.79 15.18,34.64 l -149.73,126.47 c -61.97,-44.26 -102.37,-116.78 -102.37,-198.73 v -99.65 c 0,-134.78 109.26,-244.04 244.04,-244.04 h 99.64 c 134.78,0 244.05,109.26 244.05,244.04 v 99.65 c 0,134.78 -109.27,244.04 -244.05,244.04 h -99.64 c -52.83,0 -101.73,-16.78 -141.67,-45.31 l 149.73,-126.47 c 8.56,8.75 20.21,14.17 33.63,14.17 h 20.33 c 26.96,0 46.27,-21.86 48.81,-48.81" /><path
         id="path122"
         style="fill:#ffffff;fill-opacity:1;fill-rule:nonzero;stroke:none"
         d="m 3667.32,1810 c 64.34,0 116.49,52.15 116.49,116.48 0,64.33 -52.15,116.48 -116.49,116.48 -64.31,0 -116.47,-52.15 -116.47,-116.48 0,-64.33 52.16,-116.48 116.47,-116.48" /><path
         id="path124"
         style="fill:none;stroke:#7b7979;stroke-width:12.20199966;stroke-linecap:butt;stroke-linejoin:miter;stroke-miterlimit:4;stroke-dasharray:none;stroke-opacity:1"
         d="m 3667.32,1810 c 64.34,0 116.49,52.15 116.49,116.48 0,64.33 -52.15,116.48 -116.49,116.48 -64.31,0 -116.47,-52.15 -116.47,-116.48 0,-64.33 52.16,-116.48 116.47,-116.48 z" /><path
         id="path126"
         style="fill:#ffffff;fill-opacity:1;fill-rule:nonzero;stroke:none"
         d="m 3141.62,1224.88 h 345.73 c 10.17,0 11.19,11.18 11.19,11.18 v 94.56 c -77.29,0 -77.29,56.94 -77.29,56.94 v 646.71 c 0,12.2 -12.2,18.3 -12.2,18.3 l -262.33,-16.27 c -20.34,-4.07 -24.41,-18.3 -24.41,-18.3 v -58.98 c 0,-22.37 20.34,-20.34 20.34,-20.34 54.91,-2.03 52.87,-44.74 52.87,-44.74 v -506.38 c 0,-67.11 -67.11,-54.91 -67.11,-54.91 v -94.56 c 0,-15.25 13.21,-13.21 13.21,-13.21" /><path
         id="path128"
         style="fill:none;stroke:#7b7979;stroke-width:12.20199966;stroke-linecap:butt;stroke-linejoin:miter;stroke-miterlimit:4;stroke-dasharray:none;stroke-opacity:1"
         d="m 3141.62,1224.88 h 345.73 c 10.17,0 11.19,11.18 11.19,11.18 v 94.56 c -77.29,0 -77.29,56.94 -77.29,56.94 v 646.71 c 0,12.2 -12.2,18.3 -12.2,18.3 l -262.33,-16.27 c -20.34,-4.07 -24.41,-18.3 -24.41,-18.3 v -58.98 c 0,-22.37 20.34,-20.34 20.34,-20.34 54.91,-2.03 52.87,-44.74 52.87,-44.74 v -506.38 c 0,-67.11 -67.11,-54.91 -67.11,-54.91 v -94.56 c 0,-15.25 13.21,-13.21 13.21,-13.21 z" /><path
         id="path130"
         style="fill:#ffffff;fill-opacity:1;fill-rule:nonzero;stroke:none"
         d="m 3513.79,1224.88 h 345.72 c 10.17,0 11.18,11.18 11.18,11.18 v 94.56 c -77.27,0 -77.27,56.94 -77.27,56.94 v 392.49 c 0,12.21 -12.2,18.31 -12.2,18.31 l -262.35,-16.27 c -20.33,-4.07 -24.4,-18.3 -24.4,-18.3 v -58.98 c 0,-22.37 20.33,-20.33 20.33,-20.33 54.91,-2.04 52.89,-44.75 52.89,-44.75 v -252.17 c 0,-64.93 -67.12,-57.45 -67.12,-57.45 v -92.02 c 0,-15.25 13.22,-13.21 13.22,-13.21" /><path
         id="path132"
         style="fill:none;stroke:#7b7979;stroke-width:12.20199966;stroke-linecap:butt;stroke-linejoin:miter;stroke-miterlimit:4;stroke-dasharray:none;stroke-opacity:1"
         d="m 3513.79,1224.88 h 345.72 c 10.17,0 11.18,11.18 11.18,11.18 v 94.56 c -77.27,0 -77.27,56.94 -77.27,56.94 v 392.49 c 0,12.21 -12.2,18.31 -12.2,18.31 l -262.35,-16.27 c -20.33,-4.07 -24.4,-18.3 -24.4,-18.3 v -58.98 c 0,-22.37 20.33,-20.33 20.33,-20.33 54.91,-2.04 52.89,-44.75 52.89,-44.75 v -252.17 c 0,-64.93 -67.12,-57.45 -67.12,-57.45 v -92.02 c 0,-15.25 13.22,-13.21 13.22,-13.21 z" /><path
         id="path134"
         style="fill:#ffffff;fill-opacity:1;fill-rule:nonzero;stroke:none"
         d="m 4500.62,1643.8 v -256.24 c 0,0 0,-56.94 77.28,-56.94 v -94.56 c 0,0 -1.02,-11.18 -11.18,-11.18 h -322.85 c 0,0 -13.22,-2.04 -13.22,13.21 v 92.53 c 0,0 44.23,-1.02 44.23,56.94 v 203.37 c 0,0 -7.61,30.5 -27.96,16.27 0,0 -75.24,-52.88 -81.34,-178.96 v -40.68 c 0,0 2.03,-58.97 65.07,-56.94 v -94.56 c 0,0 -1.01,-11.18 -11.18,-11.18 h -333.51 c 0,0 -13.24,-2.04 -13.24,13.21 v 92.39 c 0,0 67.12,-7.49 67.12,57.08 v 506.38 c 0,0 2.04,42.71 -52.87,44.74 0,0 -20.34,-2.03 -20.34,20.34 V 2018 c 0,0 4.06,14.23 24.41,18.3 l 262.34,16.27 c 0,0 12.2,-6.1 12.2,-18.3 v -333.52 c 56.94,79.3 115.92,95.57 115.92,95.57 70.01,25.86 121.15,2.33 121.15,2.33 113.58,-46.49 97.97,-154.85 97.97,-154.85" /><path
         id="path136"
         style="fill:none;stroke:#7b7979;stroke-width:12.20199966;stroke-linecap:butt;stroke-linejoin:miter;stroke-miterlimit:4;stroke-dasharray:none;stroke-opacity:1"
         d="m 4500.62,1643.8 v -256.24 c 0,0 0,-56.94 77.28,-56.94 v -94.56 c 0,0 -1.02,-11.18 -11.18,-11.18 h -322.85 c 0,0 -13.22,-2.04 -13.22,13.21 v 92.53 c 0,0 44.23,-1.02 44.23,56.94 v 203.37 c 0,0 -7.61,30.5 -27.96,16.27 0,0 -75.24,-52.88 -81.34,-178.96 v -40.68 c 0,0 2.03,-58.97 65.07,-56.94 v -94.56 c 0,0 -1.01,-11.18 -11.18,-11.18 h -333.51 c 0,0 -13.24,-2.04 -13.24,13.21 v 92.39 c 0,0 67.12,-7.49 67.12,57.08 v 506.38 c 0,0 2.04,42.71 -52.87,44.74 0,0 -20.34,-2.03 -20.34,20.34 V 2018 c 0,0 4.06,14.23 24.41,18.3 l 262.34,16.27 c 0,0 12.2,-6.1 12.2,-18.3 v -333.52 c 56.94,79.3 115.92,95.57 115.92,95.57 70.01,25.86 121.15,2.33 121.15,2.33 113.58,-46.49 97.97,-154.85 97.97,-154.85 z" /><path
         id="path138"
         style="fill:#ffffff;fill-opacity:1;fill-rule:nonzero;stroke:none"
         d="m 4925.4,1224.88 h 276.06 c 10.18,0 11.2,11.18 11.2,11.18 v 94.56 c -77.29,0 -77.29,56.94 -77.29,56.94 l 0.14,384.36 c 0,12.21 -12.21,18.3 -12.21,18.3 l -262.34,-16.27 c -20.34,-4.06 -24.41,-18.3 -24.41,-18.3 v -58.97 c 0,-22.38 20.34,-20.34 20.34,-20.34 54.92,-2.04 52.88,-44.74 52.88,-44.74 v -18.31 l -0.13,-16.27 c -6.1,-126.07 -81.35,-178.95 -81.35,-178.95 -20.34,-14.23 -27.96,13.73 -27.96,13.73 l -0.39,2.54 v 333.52 c 0,12.19 -12.2,18.3 -12.2,18.3 l -262.33,-16.27 c -20.34,-4.07 -24.4,-18.3 -24.4,-18.3 v -58.98 c 0,-22.37 20.34,-20.34 20.34,-20.34 54.9,-2.03 52.87,-44.74 52.87,-44.74 l 0.38,-246.07 c 0,0 -15.62,-117.8 101.61,-152.67 0,0 55.48,-22.8 117.51,0.15 0,0 58.98,16.27 115.92,95.58 l 2.55,-86.43 c 0,-15.25 13.21,-13.21 13.21,-13.21" /><path
         id="path140"
         style="fill:none;stroke:#7b7979;stroke-width:12.20199966;stroke-linecap:butt;stroke-linejoin:miter;stroke-miterlimit:4;stroke-dasharray:none;stroke-opacity:1"
         d="m 4925.4,1224.88 h 276.06 c 10.18,0 11.2,11.18 11.2,11.18 v 94.56 c -77.29,0 -77.29,56.94 -77.29,56.94 l 0.14,384.36 c 0,12.21 -12.21,18.3 -12.21,18.3 l -262.34,-16.27 c -20.34,-4.06 -24.41,-18.3 -24.41,-18.3 v -58.97 c 0,-22.38 20.34,-20.34 20.34,-20.34 54.92,-2.04 52.88,-44.74 52.88,-44.74 v -18.31 l -0.13,-16.27 c -6.1,-126.07 -81.35,-178.95 -81.35,-178.95 -20.34,-14.23 -27.96,13.73 -27.96,13.73 l -0.39,2.54 v 333.52 c 0,12.19 -12.2,18.3 -12.2,18.3 l -262.33,-16.27 c -20.34,-4.07 -24.4,-18.3 -24.4,-18.3 v -58.98 c 0,-22.37 20.34,-20.34 20.34,-20.34 54.9,-2.03 52.87,-44.74 52.87,-44.74 l 0.38,-246.07 c 0,0 -15.62,-117.8 101.61,-152.67 0,0 55.48,-22.8 117.51,0.15 0,0 58.98,16.27 115.92,95.58 l 2.55,-86.43 c 0,-15.25 13.21,-13.21 13.21,-13.21" /><path
         id="path142"
         style="fill:#ffffff;fill-opacity:1;fill-rule:nonzero;stroke:none"
         d="m 5224.1,1224.88 h 345.71 c 10.17,0 11.19,11.18 11.19,11.18 v 94.56 c -77.27,0 -77.27,56.94 -77.27,56.94 v 646.71 c 0,12.2 -12.21,18.3 -12.21,18.3 l -262.34,-16.27 c -20.33,-4.07 -24.4,-18.3 -24.4,-18.3 v -58.98 c 0,-22.37 20.34,-20.34 20.34,-20.34 54.9,-2.03 52.87,-44.74 52.87,-44.74 v -506.38 c 0,-64.93 -67.11,-56.72 -67.11,-56.72 v -92.75 c 0,-15.25 13.22,-13.21 13.22,-13.21" /><path
         id="path144"
         style="fill:none;stroke:#7b7979;stroke-width:12.20199966;stroke-linecap:butt;stroke-linejoin:miter;stroke-miterlimit:4;stroke-dasharray:none;stroke-opacity:1"
         d="m 5224.1,1224.88 h 345.71 c 10.17,0 11.19,11.18 11.19,11.18 v 94.56 c -77.27,0 -77.27,56.94 -77.27,56.94 v 646.71 c 0,12.2 -12.21,18.3 -12.21,18.3 l -262.34,-16.27 c -20.33,-4.07 -24.4,-18.3 -24.4,-18.3 v -58.98 c 0,-22.37 20.34,-20.34 20.34,-20.34 54.9,-2.03 52.87,-44.74 52.87,-44.74 v -506.38 c 0,-64.93 -67.11,-56.72 -67.11,-56.72 v -92.75 c 0,-15.25 13.22,-13.21 13.22,-13.21 z" /><path
         id="path146"
         style="fill:#ffffff;fill-opacity:1;fill-rule:nonzero;stroke:none"
         d="m 5594.23,1224.88 h 345.71 c 10.17,0 11.18,11.18 11.18,11.18 v 94.56 c -77.27,0 -77.27,56.94 -77.27,56.94 v 646.71 c 0,12.2 -12.21,18.3 -12.21,18.3 l -262.33,-16.27 c -20.35,-4.07 -24.41,-18.3 -24.41,-18.3 v -58.98 c 0,-22.37 20.33,-20.34 20.33,-20.34 54.92,-2.03 52.89,-44.74 52.89,-44.74 v -506.38 c 0,-64.21 -67.12,-57.08 -67.12,-57.08 v -92.39 c 0,-15.25 13.23,-13.21 13.23,-13.21" /><path
         id="path148"
         style="fill:none;stroke:#7b7979;stroke-width:12.20199966;stroke-linecap:butt;stroke-linejoin:miter;stroke-miterlimit:4;stroke-dasharray:none;stroke-opacity:1"
         d="m 5594.23,1224.88 h 345.71 c 10.17,0 11.18,11.18 11.18,11.18 v 94.56 c -77.27,0 -77.27,56.94 -77.27,56.94 v 646.71 c 0,12.2 -12.21,18.3 -12.21,18.3 l -262.33,-16.27 c -20.35,-4.07 -24.41,-18.3 -24.41,-18.3 v -58.98 c 0,-22.37 20.33,-20.34 20.33,-20.34 54.92,-2.03 52.89,-44.74 52.89,-44.74 v -506.38 c 0,-64.21 -67.12,-57.08 -67.12,-57.08 v -92.39 c 0,-15.25 13.23,-13.21 13.23,-13.21 z" /><path
         id="path150"
         style="fill:#ffffff;fill-opacity:1;fill-rule:nonzero;stroke:none"
         d="m 2432.61,1707.86 h 77.28 c 22.37,0 28.47,30.51 28.47,30.51 v 207.43 c 0,24.4 -22.37,28.47 -22.37,28.47 -63.04,-4.07 -130.16,4.07 -130.16,4.07 -154.55,14.23 -248.1,-2.04 -248.1,-2.04 -152.52,-10.16 -168.79,-136.25 -168.79,-136.25 -28.48,-170.83 20.33,-223.7 20.33,-223.7 46.77,-103.71 254.21,-105.75 254.21,-105.75 128.12,-4.06 117.95,-81.34 117.95,-81.34 0,-79.31 -99.65,-65.08 -99.65,-65.08 -174.89,0 -164.72,132.18 -164.72,132.18 -2.04,36.61 -20.34,34.57 -20.34,34.57 h -77.28 c -32.54,0 -24.4,-32.53 -24.4,-32.53 v -258.27 c 2.03,-34.58 42.7,-26.45 42.7,-26.45 54.91,30.51 201.34,10.17 201.34,10.17 191.16,-28.47 288.78,46.78 288.78,46.78 87.44,79.32 69.14,215.57 69.14,215.57 -2.03,172.85 -128.12,189.12 -128.12,189.12 -107.79,28.47 -176.93,34.57 -176.93,34.57 -91.51,-2.03 -89.48,63.05 -89.48,63.05 0,83.38 95.58,73.21 95.58,73.21 136.26,10.17 132.19,-111.85 132.19,-111.85 -4.07,-16.27 22.37,-26.44 22.37,-26.44" /><path
         id="path152"
         style="fill:none;stroke:#7b7979;stroke-width:12.20199966;stroke-linecap:butt;stroke-linejoin:miter;stroke-miterlimit:4;stroke-dasharray:none;stroke-opacity:1"
         d="m 2432.61,1707.86 h 77.28 c 22.37,0 28.47,30.51 28.47,30.51 v 207.43 c 0,24.4 -22.37,28.47 -22.37,28.47 -63.04,-4.07 -130.16,4.07 -130.16,4.07 -154.55,14.23 -248.1,-2.04 -248.1,-2.04 -152.52,-10.16 -168.79,-136.25 -168.79,-136.25 -28.48,-170.83 20.33,-223.7 20.33,-223.7 46.77,-103.71 254.21,-105.75 254.21,-105.75 128.12,-4.06 117.95,-81.34 117.95,-81.34 0,-79.31 -99.65,-65.08 -99.65,-65.08 -174.89,0 -164.72,132.18 -164.72,132.18 -2.04,36.61 -20.34,34.57 -20.34,34.57 h -77.28 c -32.54,0 -24.4,-32.53 -24.4,-32.53 v -258.27 c 2.03,-34.58 42.7,-26.45 42.7,-26.45 54.91,30.51 201.34,10.17 201.34,10.17 191.16,-28.47 288.78,46.78 288.78,46.78 87.44,79.32 69.14,215.57 69.14,215.57 -2.03,172.85 -128.12,189.12 -128.12,189.12 -107.79,28.47 -176.93,34.57 -176.93,34.57 -91.51,-2.03 -89.48,63.05 -89.48,63.05 0,83.38 95.58,73.21 95.58,73.21 136.26,10.17 132.19,-111.85 132.19,-111.85 -4.07,-16.27 22.37,-26.44 22.37,-26.44 z" /><path
         id="path154"
         style="fill:none;stroke:#7b7979;stroke-width:12.20199966;stroke-linecap:butt;stroke-linejoin:miter;stroke-miterlimit:4;stroke-dasharray:none;stroke-opacity:1"
         d="m 2682.01,1755.6 c -61.97,-44.26 -102.37,-116.78 -102.37,-198.74 v -99.65 c 0,-134.78 109.26,-244.03 244.03,-244.03 h 99.66 c 134.77,0 244.03,109.25 244.03,244.03 v 99.65 c 0,134.78 -109.26,244.05 -244.03,244.05 h -99.66 c -52.82,0 -101.72,-16.78 -141.66,-45.31 z" /><path
         id="path156"
         style="fill:none;stroke:#7b7979;stroke-width:12.20199966;stroke-linecap:butt;stroke-linejoin:miter;stroke-miterlimit:4;stroke-dasharray:none;stroke-opacity:1"
         d="m 2934.51,1594.48 c -2.55,26.96 -21.85,48.81 -48.81,48.81 h -20.34 c -13.41,0 -25.06,-5.41 -33.63,-14.16 -8.64,-8.85 -14.15,-21.11 -15.18,-34.65 l -0.26,-2.5 c -4.31,-28.18 -6.73,-59.74 -6.73,-93.08 0,-33.72 2.48,-65.63 6.89,-94.07 l 0.1,-1.51 c 4.58,-26.95 21.86,-48.8 48.81,-48.8 h 20.34 c 26.96,0 44.23,21.34 48.81,48.8 l 0.26,2 c 4.31,28.17 7.25,60.25 7.25,93.58 0,33.73 -2.49,65.64 -6.9,94.08" /><path
         id="path158"
         style="fill:#ffffff;fill-opacity:1;fill-rule:nonzero;stroke:none"
         d="m 2103,948.07 c 9.88,-93.851 20.52,-187.308 30.77,-259.879 -6.84,0.379 -12.15,1.137 -17.86,1.137 -6.08,0 -12.16,-0.758 -17.85,-1.137 -6.46,76.36 -14.06,158.43 -19.38,196.047 -44.07,-78.636 -76.75,-139.429 -99.54,-191.859 h -4.18 l -20.9,42.93 c -24.32,50.152 -50.92,99.543 -76.75,148.929 -8.36,-74.09 -18.61,-149.316 -18.61,-196.047 -4.95,0.379 -9.12,1.137 -13.3,1.137 -4.95,0 -9.12,-0.758 -13.68,-1.137 9.88,61.168 32.67,219.989 36.47,259.879 h 9.88 c 30.4,-60.41 66.87,-131.851 107.53,-199.09 36.09,64.981 71.05,131.079 109.42,199.09 h 7.98" /><path
         id="path160"
         style="fill:#ffffff;fill-opacity:1;fill-rule:nonzero;stroke:none"
         d="m 2341.64,834.852 h 58.89 c 11.4,0 22.42,1.507 33.82,1.898 -0.39,-3.051 -1.14,-6.461 -1.14,-9.879 0,-3.043 0.75,-6.473 1.14,-10.652 -11.4,0.383 -22.42,1.91 -33.82,1.91 h -58.89 V 707.18 c 23.18,-0.75 45.97,0.761 68.77,1.519 11.78,0.379 23.18,1.531 34.96,3.422 -0.38,-4.18 -1.14,-7.601 -1.14,-11.391 0,-3.8 0.76,-7.601 1.14,-11.402 H 2308.21 V 948.07 h 134.88 c -0.38,-4.179 -1.14,-7.601 -1.14,-11.398 0,-3.801 0.76,-7.594 1.14,-11.391 -11.4,2.27 -22.8,3.41 -34.2,4.168 l -37.99,0.77 h -29.26 v -95.367" /><path
         id="path162"
         style="fill:#ffffff;fill-opacity:1;fill-rule:nonzero;stroke:none"
         d="m 2710.23,687.43 c -6.07,0.379 -11.39,1.14 -16.71,1.14 -5.7,0 -11.4,-0.761 -16.72,-1.14 v 242.41 c -38.37,0 -61.55,-2.289 -83.21,-4.559 0.38,3.797 1.14,7.59 1.14,11.391 0,3.797 -0.76,7.219 -1.14,11.398 h 196.05 c -0.38,-4.179 -1.13,-7.601 -1.13,-11.398 0,-3.801 0.75,-7.594 1.13,-11.391 -19,2.27 -45.59,4.559 -79.41,4.559 V 687.43" /><path
         id="path164"
         style="fill:#ffffff;fill-opacity:1;fill-rule:nonzero;stroke:none"
         d="m 2953.04,948.07 h 80.54 c 58.52,0 84.35,-19.379 84.35,-57.75 0,-44.082 -39.51,-65.351 -77.89,-72.191 l 78.27,-99.16 18.23,-21.278 7.23,-9.5 c -7.98,0.379 -14.82,1.137 -22.04,1.137 -7.22,0 -14.82,-0.758 -21.66,-1.137 -8.35,11.778 -15.96,22.418 -23.93,33.047 l -44.83,58.141 -30.4,35.711 h -14.44 V 688.191 c -6.08,0.379 -11.4,1.137 -16.71,1.137 -5.71,0 -11.41,-0.758 -16.72,-1.137 z m 33.43,-118.55 c 5.33,-0.379 29.63,-1.891 49.01,1.91 27.74,5.691 48.63,24.699 48.63,54.332 0,26.218 -13.29,43.316 -41.79,47.879 -14.05,2.269 -39.89,1.129 -55.85,0.379 v -104.5" /><path
         id="path166"
         style="fill:#ffffff;fill-opacity:1;fill-rule:nonzero;stroke:none"
         d="m 3288.53,818.129 c 0,83.211 61.92,135.641 140.57,135.641 71.43,0 144.01,-38.758 144.01,-129.942 0,-84.726 -60.04,-140.187 -144.77,-140.187 -83.96,0 -139.81,53.187 -139.81,134.488 z m 223.4,86.25 c -19,23.93 -48.63,36.851 -79.03,36.851 -66.87,0 -107.14,-50.531 -107.14,-127.66 0,-77.129 47.11,-117.398 103.72,-117.398 80.17,0 109.05,82.828 106.38,124.617 0,31.539 -4.17,58.133 -23.93,83.59" /><path
         id="path168"
         style="fill:#ffffff;fill-opacity:1;fill-rule:nonzero;stroke:none"
         d="m 3774.06,688.191 c -6.07,0.379 -11.38,1.137 -16.71,1.137 -5.7,0 -11.39,-0.758 -16.73,-1.137 V 948.07 h 68.02 c 73.71,0 98.02,-16.34 98.02,-62.308 0,-45.973 -27.72,-66.871 -81.3,-77.512 -17.1,-3.41 -41.8,-0.762 -51.3,-0.762 z m 0,134.118 c 9.5,-1.137 24.71,-1.137 37.62,0 38,3.8 60.04,27.742 60.04,61.55 0,25.832 -12.93,46.36 -42.94,49.012 -16.34,1.52 -43.31,1.149 -54.72,0.379 V 822.309" /><path
         id="path170"
         style="fill:#ffffff;fill-opacity:1;fill-rule:nonzero;stroke:none"
         d="m 4059.42,818.129 c 0,83.211 61.94,135.641 140.58,135.641 71.44,0 144,-38.758 144,-129.942 0,-84.726 -60.03,-140.187 -144.76,-140.187 -83.97,0 -139.82,53.187 -139.82,134.488 z m 223.41,86.25 c -19,23.93 -48.64,36.851 -79.03,36.851 -66.87,0 -107.15,-50.531 -107.15,-127.66 0,-77.129 47.12,-117.398 103.73,-117.398 80.17,0 109.04,82.828 106.39,124.617 0,31.539 -4.18,58.133 -23.94,83.59" /><path
         id="path172"
         style="fill:#ffffff;fill-opacity:1;fill-rule:nonzero;stroke:none"
         d="m 4548.77,707.18 c 23.17,-0.75 45.97,0.761 68.77,1.519 12.16,0.379 23.93,1.91 36.09,3.422 -0.38,-4.18 -1.14,-7.601 -1.14,-11.391 0,-3.8 0.76,-7.601 1.14,-11.402 h -138.3 V 948.07 c 5.32,-0.379 11.03,-1.129 16.72,-1.129 5.31,0 10.64,0.75 16.72,1.129 V 707.18" /><path
         id="path174"
         style="fill:#ffffff;fill-opacity:1;fill-rule:nonzero;stroke:none"
         d="m 4829.22,948.07 c 5.31,-0.379 11.01,-1.129 16.72,-1.129 5.31,0 10.63,0.75 16.71,1.129 V 688.191 c -6.08,0.379 -11.4,1.137 -16.71,1.137 -5.71,0 -11.41,-0.758 -16.72,-1.137 V 948.07" /><path
         id="path176"
         style="fill:#ffffff;fill-opacity:1;fill-rule:nonzero;stroke:none"
         d="m 5144.54,687.43 c -6.08,0.379 -11.4,1.14 -16.72,1.14 -5.69,0 -11.39,-0.761 -16.72,-1.14 v 242.41 c -38.38,0 -61.54,-2.289 -83.2,-4.559 0.37,3.797 1.14,7.59 1.14,11.391 0,3.797 -0.77,7.219 -1.14,11.398 h 196.05 c -0.39,-4.179 -1.14,-7.601 -1.14,-11.398 0,-3.801 0.75,-7.594 1.14,-11.391 -19,2.27 -45.6,4.559 -79.41,4.559 V 687.43" /><path
         id="path178"
         style="fill:#ffffff;fill-opacity:1;fill-rule:nonzero;stroke:none"
         d="m 5554.89,688.191 c -7.21,0.379 -13.3,1.137 -19.75,1.137 -7.23,0 -13.68,-0.758 -20.14,-1.137 -11.03,31.539 -24.7,68.008 -39.89,102.579 h -96.51 c -13.3,-33.43 -26.98,-66.872 -37.61,-102.579 -5.33,0.379 -9.51,1.137 -14.07,1.137 -4.93,0 -9.11,-0.758 -13.29,-1.137 l 118.54,265.579 h 8.74 z M 5427.23,904 5385.81,806.73 h 83.59 L 5427.23,904" /><path
         id="path180"
         style="fill:#ffffff;fill-opacity:1;fill-rule:nonzero;stroke:none"
         d="m 5933.37,688.191 h -11.4 c -4.18,5.321 -11.78,14.438 -19.76,23.168 L 5738.08,892.98 h -3.8 V 688.191 c -3.8,0.379 -7.22,1.137 -10.64,1.137 -3.8,0 -7.21,-0.758 -10.63,-1.137 V 948.07 h 14.8 l 180.48,-195.672 h 3.8 V 948.07 c 3.42,-0.379 6.85,-1.129 10.63,-1.129 3.43,0 6.85,0.75 10.65,1.129 V 688.191" /><path
         id="path182"
         style="fill:#ffffff;fill-opacity:1;fill-rule:nonzero;stroke:none"
         d="m 1851.09,518.07 h 74.48 c 55.85,0 84.72,-13.3 84.72,-52.429 0,-35.719 -26.59,-58.891 -60.03,-67.25 29.64,-1.903 69.53,-15.582 69.53,-59.661 0,-26.968 -12.16,-49 -34.19,-64.21 -22.42,-15.571 -53.96,-15.571 -80.18,-15.192 h -54.33 z m 33.44,-114.371 c 21.66,0 42.93,-1.508 63.45,7.981 18.62,8.742 29.26,25.461 29.26,45.98 0,36.09 -24.7,46.36 -64.59,46.36 h -28.12 z m 0,-130.308 h 36.09 c 37.24,0 63.83,24.32 63.83,58.89 0,44.828 -32.67,57.367 -78.64,57.367 h -21.28 V 273.391" /><path
         id="path184"
         style="fill:#ffffff;fill-opacity:1;fill-rule:nonzero;stroke:none"
         d="m 2093.48,388.129 c 0,83.211 61.93,135.641 140.58,135.641 71.43,0 144,-38.758 144,-129.942 0,-84.726 -60.04,-140.187 -144.76,-140.187 -83.97,0 -139.82,53.187 -139.82,134.488 z m 223.4,86.25 c -18.99,23.93 -48.63,36.851 -79.02,36.851 -66.87,0 -107.15,-50.531 -107.15,-127.66 0,-77.129 47.12,-117.398 103.73,-117.398 80.16,0 109.04,82.828 106.38,124.617 0,31.539 -4.18,58.133 -23.94,83.59" /><path
         id="path186"
         style="fill:#ffffff;fill-opacity:1;fill-rule:nonzero;stroke:none"
         d="m 2450.96,518.07 h 80.55 c 58.51,0 84.35,-19.379 84.35,-57.75 0,-44.082 -39.52,-65.351 -77.89,-72.191 l 78.27,-99.16 18.24,-21.278 7.21,-9.5 c -7.97,0.379 -14.81,1.137 -22.03,1.137 -7.22,0 -14.82,-0.758 -21.66,-1.137 -8.36,11.778 -15.95,22.418 -23.93,33.047 l -44.84,58.141 -30.39,35.711 H 2484.4 V 258.191 c -6.08,0.379 -11.4,1.137 -16.72,1.137 -5.7,0 -11.4,-0.758 -16.72,-1.137 z m 33.44,-118.55 c 5.32,-0.379 29.63,-1.891 49.01,1.91 27.74,5.691 48.64,24.699 48.64,54.332 0,26.218 -13.3,43.316 -41.8,47.879 -14.06,2.269 -39.89,1.129 -55.85,0.379 v -104.5" /><path
         id="path188"
         style="fill:#ffffff;fill-opacity:1;fill-rule:nonzero;stroke:none"
         d="m 2687.65,388.129 c 0,83.211 61.93,135.641 140.57,135.641 71.43,0 144.01,-38.758 144.01,-129.942 0,-84.726 -60.04,-140.187 -144.76,-140.187 -83.97,0 -139.82,53.187 -139.82,134.488 z m 223.4,86.25 c -18.99,23.93 -48.63,36.851 -79.03,36.851 -66.87,0 -107.14,-50.531 -107.14,-127.66 0,-77.129 47.11,-117.398 103.72,-117.398 80.17,0 109.05,82.828 106.39,124.617 0,31.539 -4.18,58.133 -23.94,83.59" /><path
         id="path190"
         style="fill:#ffffff;fill-opacity:1;fill-rule:nonzero;stroke:none"
         d="m 3080.09,372.551 c 0,-66.86 18.99,-101.442 83.96,-101.442 60.41,0 82.07,43.7 82.07,105.243 V 518.07 c 3.42,-0.379 6.84,-1.129 10.64,-1.129 3.43,0 6.84,0.75 10.63,1.129 V 366.852 c 0,-75.231 -44.07,-113.211 -110.93,-113.211 -37.61,0 -62.69,8.738 -82.45,26.589 -23.94,21.661 -26.98,55.469 -27.36,85.872 V 518.07 c 5.32,-0.379 11.03,-1.129 16.72,-1.129 5.32,0 10.64,0.75 16.72,1.129 V 372.551" /><path
         id="path192"
         style="fill:#ffffff;fill-opacity:1;fill-rule:nonzero;stroke:none"
         d="m 3593.38,472.469 c -21.28,24.332 -53.19,36.859 -85.49,36.859 -64.59,0 -109.43,-42.547 -109.43,-119.297 0,-75.222 38.76,-121.961 113.61,-121.961 20.51,0 41.79,3.801 59.27,12.91 v 97.661 c 5.32,-0.391 11.01,-1.153 16.72,-1.153 5.32,0 10.63,0.762 16.72,1.153 V 271.109 c -33.06,-11.398 -68.01,-17.468 -103.34,-17.468 -96.14,0 -140.21,57.359 -140.21,134.488 0,88.91 63.83,135.641 148.17,135.641 56.63,0 88.54,-16.719 96.89,-22.04 -3.42,-9.5 -6.08,-19.371 -8.73,-29.261 h -4.18" /><path
         id="path194"
         style="fill:#ffffff;fill-opacity:1;fill-rule:nonzero;stroke:none"
         d="m 3890.48,518.07 c 5.32,-0.379 11.01,-1.129 16.71,-1.129 5.33,0 10.64,0.75 16.72,1.129 V 258.191 c -6.08,0.379 -11.39,1.137 -16.72,1.137 -5.7,0 -11.39,-0.758 -16.71,-1.137 v 130.7 c -26.98,0.757 -53.19,1.898 -79.8,1.898 -26.59,0 -52.81,-1.141 -80.16,-1.898 v -130.7 c -6.08,0.379 -11.4,1.137 -16.71,1.137 -5.7,0 -11.41,-0.758 -16.72,-1.137 V 518.07 c 5.31,-0.379 11.02,-1.129 16.72,-1.129 5.31,0 10.63,0.75 16.71,1.129 V 409.031 c 27.35,-0.769 53.95,-1.91 80.16,-1.91 26.61,0 52.82,1.141 79.8,1.91 V 518.07" /><path
         id="path196"
         style="fill:#ffffff;fill-opacity:1;fill-rule:nonzero;stroke:none"
         d="m 4356.98,275.289 c -23.93,-15.961 -55.09,-21.648 -83.96,-21.648 -83.59,0 -133.74,52.8 -133.74,136.007 0,85.493 63.07,134.122 143.24,134.122 27.73,0 56.23,-6.461 81.68,-17.481 -3.8,-9.488 -6.08,-19.367 -7.97,-29.25 l -2.67,-0.391 c -5.32,6.84 -33.43,32.68 -72.56,32.68 -69.92,0 -104.49,-56.609 -104.49,-121.199 0,-72.949 41.8,-119.68 101.83,-119.68 41.04,0 72.94,24.321 80.55,30.77 l -1.91,-23.93" /><path
         id="path198"
         style="fill:#ffffff;fill-opacity:1;fill-rule:nonzero;stroke:none"
         d="m 4432.25,388.129 c 0,83.211 61.93,135.641 140.58,135.641 71.43,0 144,-38.758 144,-129.942 0,-84.726 -60.03,-140.187 -144.76,-140.187 -83.96,0 -139.82,53.187 -139.82,134.488 z m 223.4,86.25 c -18.99,23.93 -48.63,36.851 -79.03,36.851 -66.86,0 -107.14,-50.531 -107.14,-127.66 0,-77.129 47.12,-117.398 103.72,-117.398 80.18,0 109.05,82.828 106.4,124.617 0,31.539 -4.19,58.133 -23.95,83.59" /><path
         id="path200"
         style="fill:#ffffff;fill-opacity:1;fill-rule:nonzero;stroke:none"
         d="m 4801.89,372.551 c 0,-66.86 19,-101.442 83.97,-101.442 60.41,0 82.07,43.7 82.07,105.243 V 518.07 c 3.42,-0.379 6.84,-1.129 10.63,-1.129 3.42,0 6.85,0.75 10.64,1.129 V 366.852 c 0,-75.231 -44.06,-113.211 -110.94,-113.211 -37.62,0 -62.69,8.738 -82.45,26.589 -23.93,21.661 -26.97,55.469 -27.35,85.872 V 518.07 c 5.31,-0.379 11.01,-1.129 16.72,-1.129 5.31,0 10.63,0.75 16.71,1.129 V 372.551" /><path
         id="path202"
         style="fill:#ffffff;fill-opacity:1;fill-rule:nonzero;stroke:none"
         d="m 5309.48,258.191 h -11.39 c -4.19,5.321 -11.78,14.438 -19.77,23.168 L 5114.19,462.98 h -3.8 V 258.191 c -3.81,0.379 -7.23,1.137 -10.64,1.137 -3.79,0 -7.22,-0.758 -10.64,-1.137 V 518.07 h 14.83 L 5284.4,322.398 h 3.8 V 518.07 c 3.42,-0.379 6.84,-1.129 10.65,-1.129 3.42,0 6.83,0.75 10.63,1.129 V 258.191" /><path
         id="path204"
         style="fill:#ffffff;fill-opacity:1;fill-rule:nonzero;stroke:none"
         d="m 5616.84,275.289 c -23.94,-15.961 -55.1,-21.648 -83.97,-21.648 -83.59,0 -133.75,52.8 -133.75,136.007 0,85.493 63.08,134.122 143.24,134.122 27.75,0 56.24,-6.461 81.69,-17.481 -3.8,-9.488 -6.07,-19.367 -7.98,-29.25 l -2.65,-0.391 c -5.32,6.84 -33.44,32.68 -72.57,32.68 -69.91,0 -104.48,-56.609 -104.48,-121.199 0,-72.949 41.78,-119.68 101.81,-119.68 41.04,0 72.95,24.321 80.55,30.77 l -1.89,-23.93" /><path
         id="path206"
         style="fill:#ffffff;fill-opacity:1;fill-rule:nonzero;stroke:none"
         d="m 5697.04,518.07 c 5.31,-0.379 11.02,-1.129 16.72,-1.129 5.32,0 10.63,0.75 16.72,1.129 V 258.191 c -6.09,0.379 -11.4,1.137 -16.72,1.137 -5.7,0 -11.41,-0.758 -16.72,-1.137 V 518.07" /><path
         id="path208"
         style="fill:#ffffff;fill-opacity:1;fill-rule:nonzero;stroke:none"
         d="m 5848.96,277.18 c 23.19,-0.75 45.98,0.761 68.77,1.519 12.16,0.379 23.95,1.91 36.1,3.422 -0.37,-4.18 -1.13,-7.601 -1.13,-11.391 0,-3.8 0.76,-7.601 1.13,-11.402 H 5815.54 V 518.07 c 5.31,-0.379 11.01,-1.129 16.71,-1.129 5.32,0 10.64,0.75 16.71,1.129 V 277.18" /><path
         id="path210"
         style="fill:none;stroke:#ffffff;stroke-width:48.65800095;stroke-linecap:butt;stroke-linejoin:miter;stroke-miterlimit:4;stroke-dasharray:none;stroke-opacity:1"
         d="M 0,2259.33 H 5955" /><path
         id="path212"
         style="fill:none;stroke:#ffffff;stroke-width:48.65800095;stroke-linecap:butt;stroke-linejoin:miter;stroke-miterlimit:4;stroke-dasharray:none;stroke-opacity:1"
         d="M 0,24.3281 H 5955" /></g></g></svg>