<svg xmlns="http://www.w3.org/2000/svg" width="290" height="58" viewBox="0 0 290 58" preserveAspectRatio="xMinYMid" aria-hidden="true" focusable="false"><path d="M260.24,45.14h-1.77V55.68h5.35l.29-1.45h-3.87Zm-6.95,10.54h1.78V45.14h-1.78ZM225.75,45.14H224v7.6c0,1.69.86,3.12,3.61,3.12,2.3,0,3.62-1.2,3.62-3.14V45.14H229.5v7.08c0,1.4-.62,2.15-1.89,2.15s-1.86-.53-1.86-2.15ZM215,50.31c0-2.53.66-4,2.42-4s2.4,1.61,2.4,4.19c0,2.83-.8,4-2.36,4C215.65,54.53,215,53,215,50.31Zm-1.93.11c0,3.12,1.47,5.44,4.44,5.44,2.72,0,4.29-2.13,4.29-5.42,0-3.08-1.42-5.44-4.36-5.44C214.79,45,213,46.94,213,50.41Zm-7.82-3a6.71,6.71,0,0,0-.69,3.2,5.81,5.81,0,0,0,1.19,3.76A4.09,4.09,0,0,0,209,55.85a4.49,4.49,0,0,0,2.85-.93l-.82-1.11a2.76,2.76,0,0,1-1.87.67A2.43,2.43,0,0,1,206.86,53a6.09,6.09,0,0,1-.41-2.62A5.61,5.61,0,0,1,207,47.6a2.33,2.33,0,0,1,2.08-1.26,2.89,2.89,0,0,1,1.78.59l.8-1.16a4.14,4.14,0,0,0-2.6-.82A4.32,4.32,0,0,0,205.21,47.37Zm-12-2.22H191.5V55.68h1.72V50.81h3.57v4.87h1.75V45.14h-1.75v4.23h-3.57Zm-18.41,1.42c1.54,0,2.11.55,2.11,1.61a1.78,1.78,0,0,1-.47,1.28,2.26,2.26,0,0,1-1.71.44h-.89V46.56Zm.53-1.42h-3.19V55.68h1.71V51.13a.88.88,0,0,1,.68.32,11.69,11.69,0,0,1,1.78,2.61l.91,1.63h2.07l-1.54-2.53a8,8,0,0,0-1.62-2.1,2.69,2.69,0,0,0,2.6-2.89C178.74,46.51,177.69,45.14,175.35,45.14Zm-11.72,0h-1.75v7.6c0,1.69.86,3.12,3.61,3.12,2.3,0,3.62-1.2,3.62-3.14V45.14h-1.74v7.08c0,1.4-.62,2.15-1.89,2.15s-1.86-.53-1.86-2.15ZM154,46.57h1.35a2.85,2.85,0,0,1,1,.12,1.37,1.37,0,0,1,.85,1.31,1.58,1.58,0,0,1-.41,1.05c-.33.35-.65.39-1.28.39H154Zm0,4.33h1.53a3.13,3.13,0,0,1,1,.09,1.54,1.54,0,0,1,1,1.54c0,.94-.57,1.71-1.9,1.71h-1.57Zm1-5.76h-2.76V55.68h3c2.64,0,4.08-.9,4.08-3A2.61,2.61,0,0,0,157.25,50a2.29,2.29,0,0,0,1.8-2.3,2.34,2.34,0,0,0-1.18-2.07A4.46,4.46,0,0,0,155.12,45.14Zm-11,0h-2V55.68h1.71l-.06-5.1c0-.93,0-2-.11-2.92l0,0A31.89,31.89,0,0,0,145,50.73l2.34,4.95h1.83V45.14h-1.65l0,4.81c0,1,.11,2.47.15,3l0,0a19.19,19.19,0,0,0-1.07-2.71Zm-6.89,10.54H139V45.14h-1.78ZM113.51,45.14H108V55.68h1.74V50.85h2.92V49.44h-2.92V46.57h3.58ZM72.59,55.68h1.78V45.14H72.59ZM64,47.37a6.7,6.7,0,0,0-.7,3.2,5.81,5.81,0,0,0,1.19,3.76,4.09,4.09,0,0,0,3.31,1.52,4.5,4.5,0,0,0,2.85-.93l-.82-1.11a2.76,2.76,0,0,1-1.87.67A2.43,2.43,0,0,1,65.67,53a6.09,6.09,0,0,1-.41-2.62,5.61,5.61,0,0,1,.54-2.77,2.33,2.33,0,0,1,2.08-1.26,2.89,2.89,0,0,1,1.78.59l.8-1.16a4.15,4.15,0,0,0-2.6-.82A4.32,4.32,0,0,0,64,47.37Zm-20.4-2.22H41.9V55.68h1.72V50.81h3.56v4.87h1.75V45.14H47.19v4.23H43.62Zm-3.49,0H32.9v1.46h2.64v9.08h1.74V46.61h2.63ZM13.62,17.78l-.4-.3a47.39,47.39,0,0,1-5.29-4.69l-.28-.29S3,16.43,2.11,17.42l-.34.36.41.28a10.65,10.65,0,0,1,2,2.22,27.12,27.12,0,0,0,3,3.45l.32.3L8,23.45C9.2,22.08,13.62,17.78,13.62,17.78Zm35.65,8.71-.89,1.19c-1.8,2.42-6.7,5.9-11.49,5.66-5-.25-9.43-3.83-11.35-9.1,0-.16-.11-.33-.17-.5a3.09,3.09,0,0,1-.25-2c5.56-1.09,12.24-1.23,20.42-.42l.46,0-.18-1.66c-.12-1.07-.37-3.58-.37-3.58s-2,.67-2.39.71l-3.49.4a87.08,87.08,0,0,1-14.75.89c.59-4.16,1.89-6.93,4.07-8.7,4.56-3.18,11.35-5.09,16.25-2.16A7.72,7.72,0,0,1,46.52,8l.64.48-.32-6.38-.44.1a6.14,6.14,0,0,1-1.31.11c-.26,0-.54,0-.79,0l-1.13,0c-4.42.05-5.34.07-8.93,1C26.14,5.64,20.88,10.22,19,16.69a16.14,16.14,0,0,0,5.66,15.68,19.62,19.62,0,0,0,12,3.72,28.68,28.68,0,0,0,11.66-2.55l.23-.1v-.25C48.57,31.47,49.26,26.49,49.26,26.49Zm8.62,18.66h-5.8V55.68h6V54.19H53.85V50.9H57V49.45H53.82V46.57h3.84ZM74.71,22.31h0c-.93,3.36-4.34,7.42-8.46,8.4a17.14,17.14,0,0,1-6.72.44,174.06,174.06,0,0,1,.42-21.86l.14-2.37c4.67-1.21,10.12.49,12.77,4a12.62,12.62,0,0,1,2,4.5A13,13,0,0,1,74.71,22.31Zm5.9,1.31C83,18.19,80.6,11.66,77,8c-4-4.39-10-4.18-15.72-4a50.28,50.28,0,0,1-6.47,0l-.41,0-.48,30.78s1.84.06,2.64.06c7.9,0,19.59-1.72,24-11.17Zm2.67,23,.23-1.46H76.27v1.46h2.64v9.08h1.74V46.61ZM92.42,5l.08-.79-.44,0c-1.64.07-5.62.4-5.62.4l0,.37c.7,9.38-.68,29.92-.68,29.92l.79,0a16.55,16.55,0,0,0,2.85-.31c.5-.08,1.9-.27,1.9-.27V34A267.64,267.64,0,0,1,92.42,5ZM89.17,51.43l3.34-6.29h-2l-1.6,3.33c-.27.58-.57,1.32-.57,1.32s-.24-.69-.56-1.35l-1.57-3.31h-2.1l3.29,6.27v4.26h1.8Zm9.74-1.13c0-2.53.66-4,2.42-4s2.4,1.61,2.4,4.19c0,2.83-.8,4-2.36,4C99.59,54.53,98.91,53,98.91,50.31ZM97,50.41c0,3.12,1.47,5.44,4.44,5.44,2.72,0,4.29-2.13,4.29-5.42,0-3.08-1.42-5.44-4.36-5.44C98.73,45,97,46.94,97,50.41Zm27.27-46,.08-.56-.54.13a19.61,19.61,0,0,1-4.83.46h-.39s.23,11.16-.22,21c-4.13-5.83-8.21-12.23-11.58-18.13L104.64,4h-.19a17.72,17.72,0,0,0-2.78.2c-.83.1-1.6.18-2.25.19H99l0,.4c.06,1.37.05,20.88-1.85,29.71l-.07.68.8,0c.66,0,1.39-.07,2.11-.13a17,17,0,0,1,2.33-.12l.4,0s0-.8,0-1c-.1-5.63.06-10.74.51-16.53.12-.87.32-4.87.5-5.84,3.12,4.9,12.81,20.79,13.43,21.79,1.13,1.84,1.13,1.84,1.43,1.74,1.16-.38,3.84-1,3.84-1v-.31C122.38,29.48,123.78,7.76,124.24,4.41ZM119,55.68h6V54.19h-4.18V50.9h3.19V49.45h-3.22V46.57h3.84l.23-1.43H119Zm10.11-9.15h1.1a2.11,2.11,0,0,1,2,.91,5.43,5.43,0,0,1,.66,3.18c0,2.39-.74,3.62-2.58,3.62h-1.15Zm.42-1.38h-2.17V55.68h2.58c1.95,0,2.85-.35,3.73-1.48a6,6,0,0,0,1.1-3.76,5.66,5.66,0,0,0-1.13-3.81C132.63,45.51,131.47,45.14,129.5,45.14Zm16.73-17.4,0,.17a5.49,5.49,0,0,1-4.5,3.9,24.75,24.75,0,0,1-5.31.55l-1.34,0a146.54,146.54,0,0,1-.1-16.68c.09-2.69.18-5.46.19-8.25,2-.92,6.5-.51,7.59,1.05l.38.55a6.33,6.33,0,0,1-.55,6.6,9.06,9.06,0,0,1-5.23,3.64l-1,.24.79.8h.94c2.58-.06,5.25-.12,7,1.91A7.82,7.82,0,0,1,146.24,27.74Zm-1-9.56a8.79,8.79,0,0,0,3-3.82,8.73,8.73,0,0,0-.33-6c-3.23-5.29-9.63-4.55-14.77-4-1.07.12-3.38.33-3.38.33V5.1c-.1,3.58-.06,7.23,0,11.1a173.43,173.43,0,0,1-.47,19.14l0,.49.48-.07a48.49,48.49,0,0,1,6.44-.41c4.07-.07,7.92-.14,11.56-2.13l0,0c1.95-1.45,4.73-5.06,3.92-8.59A8.9,8.9,0,0,0,145.27,18.18Zm36-13.74.28-1-6.23.91,0,.35A5.31,5.31,0,0,1,174.9,7c-.94,2.21-5.6,15-7.71,18.64-3-5.55-5.46-11.38-7.52-16.36l-.32-.87a13.57,13.57,0,0,1-1.16-4.64V3.35s-4.87.27-6.85.5l-.84.1.63.57c.06.05.27.54.35.65,5.29,10.67,14.32,30.62,14.32,30.62l.9-.23s10.11-22.86,10.57-23.83A39.12,39.12,0,0,1,181.29,4.45Zm4,40.56a4,4,0,0,0-2.58.82,5.38,5.38,0,0,0-2,4.66,5.73,5.73,0,0,0,1.16,3.84,4.09,4.09,0,0,0,3.41,1.49,6.31,6.31,0,0,0,3.26-.88V50h-3.79l.24,1.43h1.78v2.74a2.85,2.85,0,0,1-1.39.33,2.6,2.6,0,0,1-2-.79,4.9,4.9,0,0,1-.77-3.11c0-2.47.71-4.17,2.64-4.17a3.41,3.41,0,0,1,2.21.81l.88-1.1A4.61,4.61,0,0,0,185.31,45Zm18.89-32.39a8.13,8.13,0,0,0-.84-5.75c-2.88-4.11-7.48-3.62-11.93-3.16a25.5,25.5,0,0,1-6.51.14l-.44-.07v.45c.12,9.26-.15,18.8-.84,30l0,.51,5.8-1.31v-.32c-.32-7.38.14-23.77.17-24.14.09-1.22,0-2.53,1.32-2.8,1.12-.26,4.79-.93,7,.81a5.78,5.78,0,0,1,1.7,5.51s-1.26,3.43-6.16,4.91c0,0-1,.26-1.56.32a2.35,2.35,0,0,0-1.48.7l-.3.28.29.28c2.6,2.5,4.48,4.88,7,7.18,1.6,1.46,3.18,2.92,4.77,4.39,2.8,2.62,6.08,6,6.08,6l3.85-.16c4-.18,4-.18,4-.59v-.23s-2.84-1.53-3-1.67a82.9,82.9,0,0,1-17.35-14.81c3.26-.79,7.36-2.37,8.49-6.51ZM239,30.69c.41-2.91.24-12.17.24-12.17l-.4,0c-2.11.1-8.13.9-8.13.9l1.71,1.15c2.36,1.45,2.18,3.77,2,6.23,0,.6,0,4.32-1.2,5.15-2.77,1.39-7.41,1.71-10.62-.4a20.6,20.6,0,0,1-2.85-2.37c-2.72-2.74-3.85-6.94-3.1-11.56.42-5.28,4.65-9.15,8.35-10.51A14.35,14.35,0,0,1,236.59,9l.62.45,0-1.54a17.27,17.27,0,0,1,0-4.13l0-.32c0-.26-2.23-.49-2.23-.49a26.2,26.2,0,0,0-16,2.92,15.27,15.27,0,0,0-8.34,13.47c-.4,4.3,1.81,10.33,7.65,14.11a19.57,19.57,0,0,0,9.95,2.79,13.88,13.88,0,0,0,8.69-2.79C237,33.4,238.94,32,239,30.69Zm.59,25h1.83V45.14h-1.65l0,4.81c0,1,.11,2.47.15,3l0,0a19.32,19.32,0,0,0-1.07-2.71l-2.54-5.15h-2V55.68H236l-.06-5.1c0-.93,0-2-.11-2.92l0,0a31.58,31.58,0,0,0,1.33,3.12Zm4.83-8.31a6.7,6.7,0,0,0-.7,3.2,5.81,5.81,0,0,0,1.19,3.76,4.09,4.09,0,0,0,3.31,1.52,4.5,4.5,0,0,0,2.85-.93l-.82-1.11a2.76,2.76,0,0,1-1.87.67A2.43,2.43,0,0,1,246.07,53a6.11,6.11,0,0,1-.41-2.62,5.61,5.61,0,0,1,.54-2.77,2.33,2.33,0,0,1,2.08-1.26,2.88,2.88,0,0,1,1.78.59l.8-1.16a4.15,4.15,0,0,0-2.6-.82A4.32,4.32,0,0,0,244.42,47.37ZM272,2.78l.07-.46-.46,0a37.75,37.75,0,0,0-5.42.94s-.11,4.63-.11,6.66,0,3.78-.08,5.65c-5.43.31-11.6.31-16.64.31a55.21,55.21,0,0,1,0-7.09c.07-1.86.15-3.78.06-5.64l0-.36-5.6-.08.06.44A108,108,0,0,1,244.22,21c-.12,3.37-.24,6.85-.17,10.26,0,.52-.16,2.55-.13,3l0,.35h5.29s-.26-9.57.15-14.83c5.49-1.28,11.81-.95,16.8-.49l-.13,14.42,5.5-.32V33c0-.07-.32-3.16-.33-4.13,0-1.69,0-3.37-.06-5C271.07,16.52,271,9.57,272,2.78Zm16.21,15-.34-.36c-.93-1-5.5-4.88-5.5-4.88l-.57.6a35.25,35.25,0,0,1-4.75,4.22l-.57.41.49.48c1.67,1.66,5.5,5.81,5.5,5.81l.46-.56a25.46,25.46,0,0,0,2.94-3.34,9.64,9.64,0,0,1,1.93-2.1Z" fill="#6d3465"/></svg>
